<?xml version="1.0" encoding="UTF-8"?>
<svg xmlns="http://www.w3.org/2000/svg" viewBox="0 0 1200 392" width="1200" height="392"><defs><filter id="glow-frame" x="-25%" y="-25%" width="150%" height="150%"><feGaussianBlur stdDeviation="4"/></filter><filter id="glow-dot" x="-300%" y="-300%" width="700%" height="700%"><feGaussianBlur stdDeviation="3"/></filter></defs><rect x="12" y="12" width="1176" height="368" rx="18" fill="none" stroke="#2DD4BF" stroke-width="8" opacity="0.55" filter="url(#glow-frame)"/><rect x="12" y="12" width="1176" height="368" rx="18" fill="#12100E" stroke="#2DD4BF" stroke-width="2"/><path d="M47.31 53.34L47.31 59L45.71 59L45.71 45.74L50.54 45.74Q52.38 45.74 53.35 46.75Q54.32 47.75 54.32 49.56L54.32 49.56Q54.32 51.17 53.48 52.14Q52.64 53.11 51.05 53.26L51.05 53.26L54.43 59L52.64 59L49.41 53.34L47.31 53.34ZM47.31 51.99L50.50 51.99Q51.51 51.99 52.07 51.49Q52.63 50.98 52.63 50.05L52.63 50.05L52.63 49.06Q52.63 48.13 52.07 47.63Q51.51 47.13 50.50 47.13L50.50 47.13L47.31 47.13L47.31 51.99ZM68.08 59L59.91 59L59.91 45.74L68.08 45.74L68.08 47.13L61.51 47.13L61.51 51.59L67.85 51.59L67.85 52.98L61.51 52.98L61.51 57.61L68.08 57.61L68.08 59ZM82.56 59L74.68 59L74.68 45.74L76.28 45.74L76.28 57.61L82.56 57.61L82.56 59ZM96.48 59L88.31 59L88.31 45.74L96.48 45.74L96.48 47.13L89.91 47.13L89.91 51.59L96.25 51.59L96.25 52.98L89.91 52.98L89.91 57.61L96.48 57.61L96.48 59ZM111.63 59L109.94 59L108.82 55.22L104.16 55.22L103.04 59L101.39 59L105.46 45.74L107.56 45.74L111.63 59ZM108.44 53.83L106.58 47.43L106.41 47.43L104.54 53.83L108.44 53.83ZM120.66 59.23L120.66 59.23Q118.88 59.23 117.74 58.57Q116.60 57.92 115.86 56.89L115.86 56.89L117.01 55.94Q117.79 56.91 118.66 57.38Q119.52 57.86 120.72 57.86L120.72 57.86Q122.16 57.86 122.92 57.20Q123.68 56.53 123.68 55.33L123.68 55.33Q123.68 54.36 123.13 53.82Q122.58 53.28 121.21 53.05L121.21 53.05L119.73 52.81Q118.76 52.63 118.11 52.29Q117.45 51.95 117.05 51.47Q116.65 50.98 116.48 50.40Q116.31 49.82 116.31 49.20L116.31 49.20Q116.31 47.37 117.51 46.44Q118.71 45.51 120.74 45.51L120.74 45.51Q122.33 45.51 123.43 46.04Q124.52 46.57 125.18 47.54L125.18 47.54L124.06 48.51Q123.51 47.79 122.73 47.33Q121.95 46.88 120.72 46.88L120.72 46.88Q119.37 46.88 118.65 47.45Q117.93 48.02 117.93 49.16L117.93 49.16Q117.93 50.05 118.47 50.61Q119.01 51.17 120.42 51.42L120.42 51.42L121.84 51.67Q122.81 51.84 123.47 52.18Q124.14 52.52 124.55 53.00Q124.96 53.47 125.13 54.06Q125.30 54.65 125.30 55.30L125.30 55.30Q125.30 57.14 124.09 58.18Q122.89 59.23 120.66 59.23ZM139.08 59L130.91 59L130.91 45.74L139.08 45.74L139.08 47.13L132.51 47.13L132.51 51.59L138.85 51.59L138.85 52.98L132.51 52.98L132.51 57.61L139.08 57.61L139.08 59ZM165.22 59L160.70 47.83L160.56 47.83L160.56 59L159.12 59L159.12 45.74L161.38 45.74L165.90 56.91L166.04 56.91L166.04 45.74L167.48 45.74L167.48 59L165.22 59ZM177.50 59.23L177.50 59.23Q176.28 59.23 175.41 58.76Q174.54 58.30 173.97 57.42Q173.40 56.55 173.13 55.28Q172.86 54.00 172.86 52.37L172.86 52.37Q172.86 50.75 173.13 49.47Q173.40 48.19 173.97 47.31Q174.54 46.44 175.41 45.98Q176.28 45.51 177.50 45.51L177.50 45.51Q178.72 45.51 179.59 45.98Q180.46 46.44 181.03 47.31Q181.60 48.19 181.87 49.47Q182.14 50.75 182.14 52.37L182.14 52.37Q182.14 54.00 181.87 55.28Q181.60 56.55 181.03 57.42Q180.46 58.30 179.59 58.76Q178.72 59.23 177.50 59.23ZM177.50 57.84L177.50 57.84Q178.30 57.84 178.85 57.53Q179.40 57.21 179.76 56.64Q180.12 56.07 180.28 55.27Q180.44 54.46 180.44 53.45L180.44 53.45L180.44 51.29Q180.44 50.30 180.28 49.48Q180.12 48.66 179.76 48.09Q179.40 47.52 178.85 47.21Q178.30 46.90 177.50 46.90L177.50 46.90Q176.70 46.90 176.15 47.21Q175.60 47.52 175.24 48.09Q174.88 48.66 174.72 49.48Q174.55 50.30 174.55 51.29L174.55 51.29L174.55 53.45Q174.55 54.46 174.72 55.27Q174.88 56.07 175.24 56.64Q175.60 57.21 176.15 57.53Q176.70 57.84 177.50 57.84ZM196.92 47.13L192.50 47.13L192.50 59L190.90 59L190.90 47.13L186.47 47.13L186.47 45.74L196.92 45.74L196.92 47.13ZM210.08 59L201.91 59L201.91 45.74L210.08 45.74L210.08 47.13L203.51 47.13L203.51 51.59L209.85 51.59L209.85 52.98L203.51 52.98L203.51 57.61L210.08 57.61L210.08 59ZM220.06 59.23L220.06 59.23Q218.28 59.23 217.14 58.57Q216.00 57.92 215.25 56.89L215.25 56.89L216.41 55.94Q217.19 56.91 218.06 57.38Q218.92 57.86 220.12 57.86L220.12 57.86Q221.56 57.86 222.32 57.20Q223.08 56.53 223.08 55.33L223.08 55.33Q223.08 54.36 222.53 53.82Q221.98 53.28 220.61 53.05L220.61 53.05L219.13 52.81Q218.16 52.63 217.51 52.29Q216.85 51.95 216.45 51.47Q216.05 50.98 215.88 50.40Q215.71 49.82 215.71 49.20L215.71 49.20Q215.71 47.37 216.91 46.44Q218.10 45.51 220.14 45.51L220.14 45.51Q221.73 45.51 222.83 46.04Q223.92 46.57 224.58 47.54L224.58 47.54L223.46 48.51Q222.91 47.79 222.13 47.33Q221.35 46.88 220.12 46.88L220.12 46.88Q218.77 46.88 218.05 47.45Q217.33 48.02 217.33 49.16L217.33 49.16Q217.33 50.05 217.87 50.61Q218.41 51.17 219.81 51.42L219.81 51.42L221.24 51.67Q222.21 51.84 222.87 52.18Q223.54 52.52 223.95 53.00Q224.36 53.47 224.53 54.06Q224.70 54.65 224.70 55.30L224.70 55.30Q224.70 57.14 223.49 58.18Q222.28 59.23 220.06 59.23Z" fill="#2DD4BF"/><circle cx="1086" cy="52" r="5.5" fill="#5EEAD4" opacity="0.45" filter="url(#glow-dot)"/><circle cx="1086" cy="52" r="5.5" fill="#5EEAD4"/><path d="M1109.45 59L1108.40 59Q1107.51 59 1107.13 58.54Q1106.75 58.09 1106.66 57.40L1106.66 57.40L1106.56 57.40Q1106.24 58.26 1105.53 58.74Q1104.81 59.23 1103.62 59.23L1103.62 59.23Q1102.08 59.23 1101.17 58.43Q1100.25 57.63 1100.25 56.24L1100.25 56.24Q1100.25 54.88 1101.25 54.14Q1102.25 53.40 1104.47 53.40L1104.47 53.40L1106.56 53.40L1106.56 52.43Q1106.56 51.34 1105.95 50.80Q1105.35 50.26 1104.22 50.26L1104.22 50.26Q1103.24 50.26 1102.61 50.65Q1101.98 51.04 1101.60 51.70L1101.60 51.70L1100.58 50.94Q1100.77 50.56 1101.09 50.20Q1101.41 49.84 1101.89 49.57Q1102.36 49.29 1102.97 49.13Q1103.58 48.97 1104.32 48.97L1104.32 48.97Q1106.05 48.97 1107.07 49.84Q1108.08 50.72 1108.08 52.27L1108.08 52.27L1108.08 57.67L1109.45 57.67L1109.45 59ZM1103.88 57.95L1103.88 57.95Q1104.47 57.95 1104.96 57.81Q1105.44 57.67 1105.80 57.43Q1106.16 57.20 1106.36 56.86Q1106.56 56.53 1106.56 56.15L1106.56 56.15L1106.56 54.53L1104.47 54.53Q1103.10 54.53 1102.48 54.91Q1101.85 55.30 1101.85 56.02L1101.85 56.02L1101.85 56.42Q1101.85 57.18 1102.39 57.57Q1102.93 57.95 1103.88 57.95ZM1112.39 59L1112.39 44.94L1113.92 44.94L1113.92 53.81L1113.99 53.81L1115.70 52.20L1118.97 49.20L1120.83 49.20L1116.77 53.03L1121.31 59L1119.43 59L1115.61 53.91L1113.92 55.45L1113.92 59L1112.39 59ZM1131.79 59L1127.98 59Q1126.85 59 1126.33 58.37Q1125.81 57.75 1125.81 56.76L1125.81 56.76L1125.81 50.49L1122.54 50.49L1122.54 49.20L1124.97 49.20Q1125.47 49.20 1125.67 49.00Q1125.87 48.80 1125.87 48.30L1125.87 48.30L1125.87 45.74L1127.33 45.74L1127.33 49.20L1131.79 49.20L1131.79 50.49L1127.33 50.49L1127.33 57.71L1131.79 57.71L1131.79 59ZM1139.51 47.03L1139.51 47.03Q1138.84 47.03 1138.58 46.75Q1138.31 46.48 1138.31 46.06L1138.31 46.06L1138.31 45.76Q1138.31 45.34 1138.58 45.06Q1138.84 44.79 1139.51 44.79L1139.51 44.79Q1140.17 44.79 1140.44 45.06Q1140.71 45.34 1140.71 45.76L1140.71 45.76L1140.71 46.06Q1140.71 46.48 1140.44 46.75Q1140.17 47.03 1139.51 47.03ZM1135.21 59L1135.21 57.71L1138.75 57.71L1138.75 50.49L1135.21 50.49L1135.21 49.20L1140.27 49.20L1140.27 57.71L1143.57 57.71L1143.57 59L1135.21 59ZM1151.27 59L1149.33 59L1145.82 49.20L1147.36 49.20L1148.76 53.30L1150.28 57.73L1150.36 57.73L1151.88 53.30L1153.28 49.20L1154.78 49.20L1151.27 59Z" fill="#5EEAD4"/><circle cx="51" cy="96" r="7" fill="#E0A34B" opacity="0.4" filter="url(#glow-dot)"/><circle cx="51" cy="96" r="7" fill="#E0A34B"/><path d="M95.94 90.82L95.94 90.82L92.06 90.82Q91.59 88.35 89.74 87.03Q87.90 85.70 85.46 85.70L85.46 85.70Q83.27 85.70 81.53 86.81Q79.79 87.91 78.79 90.05Q77.79 92.18 77.79 95.27L77.79 95.27Q77.79 98.38 78.80 100.52Q79.81 102.66 81.54 103.75Q83.27 104.84 85.45 104.84L85.45 104.84Q87.86 104.84 89.71 103.54Q91.56 102.23 92.06 99.80L92.06 99.80L95.94 99.81Q95.53 102.32 94.10 104.25Q92.67 106.17 90.44 107.26Q88.22 108.35 85.42 108.35L85.42 108.35Q82.12 108.35 79.53 106.78Q76.95 105.20 75.46 102.27Q73.98 99.34 73.98 95.27L73.98 95.27Q73.98 91.20 75.47 88.27Q76.96 85.34 79.54 83.77Q82.13 82.20 85.42 82.20L85.42 82.20Q88.12 82.20 90.34 83.22Q92.56 84.24 94.03 86.17Q95.50 88.10 95.94 90.82ZM103.45 96.66L103.45 96.66L103.45 108L99.74 108L99.74 82.55L103.41 82.55L103.41 92.02L103.64 92.02Q104.31 90.46 105.69 89.56Q107.07 88.66 109.30 88.66L109.30 88.66Q112.24 88.66 114.04 90.48Q115.83 92.29 115.83 95.86L115.83 95.86L115.83 108L112.12 108L112.12 96.30Q112.12 94.20 111.04 93.04Q109.96 91.88 108.03 91.88L108.03 91.88Q106.04 91.88 104.75 93.13Q103.45 94.38 103.45 96.66ZM125.86 108.42L125.86 108.42Q124.05 108.42 122.59 107.75Q121.13 107.08 120.27 105.78Q119.41 104.48 119.41 102.61L119.41 102.61Q119.41 100.98 120.04 99.93Q120.67 98.89 121.72 98.28Q122.77 97.67 124.07 97.37Q125.38 97.06 126.73 96.90L126.73 96.90Q128.45 96.70 129.51 96.57Q130.57 96.44 131.06 96.14Q131.55 95.84 131.55 95.17L131.55 95.17L131.55 95.09Q131.55 93.46 130.64 92.56Q129.73 91.67 127.92 91.67L127.92 91.67Q126.05 91.67 124.97 92.49Q123.90 93.31 123.49 94.33L123.49 94.33L120.00 93.53Q120.93 90.92 123.11 89.79Q125.29 88.66 127.88 88.66L127.88 88.66Q129.02 88.66 130.30 88.93Q131.58 89.19 132.72 89.91Q133.85 90.62 134.57 91.93Q135.28 93.23 135.28 95.32L135.28 95.32L135.28 108L131.65 108L131.65 105.39L131.50 105.39Q130.97 106.46 129.60 107.44Q128.24 108.42 125.86 108.42ZM126.67 105.44L126.67 105.44Q128.22 105.44 129.32 104.83Q130.41 104.22 130.99 103.23Q131.57 102.25 131.57 101.11L131.57 101.11L131.57 98.65Q131.31 98.91 130.42 99.11Q129.54 99.31 128.56 99.45Q127.58 99.59 126.97 99.67L126.97 99.67Q125.35 99.88 124.20 100.52Q123.05 101.16 123.05 102.66L123.05 102.66Q123.05 104.04 124.07 104.74Q125.09 105.44 126.67 105.44ZM143.45 108L139.73 108L139.73 88.91L143.32 88.91L143.32 91.94L143.52 91.94Q144.04 90.40 145.37 89.51Q146.69 88.62 148.37 88.62L148.37 88.62Q148.73 88.62 149.20 88.65Q149.67 88.67 149.95 88.71L149.95 88.71L149.95 92.26Q149.72 92.20 149.16 92.12Q148.59 92.04 148.01 92.04L148.01 92.04Q146.03 92.04 144.74 93.25Q143.45 94.46 143.45 96.34L143.45 96.34L143.45 108ZM157.67 88.91L161.59 88.91L161.59 91.89L157.67 91.89L157.67 102.39Q157.67 104.01 158.36 104.48Q159.05 104.94 159.96 104.94L159.96 104.94Q160.41 104.94 160.74 104.88Q161.08 104.82 161.27 104.78L161.27 104.78L161.94 107.85Q161.61 107.98 161.01 108.11Q160.41 108.24 159.53 108.25L159.53 108.25Q158.06 108.27 156.79 107.73Q155.51 107.18 154.73 106.04Q153.96 104.89 153.96 103.17L153.96 103.17L153.96 91.89L151.16 91.89L151.16 88.91L153.96 88.91L153.96 84.34L157.67 84.34L157.67 88.91ZM177.28 100.08L177.28 100.08L177.28 88.91L181.01 88.91L181.01 108L177.36 108L177.36 104.69L177.16 104.69Q176.50 106.22 175.05 107.24Q173.61 108.25 171.45 108.25L171.45 108.25Q168.71 108.25 166.95 106.43Q165.19 104.61 165.19 101.05L165.19 101.05L165.19 88.91L168.91 88.91L168.91 100.60Q168.91 102.56 169.99 103.71Q171.07 104.87 172.80 104.87L172.80 104.87Q173.84 104.87 174.88 104.35Q175.92 103.82 176.61 102.76Q177.30 101.70 177.28 100.08ZM185.50 82.55L189.21 82.55L189.21 108L185.50 108L185.50 82.55ZM199.27 108.42L199.27 108.42Q197.45 108.42 195.99 107.75Q194.53 107.08 193.67 105.78Q192.81 104.48 192.81 102.61L192.81 102.61Q192.81 100.98 193.44 99.93Q194.07 98.89 195.12 98.28Q196.17 97.67 197.48 97.37Q198.78 97.06 200.14 96.90L200.14 96.90Q201.85 96.70 202.91 96.57Q203.98 96.44 204.47 96.14Q204.96 95.84 204.96 95.17L204.96 95.17L204.96 95.09Q204.96 93.46 204.04 92.56Q203.13 91.67 201.33 91.67L201.33 91.67Q199.45 91.67 198.38 92.49Q197.30 93.31 196.89 94.33L196.89 94.33L193.40 93.53Q194.33 90.92 196.51 89.79Q198.69 88.66 201.28 88.66L201.28 88.66Q202.42 88.66 203.70 88.93Q204.98 89.19 206.12 89.91Q207.26 90.62 207.97 91.93Q208.69 93.23 208.69 95.32L208.69 95.32L208.69 108L205.06 108L205.06 105.39L204.91 105.39Q204.37 106.46 203.01 107.44Q201.64 108.42 199.27 108.42ZM200.07 105.44L200.07 105.44Q201.63 105.44 202.72 104.83Q203.81 104.22 204.39 103.23Q204.97 102.25 204.97 101.11L204.97 101.11L204.97 98.65Q204.71 98.91 203.83 99.11Q202.94 99.31 201.96 99.45Q200.98 99.59 200.37 99.67L200.37 99.67Q198.76 99.88 197.61 100.52Q196.46 101.16 196.46 102.66L196.46 102.66Q196.46 104.04 197.48 104.74Q198.49 105.44 200.07 105.44Z" fill="#FAF6F0"/><path d="M50.37 143.07L45.11 143.07L45.11 141.27L57.66 141.27L57.66 143.07L52.40 143.07L52.40 158L50.37 158L50.37 143.07ZM68.44 152.87L68.44 152.87L68.44 145.45L70.37 145.45L70.37 158L68.44 158L68.44 155.88L68.31 155.88Q67.87 156.83 66.93 157.50Q66.00 158.16 64.58 158.16L64.58 158.16Q62.82 158.16 61.67 157.00Q60.53 155.83 60.53 153.43L60.53 153.43L60.53 145.45L62.46 145.45L62.46 153.30Q62.46 154.67 63.23 155.48Q64.00 156.30 65.20 156.30L65.20 156.30Q65.92 156.30 66.67 155.93Q67.42 155.57 67.93 154.81Q68.44 154.05 68.44 152.87ZM75.82 158L73.89 158L73.89 145.45L75.76 145.45L75.76 147.35L75.89 147.35Q76.23 146.42 77.13 145.84Q78.03 145.26 79.15 145.26L79.15 145.26Q79.37 145.26 79.68 145.27Q80.00 145.27 80.17 145.29L80.17 145.29L80.17 147.25Q80.07 147.23 79.72 147.17Q79.37 147.12 78.99 147.12L78.99 147.12Q77.62 147.12 76.72 147.95Q75.82 148.79 75.82 150.06L75.82 150.06L75.82 158ZM84.38 150.45L84.38 150.45L84.38 158L82.45 158L82.45 145.45L84.32 145.45L84.32 147.41L84.48 147.41Q84.92 146.46 85.82 145.88Q86.72 145.29 88.14 145.29L88.14 145.29Q90.04 145.29 91.21 146.46Q92.38 147.63 92.38 150.03L92.38 150.03L92.38 158L90.46 158L90.46 150.16Q90.46 148.68 89.69 147.85Q88.92 147.02 87.58 147.02L87.58 147.02Q86.20 147.02 85.29 147.92Q84.38 148.81 84.38 150.45ZM104.80 148.26L104.80 148.26L103.07 148.75Q102.81 148.10 102.22 147.53Q101.62 146.96 100.36 146.96L100.36 146.96Q99.20 146.96 98.44 147.48Q97.68 148.01 97.68 148.82L97.68 148.82Q97.68 149.54 98.20 149.95Q98.72 150.37 99.83 150.65L99.83 150.65L101.70 151.11Q105.03 151.92 105.03 154.50L105.03 154.50Q105.03 155.58 104.41 156.43Q103.80 157.28 102.69 157.77Q101.59 158.26 100.13 158.26L100.13 158.26Q98.21 158.26 96.95 157.43Q95.69 156.60 95.36 154.99L95.36 154.99L97.19 154.54Q97.70 156.56 100.10 156.56L100.10 156.56Q101.44 156.56 102.24 155.99Q103.04 155.41 103.04 154.60L103.04 154.60Q103.04 153.27 101.17 152.84L101.17 152.84L99.08 152.35Q97.36 151.94 96.55 151.08Q95.75 150.22 95.75 148.92L95.75 148.92Q95.75 147.86 96.35 147.04Q96.95 146.22 97.99 145.76Q99.03 145.29 100.36 145.29L100.36 145.29Q102.22 145.29 103.28 146.11Q104.35 146.92 104.80 148.26ZM116.33 158L114.40 158L114.40 145.45L116.27 145.45L116.27 147.41L116.43 147.41Q116.82 146.41 117.70 145.85Q118.57 145.29 119.80 145.29L119.80 145.29Q121.04 145.29 121.87 145.85Q122.69 146.41 123.16 147.41L123.16 147.41L123.29 147.41Q123.77 146.44 124.74 145.87Q125.70 145.29 127.05 145.29L127.05 145.29Q128.73 145.29 129.80 146.34Q130.87 147.39 130.87 149.60L130.87 149.60L130.87 158L128.94 158L128.94 149.60Q128.94 148.22 128.18 147.62Q127.42 147.02 126.39 147.02L126.39 147.02Q125.07 147.02 124.34 147.82Q123.62 148.62 123.62 149.83L123.62 149.83L123.62 158L121.66 158L121.66 149.41Q121.66 148.34 120.96 147.68Q120.27 147.02 119.17 147.02L119.17 147.02Q118.42 147.02 117.77 147.42Q117.12 147.82 116.73 148.53Q116.33 149.24 116.33 150.16L116.33 150.16L116.33 158ZM139.66 158.26L139.66 158.26Q137.85 158.26 136.53 157.46Q135.22 156.65 134.52 155.20Q133.81 153.75 133.81 151.83L133.81 151.83Q133.81 149.90 134.52 148.42Q135.22 146.95 136.49 146.12Q137.76 145.29 139.46 145.29L139.46 145.29Q140.44 145.29 141.40 145.62Q142.35 145.94 143.14 146.68Q143.92 147.41 144.39 148.61Q144.85 149.81 144.85 151.56L144.85 151.56L144.85 152.38L135.75 152.38Q135.81 154.39 136.89 155.46Q137.96 156.53 139.66 156.53L139.66 156.53Q140.79 156.53 141.61 156.04Q142.43 155.55 142.80 154.57L142.80 154.57L144.66 155.09Q144.22 156.51 142.89 157.39Q141.57 158.26 139.66 158.26ZM135.75 150.71L135.75 150.71L142.89 150.71Q142.89 149.12 141.96 148.07Q141.03 147.02 139.46 147.02L139.46 147.02Q138.36 147.02 137.55 147.54Q136.74 148.05 136.28 148.90Q135.81 149.74 135.75 150.71ZM149.72 158L147.79 158L147.79 145.45L149.66 145.45L149.66 147.35L149.79 147.35Q150.13 146.42 151.03 145.84Q151.93 145.26 153.05 145.26L153.05 145.26Q153.27 145.26 153.58 145.27Q153.90 145.27 154.07 145.29L154.07 145.29L154.07 147.25Q153.97 147.23 153.62 147.17Q153.27 147.12 152.89 147.12L152.89 147.12Q151.52 147.12 150.62 147.95Q149.72 148.79 149.72 150.06L149.72 150.06L149.72 158ZM161.42 162.97L161.42 162.97Q159.32 162.97 158.10 162.20Q156.88 161.44 156.29 160.45L156.29 160.45L157.82 159.37Q158.09 159.72 158.49 160.16Q158.89 160.61 159.58 160.94Q160.28 161.27 161.42 161.27L161.42 161.27Q162.94 161.27 163.93 160.53Q164.91 159.80 164.91 158.23L164.91 158.23L164.91 155.68L164.75 155.68Q164.54 156.02 164.15 156.53Q163.76 157.03 163.04 157.42Q162.32 157.80 161.09 157.80L161.09 157.80Q159.57 157.80 158.37 157.09Q157.16 156.37 156.46 154.99Q155.77 153.62 155.77 151.66L155.77 151.66Q155.77 149.73 156.44 148.30Q157.12 146.87 158.33 146.08Q159.54 145.29 161.12 145.29L161.12 145.29Q162.35 145.29 163.07 145.70Q163.79 146.10 164.18 146.61Q164.57 147.12 164.78 147.45L164.78 147.45L164.98 147.45L164.98 145.45L166.84 145.45L166.84 158.36Q166.84 159.98 166.11 160.99Q165.38 162.01 164.15 162.49Q162.92 162.97 161.42 162.97ZM161.35 156.07L161.35 156.07Q163.09 156.07 164.02 154.89Q164.95 153.71 164.95 151.63L164.95 151.63Q164.95 149.60 164.03 148.31Q163.12 147.02 161.35 147.02L161.35 147.02Q160.13 147.02 159.31 147.64Q158.50 148.26 158.10 149.31Q157.69 150.36 157.69 151.63L157.69 151.63Q157.69 153.59 158.62 154.83Q159.54 156.07 161.35 156.07ZM175.63 158.26L175.63 158.26Q173.82 158.26 172.51 157.46Q171.19 156.65 170.49 155.20Q169.78 153.75 169.78 151.83L169.78 151.83Q169.78 149.90 170.49 148.42Q171.19 146.95 172.46 146.12Q173.73 145.29 175.43 145.29L175.43 145.29Q176.41 145.29 177.37 145.62Q178.32 145.94 179.11 146.68Q179.89 147.41 180.36 148.61Q180.82 149.81 180.82 151.56L180.82 151.56L180.82 152.38L171.72 152.38Q171.78 154.39 172.86 155.46Q173.93 156.53 175.63 156.53L175.63 156.53Q176.76 156.53 177.58 156.04Q178.40 155.55 178.77 154.57L178.77 154.57L180.63 155.09Q180.19 156.51 178.86 157.39Q177.54 158.26 175.63 158.26ZM171.72 150.71L171.72 150.71L178.86 150.71Q178.86 149.12 177.93 148.07Q177.00 147.02 175.43 147.02L175.43 147.02Q174.33 147.02 173.52 147.54Q172.71 148.05 172.25 148.90Q171.78 149.74 171.72 150.71ZM188.50 158.26L188.50 158.26Q186.93 158.26 185.73 157.47Q184.53 156.67 183.85 155.21Q183.18 153.75 183.18 151.76L183.18 151.76Q183.18 149.78 183.85 148.33Q184.53 146.88 185.74 146.08Q186.95 145.29 188.53 145.29L188.53 145.29Q189.76 145.29 190.47 145.70Q191.19 146.10 191.57 146.61Q191.95 147.12 192.16 147.45L192.16 147.45L192.32 147.45L192.32 141.27L194.25 141.27L194.25 158L192.39 158L192.39 156.07L192.16 156.07Q191.95 156.42 191.56 156.93Q191.16 157.45 190.44 157.86Q189.71 158.26 188.50 158.26ZM188.76 156.53L188.76 156.53Q190.50 156.53 191.43 155.19Q192.36 153.86 192.36 151.73L192.36 151.73Q192.36 149.62 191.44 148.32Q190.53 147.02 188.76 147.02L188.76 147.02Q187.54 147.02 186.72 147.65Q185.91 148.27 185.51 149.34Q185.10 150.40 185.10 151.73L185.10 151.73Q185.10 153.07 185.52 154.16Q185.93 155.25 186.74 155.89Q187.55 156.53 188.76 156.53ZM206.80 158L204.77 158L204.77 141.27L210.42 141.27Q212.39 141.27 213.65 141.98Q214.90 142.69 215.50 143.89Q216.11 145.09 216.11 146.57L216.11 146.57Q216.11 148.04 215.51 149.25Q214.91 150.46 213.66 151.18Q212.41 151.89 210.46 151.89L210.46 151.89L206.80 151.89L206.80 158ZM206.80 143.07L206.80 150.09L210.39 150.09Q212.41 150.09 213.26 149.08Q214.12 148.07 214.12 146.57L214.12 146.57Q214.12 145.05 213.26 144.06Q212.40 143.07 210.36 143.07L210.36 143.07L206.80 143.07ZM221.40 158L219.38 158L219.38 141.27L225.03 141.27Q226.99 141.27 228.25 141.94Q229.50 142.60 230.11 143.76Q230.71 144.92 230.71 146.40L230.71 146.40Q230.71 148.07 229.95 149.31Q229.18 150.54 227.58 151.09L227.58 151.09L231.37 158L229.01 158L225.48 151.46Q225.28 151.47 225.06 151.47L225.06 151.47L221.40 151.47L221.40 158ZM221.40 143.07L221.40 149.64L224.99 149.64Q227.00 149.64 227.86 148.77Q228.72 147.90 228.72 146.40L228.72 146.40Q228.72 144.89 227.86 143.98Q227.00 143.07 224.96 143.07L224.96 143.07L221.40 143.07ZM242.70 148.26L242.70 148.26L240.97 148.75Q240.72 148.10 240.12 147.53Q239.52 146.96 238.26 146.96L238.26 146.96Q237.11 146.96 236.34 147.48Q235.58 148.01 235.58 148.82L235.58 148.82Q235.58 149.54 236.10 149.95Q236.62 150.37 237.74 150.65L237.74 150.65L239.60 151.11Q242.93 151.92 242.93 154.50L242.93 154.50Q242.93 155.58 242.31 156.43Q241.70 157.28 240.59 157.77Q239.49 158.26 238.03 158.26L238.03 158.26Q236.11 158.26 234.85 157.43Q233.59 156.60 233.26 154.99L233.26 154.99L235.09 154.54Q235.60 156.56 238.00 156.56L238.00 156.56Q239.34 156.56 240.14 155.99Q240.94 155.41 240.94 154.60L240.94 154.60Q240.94 153.27 239.08 152.84L239.08 152.84L236.98 152.35Q235.26 151.94 234.46 151.08Q233.65 150.22 233.65 148.92L233.65 148.92Q233.65 147.86 234.25 147.04Q234.85 146.22 235.89 145.76Q236.94 145.29 238.26 145.29L238.26 145.29Q240.12 145.29 241.19 146.11Q242.25 146.92 242.70 148.26ZM254.23 158L252.31 158L252.31 145.45L254.23 145.45L254.23 158ZM253.29 143.36L253.29 143.36Q252.72 143.36 252.32 142.98Q251.91 142.60 251.91 142.06L251.91 142.06Q251.91 141.52 252.32 141.13Q252.72 140.75 253.29 140.75L253.29 140.75Q253.85 140.75 254.25 141.13Q254.66 141.52 254.66 142.06L254.66 142.06Q254.66 142.60 254.25 142.98Q253.85 143.36 253.29 143.36ZM259.69 150.45L259.69 150.45L259.69 158L257.76 158L257.76 145.45L259.63 145.45L259.63 147.41L259.79 147.41Q260.23 146.46 261.13 145.88Q262.03 145.29 263.45 145.29L263.45 145.29Q265.35 145.29 266.52 146.46Q267.69 147.63 267.69 150.03L267.69 150.03L267.69 158L265.77 158L265.77 150.16Q265.77 148.68 265.00 147.85Q264.23 147.02 262.89 147.02L262.89 147.02Q261.51 147.02 260.60 147.92Q259.69 148.81 259.69 150.45ZM274 145.45L276.68 145.45L276.68 147.09L274 147.09L274 154.41Q274 155.22 274.24 155.63Q274.48 156.03 274.86 156.17Q275.24 156.30 275.67 156.30L275.67 156.30Q275.98 156.30 276.19 156.26Q276.39 156.23 276.52 156.20L276.52 156.20L276.91 157.93Q276.71 158.01 276.36 158.09Q276.01 158.16 275.47 158.16L275.47 158.16Q274.65 158.16 273.87 157.81Q273.09 157.46 272.58 156.74Q272.07 156.02 272.07 154.93L272.07 154.93L272.07 147.09L270.18 147.09L270.18 145.45L272.07 145.45L272.07 142.45L274 142.45L274 145.45ZM284.68 158.26L284.68 158.26Q282.98 158.26 281.71 157.45Q280.43 156.64 279.71 155.19Q279.00 153.74 279.00 151.79L279.00 151.79Q279.00 149.83 279.71 148.37Q280.43 146.91 281.71 146.10Q282.98 145.29 284.68 145.29L284.68 145.29Q286.38 145.29 287.66 146.10Q288.94 146.91 289.65 148.37Q290.37 149.83 290.37 151.79L290.37 151.79Q290.37 153.74 289.65 155.19Q288.94 156.64 287.66 157.45Q286.38 158.26 284.68 158.26ZM284.68 156.53L284.68 156.53Q285.97 156.53 286.81 155.87Q287.64 155.21 288.04 154.13Q288.44 153.05 288.44 151.79L288.44 151.79Q288.44 150.53 288.04 149.45Q287.64 148.36 286.81 147.69Q285.97 147.02 284.68 147.02L284.68 147.02Q283.39 147.02 282.56 147.69Q281.73 148.36 281.33 149.45Q280.93 150.53 280.93 151.79L280.93 151.79Q280.93 153.05 281.33 154.13Q281.73 155.21 282.56 155.87Q283.39 156.53 284.68 156.53ZM301.70 158L299.78 158L299.78 145.45L301.64 145.45L301.64 147.35L301.77 147.35Q302.11 146.42 303.01 145.84Q303.91 145.26 305.04 145.26L305.04 145.26Q305.25 145.26 305.57 145.27Q305.89 145.27 306.05 145.29L306.05 145.29L306.05 147.25Q305.95 147.23 305.60 147.17Q305.26 147.12 304.87 147.12L304.87 147.12Q303.50 147.12 302.60 147.95Q301.70 148.79 301.70 150.06L301.70 150.06L301.70 158ZM313.60 158.26L313.60 158.26Q311.78 158.26 310.47 157.46Q309.16 156.65 308.46 155.20Q307.75 153.75 307.75 151.83L307.75 151.83Q307.75 149.90 308.46 148.42Q309.16 146.95 310.43 146.12Q311.70 145.29 313.40 145.29L313.40 145.29Q314.38 145.29 315.34 145.62Q316.29 145.94 317.08 146.68Q317.86 147.41 318.33 148.61Q318.79 149.81 318.79 151.56L318.79 151.56L318.79 152.38L309.68 152.38Q309.75 154.39 310.82 155.46Q311.90 156.53 313.60 156.53L313.60 156.53Q314.73 156.53 315.55 156.04Q316.37 155.55 316.73 154.57L316.73 154.57L318.60 155.09Q318.15 156.51 316.83 157.39Q315.51 158.26 313.60 158.26ZM309.68 150.71L309.68 150.71L316.83 150.71Q316.83 149.12 315.90 148.07Q314.97 147.02 313.40 147.02L313.40 147.02Q312.30 147.02 311.49 147.54Q310.68 148.05 310.22 148.90Q309.75 149.74 309.68 150.71ZM321.73 141.27L323.66 141.27L323.66 158L321.73 158L321.73 141.27ZM332.45 158.26L332.45 158.26Q330.63 158.26 329.32 157.46Q328.01 156.65 327.31 155.20Q326.60 153.75 326.60 151.83L326.60 151.83Q326.60 149.90 327.31 148.42Q328.01 146.95 329.28 146.12Q330.55 145.29 332.25 145.29L332.25 145.29Q333.23 145.29 334.19 145.62Q335.14 145.94 335.93 146.68Q336.71 147.41 337.18 148.61Q337.64 149.81 337.64 151.56L337.64 151.56L337.64 152.38L328.54 152.38Q328.60 154.39 329.67 155.46Q330.75 156.53 332.45 156.53L332.45 156.53Q333.58 156.53 334.40 156.04Q335.22 155.55 335.58 154.57L335.58 154.57L337.45 155.09Q337.00 156.51 335.68 157.39Q334.36 158.26 332.45 158.26ZM328.54 150.71L328.54 150.71L335.68 150.71Q335.68 149.12 334.75 148.07Q333.82 147.02 332.25 147.02L332.25 147.02Q331.15 147.02 330.34 147.54Q329.53 148.05 329.07 148.90Q328.60 149.74 328.54 150.71ZM344.27 158.29L344.27 158.29Q343.08 158.29 342.11 157.84Q341.14 157.39 340.57 156.53Q339.99 155.66 339.99 154.44L339.99 154.44Q339.99 153.36 340.42 152.69Q340.84 152.01 341.55 151.63Q342.26 151.25 343.13 151.05Q343.99 150.86 344.86 150.75L344.86 150.75Q346.01 150.60 346.72 150.52Q347.44 150.44 347.77 150.26Q348.10 150.07 348.10 149.60L348.10 149.60L348.10 149.54Q348.10 148.33 347.44 147.66Q346.78 146.99 345.45 146.99L345.45 146.99Q344.07 146.99 343.29 147.59Q342.50 148.20 342.18 148.88L342.18 148.88L340.35 148.23Q340.84 147.09 341.66 146.45Q342.49 145.81 343.46 145.55Q344.44 145.29 345.38 145.29L345.38 145.29Q345.99 145.29 346.78 145.43Q347.57 145.58 348.30 146.02Q349.04 146.46 349.53 147.35Q350.02 148.24 350.02 149.73L350.02 149.73L350.02 158L348.10 158L348.10 156.30L348.00 156.30Q347.80 156.71 347.35 157.18Q346.89 157.64 346.13 157.97Q345.37 158.29 344.27 158.29ZM344.57 156.56L344.57 156.56Q345.71 156.56 346.50 156.11Q347.29 155.66 347.69 154.95Q348.10 154.24 348.10 153.46L348.10 153.46L348.10 151.69Q347.97 151.84 347.56 151.96Q347.15 152.08 346.61 152.16Q346.08 152.25 345.58 152.31Q345.07 152.37 344.76 152.41L344.76 152.41Q344.01 152.51 343.36 152.73Q342.71 152.94 342.32 153.37Q341.92 153.80 341.92 154.54L341.92 154.54Q341.92 155.54 342.67 156.05Q343.42 156.56 344.57 156.56ZM362.44 148.26L362.44 148.26L360.71 148.75Q360.45 148.10 359.86 147.53Q359.26 146.96 358.00 146.96L358.00 146.96Q356.84 146.96 356.08 147.48Q355.32 148.01 355.32 148.82L355.32 148.82Q355.32 149.54 355.84 149.95Q356.36 150.37 357.47 150.65L357.47 150.65L359.34 151.11Q362.67 151.92 362.67 154.50L362.67 154.50Q362.67 155.58 362.05 156.43Q361.43 157.28 360.33 157.77Q359.23 158.26 357.77 158.26L357.77 158.26Q355.85 158.26 354.59 157.43Q353.33 156.60 353.00 154.99L353.00 154.99L354.83 154.54Q355.34 156.56 357.73 156.56L357.73 156.56Q359.08 156.56 359.88 155.99Q360.67 155.41 360.67 154.60L360.67 154.60Q360.67 153.27 358.81 152.84L358.81 152.84L356.72 152.35Q355.00 151.94 354.19 151.08Q353.39 150.22 353.39 148.92L353.39 148.92Q353.39 147.86 353.99 147.04Q354.59 146.22 355.63 145.76Q356.67 145.29 358.00 145.29L358.00 145.29Q359.86 145.29 360.92 146.11Q361.99 146.92 362.44 148.26ZM370.84 158.26L370.84 158.26Q369.02 158.26 367.71 157.46Q366.40 156.65 365.69 155.20Q364.99 153.75 364.99 151.83L364.99 151.83Q364.99 149.90 365.69 148.42Q366.40 146.95 367.67 146.12Q368.94 145.29 370.64 145.29L370.64 145.29Q371.62 145.29 372.57 145.62Q373.53 145.94 374.31 146.68Q375.10 147.41 375.56 148.61Q376.03 149.81 376.03 151.56L376.03 151.56L376.03 152.38L366.92 152.38Q366.99 154.39 368.06 155.46Q369.14 156.53 370.84 156.53L370.84 156.53Q371.97 156.53 372.79 156.04Q373.60 155.55 373.97 154.57L373.97 154.57L375.83 155.09Q375.39 156.51 374.07 157.39Q372.75 158.26 370.84 158.26ZM366.92 150.71L366.92 150.71L374.07 150.71Q374.07 149.12 373.14 148.07Q372.21 147.02 370.64 147.02L370.64 147.02Q369.54 147.02 368.73 147.54Q367.92 148.05 367.45 148.90Q366.99 149.74 366.92 150.71ZM387.37 150.45L387.37 150.45L387.37 158L385.44 158L385.44 145.45L387.30 145.45L387.30 147.41L387.46 147.41Q387.91 146.46 388.80 145.88Q389.70 145.29 391.12 145.29L391.12 145.29Q393.03 145.29 394.20 146.46Q395.37 147.63 395.37 150.03L395.37 150.03L395.37 158L393.44 158L393.44 150.16Q393.44 148.68 392.68 147.85Q391.91 147.02 390.57 147.02L390.57 147.02Q389.19 147.02 388.28 147.92Q387.37 148.81 387.37 150.45ZM404.00 158.26L404.00 158.26Q402.30 158.26 401.02 157.45Q399.74 156.64 399.03 155.19Q398.31 153.74 398.31 151.79L398.31 151.79Q398.31 149.83 399.03 148.37Q399.74 146.91 401.02 146.10Q402.30 145.29 404.00 145.29L404.00 145.29Q405.69 145.29 406.97 146.10Q408.25 146.91 408.97 148.37Q409.68 149.83 409.68 151.79L409.68 151.79Q409.68 153.74 408.97 155.19Q408.25 156.64 406.97 157.45Q405.69 158.26 404.00 158.26ZM404.00 156.53L404.00 156.53Q405.29 156.53 406.12 155.87Q406.95 155.21 407.35 154.13Q407.75 153.05 407.75 151.79L407.75 151.79Q407.75 150.53 407.35 149.45Q406.95 148.36 406.12 147.69Q405.29 147.02 404.00 147.02L404.00 147.02Q402.71 147.02 401.87 147.69Q401.04 148.36 400.64 149.45Q400.24 150.53 400.24 151.79L400.24 151.79Q400.24 153.05 400.64 154.13Q401.04 155.21 401.87 155.87Q402.71 156.53 404.00 156.53ZM415.40 145.45L418.08 145.45L418.08 147.09L415.40 147.09L415.40 154.41Q415.40 155.22 415.64 155.63Q415.88 156.03 416.26 156.17Q416.64 156.30 417.06 156.30L417.06 156.30Q417.38 156.30 417.59 156.26Q417.79 156.23 417.91 156.20L417.91 156.20L418.31 157.93Q418.11 158.01 417.76 158.09Q417.41 158.16 416.87 158.16L416.87 158.16Q416.05 158.16 415.27 157.81Q414.49 157.46 413.98 156.74Q413.47 156.02 413.47 154.93L413.47 154.93L413.47 147.09L411.58 147.09L411.58 145.45L413.47 145.45L413.47 142.45L415.40 142.45L415.40 145.45ZM426.24 158.26L426.24 158.26Q424.43 158.26 423.12 157.46Q421.81 156.65 421.10 155.20Q420.40 153.75 420.40 151.83L420.40 151.83Q420.40 149.90 421.10 148.42Q421.81 146.95 423.08 146.12Q424.35 145.29 426.05 145.29L426.05 145.29Q427.03 145.29 427.98 145.62Q428.94 145.94 429.72 146.68Q430.51 147.41 430.97 148.61Q431.44 149.81 431.44 151.56L431.44 151.56L431.44 152.38L422.33 152.38Q422.40 154.39 423.47 155.46Q424.55 156.53 426.24 156.53L426.24 156.53Q427.38 156.53 428.20 156.04Q429.01 155.55 429.38 154.57L429.38 154.57L431.24 155.09Q430.80 156.51 429.48 157.39Q428.16 158.26 426.24 158.26ZM422.33 150.71L422.33 150.71L429.48 150.71Q429.48 149.12 428.55 148.07Q427.62 147.02 426.05 147.02L426.05 147.02Q424.95 147.02 424.14 147.54Q423.33 148.05 422.86 148.90Q422.40 149.74 422.33 150.71ZM443.27 148.26L443.27 148.26L441.53 148.75Q441.28 148.10 440.68 147.53Q440.09 146.96 438.82 146.96L438.82 146.96Q437.67 146.96 436.91 147.48Q436.14 148.01 436.14 148.82L436.14 148.82Q436.14 149.54 436.67 149.95Q437.19 150.37 438.30 150.65L438.30 150.65L440.16 151.11Q443.49 151.92 443.49 154.50L443.49 154.50Q443.49 155.58 442.88 156.43Q442.26 157.28 441.16 157.77Q440.06 158.26 438.59 158.26L438.59 158.26Q436.67 158.26 435.42 157.43Q434.16 156.60 433.82 154.99L433.82 154.99L435.65 154.54Q436.17 156.56 438.56 156.56L438.56 156.56Q439.91 156.56 440.71 155.99Q441.50 155.41 441.50 154.60L441.50 154.60Q441.50 153.27 439.64 152.84L439.64 152.84L437.55 152.35Q435.82 151.94 435.02 151.08Q434.22 150.22 434.22 148.92L434.22 148.92Q434.22 147.86 434.82 147.04Q435.42 146.22 436.46 145.76Q437.50 145.29 438.82 145.29L438.82 145.29Q440.68 145.29 441.75 146.11Q442.82 146.92 443.27 148.26ZM455.65 145.45L458.46 145.45L458.46 147.09L455.65 147.09L455.65 158L453.72 158L453.72 147.09L451.69 147.09L451.69 145.45L453.72 145.45L453.72 143.72Q453.72 142.64 454.23 141.93Q454.73 141.21 455.54 140.85Q456.35 140.49 457.25 140.49L457.25 140.49Q457.96 140.49 458.41 140.60Q458.86 140.72 459.08 140.82L459.08 140.82L458.52 142.48Q458.38 142.43 458.12 142.36Q457.86 142.29 457.44 142.29L457.44 142.29Q456.49 142.29 456.07 142.77Q455.65 143.25 455.65 144.18L455.65 144.18L455.65 145.45ZM466.27 158.26L466.27 158.26Q464.57 158.26 463.29 157.45Q462.01 156.64 461.30 155.19Q460.58 153.74 460.58 151.79L460.58 151.79Q460.58 149.83 461.30 148.37Q462.01 146.91 463.29 146.10Q464.57 145.29 466.27 145.29L466.27 145.29Q467.96 145.29 469.24 146.10Q470.52 146.91 471.24 148.37Q471.95 149.83 471.95 151.79L471.95 151.79Q471.95 153.74 471.24 155.19Q470.52 156.64 469.24 157.45Q467.96 158.26 466.27 158.26ZM466.27 156.53L466.27 156.53Q467.56 156.53 468.39 155.87Q469.22 155.21 469.62 154.13Q470.02 153.05 470.02 151.79L470.02 151.79Q470.02 150.53 469.62 149.45Q469.22 148.36 468.39 147.69Q467.56 147.02 466.27 147.02L466.27 147.02Q464.98 147.02 464.14 147.69Q463.31 148.36 462.91 149.45Q462.51 150.53 462.51 151.79L462.51 151.79Q462.51 153.05 462.91 154.13Q463.31 155.21 464.14 155.87Q464.98 156.53 466.27 156.53ZM476.82 158L474.89 158L474.89 145.45L476.75 145.45L476.75 147.35L476.88 147.35Q477.23 146.42 478.13 145.84Q479.02 145.26 480.15 145.26L480.15 145.26Q480.36 145.26 480.68 145.27Q481.00 145.27 481.16 145.29L481.16 145.29L481.16 147.25Q481.07 147.23 480.72 147.17Q480.37 147.12 479.99 147.12L479.99 147.12Q478.62 147.12 477.72 147.95Q476.82 148.79 476.82 150.06L476.82 150.06L476.82 158ZM495.18 158.26L495.18 158.26Q493.37 158.26 492.05 157.46Q490.74 156.65 490.04 155.20Q489.33 153.75 489.33 151.83L489.33 151.83Q489.33 149.90 490.04 148.42Q490.74 146.95 492.01 146.12Q493.28 145.29 494.98 145.29L494.98 145.29Q495.96 145.29 496.92 145.62Q497.87 145.94 498.66 146.68Q499.44 147.41 499.91 148.61Q500.37 149.81 500.37 151.56L500.37 151.56L500.37 152.38L491.27 152.38Q491.33 154.39 492.41 155.46Q493.48 156.53 495.18 156.53L495.18 156.53Q496.31 156.53 497.13 156.04Q497.95 155.55 498.32 154.57L498.32 154.57L500.18 155.09Q499.74 156.51 498.41 157.39Q497.09 158.26 495.18 158.26ZM491.27 150.71L491.27 150.71L498.41 150.71Q498.41 149.12 497.48 148.07Q496.55 147.02 494.98 147.02L494.98 147.02Q493.88 147.02 493.07 147.54Q492.26 148.05 491.80 148.90Q491.33 149.74 491.27 150.71ZM505.24 150.45L505.24 150.45L505.24 158L503.31 158L503.31 145.45L505.18 145.45L505.18 147.41L505.34 147.41Q505.78 146.46 506.68 145.88Q507.58 145.29 509.00 145.29L509.00 145.29Q510.90 145.29 512.07 146.46Q513.25 147.63 513.25 150.03L513.25 150.03L513.25 158L511.32 158L511.32 150.16Q511.32 148.68 510.55 147.85Q509.78 147.02 508.44 147.02L508.44 147.02Q507.06 147.02 506.15 147.92Q505.24 148.81 505.24 150.45ZM521.84 162.97L521.84 162.97Q519.74 162.97 518.52 162.20Q517.30 161.44 516.71 160.45L516.71 160.45L518.24 159.37Q518.51 159.72 518.91 160.16Q519.31 160.61 520.00 160.94Q520.70 161.27 521.84 161.27L521.84 161.27Q523.36 161.27 524.35 160.53Q525.33 159.80 525.33 158.23L525.33 158.23L525.33 155.68L525.17 155.68Q524.96 156.02 524.57 156.53Q524.18 157.03 523.46 157.42Q522.74 157.80 521.51 157.80L521.51 157.80Q519.99 157.80 518.79 157.09Q517.58 156.37 516.88 154.99Q516.19 153.62 516.19 151.66L516.19 151.66Q516.19 149.73 516.86 148.30Q517.54 146.87 518.75 146.08Q519.96 145.29 521.54 145.29L521.54 145.29Q522.77 145.29 523.49 145.70Q524.21 146.10 524.60 146.61Q524.99 147.12 525.20 147.45L525.20 147.45L525.40 147.45L525.40 145.45L527.26 145.45L527.26 158.36Q527.26 159.98 526.53 160.99Q525.80 162.01 524.57 162.49Q523.34 162.97 521.84 162.97ZM521.77 156.07L521.77 156.07Q523.51 156.07 524.44 154.89Q525.37 153.71 525.37 151.63L525.37 151.63Q525.37 149.60 524.45 148.31Q523.54 147.02 521.77 147.02L521.77 147.02Q520.55 147.02 519.73 147.64Q518.92 148.26 518.52 149.31Q518.11 150.36 518.11 151.63L518.11 151.63Q518.11 153.59 519.04 154.83Q519.96 156.07 521.77 156.07ZM532.72 158L530.79 158L530.79 145.45L532.72 145.45L532.72 158ZM531.77 143.36L531.77 143.36Q531.21 143.36 530.80 142.98Q530.40 142.60 530.40 142.06L530.40 142.06Q530.40 141.52 530.80 141.13Q531.21 140.75 531.77 140.75L531.77 140.75Q532.33 140.75 532.74 141.13Q533.14 141.52 533.14 142.06L533.14 142.06Q533.14 142.60 532.74 142.98Q532.33 143.36 531.77 143.36ZM538.17 150.45L538.17 150.45L538.17 158L536.25 158L536.25 145.45L538.11 145.45L538.11 147.41L538.27 147.41Q538.71 146.46 539.61 145.88Q540.51 145.29 541.93 145.29L541.93 145.29Q543.83 145.29 545.01 146.46Q546.18 147.63 546.18 150.03L546.18 150.03L546.18 158L544.25 158L544.25 150.16Q544.25 148.68 543.48 147.85Q542.71 147.02 541.38 147.02L541.38 147.02Q539.99 147.02 539.08 147.92Q538.17 148.81 538.17 150.45ZM554.97 158.26L554.97 158.26Q553.15 158.26 551.84 157.46Q550.53 156.65 549.82 155.20Q549.12 153.75 549.12 151.83L549.12 151.83Q549.12 149.90 549.82 148.42Q550.53 146.95 551.80 146.12Q553.07 145.29 554.77 145.29L554.77 145.29Q555.75 145.29 556.71 145.62Q557.66 145.94 558.45 146.68Q559.23 147.41 559.69 148.61Q560.16 149.81 560.16 151.56L560.16 151.56L560.16 152.38L551.05 152.38Q551.12 154.39 552.19 155.46Q553.27 156.53 554.97 156.53L554.97 156.53Q556.10 156.53 556.92 156.04Q557.73 155.55 558.10 154.57L558.10 154.57L559.96 155.09Q559.52 156.51 558.20 157.39Q556.88 158.26 554.97 158.26ZM551.05 150.71L551.05 150.71L558.20 150.71Q558.20 149.12 557.27 148.07Q556.34 147.02 554.77 147.02L554.77 147.02Q553.67 147.02 552.86 147.54Q552.05 148.05 551.58 148.90Q551.12 149.74 551.05 150.71ZM568.36 158.26L568.36 158.26Q566.55 158.26 565.24 157.46Q563.93 156.65 563.22 155.20Q562.51 153.75 562.51 151.83L562.51 151.83Q562.51 149.90 563.22 148.42Q563.93 146.95 565.20 146.12Q566.47 145.29 568.16 145.29L568.16 145.29Q569.14 145.29 570.10 145.62Q571.06 145.94 571.84 146.68Q572.62 147.41 573.09 148.61Q573.56 149.81 573.56 151.56L573.56 151.56L573.56 152.38L564.45 152.38Q564.51 154.39 565.59 155.46Q566.66 156.53 568.36 156.53L568.36 156.53Q569.50 156.53 570.31 156.04Q571.13 155.55 571.50 154.57L571.50 154.57L573.36 155.09Q572.92 156.51 571.60 157.39Q570.27 158.26 568.36 158.26ZM564.45 150.71L564.45 150.71L571.60 150.71Q571.60 149.12 570.66 148.07Q569.73 147.02 568.16 147.02L568.16 147.02Q567.06 147.02 566.25 147.54Q565.44 148.05 564.98 148.90Q564.51 149.74 564.45 150.71ZM578.42 158L576.50 158L576.50 145.45L578.36 145.45L578.36 147.35L578.49 147.35Q578.83 146.42 579.73 145.84Q580.63 145.26 581.76 145.26L581.76 145.26Q581.97 145.26 582.29 145.27Q582.61 145.27 582.77 145.29L582.77 145.29L582.77 147.25Q582.67 147.23 582.32 147.17Q581.98 147.12 581.59 147.12L581.59 147.12Q580.22 147.12 579.32 147.95Q578.42 148.79 578.42 150.06L578.42 150.06L578.42 158ZM586.98 158L585.06 158L585.06 145.45L586.98 145.45L586.98 158ZM586.04 143.36L586.04 143.36Q585.47 143.36 585.07 142.98Q584.66 142.60 584.66 142.06L584.66 142.06Q584.66 141.52 585.07 141.13Q585.47 140.75 586.04 140.75L586.04 140.75Q586.60 140.75 587.00 141.13Q587.41 141.52 587.41 142.06L587.41 142.06Q587.41 142.60 587.00 142.98Q586.60 143.36 586.04 143.36ZM592.44 150.45L592.44 150.45L592.44 158L590.51 158L590.51 145.45L592.37 145.45L592.37 147.41L592.54 147.41Q592.98 146.46 593.88 145.88Q594.77 145.29 596.20 145.29L596.20 145.29Q598.10 145.29 599.27 146.46Q600.44 147.63 600.44 150.03L600.44 150.03L600.44 158L598.52 158L598.52 150.16Q598.52 148.68 597.75 147.85Q596.98 147.02 595.64 147.02L595.64 147.02Q594.26 147.02 593.35 147.92Q592.44 148.81 592.44 150.45ZM609.04 162.97L609.04 162.97Q606.94 162.97 605.72 162.20Q604.49 161.44 603.91 160.45L603.91 160.45L605.44 159.37Q605.70 159.72 606.10 160.16Q606.50 160.61 607.20 160.94Q607.90 161.27 609.04 161.27L609.04 161.27Q610.55 161.27 611.54 160.53Q612.53 159.80 612.53 158.23L612.53 158.23L612.53 155.68L612.37 155.68Q612.16 156.02 611.77 156.53Q611.38 157.03 610.66 157.42Q609.93 157.80 608.71 157.80L608.71 157.80Q607.19 157.80 605.98 157.09Q604.78 156.37 604.08 154.99Q603.38 153.62 603.38 151.66L603.38 151.66Q603.38 149.73 604.06 148.30Q604.74 146.87 605.95 146.08Q607.16 145.29 608.74 145.29L608.74 145.29Q609.97 145.29 610.69 145.70Q611.41 146.10 611.80 146.61Q612.19 147.12 612.40 147.45L612.40 147.45L612.60 147.45L612.60 145.45L614.46 145.45L614.46 158.36Q614.46 159.98 613.73 160.99Q613.00 162.01 611.77 162.49Q610.54 162.97 609.04 162.97ZM608.97 156.07L608.97 156.07Q610.71 156.07 611.64 154.89Q612.56 153.71 612.56 151.63L612.56 151.63Q612.56 149.60 611.65 148.31Q610.73 147.02 608.97 147.02L608.97 147.02Q607.75 147.02 606.93 147.64Q606.12 148.26 605.72 149.31Q605.31 150.36 605.31 151.63L605.31 151.63Q605.31 153.59 606.23 154.83Q607.16 156.07 608.97 156.07ZM618.77 155.71L620.86 155.71L620.73 156.60Q620.59 157.53 620.31 158.59Q620.03 159.65 619.73 160.59Q619.42 161.53 619.23 162.08L619.23 162.08L617.76 162.08Q617.86 161.56 618.04 160.70Q618.21 159.85 618.38 158.79Q618.56 157.73 618.67 156.63L618.67 156.63L618.77 155.71ZM635.99 158.26L635.99 158.26Q634.22 158.26 632.95 157.43Q631.68 156.60 630.99 155.13Q630.30 153.67 630.30 151.79L630.30 151.79Q630.30 149.88 631.01 148.42Q631.72 146.95 632.99 146.12Q634.26 145.29 635.96 145.29L635.96 145.29Q637.28 145.29 638.34 145.78Q639.40 146.27 640.08 147.15Q640.76 148.04 640.92 149.21L640.92 149.21L638.99 149.21Q638.77 148.35 638.02 147.69Q637.26 147.02 635.99 147.02L635.99 147.02Q634.30 147.02 633.26 148.31Q632.23 149.60 632.23 151.73L632.23 151.73Q632.23 153.91 633.25 155.22Q634.27 156.53 635.99 156.53L635.99 156.53Q637.12 156.53 637.92 155.95Q638.72 155.37 638.99 154.34L638.99 154.34L640.92 154.34Q640.76 155.45 640.12 156.34Q639.48 157.22 638.43 157.74Q637.38 158.26 635.99 158.26ZM651.64 152.87L651.64 152.87L651.64 145.45L653.57 145.45L653.57 158L651.64 158L651.64 155.88L651.51 155.88Q651.07 156.83 650.13 157.50Q649.20 158.16 647.78 158.16L647.78 158.16Q646.02 158.16 644.88 157.00Q643.73 155.83 643.73 153.43L643.73 153.43L643.73 145.45L645.66 145.45L645.66 153.30Q645.66 154.67 646.43 155.48Q647.20 156.30 648.40 156.30L648.40 156.30Q649.12 156.30 649.87 155.93Q650.62 155.57 651.13 154.81Q651.64 154.05 651.64 152.87ZM665.98 148.26L665.98 148.26L664.25 148.75Q664.00 148.10 663.40 147.53Q662.80 146.96 661.54 146.96L661.54 146.96Q660.39 146.96 659.62 147.48Q658.86 148.01 658.86 148.82L658.86 148.82Q658.86 149.54 659.38 149.95Q659.90 150.37 661.01 150.65L661.01 150.65L662.88 151.11Q666.21 151.92 666.21 154.50L666.21 154.50Q666.21 155.58 665.59 156.43Q664.98 157.28 663.87 157.77Q662.77 158.26 661.31 158.26L661.31 158.26Q659.39 158.26 658.13 157.43Q656.87 156.60 656.54 154.99L656.54 154.99L658.37 154.54Q658.88 156.56 661.28 156.56L661.28 156.56Q662.62 156.56 663.42 155.99Q664.22 155.41 664.22 154.60L664.22 154.60Q664.22 153.27 662.35 152.84L662.35 152.84L660.26 152.35Q658.54 151.94 657.73 151.08Q656.93 150.22 656.93 148.92L656.93 148.92Q656.93 147.86 657.53 147.04Q658.13 146.22 659.17 145.76Q660.21 145.29 661.54 145.29L661.54 145.29Q663.40 145.29 664.47 146.11Q665.53 146.92 665.98 148.26ZM671.89 145.45L674.57 145.45L674.57 147.09L671.89 147.09L671.89 154.41Q671.89 155.22 672.13 155.63Q672.38 156.03 672.76 156.17Q673.13 156.30 673.56 156.30L673.56 156.30Q673.88 156.30 674.08 156.26Q674.29 156.23 674.41 156.20L674.41 156.20L674.80 157.93Q674.61 158.01 674.25 158.09Q673.90 158.16 673.36 158.16L673.36 158.16Q672.55 158.16 671.77 157.81Q670.99 157.46 670.48 156.74Q669.97 156.02 669.97 154.93L669.97 154.93L669.97 147.09L668.07 147.09L668.07 145.45L669.97 145.45L669.97 142.45L671.89 142.45L671.89 145.45ZM682.58 158.26L682.58 158.26Q680.88 158.26 679.60 157.45Q678.32 156.64 677.61 155.19Q676.89 153.74 676.89 151.79L676.89 151.79Q676.89 149.83 677.61 148.37Q678.32 146.91 679.60 146.10Q680.88 145.29 682.58 145.29L682.58 145.29Q684.28 145.29 685.55 146.10Q686.83 146.91 687.55 148.37Q688.26 149.83 688.26 151.79L688.26 151.79Q688.26 153.74 687.55 155.19Q686.83 156.64 685.55 157.45Q684.28 158.26 682.58 158.26ZM682.58 156.53L682.58 156.53Q683.87 156.53 684.70 155.87Q685.53 155.21 685.93 154.13Q686.33 153.05 686.33 151.79L686.33 151.79Q686.33 150.53 685.93 149.45Q685.53 148.36 684.70 147.69Q683.87 147.02 682.58 147.02L682.58 147.02Q681.29 147.02 680.45 147.69Q679.62 148.36 679.22 149.45Q678.82 150.53 678.82 151.79L678.82 151.79Q678.82 153.05 679.22 154.13Q679.62 155.21 680.45 155.87Q681.29 156.53 682.58 156.53ZM693.13 158L691.20 158L691.20 145.45L693.06 145.45L693.06 147.41L693.23 147.41Q693.62 146.41 694.49 145.85Q695.37 145.29 696.59 145.29L696.59 145.29Q697.83 145.29 698.66 145.85Q699.49 146.41 699.96 147.41L699.96 147.41L700.09 147.41Q700.57 146.44 701.53 145.87Q702.50 145.29 703.85 145.29L703.85 145.29Q705.53 145.29 706.60 146.34Q707.67 147.39 707.67 149.60L707.67 149.60L707.67 158L705.74 158L705.74 149.60Q705.74 148.22 704.98 147.62Q704.22 147.02 703.19 147.02L703.19 147.02Q701.87 147.02 701.14 147.82Q700.41 148.62 700.41 149.83L700.41 149.83L700.41 158L698.45 158L698.45 149.41Q698.45 148.34 697.76 147.68Q697.07 147.02 695.97 147.02L695.97 147.02Q695.22 147.02 694.57 147.42Q693.92 147.82 693.53 148.53Q693.13 149.24 693.13 150.16L693.13 150.16L693.13 158ZM716.46 158.26L716.46 158.26Q714.64 158.26 713.33 157.46Q712.02 156.65 711.31 155.20Q710.61 153.75 710.61 151.83L710.61 151.83Q710.61 149.90 711.31 148.42Q712.02 146.95 713.29 146.12Q714.56 145.29 716.26 145.29L716.26 145.29Q717.24 145.29 718.20 145.62Q719.15 145.94 719.94 146.68Q720.72 147.41 721.19 148.61Q721.65 149.81 721.65 151.56L721.65 151.56L721.65 152.38L712.54 152.38Q712.61 154.39 713.68 155.46Q714.76 156.53 716.46 156.53L716.46 156.53Q717.59 156.53 718.41 156.04Q719.22 155.55 719.59 154.57L719.59 154.57L721.45 155.09Q721.01 156.51 719.69 157.39Q718.37 158.26 716.46 158.26ZM712.54 150.71L712.54 150.71L719.69 150.71Q719.69 149.12 718.76 148.07Q717.83 147.02 716.26 147.02L716.26 147.02Q715.16 147.02 714.35 147.54Q713.54 148.05 713.07 148.90Q712.61 149.74 712.54 150.71ZM726.52 158L724.59 158L724.59 145.45L726.45 145.45L726.45 147.35L726.58 147.35Q726.93 146.42 727.83 145.84Q728.72 145.26 729.85 145.26L729.85 145.26Q730.06 145.26 730.38 145.27Q730.70 145.27 730.86 145.29L730.86 145.29L730.86 147.25Q730.77 147.23 730.42 147.17Q730.07 147.12 729.69 147.12L729.69 147.12Q728.32 147.12 727.42 147.95Q726.52 148.79 726.52 150.06L726.52 150.06L726.52 158ZM742.04 148.26L742.04 148.26L740.31 148.75Q740.05 148.10 739.46 147.53Q738.86 146.96 737.59 146.96L737.59 146.96Q736.44 146.96 735.68 147.48Q734.91 148.01 734.91 148.82L734.91 148.82Q734.91 149.54 735.44 149.95Q735.96 150.37 737.07 150.65L737.07 150.65L738.93 151.11Q742.27 151.92 742.27 154.50L742.27 154.50Q742.27 155.58 741.65 156.43Q741.03 157.28 739.93 157.77Q738.83 158.26 737.37 158.26L737.37 158.26Q735.45 158.26 734.19 157.43Q732.93 156.60 732.60 154.99L732.60 154.99L734.42 154.54Q734.94 156.56 737.33 156.56L737.33 156.56Q738.68 156.56 739.48 155.99Q740.27 155.41 740.27 154.60L740.27 154.60Q740.27 153.27 738.41 152.84L738.41 152.84L736.32 152.35Q734.60 151.94 733.79 151.08Q732.99 150.22 732.99 148.92L732.99 148.92Q732.99 147.86 733.59 147.04Q734.19 146.22 735.23 145.76Q736.27 145.29 737.59 145.29L737.59 145.29Q739.46 145.29 740.52 146.11Q741.59 146.92 742.04 148.26ZM755.33 158.29L755.33 158.29Q754.14 158.29 753.17 157.84Q752.20 157.39 751.63 156.53Q751.05 155.66 751.05 154.44L751.05 154.44Q751.05 153.36 751.48 152.69Q751.90 152.01 752.61 151.63Q753.32 151.25 754.19 151.05Q755.05 150.86 755.92 150.75L755.92 150.75Q757.07 150.60 757.78 150.52Q758.49 150.44 758.83 150.26Q759.16 150.07 759.16 149.60L759.16 149.60L759.16 149.54Q759.16 148.33 758.50 147.66Q757.84 146.99 756.51 146.99L756.51 146.99Q755.13 146.99 754.35 147.59Q753.56 148.20 753.24 148.88L753.24 148.88L751.41 148.23Q751.90 147.09 752.72 146.45Q753.55 145.81 754.52 145.55Q755.50 145.29 756.44 145.29L756.44 145.29Q757.05 145.29 757.84 145.43Q758.63 145.58 759.36 146.02Q760.10 146.46 760.59 147.35Q761.08 148.24 761.08 149.73L761.08 149.73L761.08 158L759.16 158L759.16 156.30L759.06 156.30Q758.86 156.71 758.40 157.18Q757.95 157.64 757.19 157.97Q756.43 158.29 755.33 158.29ZM755.63 156.56L755.63 156.56Q756.77 156.56 757.56 156.11Q758.35 155.66 758.75 154.95Q759.16 154.24 759.16 153.46L759.16 153.46L759.16 151.69Q759.03 151.84 758.62 151.96Q758.21 152.08 757.67 152.16Q757.14 152.25 756.64 152.31Q756.13 152.37 755.82 152.41L755.82 152.41Q755.07 152.51 754.42 152.73Q753.77 152.94 753.38 153.37Q752.98 153.80 752.98 154.54L752.98 154.54Q752.98 155.54 753.73 156.05Q754.48 156.56 755.63 156.56ZM766.54 150.45L766.54 150.45L766.54 158L764.61 158L764.61 145.45L766.47 145.45L766.47 147.41L766.64 147.41Q767.08 146.46 767.98 145.88Q768.88 145.29 770.30 145.29L770.30 145.29Q772.20 145.29 773.37 146.46Q774.54 147.63 774.54 150.03L774.54 150.03L774.54 158L772.62 158L772.62 150.16Q772.62 148.68 771.85 147.85Q771.08 147.02 769.74 147.02L769.74 147.02Q768.36 147.02 767.45 147.92Q766.54 148.81 766.54 150.45ZM782.81 158.26L782.81 158.26Q781.24 158.26 780.04 157.47Q778.84 156.67 778.16 155.21Q777.48 153.75 777.48 151.76L777.48 151.76Q777.48 149.78 778.16 148.33Q778.84 146.88 780.05 146.08Q781.26 145.29 782.84 145.29L782.84 145.29Q784.07 145.29 784.78 145.70Q785.50 146.10 785.88 146.61Q786.26 147.12 786.47 147.45L786.47 147.45L786.63 147.45L786.63 141.27L788.56 141.27L788.56 158L786.70 158L786.70 156.07L786.47 156.07Q786.26 156.42 785.86 156.93Q785.47 157.45 784.75 157.86Q784.02 158.26 782.81 158.26ZM783.07 156.53L783.07 156.53Q784.81 156.53 785.74 155.19Q786.66 153.86 786.66 151.73L786.66 151.73Q786.66 149.62 785.75 148.32Q784.84 147.02 783.07 147.02L783.07 147.02Q781.85 147.02 781.03 147.65Q780.22 148.27 779.82 149.34Q779.41 150.40 779.41 151.73L779.41 151.73Q779.41 153.07 779.82 154.16Q780.24 155.25 781.05 155.89Q781.86 156.53 783.07 156.53ZM800.75 162.70L798.82 162.70L798.82 145.45L800.68 145.45L800.68 147.45L800.91 147.45Q801.12 147.12 801.50 146.61Q801.88 146.10 802.60 145.70Q803.31 145.29 804.54 145.29L804.54 145.29Q806.12 145.29 807.33 146.08Q808.54 146.88 809.22 148.33Q809.89 149.78 809.89 151.76L809.89 151.76Q809.89 153.75 809.22 155.21Q808.54 156.67 807.34 157.47Q806.14 158.26 804.57 158.26L804.57 158.26Q803.36 158.26 802.63 157.86Q801.91 157.45 801.51 156.93Q801.12 156.42 800.91 156.07L800.91 156.07L800.75 156.07L800.75 162.70ZM800.71 151.73L800.71 151.73Q800.71 153.86 801.64 155.19Q802.57 156.53 804.31 156.53L804.31 156.53Q805.52 156.53 806.33 155.89Q807.14 155.25 807.55 154.16Q807.97 153.07 807.97 151.73L807.97 151.73Q807.97 150.40 807.56 149.34Q807.16 148.27 806.34 147.65Q805.53 147.02 804.31 147.02L804.31 147.02Q802.54 147.02 801.63 148.32Q800.71 149.62 800.71 151.73ZM814.76 158L812.83 158L812.83 145.45L814.70 145.45L814.70 147.35L814.83 147.35Q815.17 146.42 816.07 145.84Q816.97 145.26 818.09 145.26L818.09 145.26Q818.31 145.26 818.62 145.27Q818.94 145.27 819.11 145.29L819.11 145.29L819.11 147.25Q819.01 147.23 818.66 147.17Q818.31 147.12 817.93 147.12L817.93 147.12Q816.56 147.12 815.66 147.95Q814.76 148.79 814.76 150.06L814.76 150.06L814.76 158ZM826.49 158.26L826.49 158.26Q824.79 158.26 823.51 157.45Q822.23 156.64 821.52 155.19Q820.81 153.74 820.81 151.79L820.81 151.79Q820.81 149.83 821.52 148.37Q822.23 146.91 823.51 146.10Q824.79 145.29 826.49 145.29L826.49 145.29Q828.19 145.29 829.47 146.10Q830.75 146.91 831.46 148.37Q832.17 149.83 832.17 151.79L832.17 151.79Q832.17 153.74 831.46 155.19Q830.75 156.64 829.47 157.45Q828.19 158.26 826.49 158.26ZM826.49 156.53L826.49 156.53Q827.78 156.53 828.61 155.87Q829.45 155.21 829.85 154.13Q830.25 153.05 830.25 151.79L830.25 151.79Q830.25 150.53 829.85 149.45Q829.45 148.36 828.61 147.69Q827.78 147.02 826.49 147.02L826.49 147.02Q825.20 147.02 824.37 147.69Q823.53 148.36 823.13 149.45Q822.73 150.53 822.73 151.79L822.73 151.79Q822.73 153.05 823.13 154.13Q823.53 155.21 824.37 155.87Q825.20 156.53 826.49 156.53ZM839.85 158.26L839.85 158.26Q838.28 158.26 837.08 157.47Q835.88 156.67 835.20 155.21Q834.53 153.75 834.53 151.76L834.53 151.76Q834.53 149.78 835.20 148.33Q835.88 146.88 837.09 146.08Q838.30 145.29 839.88 145.29L839.88 145.29Q841.11 145.29 841.82 145.70Q842.54 146.10 842.92 146.61Q843.30 147.12 843.51 147.45L843.51 147.45L843.67 147.45L843.67 141.27L845.60 141.27L845.60 158L843.74 158L843.74 156.07L843.51 156.07Q843.30 156.42 842.91 156.93Q842.51 157.45 841.79 157.86Q841.06 158.26 839.85 158.26ZM840.11 156.53L840.11 156.53Q841.85 156.53 842.78 155.19Q843.71 153.86 843.71 151.73L843.71 151.73Q843.71 149.62 842.79 148.32Q841.88 147.02 840.11 147.02L840.11 147.02Q838.89 147.02 838.08 147.65Q837.26 148.27 836.86 149.34Q836.45 150.40 836.45 151.73L836.45 151.73Q836.45 153.07 836.87 154.16Q837.28 155.25 838.09 155.89Q838.90 156.53 840.11 156.53ZM857.30 152.87L857.30 152.87L857.30 145.45L859.23 145.45L859.23 158L857.30 158L857.30 155.88L857.17 155.88Q856.73 156.83 855.80 157.50Q854.86 158.16 853.44 158.16L853.44 158.16Q851.68 158.16 850.54 157.00Q849.39 155.83 849.39 153.43L849.39 153.43L849.39 145.45L851.32 145.45L851.32 153.30Q851.32 154.67 852.09 155.48Q852.86 156.30 854.06 156.30L854.06 156.30Q854.78 156.30 855.53 155.93Q856.28 155.57 856.79 154.81Q857.30 154.05 857.30 152.87ZM867.85 158.26L867.85 158.26Q866.09 158.26 864.81 157.43Q863.54 156.60 862.85 155.13Q862.17 153.67 862.17 151.79L862.17 151.79Q862.17 149.88 862.87 148.42Q863.58 146.95 864.85 146.12Q866.12 145.29 867.82 145.29L867.82 145.29Q869.14 145.29 870.20 145.78Q871.26 146.27 871.94 147.15Q872.62 148.04 872.78 149.21L872.78 149.21L870.86 149.21Q870.64 148.35 869.88 147.69Q869.12 147.02 867.85 147.02L867.85 147.02Q866.16 147.02 865.13 148.31Q864.09 149.60 864.09 151.73L864.09 151.73Q864.09 153.91 865.11 155.22Q866.14 156.53 867.85 156.53L867.85 156.53Q868.98 156.53 869.78 155.95Q870.59 155.37 870.86 154.34L870.86 154.34L872.78 154.34Q872.62 155.45 871.98 156.34Q871.34 157.22 870.29 157.74Q869.24 158.26 867.85 158.26ZM878.37 145.45L881.05 145.45L881.05 147.09L878.37 147.09L878.37 154.41Q878.37 155.22 878.61 155.63Q878.85 156.03 879.23 156.17Q879.61 156.30 880.04 156.30L880.04 156.30Q880.36 156.30 880.56 156.26Q880.76 156.23 880.89 156.20L880.89 156.20L881.28 157.93Q881.08 158.01 880.73 158.09Q880.38 158.16 879.84 158.16L879.84 158.16Q879.02 158.16 878.24 157.81Q877.46 157.46 876.95 156.74Q876.44 156.02 876.44 154.93L876.44 154.93L876.44 147.09L874.55 147.09L874.55 145.45L876.44 145.45L876.44 142.45L878.37 142.45L878.37 145.45ZM885.36 158.13L885.36 158.13Q884.76 158.13 884.32 157.70Q883.89 157.26 883.89 156.66L883.89 156.66Q883.89 156.06 884.32 155.62Q884.76 155.19 885.36 155.19L885.36 155.19Q885.97 155.19 886.40 155.62Q886.83 156.06 886.83 156.66L886.83 156.66Q886.83 157.26 886.40 157.70Q885.97 158.13 885.36 158.13Z" fill="#9C9082"/><path d="M60.14 185.64L60.14 185.64Q60.14 188.28 59.18 190.21Q58.23 192.14 56.56 193.18Q54.90 194.23 52.76 194.23L52.76 194.23Q50.62 194.23 48.95 193.18Q47.28 192.14 46.33 190.21Q45.37 188.28 45.37 185.64L45.37 185.64Q45.37 182.99 46.33 181.06Q47.28 179.13 48.95 178.09Q50.62 177.04 52.76 177.04L52.76 177.04Q54.90 177.04 56.56 178.09Q58.23 179.13 59.18 181.06Q60.14 182.99 60.14 185.64ZM58.18 185.64L58.18 185.64Q58.18 183.46 57.46 181.97Q56.73 180.47 55.50 179.71Q54.27 178.94 52.76 178.94L52.76 178.94Q51.24 178.94 50.01 179.71Q48.78 180.47 48.06 181.97Q47.33 183.46 47.33 185.64L47.33 185.64Q47.33 187.81 48.06 189.30Q48.78 190.80 50.01 191.57Q51.24 192.33 52.76 192.33L52.76 192.33Q54.27 192.33 55.50 191.57Q56.73 190.80 57.46 189.30Q58.18 187.81 58.18 185.64ZM65.20 186.45L65.20 186.45L65.20 194L63.28 194L63.28 181.45L65.14 181.45L65.14 183.41L65.30 183.41Q65.74 182.46 66.64 181.88Q67.54 181.29 68.96 181.29L68.96 181.29Q70.86 181.29 72.04 182.46Q73.21 183.63 73.21 186.03L73.21 186.03L73.21 194L71.28 194L71.28 186.16Q71.28 184.68 70.51 183.85Q69.74 183.02 68.40 183.02L68.40 183.02Q67.02 183.02 66.11 183.92Q65.20 184.81 65.20 186.45ZM82.00 194.26L82.00 194.26Q80.18 194.26 78.87 193.46Q77.56 192.65 76.85 191.20Q76.15 189.75 76.15 187.83L76.15 187.83Q76.15 185.90 76.85 184.42Q77.56 182.95 78.83 182.12Q80.10 181.29 81.80 181.29L81.80 181.29Q82.78 181.29 83.74 181.62Q84.69 181.94 85.48 182.68Q86.26 183.41 86.72 184.61Q87.19 185.81 87.19 187.56L87.19 187.56L87.19 188.38L78.08 188.38Q78.15 190.39 79.22 191.46Q80.30 192.53 82.00 192.53L82.00 192.53Q83.13 192.53 83.95 192.04Q84.76 191.55 85.13 190.57L85.13 190.57L86.99 191.09Q86.55 192.51 85.23 193.39Q83.91 194.26 82.00 194.26ZM78.08 186.71L78.08 186.71L85.23 186.71Q85.23 185.12 84.30 184.07Q83.37 183.02 81.80 183.02L81.80 183.02Q80.70 183.02 79.89 183.54Q79.08 184.05 78.61 184.90Q78.15 185.74 78.08 186.71ZM99.38 181.45L102.19 181.45L102.19 183.09L99.38 183.09L99.38 194L97.45 194L97.45 183.09L95.42 183.09L95.42 181.45L97.45 181.45L97.45 179.72Q97.45 178.64 97.96 177.93Q98.46 177.21 99.27 176.85Q100.08 176.49 100.98 176.49L100.98 176.49Q101.69 176.49 102.14 176.60Q102.59 176.72 102.81 176.82L102.81 176.82L102.25 178.48Q102.10 178.43 101.85 178.36Q101.59 178.29 101.17 178.29L101.17 178.29Q100.22 178.29 99.80 178.77Q99.38 179.25 99.38 180.18L99.38 180.18L99.38 181.45ZM108.59 194.29L108.59 194.29Q107.40 194.29 106.43 193.84Q105.45 193.39 104.88 192.53Q104.31 191.66 104.31 190.44L104.31 190.44Q104.31 189.36 104.73 188.69Q105.16 188.01 105.87 187.63Q106.58 187.25 107.44 187.05Q108.30 186.86 109.18 186.75L109.18 186.75Q110.32 186.60 111.04 186.52Q111.75 186.44 112.08 186.26Q112.41 186.07 112.41 185.60L112.41 185.60L112.41 185.54Q112.41 184.33 111.75 183.66Q111.10 182.99 109.77 182.99L109.77 182.99Q108.39 182.99 107.60 183.59Q106.82 184.20 106.50 184.88L106.50 184.88L104.67 184.23Q105.16 183.09 105.98 182.45Q106.80 181.81 107.78 181.55Q108.75 181.29 109.70 181.29L109.70 181.29Q110.30 181.29 111.09 181.43Q111.88 181.58 112.62 182.02Q113.36 182.46 113.85 183.35Q114.34 184.24 114.34 185.73L114.34 185.73L114.34 194L112.41 194L112.41 192.30L112.31 192.30Q112.12 192.71 111.66 193.18Q111.20 193.64 110.44 193.97Q109.68 194.29 108.59 194.29ZM108.88 192.56L108.88 192.56Q110.03 192.56 110.82 192.11Q111.60 191.66 112.01 190.95Q112.41 190.24 112.41 189.46L112.41 189.46L112.41 187.69Q112.29 187.84 111.88 187.96Q111.46 188.08 110.93 188.16Q110.39 188.25 109.89 188.31Q109.39 188.37 109.08 188.41L109.08 188.41Q108.33 188.51 107.68 188.73Q107.03 188.94 106.63 189.37Q106.24 189.80 106.24 190.54L106.24 190.54Q106.24 191.54 106.98 192.05Q107.73 192.56 108.88 192.56ZM122.96 194.26L122.96 194.26Q121.20 194.26 119.93 193.43Q118.65 192.60 117.97 191.13Q117.28 189.67 117.28 187.79L117.28 187.79Q117.28 185.88 117.99 184.42Q118.69 182.95 119.96 182.12Q121.23 181.29 122.93 181.29L122.93 181.29Q124.25 181.29 125.32 181.78Q126.38 182.27 127.06 183.15Q127.73 184.04 127.90 185.21L127.90 185.21L125.97 185.21Q125.75 184.35 124.99 183.69Q124.24 183.02 122.96 183.02L122.96 183.02Q121.27 183.02 120.24 184.31Q119.21 185.60 119.21 187.73L119.21 187.73Q119.21 189.91 120.23 191.22Q121.25 192.53 122.96 192.53L122.96 192.53Q124.09 192.53 124.90 191.95Q125.70 191.37 125.97 190.34L125.97 190.34L127.90 190.34Q127.73 191.45 127.09 192.34Q126.45 193.22 125.40 193.74Q124.35 194.26 122.96 194.26ZM133.48 181.45L136.16 181.45L136.16 183.09L133.48 183.09L133.48 190.41Q133.48 191.22 133.73 191.63Q133.97 192.03 134.35 192.17Q134.73 192.30 135.15 192.30L135.15 192.30Q135.47 192.30 135.67 192.26Q135.88 192.23 136 192.20L136 192.20L136.39 193.93Q136.20 194.01 135.84 194.09Q135.49 194.16 134.95 194.16L134.95 194.16Q134.14 194.16 133.36 193.81Q132.58 193.46 132.07 192.74Q131.56 192.02 131.56 190.93L131.56 190.93L131.56 183.09L129.66 183.09L129.66 181.45L131.56 181.45L131.56 178.45L133.48 178.45L133.48 181.45ZM147.66 194L145.80 194L145.80 177.27L147.73 177.27L147.73 183.45L147.89 183.45Q148.10 183.12 148.48 182.61Q148.86 182.10 149.58 181.70Q150.29 181.29 151.52 181.29L151.52 181.29Q153.10 181.29 154.31 182.08Q155.52 182.88 156.20 184.33Q156.88 185.78 156.88 187.76L156.88 187.76Q156.88 189.75 156.20 191.21Q155.52 192.67 154.32 193.47Q153.12 194.26 151.55 194.26L151.55 194.26Q150.34 194.26 149.62 193.86Q148.89 193.45 148.50 192.93Q148.10 192.42 147.89 192.07L147.89 192.07L147.66 192.07L147.66 194ZM147.70 187.73L147.70 187.73Q147.70 189.86 148.62 191.19Q149.55 192.53 151.29 192.53L151.29 192.53Q152.50 192.53 153.31 191.89Q154.12 191.25 154.54 190.16Q154.95 189.07 154.95 187.73L154.95 187.73Q154.95 186.40 154.54 185.34Q154.14 184.27 153.33 183.65Q152.51 183.02 151.29 183.02L151.29 183.02Q149.53 183.02 148.61 184.32Q147.70 185.62 147.70 187.73ZM163.51 194.29L163.51 194.29Q162.32 194.29 161.34 193.84Q160.37 193.39 159.80 192.53Q159.23 191.66 159.23 190.44L159.23 190.44Q159.23 189.36 159.65 188.69Q160.08 188.01 160.79 187.63Q161.50 187.25 162.36 187.05Q163.22 186.86 164.10 186.75L164.10 186.75Q165.24 186.60 165.95 186.52Q166.67 186.44 167.00 186.26Q167.33 186.07 167.33 185.60L167.33 185.60L167.33 185.54Q167.33 184.33 166.67 183.66Q166.02 182.99 164.68 182.99L164.68 182.99Q163.30 182.99 162.52 183.59Q161.74 184.20 161.42 184.88L161.42 184.88L159.59 184.23Q160.08 183.09 160.90 182.45Q161.72 181.81 162.70 181.55Q163.67 181.29 164.62 181.29L164.62 181.29Q165.22 181.29 166.01 181.43Q166.80 181.58 167.54 182.02Q168.28 182.46 168.77 183.35Q169.26 184.24 169.26 185.73L169.26 185.73L169.26 194L167.33 194L167.33 192.30L167.23 192.30Q167.04 192.71 166.58 193.18Q166.12 193.64 165.36 193.97Q164.60 194.29 163.51 194.29ZM163.80 192.56L163.80 192.56Q164.95 192.56 165.73 192.11Q166.52 191.66 166.93 190.95Q167.33 190.24 167.33 189.46L167.33 189.46L167.33 187.69Q167.21 187.84 166.80 187.96Q166.38 188.08 165.85 188.16Q165.31 188.25 164.81 188.31Q164.31 188.37 164.00 188.41L164.00 188.41Q163.25 188.51 162.60 188.73Q161.95 188.94 161.55 189.37Q161.16 189.80 161.16 190.54L161.16 190.54Q161.16 191.54 161.90 192.05Q162.65 192.56 163.80 192.56ZM181.67 184.26L181.67 184.26L179.94 184.75Q179.69 184.10 179.09 183.53Q178.50 182.96 177.23 182.96L177.23 182.96Q176.08 182.96 175.31 183.48Q174.55 184.01 174.55 184.82L174.55 184.82Q174.55 185.54 175.07 185.95Q175.60 186.37 176.71 186.65L176.71 186.65L178.57 187.11Q181.90 187.92 181.90 190.50L181.90 190.50Q181.90 191.58 181.29 192.43Q180.67 193.28 179.57 193.77Q178.46 194.26 177.00 194.26L177.00 194.26Q175.08 194.26 173.82 193.43Q172.57 192.60 172.23 190.99L172.23 190.99L174.06 190.54Q174.58 192.56 176.97 192.56L176.97 192.56Q178.32 192.56 179.11 191.99Q179.91 191.41 179.91 190.60L179.91 190.60Q179.91 189.27 178.05 188.84L178.05 188.84L175.96 188.35Q174.23 187.94 173.43 187.08Q172.62 186.22 172.62 184.92L172.62 184.92Q172.62 183.86 173.22 183.04Q173.82 182.22 174.87 181.76Q175.91 181.29 177.23 181.29L177.23 181.29Q179.09 181.29 180.16 182.11Q181.22 182.92 181.67 184.26ZM190.07 194.26L190.07 194.26Q188.26 194.26 186.95 193.46Q185.63 192.65 184.93 191.20Q184.22 189.75 184.22 187.83L184.22 187.83Q184.22 185.90 184.93 184.42Q185.63 182.95 186.90 182.12Q188.17 181.29 189.87 181.29L189.87 181.29Q190.85 181.29 191.81 181.62Q192.76 181.94 193.55 182.68Q194.33 183.41 194.80 184.61Q195.26 185.81 195.26 187.56L195.26 187.56L195.26 188.38L186.16 188.38Q186.22 190.39 187.30 191.46Q188.37 192.53 190.07 192.53L190.07 192.53Q191.20 192.53 192.02 192.04Q192.84 191.55 193.21 190.57L193.21 190.57L195.07 191.09Q194.63 192.51 193.30 193.39Q191.98 194.26 190.07 194.26ZM186.16 186.71L186.16 186.71L193.30 186.71Q193.30 185.12 192.37 184.07Q191.44 183.02 189.87 183.02L189.87 183.02Q188.77 183.02 187.96 183.54Q187.15 184.05 186.69 184.90Q186.22 185.74 186.16 186.71ZM199.61 194.13L199.61 194.13Q199.00 194.13 198.57 193.70Q198.14 193.26 198.14 192.66L198.14 192.66Q198.14 192.06 198.57 191.62Q199.00 191.19 199.61 191.19L199.61 191.19Q200.21 191.19 200.65 191.62Q201.08 192.06 201.08 192.66L201.08 192.66Q201.08 193.26 200.65 193.70Q200.21 194.13 199.61 194.13ZM221.50 194L211.27 194L211.27 177.27L221.37 177.27L221.37 179.07L213.30 179.07L213.30 184.72L220.85 184.72L220.85 186.52L213.30 186.52L213.30 192.20L221.50 192.20L221.50 194ZM232.93 181.45L235.02 181.45L230.38 194L228.42 194L223.79 181.45L225.88 181.45L229.34 191.45L229.47 191.45L232.93 181.45ZM242.83 194.26L242.83 194.26Q241.02 194.26 239.71 193.46Q238.40 192.65 237.69 191.20Q236.98 189.75 236.98 187.83L236.98 187.83Q236.98 185.90 237.69 184.42Q238.40 182.95 239.67 182.12Q240.94 181.29 242.64 181.29L242.64 181.29Q243.62 181.29 244.57 181.62Q245.53 181.94 246.31 182.68Q247.10 183.41 247.56 184.61Q248.03 185.81 248.03 187.56L248.03 187.56L248.03 188.38L238.92 188.38Q238.99 190.39 240.06 191.46Q241.13 192.53 242.83 192.53L242.83 192.53Q243.97 192.53 244.78 192.04Q245.60 191.55 245.97 190.57L245.97 190.57L247.83 191.09Q247.39 192.51 246.07 193.39Q244.74 194.26 242.83 194.26ZM238.92 186.71L238.92 186.71L246.07 186.71Q246.07 185.12 245.14 184.07Q244.20 183.02 242.64 183.02L242.64 183.02Q241.53 183.02 240.73 183.54Q239.92 184.05 239.45 184.90Q238.99 185.74 238.92 186.71ZM252.89 194L250.97 194L250.97 181.45L252.83 181.45L252.83 183.35L252.96 183.35Q253.30 182.42 254.20 181.84Q255.10 181.26 256.23 181.26L256.23 181.26Q256.44 181.26 256.76 181.27Q257.08 181.27 257.24 181.29L257.24 181.29L257.24 183.25Q257.14 183.23 256.79 183.17Q256.45 183.12 256.06 183.12L256.06 183.12Q254.69 183.12 253.79 183.95Q252.89 184.79 252.89 186.06L252.89 186.06L252.89 194ZM260.77 198.70L260.77 198.70Q260.28 198.70 259.89 198.63Q259.51 198.55 259.36 198.48L259.36 198.48L259.85 196.78Q260.56 196.96 261.10 196.91Q261.63 196.86 262.05 196.43Q262.48 196.00 262.83 195.05L262.83 195.05L263.19 194.07L258.55 181.45L260.64 181.45L264.10 191.45L264.23 191.45L267.69 181.45L269.79 181.45L264.46 195.83Q263.39 198.70 260.77 198.70ZM278.80 177.27L280.73 177.27L280.73 194L278.80 194L278.80 177.27ZM286.19 194L284.26 194L284.26 181.45L286.19 181.45L286.19 194ZM285.24 179.36L285.24 179.36Q284.68 179.36 284.27 178.98Q283.87 178.60 283.87 178.06L283.87 178.06Q283.87 177.52 284.27 177.13Q284.68 176.75 285.24 176.75L285.24 176.75Q285.80 176.75 286.21 177.13Q286.61 177.52 286.61 178.06L286.61 178.06Q286.61 178.60 286.21 178.98Q285.80 179.36 285.24 179.36ZM291.64 186.45L291.64 186.45L291.64 194L289.71 194L289.71 181.45L291.58 181.45L291.58 183.41L291.74 183.41Q292.18 182.46 293.08 181.88Q293.98 181.29 295.40 181.29L295.40 181.29Q297.30 181.29 298.47 182.46Q299.65 183.63 299.65 186.03L299.65 186.03L299.65 194L297.72 194L297.72 186.16Q297.72 184.68 296.95 183.85Q296.18 183.02 294.84 183.02L294.84 183.02Q293.46 183.02 292.55 183.92Q291.64 184.81 291.64 186.45ZM308.43 194.26L308.43 194.26Q306.62 194.26 305.31 193.46Q304.00 192.65 303.29 191.20Q302.59 189.75 302.59 187.83L302.59 187.83Q302.59 185.90 303.29 184.42Q304.00 182.95 305.27 182.12Q306.54 181.29 308.24 181.29L308.24 181.29Q309.22 181.29 310.17 181.62Q311.13 181.94 311.91 182.68Q312.70 183.41 313.16 184.61Q313.63 185.81 313.63 187.56L313.63 187.56L313.63 188.38L304.52 188.38Q304.59 190.39 305.66 191.46Q306.74 192.53 308.43 192.53L308.43 192.53Q309.57 192.53 310.39 192.04Q311.20 191.55 311.57 190.57L311.57 190.57L313.43 191.09Q312.99 192.51 311.67 193.39Q310.35 194.26 308.43 194.26ZM304.52 186.71L304.52 186.71L311.67 186.71Q311.67 185.12 310.74 184.07Q309.81 183.02 308.24 183.02L308.24 183.02Q307.14 183.02 306.33 183.54Q305.52 184.05 305.05 184.90Q304.59 185.74 304.52 186.71ZM328.13 194.26L328.13 194.26Q326.37 194.26 325.10 193.43Q323.82 192.60 323.14 191.13Q322.45 189.67 322.45 187.79L322.45 187.79Q322.45 185.88 323.16 184.42Q323.86 182.95 325.13 182.12Q326.40 181.29 328.10 181.29L328.10 181.29Q329.43 181.29 330.49 181.78Q331.55 182.27 332.23 183.15Q332.90 184.04 333.07 185.21L333.07 185.21L331.14 185.21Q330.92 184.35 330.16 183.69Q329.41 183.02 328.13 183.02L328.13 183.02Q326.44 183.02 325.41 184.31Q324.38 185.60 324.38 187.73L324.38 187.73Q324.38 189.91 325.40 191.22Q326.42 192.53 328.13 192.53L328.13 192.53Q329.26 192.53 330.07 191.95Q330.87 191.37 331.14 190.34L331.14 190.34L333.07 190.34Q332.90 191.45 332.26 192.34Q331.62 193.22 330.57 193.74Q329.52 194.26 328.13 194.26ZM337.81 186.45L337.81 186.45L337.81 194L335.88 194L335.88 177.27L337.81 177.27L337.81 183.41L337.97 183.41Q338.41 182.44 339.30 181.87Q340.18 181.29 341.66 181.29L341.66 181.29Q343.59 181.29 344.76 182.45Q345.94 183.61 345.94 186.03L345.94 186.03L345.94 194L344.01 194L344.01 186.16Q344.01 184.66 343.24 183.84Q342.47 183.02 341.11 183.02L341.11 183.02Q339.68 183.02 338.74 183.92Q337.81 184.81 337.81 186.45ZM354.73 194.26L354.73 194.26Q352.92 194.26 351.60 193.46Q350.29 192.65 349.59 191.20Q348.88 189.75 348.88 187.83L348.88 187.83Q348.88 185.90 349.59 184.42Q350.29 182.95 351.56 182.12Q352.83 181.29 354.53 181.29L354.53 181.29Q355.51 181.29 356.47 181.62Q357.42 181.94 358.21 182.68Q358.99 183.41 359.46 184.61Q359.92 185.81 359.92 187.56L359.92 187.56L359.92 188.38L350.82 188.38Q350.88 190.39 351.96 191.46Q353.03 192.53 354.73 192.53L354.73 192.53Q355.86 192.53 356.68 192.04Q357.50 191.55 357.87 190.57L357.87 190.57L359.73 191.09Q359.29 192.51 357.96 193.39Q356.64 194.26 354.73 194.26ZM350.82 186.71L350.82 186.71L357.96 186.71Q357.96 185.12 357.03 184.07Q356.10 183.02 354.53 183.02L354.53 183.02Q353.43 183.02 352.62 183.54Q351.81 184.05 351.35 184.90Q350.88 185.74 350.82 186.71ZM367.96 194.26L367.96 194.26Q366.20 194.26 364.92 193.43Q363.65 192.60 362.96 191.13Q362.28 189.67 362.28 187.79L362.28 187.79Q362.28 185.88 362.98 184.42Q363.69 182.95 364.96 182.12Q366.23 181.29 367.93 181.29L367.93 181.29Q369.25 181.29 370.31 181.78Q371.37 182.27 372.05 183.15Q372.73 184.04 372.89 185.21L372.89 185.21L370.97 185.21Q370.75 184.35 369.99 183.69Q369.23 183.02 367.96 183.02L367.96 183.02Q366.27 183.02 365.24 184.31Q364.20 185.60 364.20 187.73L364.20 187.73Q364.20 189.91 365.22 191.22Q366.25 192.53 367.96 192.53L367.96 192.53Q369.09 192.53 369.89 191.95Q370.70 191.37 370.97 190.34L370.97 190.34L372.89 190.34Q372.73 191.45 372.09 192.34Q371.45 193.22 370.40 193.74Q369.35 194.26 367.96 194.26ZM377.63 194L375.70 194L375.70 177.27L377.63 177.27L377.63 187.04L377.86 187.04L383.35 181.45L385.73 181.45L380.43 186.81L386.13 194L383.67 194L378.98 188.05L377.63 189.30L377.63 194ZM393.48 194.26L393.48 194.26Q391.66 194.26 390.35 193.46Q389.04 192.65 388.33 191.20Q387.63 189.75 387.63 187.83L387.63 187.83Q387.63 185.90 388.33 184.42Q389.04 182.95 390.31 182.12Q391.58 181.29 393.28 181.29L393.28 181.29Q394.26 181.29 395.22 181.62Q396.17 181.94 396.96 182.68Q397.74 183.41 398.20 184.61Q398.67 185.81 398.67 187.56L398.67 187.56L398.67 188.38L389.56 188.38Q389.63 190.39 390.70 191.46Q391.78 192.53 393.48 192.53L393.48 192.53Q394.61 192.53 395.43 192.04Q396.24 191.55 396.61 190.57L396.61 190.57L398.47 191.09Q398.03 192.51 396.71 193.39Q395.39 194.26 393.48 194.26ZM389.56 186.71L389.56 186.71L396.71 186.71Q396.71 185.12 395.78 184.07Q394.85 183.02 393.28 183.02L393.28 183.02Q392.18 183.02 391.37 183.54Q390.56 184.05 390.09 184.90Q389.63 185.74 389.56 186.71ZM406.35 194.26L406.35 194.26Q404.78 194.26 403.58 193.47Q402.38 192.67 401.70 191.21Q401.02 189.75 401.02 187.76L401.02 187.76Q401.02 185.78 401.70 184.33Q402.38 182.88 403.59 182.08Q404.80 181.29 406.38 181.29L406.38 181.29Q407.61 181.29 408.32 181.70Q409.04 182.10 409.41 182.61Q409.79 183.12 410.01 183.45L410.01 183.45L410.17 183.45L410.17 177.27L412.10 177.27L412.10 194L410.24 194L410.24 192.07L410.01 192.07Q409.79 192.42 409.40 192.93Q409.01 193.45 408.28 193.86Q407.56 194.26 406.35 194.26ZM406.61 192.53L406.61 192.53Q408.35 192.53 409.28 191.19Q410.20 189.86 410.20 187.73L410.20 187.73Q410.20 185.62 409.29 184.32Q408.37 183.02 406.61 183.02L406.61 183.02Q405.38 183.02 404.57 183.65Q403.76 184.27 403.35 185.34Q402.95 186.40 402.95 187.73L402.95 187.73Q402.95 189.07 403.36 190.16Q403.78 191.25 404.59 191.89Q405.40 192.53 406.61 192.53ZM417.29 194.13L417.29 194.13Q416.69 194.13 416.26 193.70Q415.82 193.26 415.82 192.66L415.82 192.66Q415.82 192.06 416.26 191.62Q416.69 191.19 417.29 191.19L417.29 191.19Q417.90 191.19 418.33 191.62Q418.76 192.06 418.76 192.66L418.76 192.66Q418.76 193.26 418.33 193.70Q417.90 194.13 417.29 194.13Z" fill="#9C9082"/><g id="tags"><rect x="44" y="256" width="72" height="32" rx="7" fill="#0A2724" stroke="#0E4B45" stroke-width="1"/><path d="M62.70 277.17L62.70 277.17Q61.92 277.17 61.61 276.85Q61.29 276.52 61.29 276.03L61.29 276.03L61.29 275.69Q61.29 275.19 61.61 274.87Q61.92 274.55 62.70 274.55L62.70 274.55Q63.48 274.55 63.79 274.87Q64.11 275.19 64.11 275.69L64.11 275.69L64.11 276.03Q64.11 276.52 63.79 276.85Q63.48 277.17 62.70 277.17ZM76.02 277L71.50 265.83L71.36 265.83L71.36 277L69.92 277L69.92 263.74L72.18 263.74L76.70 274.91L76.84 274.91L76.84 263.74L78.28 263.74L78.28 277L76.02 277ZM89.68 277L81.51 277L81.51 263.74L89.68 263.74L89.68 265.13L83.11 265.13L83.11 269.59L89.45 269.59L89.45 270.98L83.11 270.98L83.11 275.61L89.68 275.61L89.68 277ZM102.13 265.13L97.70 265.13L97.70 277L96.10 277L96.10 265.13L91.68 265.13L91.68 263.74L102.13 263.74L102.13 265.13Z" fill="#2DD4BF"/><rect x="128" y="256" width="60" height="32" rx="7" fill="#0A2724" stroke="#0E4B45" stroke-width="1"/><path d="M147.14 277.23L147.14 277.23Q144.71 277.23 143.52 275.46Q142.33 273.69 142.33 270.37L142.33 270.37Q142.33 267.04 143.52 265.28Q144.71 263.51 147.14 263.51L147.14 263.51Q148.05 263.51 148.71 263.76Q149.38 264.00 149.85 264.42Q150.33 264.84 150.65 265.36Q150.97 265.88 151.22 266.42L151.22 266.42L149.85 267.04Q149.68 266.61 149.46 266.22Q149.23 265.83 148.91 265.53Q148.60 265.24 148.17 265.07Q147.75 264.90 147.14 264.90L147.14 264.90Q145.56 264.90 144.79 266.09Q144.02 267.29 144.02 269.29L144.02 269.29L144.02 271.45Q144.02 273.45 144.79 274.64Q145.56 275.84 147.14 275.84L147.14 275.84Q147.75 275.84 148.17 275.67Q148.60 275.50 148.91 275.20Q149.23 274.91 149.46 274.52Q149.68 274.13 149.85 273.69L149.85 273.69L151.22 274.32Q150.97 274.87 150.65 275.38Q150.33 275.90 149.85 276.32Q149.38 276.73 148.71 276.98Q148.05 277.23 147.14 277.23ZM162.56 277L154.68 277L154.68 263.74L156.28 263.74L156.28 275.61L162.56 275.61L162.56 277ZM173.60 277L165.40 277L165.40 275.73L168.70 275.73L168.70 265.01L165.40 265.01L165.40 263.74L173.60 263.74L173.60 265.01L170.30 265.01L170.30 275.73L173.60 275.73L173.60 277Z" fill="#2DD4BF"/><rect x="200" y="256" width="60" height="32" rx="7" fill="#0A2724" stroke="#0E4B45" stroke-width="1"/><path d="M223.16 277L215.28 277L215.28 263.74L216.88 263.74L216.88 275.61L223.16 275.61L223.16 277ZM234.56 277L226.68 277L226.68 263.74L228.28 263.74L228.28 275.61L234.56 275.61L234.56 277ZM244.45 277L244.45 270.35L244.45 266.15L244.29 266.15L241.50 272.97L238.71 266.15L238.56 266.15L238.56 270.35L238.56 277L237.09 277L237.09 263.74L239.14 263.74L241.48 269.59L241.59 269.59L243.93 263.74L245.91 263.74L245.91 277L244.45 277Z" fill="#2DD4BF"/></g><line x1="44" y1="312" x2="1156" y2="312" stroke="#332A21" stroke-width="1"/><path d="M55.22 342.18L55.22 342.18Q55.22 343.74 53.92 344.49Q52.62 345.24 50.02 345.24L50.02 345.24Q47.52 345.24 46.43 344.58Q45.34 343.92 45.34 342.68L45.34 342.68Q45.34 341.84 45.78 341.38Q46.22 340.92 47.02 340.70L47.02 340.70L47.02 340.46Q46.58 340.24 46.34 339.90Q46.10 339.56 46.10 339.04L46.10 339.04Q46.10 338.24 46.63 337.84Q47.16 337.44 47.96 337.24L47.96 337.24L47.96 337.16Q47 336.74 46.47 335.92Q45.94 335.10 45.94 334L45.94 334Q45.94 333.22 46.22 332.56Q46.50 331.90 47.03 331.43Q47.56 330.96 48.30 330.70Q49.04 330.44 49.94 330.44L49.94 330.44Q51.10 330.44 51.98 330.86L51.98 330.86L51.98 330.68Q51.98 330.08 52.26 329.68Q52.54 329.28 53.22 329.28L53.22 329.28L55.12 329.28L55.12 330.68L52.80 330.68L52.80 331.38Q53.36 331.86 53.66 332.52Q53.96 333.18 53.96 334L53.96 334Q53.96 334.78 53.67 335.44Q53.38 336.10 52.86 336.57Q52.34 337.04 51.59 337.30Q50.84 337.56 49.94 337.56L49.94 337.56Q49.68 337.56 49.44 337.54Q49.20 337.52 48.96 337.48L48.96 337.48Q48.72 337.52 48.46 337.61Q48.20 337.70 47.98 337.85Q47.76 338 47.62 338.20Q47.48 338.40 47.48 338.66L47.48 338.66Q47.48 339.12 47.94 339.27Q48.40 339.42 49.14 339.42L49.14 339.42L51.42 339.42Q53.42 339.42 54.32 340.17Q55.22 340.92 55.22 342.18ZM53.72 342.26L53.72 342.26Q53.72 341.64 53.22 341.27Q52.72 340.90 51.48 340.90L51.48 340.90L47.90 340.90Q46.86 341.32 46.86 342.30L46.86 342.30Q46.86 342.98 47.40 343.47Q47.94 343.96 49.20 343.96L49.20 343.96L50.76 343.96Q52.16 343.96 52.94 343.53Q53.72 343.10 53.72 342.26ZM49.94 336.32L49.94 336.32Q51.14 336.32 51.71 335.76Q52.28 335.20 52.28 334.28L52.28 334.28L52.28 333.70Q52.28 332.78 51.71 332.23Q51.14 331.68 49.94 331.68L49.94 331.68Q48.74 331.68 48.18 332.23Q47.62 332.78 47.62 333.70L47.62 333.70L47.62 334.28Q47.62 335.20 48.18 335.76Q48.74 336.32 49.94 336.32ZM62.64 328.40L62.64 328.40Q61.94 328.40 61.66 328.11Q61.38 327.82 61.38 327.38L61.38 327.38L61.38 327.06Q61.38 326.62 61.66 326.33Q61.94 326.04 62.64 326.04L62.64 326.04Q63.34 326.04 63.62 326.33Q63.90 326.62 63.90 327.06L63.90 327.06L63.90 327.38Q63.90 327.82 63.62 328.11Q63.34 328.40 62.64 328.40ZM58.12 341L58.12 339.64L61.84 339.64L61.84 332.04L58.12 332.04L58.12 330.68L63.44 330.68L63.44 339.64L66.92 339.64L66.92 341L58.12 341ZM78.52 341L74.50 341Q73.32 341 72.77 340.34Q72.22 339.68 72.22 338.64L72.22 338.64L72.22 332.04L68.78 332.04L68.78 330.68L71.34 330.68Q71.86 330.68 72.07 330.47Q72.28 330.26 72.28 329.74L72.28 329.74L72.28 327.04L73.82 327.04L73.82 330.68L78.52 330.68L78.52 332.04L73.82 332.04L73.82 339.64L78.52 339.64L78.52 341ZM81.96 341L81.96 326.20L83.56 326.20L83.56 332.36L83.64 332.36Q83.80 331.98 84.04 331.63Q84.28 331.28 84.63 331.02Q84.98 330.76 85.46 330.60Q85.94 330.44 86.58 330.44L86.58 330.44Q88.20 330.44 89.18 331.47Q90.16 332.50 90.16 334.38L90.16 334.38L90.16 341L88.56 341L88.56 334.66Q88.56 333.24 87.94 332.55Q87.32 331.86 86.12 331.86L86.12 331.86Q85.64 331.86 85.18 331.98Q84.72 332.10 84.36 332.34Q84 332.58 83.78 332.96Q83.56 333.34 83.56 333.84L83.56 333.84L83.56 341L81.96 341ZM100.44 341L100.44 339.32L100.36 339.32Q100.20 339.70 99.96 340.05Q99.72 340.40 99.37 340.66Q99.02 340.92 98.54 341.08Q98.06 341.24 97.42 341.24L97.42 341.24Q95.80 341.24 94.82 340.21Q93.84 339.18 93.84 337.30L93.84 337.30L93.84 330.68L95.44 330.68L95.44 337.02Q95.44 338.44 96.06 339.13Q96.68 339.82 97.88 339.82L97.88 339.82Q98.36 339.82 98.82 339.70Q99.28 339.58 99.64 339.34Q100 339.10 100.22 338.73Q100.44 338.36 100.44 337.84L100.44 337.84L100.44 330.68L102.04 330.68L102.04 341L100.44 341ZM105.90 341L105.90 326.20L107.50 326.20L107.50 332.36L107.58 332.36Q108.58 330.44 110.76 330.44L110.76 330.44Q112.66 330.44 113.73 331.86Q114.80 333.28 114.80 335.84L114.80 335.84Q114.80 338.40 113.73 339.82Q112.66 341.24 110.76 341.24L110.76 341.24Q108.58 341.24 107.58 339.32L107.58 339.32L107.50 339.32L107.50 341L105.90 341ZM110.14 339.82L110.14 339.82Q111.54 339.82 112.31 338.97Q113.08 338.12 113.08 336.72L113.08 336.72L113.08 334.96Q113.08 333.56 112.31 332.71Q111.54 331.86 110.14 331.86L110.14 331.86Q109.60 331.86 109.12 332Q108.64 332.14 108.28 332.41Q107.92 332.68 107.71 333.07Q107.50 333.46 107.50 333.98L107.50 333.98L107.50 337.70Q107.50 338.22 107.71 338.61Q107.92 339 108.28 339.27Q108.64 339.54 109.12 339.68Q109.60 339.82 110.14 339.82ZM122 341.18L122 341.18Q121.18 341.18 120.85 340.84Q120.52 340.50 120.52 339.98L120.52 339.98L120.52 339.62Q120.52 339.10 120.85 338.76Q121.18 338.42 122 338.42L122 338.42Q122.82 338.42 123.15 338.76Q123.48 339.10 123.48 339.62L123.48 339.62L123.48 339.98Q123.48 340.50 123.15 340.84Q122.82 341.18 122 341.18ZM134.36 341.24L134.36 341.24Q133.24 341.24 132.37 340.85Q131.50 340.46 130.90 339.76Q130.30 339.06 129.99 338.06Q129.68 337.06 129.68 335.84L129.68 335.84Q129.68 334.62 130 333.62Q130.32 332.62 130.92 331.91Q131.52 331.20 132.38 330.82Q133.24 330.44 134.34 330.44L134.34 330.44Q135.84 330.44 136.78 331.10Q137.72 331.76 138.16 332.82L138.16 332.82L136.88 333.50Q136.60 332.70 135.95 332.26Q135.30 331.82 134.34 331.82L134.34 331.82Q133.64 331.82 133.09 332.05Q132.54 332.28 132.16 332.70Q131.78 333.12 131.59 333.70Q131.40 334.28 131.40 334.96L131.40 334.96L131.40 336.72Q131.40 337.40 131.59 337.98Q131.78 338.56 132.16 338.98Q132.54 339.40 133.10 339.63Q133.66 339.86 134.38 339.86L134.38 339.86Q135.42 339.86 136.10 339.38Q136.78 338.90 137.18 338.06L137.18 338.06L138.32 338.84Q137.86 339.88 136.89 340.56Q135.92 341.24 134.36 341.24ZM146 341.24L146 341.24Q144.92 341.24 144.05 340.86Q143.18 340.48 142.57 339.77Q141.96 339.06 141.64 338.07Q141.32 337.08 141.32 335.84L141.32 335.84Q141.32 334.62 141.64 333.62Q141.96 332.62 142.57 331.91Q143.18 331.20 144.05 330.82Q144.92 330.44 146 330.44L146 330.44Q147.08 330.44 147.95 330.82Q148.82 331.20 149.43 331.91Q150.04 332.62 150.36 333.62Q150.68 334.62 150.68 335.84L150.68 335.84Q150.68 337.08 150.36 338.07Q150.04 339.06 149.43 339.77Q148.82 340.48 147.95 340.86Q147.08 341.24 146 341.24ZM146 339.86L146 339.86Q147.34 339.86 148.16 339.06Q148.98 338.26 148.98 336.58L148.98 336.58L148.98 335.10Q148.98 333.42 148.16 332.62Q147.34 331.82 146 331.82L146 331.82Q144.66 331.82 143.84 332.62Q143.02 333.42 143.02 335.10L143.02 335.10L143.02 336.58Q143.02 338.26 143.84 339.06Q144.66 339.86 146 339.86ZM154.56 341L153.08 341L153.08 330.68L154.56 330.68L154.56 331.88L154.64 331.88Q154.88 331.28 155.32 330.86Q155.76 330.44 156.62 330.44L156.62 330.44Q157.52 330.44 157.96 330.89Q158.40 331.34 158.50 332.06L158.50 332.06L158.56 332.06Q158.84 331.36 159.36 330.90Q159.88 330.44 160.80 330.44L160.80 330.44Q162.06 330.44 162.49 331.32Q162.92 332.20 162.92 333.84L162.92 333.84L162.92 341L161.44 341L161.44 334.10Q161.44 332.78 161.17 332.27Q160.90 331.76 160.18 331.76L160.18 331.76Q159.54 331.76 159.14 332.17Q158.74 332.58 158.74 333.42L158.74 333.42L158.74 341L157.26 341L157.26 334.10Q157.26 332.78 156.99 332.27Q156.72 331.76 156.02 331.76L156.02 331.76Q155.38 331.76 154.97 332.17Q154.56 332.58 154.56 333.42L154.56 333.42L154.56 341ZM167.24 343.76L165.80 343.76L172.76 325.80L174.20 325.80L167.24 343.76ZM187.22 342.18L187.22 342.18Q187.22 343.74 185.92 344.49Q184.62 345.24 182.02 345.24L182.02 345.24Q179.52 345.24 178.43 344.58Q177.34 343.92 177.34 342.68L177.34 342.68Q177.34 341.84 177.78 341.38Q178.22 340.92 179.02 340.70L179.02 340.70L179.02 340.46Q178.58 340.24 178.34 339.90Q178.10 339.56 178.10 339.04L178.10 339.04Q178.10 338.24 178.63 337.84Q179.16 337.44 179.96 337.24L179.96 337.24L179.96 337.16Q179 336.74 178.47 335.92Q177.94 335.10 177.94 334L177.94 334Q177.94 333.22 178.22 332.56Q178.50 331.90 179.03 331.43Q179.56 330.96 180.30 330.70Q181.04 330.44 181.94 330.44L181.94 330.44Q183.10 330.44 183.98 330.86L183.98 330.86L183.98 330.68Q183.98 330.08 184.26 329.68Q184.54 329.28 185.22 329.28L185.22 329.28L187.12 329.28L187.12 330.68L184.80 330.68L184.80 331.38Q185.36 331.86 185.66 332.52Q185.96 333.18 185.96 334L185.96 334Q185.96 334.78 185.67 335.44Q185.38 336.10 184.86 336.57Q184.34 337.04 183.59 337.30Q182.84 337.56 181.94 337.56L181.94 337.56Q181.68 337.56 181.44 337.54Q181.20 337.52 180.96 337.48L180.96 337.48Q180.72 337.52 180.46 337.61Q180.20 337.70 179.98 337.85Q179.76 338 179.62 338.20Q179.48 338.40 179.48 338.66L179.48 338.66Q179.48 339.12 179.94 339.27Q180.40 339.42 181.14 339.42L181.14 339.42L183.42 339.42Q185.42 339.42 186.32 340.17Q187.22 340.92 187.22 342.18ZM185.72 342.26L185.72 342.26Q185.72 341.64 185.22 341.27Q184.72 340.90 183.48 340.90L183.48 340.90L179.90 340.90Q178.86 341.32 178.86 342.30L178.86 342.30Q178.86 342.98 179.40 343.47Q179.94 343.96 181.20 343.96L181.20 343.96L182.76 343.96Q184.16 343.96 184.94 343.53Q185.72 343.10 185.72 342.26ZM181.94 336.32L181.94 336.32Q183.14 336.32 183.71 335.76Q184.28 335.20 184.28 334.28L184.28 334.28L184.28 333.70Q184.28 332.78 183.71 332.23Q183.14 331.68 181.94 331.68L181.94 331.68Q180.74 331.68 180.18 332.23Q179.62 332.78 179.62 333.70L179.62 333.70L179.62 334.28Q179.62 335.20 180.18 335.76Q180.74 336.32 181.94 336.32ZM194 341.24L194 341.24Q192.92 341.24 192.05 340.86Q191.18 340.48 190.57 339.77Q189.96 339.06 189.64 338.07Q189.32 337.08 189.32 335.84L189.32 335.84Q189.32 334.62 189.64 333.62Q189.96 332.62 190.57 331.91Q191.18 331.20 192.05 330.82Q192.92 330.44 194 330.44L194 330.44Q195.08 330.44 195.95 330.82Q196.82 331.20 197.43 331.91Q198.04 332.62 198.36 333.62Q198.68 334.62 198.68 335.84L198.68 335.84Q198.68 337.08 198.36 338.07Q198.04 339.06 197.43 339.77Q196.82 340.48 195.95 340.86Q195.08 341.24 194 341.24ZM194 339.86L194 339.86Q195.34 339.86 196.16 339.06Q196.98 338.26 196.98 336.58L196.98 336.58L196.98 335.10Q196.98 333.42 196.16 332.62Q195.34 331.82 194 331.82L194 331.82Q192.66 331.82 191.84 332.62Q191.02 333.42 191.02 335.10L191.02 335.10L191.02 336.58Q191.02 338.26 191.84 339.06Q192.66 339.86 194 339.86ZM201.60 341L201.60 339.64L205.20 339.64L205.20 327.56L201.60 327.56L201.60 326.20L206.80 326.20L206.80 339.64L210.40 339.64L210.40 341L201.60 341ZM220.50 341L220.50 339.32L220.42 339.32Q219.42 341.24 217.24 341.24L217.24 341.24Q215.34 341.24 214.27 339.82Q213.20 338.40 213.20 335.84L213.20 335.84Q213.20 333.28 214.27 331.86Q215.34 330.44 217.24 330.44L217.24 330.44Q219.42 330.44 220.42 332.36L220.42 332.36L220.50 332.36L220.50 326.20L222.10 326.20L222.10 341L220.50 341ZM217.86 339.82L217.86 339.82Q218.40 339.82 218.88 339.68Q219.36 339.54 219.72 339.27Q220.08 339 220.29 338.61Q220.50 338.22 220.50 337.70L220.50 337.70L220.50 333.98Q220.50 333.46 220.29 333.07Q220.08 332.68 219.72 332.41Q219.36 332.14 218.88 332Q218.40 331.86 217.86 331.86L217.86 331.86Q216.46 331.86 215.69 332.71Q214.92 333.56 214.92 334.96L214.92 334.96L214.92 336.72Q214.92 338.12 215.69 338.97Q216.46 339.82 217.86 339.82ZM225.90 341L225.90 326.20L227.50 326.20L227.50 332.36L227.58 332.36Q228.58 330.44 230.76 330.44L230.76 330.44Q232.66 330.44 233.73 331.86Q234.80 333.28 234.80 335.84L234.80 335.84Q234.80 338.40 233.73 339.82Q232.66 341.24 230.76 341.24L230.76 341.24Q228.58 341.24 227.58 339.32L227.58 339.32L227.50 339.32L227.50 341L225.90 341ZM230.14 339.82L230.14 339.82Q231.54 339.82 232.31 338.97Q233.08 338.12 233.08 336.72L233.08 336.72L233.08 334.96Q233.08 333.56 232.31 332.71Q231.54 331.86 230.14 331.86L230.14 331.86Q229.60 331.86 229.12 332Q228.64 332.14 228.28 332.41Q227.92 332.68 227.71 333.07Q227.50 333.46 227.50 333.98L227.50 333.98L227.50 337.70Q227.50 338.22 227.71 338.61Q227.92 339 228.28 339.27Q228.64 339.54 229.12 339.68Q229.60 339.82 230.14 339.82ZM247 341L245.90 341Q244.96 341 244.56 340.52Q244.16 340.04 244.06 339.32L244.06 339.32L243.96 339.32Q243.62 340.22 242.87 340.73Q242.12 341.24 240.86 341.24L240.86 341.24Q239.24 341.24 238.28 340.40Q237.32 339.56 237.32 338.10L237.32 338.10Q237.32 336.66 238.37 335.88Q239.42 335.10 241.76 335.10L241.76 335.10L243.96 335.10L243.96 334.08Q243.96 332.94 243.32 332.37Q242.68 331.80 241.50 331.80L241.50 331.80Q240.46 331.80 239.80 332.21Q239.14 332.62 238.74 333.32L238.74 333.32L237.66 332.52Q237.86 332.12 238.20 331.74Q238.54 331.36 239.04 331.07Q239.54 330.78 240.18 330.61Q240.82 330.44 241.60 330.44L241.60 330.44Q243.42 330.44 244.49 331.36Q245.56 332.28 245.56 333.92L245.56 333.92L245.56 339.60L247 339.60L247 341ZM241.14 339.90L241.14 339.90Q241.76 339.90 242.27 339.75Q242.78 339.60 243.16 339.35Q243.54 339.10 243.75 338.75Q243.96 338.40 243.96 338L243.96 338L243.96 336.30L241.76 336.30Q240.32 336.30 239.66 336.70Q239 337.10 239 337.86L239 337.86L239 338.28Q239 339.08 239.57 339.49Q240.14 339.90 241.14 339.90ZM249.54 341L249.54 339.64L252.56 339.64L252.56 332.04L249.54 332.04L249.54 330.68L254.16 330.68L254.16 333.28L254.26 333.28Q254.58 332.06 255.47 331.37Q256.36 330.68 257.74 330.68L257.74 330.68L259.18 330.68L259.18 332.28L257.24 332.28Q255.86 332.28 255.01 333.08Q254.16 333.88 254.16 335.18L254.16 335.18L254.16 339.64L258.16 339.64L258.16 341L249.54 341ZM270.52 341L266.50 341Q265.32 341 264.77 340.34Q264.22 339.68 264.22 338.64L264.22 338.64L264.22 332.04L260.78 332.04L260.78 330.68L263.34 330.68Q263.86 330.68 264.07 330.47Q264.28 330.26 264.28 329.74L264.28 329.74L264.28 327.04L265.82 327.04L265.82 330.68L270.52 330.68L270.52 332.04L265.82 332.04L265.82 339.64L270.52 339.64L270.52 341ZM273.96 341L273.96 326.20L275.56 326.20L275.56 332.36L275.64 332.36Q275.80 331.98 276.04 331.63Q276.28 331.28 276.63 331.02Q276.98 330.76 277.46 330.60Q277.94 330.44 278.58 330.44L278.58 330.44Q280.20 330.44 281.18 331.47Q282.16 332.50 282.16 334.38L282.16 334.38L282.16 341L280.56 341L280.56 334.66Q280.56 333.24 279.94 332.55Q279.32 331.86 278.12 331.86L278.12 331.86Q277.64 331.86 277.18 331.98Q276.72 332.10 276.36 332.34Q276 332.58 275.78 332.96Q275.56 333.34 275.56 333.84L275.56 333.84L275.56 341L273.96 341ZM287.24 343.76L285.80 343.76L292.76 325.80L294.20 325.80L287.24 343.76ZM302.36 341.24L302.36 341.24Q301.24 341.24 300.37 340.85Q299.50 340.46 298.90 339.76Q298.30 339.06 297.99 338.06Q297.68 337.06 297.68 335.84L297.68 335.84Q297.68 334.62 298 333.62Q298.32 332.62 298.92 331.91Q299.52 331.20 300.38 330.82Q301.24 330.44 302.34 330.44L302.34 330.44Q303.84 330.44 304.78 331.10Q305.72 331.76 306.16 332.82L306.16 332.82L304.88 333.50Q304.60 332.70 303.95 332.26Q303.30 331.82 302.34 331.82L302.34 331.82Q301.64 331.82 301.09 332.05Q300.54 332.28 300.16 332.70Q299.78 333.12 299.59 333.70Q299.40 334.28 299.40 334.96L299.40 334.96L299.40 336.72Q299.40 337.40 299.59 337.98Q299.78 338.56 300.16 338.98Q300.54 339.40 301.10 339.63Q301.66 339.86 302.38 339.86L302.38 339.86Q303.42 339.86 304.10 339.38Q304.78 338.90 305.18 338.06L305.18 338.06L306.32 338.84Q305.86 339.88 304.89 340.56Q303.92 341.24 302.36 341.24ZM309.96 341L309.96 326.20L311.56 326.20L311.56 332.36L311.64 332.36Q311.80 331.98 312.04 331.63Q312.28 331.28 312.63 331.02Q312.98 330.76 313.46 330.60Q313.94 330.44 314.58 330.44L314.58 330.44Q316.20 330.44 317.18 331.47Q318.16 332.50 318.16 334.38L318.16 334.38L318.16 341L316.56 341L316.56 334.66Q316.56 333.24 315.94 332.55Q315.32 331.86 314.12 331.86L314.12 331.86Q313.64 331.86 313.18 331.98Q312.72 332.10 312.36 332.34Q312 332.58 311.78 332.96Q311.56 333.34 311.56 333.84L311.56 333.84L311.56 341L309.96 341ZM331 341L329.90 341Q328.96 341 328.56 340.52Q328.16 340.04 328.06 339.32L328.06 339.32L327.96 339.32Q327.62 340.22 326.87 340.73Q326.12 341.24 324.86 341.24L324.86 341.24Q323.24 341.24 322.28 340.40Q321.32 339.56 321.32 338.10L321.32 338.10Q321.32 336.66 322.37 335.88Q323.42 335.10 325.76 335.10L325.76 335.10L327.96 335.10L327.96 334.08Q327.96 332.94 327.32 332.37Q326.68 331.80 325.50 331.80L325.50 331.80Q324.46 331.80 323.80 332.21Q323.14 332.62 322.74 333.32L322.74 333.32L321.66 332.52Q321.86 332.12 322.20 331.74Q322.54 331.36 323.04 331.07Q323.54 330.78 324.18 330.61Q324.82 330.44 325.60 330.44L325.60 330.44Q327.42 330.44 328.49 331.36Q329.56 332.28 329.56 333.92L329.56 333.92L329.56 339.60L331 339.60L331 341ZM325.14 339.90L325.14 339.90Q325.76 339.90 326.27 339.75Q326.78 339.60 327.16 339.35Q327.54 339.10 327.75 338.75Q327.96 338.40 327.96 338L327.96 338L327.96 336.30L325.76 336.30Q324.32 336.30 323.66 336.70Q323 337.10 323 337.86L323 337.86L323 338.28Q323 339.08 323.57 339.49Q324.14 339.90 325.14 339.90ZM333.54 341L333.54 339.64L336.56 339.64L336.56 332.04L333.54 332.04L333.54 330.68L338.16 330.68L338.16 333.28L338.26 333.28Q338.58 332.06 339.47 331.37Q340.36 330.68 341.74 330.68L341.74 330.68L343.18 330.68L343.18 332.28L341.24 332.28Q339.86 332.28 339.01 333.08Q338.16 333.88 338.16 335.18L338.16 335.18L338.16 339.64L342.16 339.64L342.16 341L333.54 341ZM354.52 341L350.50 341Q349.32 341 348.77 340.34Q348.22 339.68 348.22 338.64L348.22 338.64L348.22 332.04L344.78 332.04L344.78 330.68L347.34 330.68Q347.86 330.68 348.07 330.47Q348.28 330.26 348.28 329.74L348.28 329.74L348.28 327.04L349.82 327.04L349.82 330.68L354.52 330.68L354.52 332.04L349.82 332.04L349.82 339.64L354.52 339.64L354.52 341ZM364.44 341L364.44 339.32L364.36 339.32Q364.20 339.70 363.96 340.05Q363.72 340.40 363.37 340.66Q363.02 340.92 362.54 341.08Q362.06 341.24 361.42 341.24L361.42 341.24Q359.80 341.24 358.82 340.21Q357.84 339.18 357.84 337.30L357.84 337.30L357.84 330.68L359.44 330.68L359.44 337.02Q359.44 338.44 360.06 339.13Q360.68 339.82 361.88 339.82L361.88 339.82Q362.36 339.82 362.82 339.70Q363.28 339.58 363.64 339.34Q364 339.10 364.22 338.73Q364.44 338.36 364.44 337.84L364.44 337.84L364.44 330.68L366.04 330.68L366.04 341L364.44 341ZM369.60 341L369.60 339.64L373.20 339.64L373.20 327.56L369.60 327.56L369.60 326.20L374.80 326.20L374.80 339.64L378.40 339.64L378.40 341L369.60 341ZM391 341L389.90 341Q388.96 341 388.56 340.52Q388.16 340.04 388.06 339.32L388.06 339.32L387.96 339.32Q387.62 340.22 386.87 340.73Q386.12 341.24 384.86 341.24L384.86 341.24Q383.24 341.24 382.28 340.40Q381.32 339.56 381.32 338.10L381.32 338.10Q381.32 336.66 382.37 335.88Q383.42 335.10 385.76 335.10L385.76 335.10L387.96 335.10L387.96 334.08Q387.96 332.94 387.32 332.37Q386.68 331.80 385.50 331.80L385.50 331.80Q384.46 331.80 383.80 332.21Q383.14 332.62 382.74 333.32L382.74 333.32L381.66 332.52Q381.86 332.12 382.20 331.74Q382.54 331.36 383.04 331.07Q383.54 330.78 384.18 330.61Q384.82 330.44 385.60 330.44L385.60 330.44Q387.42 330.44 388.49 331.36Q389.56 332.28 389.56 333.92L389.56 333.92L389.56 339.60L391 339.60L391 341ZM385.14 339.90L385.14 339.90Q385.76 339.90 386.27 339.75Q386.78 339.60 387.16 339.35Q387.54 339.10 387.75 338.75Q387.96 338.40 387.96 338L387.96 338L387.96 336.30L385.76 336.30Q384.32 336.30 383.66 336.70Q383 337.10 383 337.86L383 337.86L383 338.28Q383 339.08 383.57 339.49Q384.14 339.90 385.14 339.90ZM415.62 334.02L411.48 338.16L410.52 337.20L412.24 335.48L413.24 334.64L413.22 334.58L411.30 334.70L404.58 334.70L404.58 333.34L411.30 333.34L413.22 333.46L413.24 333.40L412.24 332.56L410.52 330.84L411.48 329.88L415.62 334.02Z" fill="#B07A2E"/></svg>