<?xml version="1.0" encoding="UTF-8"?>
<svg xmlns="http://www.w3.org/2000/svg" viewBox="0 0 1200 288" width="1200" height="288"><defs><filter id="glow-frame" x="-25%" y="-25%" width="150%" height="150%"><feGaussianBlur stdDeviation="4"/></filter></defs><rect x="12" y="12" width="1176" height="264" rx="18" fill="none" stroke="#E0A34B" stroke-width="8" opacity="0.5" filter="url(#glow-frame)"/><rect x="12" y="12" width="1176" height="264" rx="18" fill="#12100E" stroke="#E0A34B" stroke-width="2"/><path d="M45.99 61L45.99 46.34L50.09 46.34Q52.78 46.34 54.10 48.19Q55.42 50.04 55.42 53.67L55.42 53.67Q55.42 57.30 54.10 59.15Q52.78 61 50.09 61L50.09 61L45.99 61ZM47.76 59.47L50.01 59.47Q51.77 59.47 52.66 58.25Q53.55 57.03 53.55 54.80L53.55 54.80L53.55 52.54Q53.55 50.31 52.66 49.09Q51.77 47.88 50.01 47.88L50.01 47.88L47.76 47.88L47.76 59.47ZM70.64 61L61.56 61L61.56 59.59L65.22 59.59L65.22 47.75L61.56 47.75L61.56 46.34L70.64 46.34L70.64 47.75L66.98 47.75L66.98 59.59L70.64 59.59L70.64 61ZM79.25 54.74L79.25 61L77.49 61L77.49 46.34L82.82 46.34Q84.86 46.34 85.93 47.45Q87.00 48.57 87.00 50.56L87.00 50.56Q87.00 52.35 86.08 53.42Q85.16 54.49 83.39 54.66L83.39 54.66L87.13 61L85.16 61L81.58 54.74L79.25 54.74ZM79.25 53.25L82.78 53.25Q83.89 53.25 84.51 52.69Q85.13 52.14 85.13 51.11L85.13 51.11L85.13 50.02Q85.13 48.99 84.51 48.43Q83.89 47.88 82.78 47.88L82.78 47.88L79.25 47.88L79.25 53.25ZM102.32 61L93.29 61L93.29 46.34L102.32 46.34L102.32 47.88L95.05 47.88L95.05 52.81L102.07 52.81L102.07 54.34L95.05 54.34L95.05 59.47L102.32 59.47L102.32 61ZM113.98 61.25L113.98 61.25Q111.29 61.25 109.98 59.30Q108.67 57.35 108.67 53.67L108.67 53.67Q108.67 50.00 109.98 48.04Q111.29 46.09 113.98 46.09L113.98 46.09Q114.99 46.09 115.73 46.36Q116.46 46.64 116.99 47.10Q117.51 47.56 117.87 48.14Q118.22 48.72 118.50 49.30L118.50 49.30L116.99 50.00Q116.80 49.51 116.54 49.08Q116.29 48.65 115.95 48.33Q115.60 48.00 115.13 47.81Q114.65 47.62 113.98 47.62L113.98 47.62Q112.24 47.62 111.39 48.95Q110.54 50.27 110.54 52.47L110.54 52.47L110.54 54.87Q110.54 57.07 111.39 58.40Q112.24 59.72 113.98 59.72L113.98 59.72Q114.65 59.72 115.13 59.53Q115.60 59.34 115.95 59.02Q116.29 58.69 116.54 58.26Q116.80 57.83 116.99 57.35L116.99 57.35L118.50 58.04Q118.22 58.65 117.87 59.22Q117.51 59.78 116.99 60.24Q116.46 60.71 115.73 60.98Q114.99 61.25 113.98 61.25ZM135.07 47.88L130.18 47.88L130.18 61L128.42 61L128.42 47.88L123.52 47.88L123.52 46.34L135.07 46.34L135.07 47.88ZM149.64 61L140.56 61L140.56 59.59L144.22 59.59L144.22 47.75L140.56 47.75L140.56 46.34L149.64 46.34L149.64 47.75L145.98 47.75L145.98 59.59L149.64 59.59L149.64 61ZM160.90 61.25L160.90 61.25Q159.56 61.25 158.59 60.74Q157.62 60.22 156.99 59.26Q156.36 58.29 156.07 56.88Q155.78 55.48 155.78 53.67L155.78 53.67Q155.78 51.89 156.07 50.47Q156.36 49.05 156.99 48.09Q157.62 47.12 158.59 46.60Q159.56 46.09 160.90 46.09L160.90 46.09Q162.24 46.09 163.21 46.60Q164.18 47.12 164.81 48.09Q165.44 49.05 165.73 50.47Q166.02 51.89 166.02 53.67L166.02 53.67Q166.02 55.48 165.73 56.88Q165.44 58.29 164.81 59.26Q164.18 60.22 163.21 60.74Q162.24 61.25 160.90 61.25ZM160.90 59.72L160.90 59.72Q161.78 59.72 162.39 59.37Q163 59.03 163.40 58.40Q163.80 57.77 163.98 56.87Q164.16 55.98 164.16 54.87L164.16 54.87L164.16 52.47Q164.16 51.38 163.98 50.48Q163.80 49.58 163.40 48.95Q163 48.32 162.39 47.97Q161.78 47.62 160.90 47.62L160.90 47.62Q160.02 47.62 159.41 47.97Q158.80 48.32 158.40 48.95Q158.00 49.58 157.82 50.48Q157.64 51.38 157.64 52.47L157.64 52.47L157.64 54.87Q157.64 55.98 157.82 56.87Q158.00 57.77 158.40 58.40Q158.80 59.03 159.41 59.37Q160.02 59.72 160.90 59.72ZM178.82 61L173.82 48.65L173.68 48.65L173.68 61L172.08 61L172.08 46.34L174.58 46.34L179.58 58.69L179.72 58.69L179.72 46.34L181.32 46.34L181.32 61L178.82 61Z" fill="#E0A34B"/><path d="M64.77 118L47.20 118L47.20 88.91L51.59 88.91L51.59 114.22L64.77 114.22L64.77 118ZM86.84 118L69.27 118L69.27 88.91L73.66 88.91L73.66 114.22L86.84 114.22L86.84 118ZM91.34 118L91.34 88.91L96.66 88.91L105.93 111.52L106.27 111.52L115.53 88.91L120.86 88.91L120.86 118L116.68 118L116.68 96.95L116.41 96.95L107.83 117.96L104.36 117.96L95.78 96.93L95.51 96.93L95.51 118L91.34 118ZM152.85 101.51L152.85 101.51L149.00 102.19Q148.63 101.10 147.63 100.18Q146.63 99.26 144.64 99.26L144.64 99.26Q142.84 99.26 141.62 100.07Q140.41 100.87 140.42 102.13L140.42 102.13Q140.41 103.24 141.23 103.90Q142.04 104.56 143.85 104.99L143.85 104.99L147.31 105.78Q153.28 107.16 153.28 111.69L153.28 111.69Q153.28 113.67 152.15 115.19Q151.02 116.71 149.01 117.57Q147.00 118.44 144.36 118.44L144.36 118.44Q140.68 118.44 138.38 116.87Q136.08 115.30 135.54 112.40L135.54 112.40L139.64 111.78Q140.41 115.02 144.33 115.02L144.33 115.02Q146.42 115.02 147.67 114.14Q148.92 113.27 148.92 112.01L148.92 112.01Q148.92 109.92 145.84 109.24L145.84 109.24L142.14 108.43Q139.07 107.74 137.62 106.21Q136.18 104.68 136.18 102.36L136.18 102.36Q136.18 100.43 137.26 98.97Q138.34 97.52 140.24 96.71Q142.14 95.90 144.60 95.90L144.60 95.90Q148.14 95.90 150.17 97.43Q152.20 98.97 152.85 101.51ZM160.12 126.18L160.12 126.18Q159.17 126.18 158.39 126.03Q157.61 125.88 157.22 125.71L157.22 125.71L158.25 122.23Q159.99 122.72 161.18 122.31Q162.37 121.91 163.18 119.73L163.18 119.73L163.70 118.28L155.72 96.18L160.26 96.18L165.79 113.11L166.02 113.11L171.54 96.18L176.10 96.18L167.11 120.91Q166.16 123.48 164.45 124.83Q162.75 126.18 160.12 126.18ZM195.94 101.51L195.94 101.51L192.09 102.19Q191.72 101.10 190.72 100.18Q189.72 99.26 187.73 99.26L187.73 99.26Q185.93 99.26 184.71 100.07Q183.50 100.87 183.51 102.13L183.51 102.13Q183.50 103.24 184.32 103.90Q185.13 104.56 186.94 104.99L186.94 104.99L190.40 105.78Q196.37 107.16 196.37 111.69L196.37 111.69Q196.37 113.67 195.24 115.19Q194.11 116.71 192.10 117.57Q190.09 118.44 187.45 118.44L187.45 118.44Q183.77 118.44 181.47 116.87Q179.17 115.30 178.63 112.40L178.63 112.40L182.73 111.78Q183.50 115.02 187.42 115.02L187.42 115.02Q189.51 115.02 190.76 114.14Q192.01 113.27 192.01 112.01L192.01 112.01Q192.01 109.92 188.93 109.24L188.93 109.24L185.23 108.43Q182.16 107.74 180.72 106.21Q179.27 104.68 179.27 102.36L179.27 102.36Q179.27 100.43 180.35 98.97Q181.43 97.52 183.33 96.71Q185.23 95.90 187.69 95.90L187.69 95.90Q191.23 95.90 193.26 97.43Q195.29 98.97 195.94 101.51ZM206.24 96.18L210.71 96.18L210.71 99.59L206.24 99.59L206.24 111.59Q206.24 113.44 207.03 113.97Q207.82 114.51 208.85 114.51L208.85 114.51Q209.36 114.51 209.75 114.43Q210.13 114.36 210.34 114.32L210.34 114.32L211.11 117.83Q210.74 117.97 210.05 118.12Q209.36 118.27 208.36 118.28L208.36 118.28Q206.68 118.31 205.22 117.69Q203.77 117.06 202.88 115.76Q201.99 114.45 201.99 112.47L201.99 112.47L201.99 99.59L198.80 99.59L198.80 96.18L201.99 96.18L201.99 90.95L206.24 90.95L206.24 96.18ZM224.30 118.44L224.30 118.44Q221.09 118.44 218.76 117.05Q216.43 115.66 215.18 113.13Q213.92 110.61 213.92 107.23L213.92 107.23Q213.92 103.88 215.18 101.32Q216.43 98.77 218.70 97.33Q220.97 95.90 224.01 95.90L224.01 95.90Q226.48 95.90 228.69 97.00Q230.89 98.10 232.28 100.51Q233.66 102.91 233.66 106.86L233.66 106.86L233.66 108.37L218.15 108.37Q218.24 111.52 219.93 113.23Q221.62 114.93 224.35 114.93L224.35 114.93Q226.16 114.93 227.49 114.15Q228.81 113.37 229.38 111.82L229.38 111.82L233.39 112.55Q232.67 115.20 230.27 116.82Q227.87 118.44 224.30 118.44ZM218.17 105.19L218.17 105.19L229.50 105.19Q229.49 102.69 228.00 101.05Q226.51 99.41 224.03 99.41L224.03 99.41Q222.32 99.41 221.03 100.21Q219.74 101.01 219.00 102.33Q218.25 103.64 218.17 105.19ZM242.14 118L237.89 118L237.89 96.18L241.97 96.18L241.97 99.73L242.24 99.73Q242.92 97.93 244.47 96.91Q246.02 95.90 248.18 95.90L248.18 95.90Q250.37 95.90 251.85 96.92Q253.34 97.94 254.05 99.73L254.05 99.73L254.27 99.73Q255.07 97.99 256.77 96.94Q258.46 95.90 260.82 95.90L260.82 95.90Q263.79 95.90 265.67 97.77Q267.55 99.63 267.55 103.37L267.55 103.37L267.55 118L263.31 118L263.31 103.77Q263.31 101.55 262.11 100.56Q260.91 99.56 259.22 99.56L259.22 99.56Q257.14 99.56 255.99 100.84Q254.84 102.12 254.84 104.09L254.84 104.09L254.84 118L250.61 118L250.61 103.50Q250.61 101.72 249.50 100.64Q248.39 99.56 246.62 99.56L246.62 99.56Q244.81 99.56 243.48 100.95Q242.14 102.35 242.14 104.55L242.14 104.55L242.14 118ZM289.09 101.51L289.09 101.51L285.24 102.19Q284.87 101.10 283.87 100.18Q282.86 99.26 280.88 99.26L280.88 99.26Q279.07 99.26 277.86 100.07Q276.64 100.87 276.66 102.13L276.66 102.13Q276.64 103.24 277.46 103.90Q278.28 104.56 280.08 104.99L280.08 104.99L283.55 105.78Q289.51 107.16 289.51 111.69L289.51 111.69Q289.51 113.67 288.38 115.19Q287.25 116.71 285.24 117.57Q283.23 118.44 280.59 118.44L280.59 118.44Q276.91 118.44 274.61 116.87Q272.31 115.30 271.77 112.40L271.77 112.40L275.88 111.78Q276.64 115.02 280.56 115.02L280.56 115.02Q282.65 115.02 283.90 114.14Q285.15 113.27 285.15 112.01L285.15 112.01Q285.15 109.92 282.07 109.24L282.07 109.24L278.38 108.43Q275.31 107.74 273.86 106.21Q272.41 104.68 272.41 102.36L272.41 102.36Q272.41 100.43 273.49 98.97Q274.57 97.52 276.47 96.71Q278.38 95.90 280.83 95.90L280.83 95.90Q284.37 95.90 286.40 97.43Q288.43 98.97 289.09 101.51ZM295.11 114.02L299.20 114.02L298.98 115.57Q298.77 117.28 298.27 119.13Q297.78 120.98 297.24 122.57Q296.70 124.16 296.36 125.10L296.36 125.10L293.34 125.10Q293.54 124.22 293.86 122.72Q294.18 121.22 294.49 119.38Q294.81 117.53 294.96 115.61L294.96 115.61L295.11 114.02ZM319.26 118L315.11 118L315.11 88.91L319.36 88.91L319.36 99.72L319.62 99.72Q320 99.04 320.69 98.14Q321.38 97.25 322.62 96.57Q323.86 95.90 325.88 95.90L325.88 95.90Q328.52 95.90 330.59 97.23Q332.66 98.57 333.85 101.08Q335.04 103.60 335.04 107.13L335.04 107.13Q335.04 110.66 333.86 113.19Q332.68 115.73 330.63 117.08Q328.57 118.43 325.92 118.43L325.92 118.43Q323.93 118.43 322.68 117.76Q321.43 117.09 320.72 116.20Q320 115.30 319.62 114.61L319.62 114.61L319.26 114.61L319.26 118ZM319.28 107.09L319.28 107.09Q319.28 110.53 320.75 112.67Q322.23 114.80 324.97 114.80L324.97 114.80Q326.88 114.80 328.16 113.79Q329.45 112.77 330.10 111.03Q330.75 109.28 330.75 107.09L330.75 107.09Q330.75 104.92 330.11 103.21Q329.46 101.49 328.18 100.50Q326.90 99.51 324.97 99.51L324.97 99.51Q322.19 99.51 320.73 101.59Q319.28 103.67 319.28 107.09ZM353.12 108.95L353.12 108.95L353.12 96.18L357.38 96.18L357.38 118L353.21 118L353.21 114.22L352.98 114.22Q352.23 115.97 350.57 117.13Q348.92 118.28 346.46 118.28L346.46 118.28Q343.32 118.28 341.31 116.20Q339.30 114.12 339.30 110.06L339.30 110.06L339.30 96.18L343.55 96.18L343.55 109.55Q343.55 111.78 344.78 113.10Q346.02 114.42 347.99 114.42L347.99 114.42Q349.19 114.42 350.37 113.82Q351.56 113.23 352.35 112.01Q353.14 110.80 353.12 108.95ZM366.83 118L362.58 118L362.58 96.18L366.83 96.18L366.83 118ZM364.72 92.82L364.72 92.82Q363.62 92.82 362.83 92.07Q362.04 91.32 362.04 90.29L362.04 90.29Q362.04 89.24 362.83 88.49Q363.62 87.74 364.72 87.74L364.72 87.74Q365.82 87.74 366.61 88.49Q367.41 89.24 367.41 90.29L367.41 90.29Q367.41 91.32 366.61 92.07Q365.82 92.82 364.72 92.82ZM372.04 88.91L376.28 88.91L376.28 118L372.04 118L372.04 88.91ZM387.20 96.18L391.68 96.18L391.68 99.59L387.20 99.59L387.20 111.59Q387.20 113.44 387.99 113.97Q388.78 114.51 389.82 114.51L389.82 114.51Q390.33 114.51 390.71 114.43Q391.10 114.36 391.31 114.32L391.31 114.32L392.08 117.83Q391.71 117.97 391.02 118.12Q390.33 118.27 389.32 118.28L389.32 118.28Q387.64 118.31 386.19 117.69Q384.73 117.06 383.85 115.76Q382.96 114.45 382.96 112.47L382.96 112.47L382.96 99.59L379.76 99.59L379.76 96.18L382.96 96.18L382.96 90.95L387.20 90.95L387.20 96.18ZM405.96 88.91L410.21 88.91L410.21 118L405.96 118L405.96 88.91ZM419.67 118L415.42 118L415.42 96.18L419.67 96.18L419.67 118ZM417.57 92.82L417.57 92.82Q416.46 92.82 415.67 92.07Q414.88 91.32 414.88 90.29L414.88 90.29Q414.88 89.24 415.67 88.49Q416.46 87.74 417.57 87.74L417.57 87.74Q418.66 87.74 419.45 88.49Q420.25 89.24 420.25 90.29L420.25 90.29Q420.25 91.32 419.45 92.07Q418.66 92.82 417.57 92.82ZM429.13 118L424.88 118L424.88 88.91L429.13 88.91L429.13 105.41L429.49 105.41L438.19 96.18L443.27 96.18L434.44 105.54L443.87 118L438.66 118L431.24 108.14L429.13 110.26L429.13 118ZM456.04 118.44L456.04 118.44Q452.83 118.44 450.50 117.05Q448.17 115.66 446.91 113.13Q445.66 110.61 445.66 107.23L445.66 107.23Q445.66 103.88 446.91 101.32Q448.17 98.77 450.44 97.33Q452.70 95.90 455.74 95.90L455.74 95.90Q458.21 95.90 460.42 97.00Q462.63 98.10 464.02 100.51Q465.40 102.91 465.40 106.86L465.40 106.86L465.40 108.37L449.89 108.37Q449.97 111.52 451.66 113.23Q453.36 114.93 456.08 114.93L456.08 114.93Q457.90 114.93 459.22 114.15Q460.54 113.37 461.11 111.82L461.11 111.82L465.13 112.55Q464.41 115.20 462.01 116.82Q459.61 118.44 456.04 118.44ZM449.90 105.19L449.90 105.19L461.24 105.19Q461.22 102.69 459.73 101.05Q458.24 99.41 455.77 99.41L455.77 99.41Q454.05 99.41 452.77 100.21Q451.48 101.01 450.73 102.33Q449.99 103.64 449.90 105.19ZM484.22 118L480.07 118L480.07 88.91L484.32 88.91L484.32 99.72L484.57 99.72Q484.95 99.04 485.64 98.14Q486.33 97.25 487.58 96.57Q488.82 95.90 490.84 95.90L490.84 95.90Q493.48 95.90 495.54 97.23Q497.61 98.57 498.80 101.08Q500.00 103.60 500.00 107.13L500.00 107.13Q500.00 110.66 498.82 113.19Q497.64 115.73 495.58 117.08Q493.52 118.43 490.88 118.43L490.88 118.43Q488.89 118.43 487.64 117.76Q486.39 117.09 485.67 116.20Q484.95 115.30 484.57 114.61L484.57 114.61L484.22 114.61L484.22 118ZM484.23 107.09L484.23 107.09Q484.23 110.53 485.71 112.67Q487.18 114.80 489.93 114.80L489.93 114.80Q491.83 114.80 493.12 113.79Q494.40 112.77 495.05 111.03Q495.71 109.28 495.71 107.09L495.71 107.09Q495.71 104.92 495.06 103.21Q494.41 101.49 493.14 100.50Q491.86 99.51 489.93 99.51L489.93 99.51Q487.14 99.51 485.69 101.59Q484.23 103.67 484.23 107.09ZM510.61 118.48L510.61 118.48Q508.53 118.48 506.86 117.72Q505.19 116.95 504.21 115.46Q503.23 113.98 503.23 111.84L503.23 111.84Q503.23 109.97 503.95 108.78Q504.67 107.59 505.87 106.89Q507.07 106.20 508.56 105.85Q510.05 105.50 511.60 105.32L511.60 105.32Q513.56 105.09 514.77 104.94Q515.99 104.79 516.55 104.45Q517.11 104.11 517.11 103.34L517.11 103.34L517.11 103.24Q517.11 101.38 516.07 100.36Q515.02 99.34 512.96 99.34L512.96 99.34Q510.82 99.34 509.59 100.27Q508.36 101.21 507.89 102.38L507.89 102.38L503.90 101.47Q504.97 98.48 507.46 97.19Q509.95 95.90 512.91 95.90L512.91 95.90Q514.21 95.90 515.68 96.20Q517.14 96.51 518.44 97.33Q519.74 98.14 520.56 99.63Q521.37 101.13 521.37 103.51L521.37 103.51L521.37 118L517.22 118L517.22 115.02L517.05 115.02Q516.44 116.24 514.88 117.36Q513.32 118.48 510.61 118.48ZM511.53 115.07L511.53 115.07Q513.30 115.07 514.55 114.38Q515.80 113.68 516.46 112.55Q517.13 111.42 517.13 110.13L517.13 110.13L517.13 107.32Q516.83 107.62 515.82 107.84Q514.81 108.07 513.69 108.23Q512.57 108.38 511.87 108.48L511.87 108.48Q510.02 108.72 508.71 109.46Q507.39 110.19 507.39 111.89L507.39 111.89Q507.39 113.47 508.56 114.27Q509.72 115.07 511.53 115.07ZM535.72 118.44L535.72 118.44Q532.55 118.44 530.27 117.00Q527.99 115.56 526.77 113.01Q525.55 110.47 525.55 107.19L525.55 107.19Q525.55 103.85 526.80 101.31Q528.05 98.77 530.33 97.33Q532.61 95.90 535.67 95.90L535.67 95.90Q538.16 95.90 540.11 96.81Q542.05 97.73 543.25 99.38Q544.45 101.03 544.68 103.23L544.68 103.23L540.55 103.23Q540.20 101.69 538.99 100.59Q537.78 99.48 535.74 99.48L535.74 99.48Q533.09 99.48 531.46 101.53Q529.84 103.58 529.84 107.09L529.84 107.09Q529.84 110.66 531.44 112.75Q533.05 114.85 535.74 114.85L535.74 114.85Q537.56 114.85 538.86 113.85Q540.15 112.86 540.55 111.10L540.55 111.10L544.68 111.10Q544.45 113.21 543.30 114.88Q542.15 116.54 540.23 117.49Q538.30 118.44 535.72 118.44ZM552.99 118L548.74 118L548.74 88.91L552.99 88.91L552.99 105.41L553.36 105.41L562.05 96.18L567.13 96.18L558.30 105.54L567.73 118L562.52 118L555.10 108.14L552.99 110.26L552.99 118ZM579.90 118.44L579.90 118.44Q576.69 118.44 574.36 117.05Q572.03 115.66 570.77 113.13Q569.52 110.61 569.52 107.23L569.52 107.23Q569.52 103.88 570.77 101.32Q572.03 98.77 574.30 97.33Q576.56 95.90 579.60 95.90L579.60 95.90Q582.07 95.90 584.28 97.00Q586.49 98.10 587.88 100.51Q589.26 102.91 589.26 106.86L589.26 106.86L589.26 108.37L573.75 108.37Q573.84 111.52 575.53 113.23Q577.22 114.93 579.94 114.93L579.94 114.93Q581.76 114.93 583.08 114.15Q584.40 113.37 584.97 111.82L584.97 111.82L588.99 112.55Q588.27 115.20 585.87 116.82Q583.47 118.44 579.90 118.44ZM573.76 105.19L573.76 105.19L585.10 105.19Q585.09 102.69 583.59 101.05Q582.10 99.41 579.63 99.41L579.63 99.41Q577.91 99.41 576.63 100.21Q575.34 101.01 574.60 102.33Q573.85 103.64 573.76 105.19ZM597.74 105.05L597.74 105.05L597.74 118L593.49 118L593.49 96.18L597.57 96.18L597.57 99.73L597.84 99.73Q598.59 98 600.20 96.95Q601.82 95.90 604.27 95.90L604.27 95.90Q607.62 95.90 609.66 97.99Q611.70 100.07 611.70 104.12L611.70 104.12L611.70 118L607.45 118L607.45 104.63Q607.45 102.26 606.22 100.92Q604.98 99.58 602.82 99.58L602.82 99.58Q600.61 99.58 599.17 101.00Q597.74 102.43 597.74 105.05ZM625.05 118.43L625.05 118.43Q622.41 118.43 620.35 117.08Q618.29 115.73 617.11 113.19Q615.93 110.66 615.93 107.13L615.93 107.13Q615.93 103.60 617.12 101.08Q618.30 98.57 620.38 97.23Q622.45 95.90 625.08 95.90L625.08 95.90Q627.11 95.90 628.35 96.57Q629.60 97.25 630.29 98.14Q630.97 99.04 631.36 99.72L631.36 99.72L631.61 99.72L631.61 88.91L635.86 88.91L635.86 118L631.71 118L631.71 114.61L631.36 114.61Q630.97 115.30 630.26 116.20Q629.54 117.09 628.29 117.76Q627.04 118.43 625.05 118.43ZM625.99 114.80L625.99 114.80Q628.74 114.80 630.21 112.67Q631.68 110.53 631.68 107.09L631.68 107.09Q631.68 103.67 630.23 101.59Q628.77 99.51 625.99 99.51L625.99 99.51Q624.07 99.51 622.79 100.50Q621.51 101.49 620.87 103.21Q620.22 104.92 620.22 107.09L620.22 107.09Q620.22 109.28 620.87 111.03Q621.53 112.77 622.81 113.79Q624.10 114.80 625.99 114.80ZM667.86 101.51L667.86 101.51L664.01 102.19Q663.64 101.10 662.64 100.18Q661.64 99.26 659.65 99.26L659.65 99.26Q657.84 99.26 656.63 100.07Q655.41 100.87 655.43 102.13L655.43 102.13Q655.41 103.24 656.23 103.90Q657.05 104.56 658.85 104.99L658.85 104.99L662.32 105.78Q668.28 107.16 668.28 111.69L668.28 111.69Q668.28 113.67 667.15 115.19Q666.03 116.71 664.02 117.57Q662.01 118.44 659.36 118.44L659.36 118.44Q655.68 118.44 653.38 116.87Q651.08 115.30 650.54 112.40L650.54 112.40L654.65 111.78Q655.41 115.02 659.34 115.02L659.34 115.02Q661.42 115.02 662.67 114.14Q663.92 113.27 663.92 112.01L663.92 112.01Q663.92 109.92 660.84 109.24L660.84 109.24L657.15 108.43Q654.08 107.74 652.63 106.21Q651.18 104.68 651.18 102.36L651.18 102.36Q651.18 100.43 652.26 98.97Q653.34 97.52 655.24 96.71Q657.15 95.90 659.61 95.90L659.61 95.90Q663.14 95.90 665.17 97.43Q667.20 98.97 667.86 101.51ZM675.13 126.18L675.13 126.18Q674.18 126.18 673.39 126.03Q672.61 125.88 672.23 125.71L672.23 125.71L673.25 122.23Q675 122.72 676.19 122.31Q677.37 121.91 678.18 119.73L678.18 119.73L678.71 118.28L670.72 96.18L675.27 96.18L680.80 113.11L681.02 113.11L686.55 96.18L691.11 96.18L682.12 120.91Q681.16 123.48 679.46 124.83Q677.76 126.18 675.13 126.18ZM710.95 101.51L710.95 101.51L707.10 102.19Q706.73 101.10 705.73 100.18Q704.73 99.26 702.74 99.26L702.74 99.26Q700.93 99.26 699.72 100.07Q698.51 100.87 698.52 102.13L698.52 102.13Q698.51 103.24 699.32 103.90Q700.14 104.56 701.94 104.99L701.94 104.99L705.41 105.78Q711.38 107.16 711.38 111.69L711.38 111.69Q711.38 113.67 710.25 115.19Q709.12 116.71 707.11 117.57Q705.10 118.44 702.45 118.44L702.45 118.44Q698.78 118.44 696.47 116.87Q694.17 115.30 693.63 112.40L693.63 112.40L697.74 111.78Q698.51 115.02 702.43 115.02L702.43 115.02Q704.51 115.02 705.76 114.14Q707.01 113.27 707.01 112.01L707.01 112.01Q707.01 109.92 703.93 109.24L703.93 109.24L700.24 108.43Q697.17 107.74 695.72 106.21Q694.27 104.68 694.27 102.36L694.27 102.36Q694.27 100.43 695.35 98.97Q696.43 97.52 698.34 96.71Q700.24 95.90 702.70 95.90L702.70 95.90Q706.23 95.90 708.26 97.43Q710.30 98.97 710.95 101.51ZM721.24 96.18L725.72 96.18L725.72 99.59L721.24 99.59L721.24 111.59Q721.24 113.44 722.03 113.97Q722.82 114.51 723.86 114.51L723.86 114.51Q724.37 114.51 724.75 114.43Q725.14 114.36 725.35 114.32L725.35 114.32L726.12 117.83Q725.75 117.97 725.06 118.12Q724.37 118.27 723.36 118.28L723.36 118.28Q721.68 118.31 720.23 117.69Q718.77 117.06 717.88 115.76Q717.00 114.45 717.00 112.47L717.00 112.47L717.00 99.59L713.80 99.59L713.80 96.18L717.00 96.18L717.00 90.95L721.24 90.95L721.24 96.18ZM739.31 118.44L739.31 118.44Q736.10 118.44 733.77 117.05Q731.44 115.66 730.18 113.13Q728.93 110.61 728.93 107.23L728.93 107.23Q728.93 103.88 730.18 101.32Q731.44 98.77 733.71 97.33Q735.97 95.90 739.01 95.90L739.01 95.90Q741.48 95.90 743.69 97.00Q745.90 98.10 747.29 100.51Q748.67 102.91 748.67 106.86L748.67 106.86L748.67 108.37L733.16 108.37Q733.24 111.52 734.93 113.23Q736.63 114.93 739.35 114.93L739.35 114.93Q741.17 114.93 742.49 114.15Q743.81 113.37 744.38 111.82L744.38 111.82L748.40 112.55Q747.68 115.20 745.28 116.82Q742.88 118.44 739.31 118.44ZM733.17 105.19L733.17 105.19L744.51 105.19Q744.49 102.69 743.00 101.05Q741.51 99.41 739.04 99.41L739.04 99.41Q737.32 99.41 736.04 100.21Q734.75 101.01 734.00 102.33Q733.26 103.64 733.17 105.19ZM757.15 118L752.90 118L752.90 96.18L756.98 96.18L756.98 99.73L757.25 99.73Q757.93 97.93 759.48 96.91Q761.03 95.90 763.18 95.90L763.18 95.90Q765.37 95.90 766.86 96.92Q768.34 97.94 769.05 99.73L769.05 99.73L769.28 99.73Q770.07 97.99 771.77 96.94Q773.47 95.90 775.83 95.90L775.83 95.90Q778.80 95.90 780.68 97.77Q782.56 99.63 782.56 103.37L782.56 103.37L782.56 118L778.31 118L778.31 103.77Q778.31 101.55 777.11 100.56Q775.91 99.56 774.22 99.56L774.22 99.56Q772.15 99.56 771.00 100.84Q769.85 102.12 769.85 104.09L769.85 104.09L769.85 118L765.61 118L765.61 103.50Q765.61 101.72 764.51 100.64Q763.40 99.56 761.62 99.56L761.62 99.56Q759.82 99.56 758.48 100.95Q757.15 102.35 757.15 104.55L757.15 104.55L757.15 118ZM804.09 101.51L804.09 101.51L800.24 102.19Q799.87 101.10 798.87 100.18Q797.87 99.26 795.88 99.26L795.88 99.26Q794.08 99.26 792.86 100.07Q791.65 100.87 791.66 102.13L791.66 102.13Q791.65 103.24 792.46 103.90Q793.28 104.56 795.09 104.99L795.09 104.99L798.55 105.78Q804.52 107.16 804.52 111.69L804.52 111.69Q804.52 113.67 803.39 115.19Q802.26 116.71 800.25 117.57Q798.24 118.44 795.60 118.44L795.60 118.44Q791.92 118.44 789.62 116.87Q787.32 115.30 786.78 112.40L786.78 112.40L790.88 111.78Q791.65 115.02 795.57 115.02L795.57 115.02Q797.66 115.02 798.91 114.14Q800.16 113.27 800.16 112.01L800.16 112.01Q800.16 109.92 797.07 109.24L797.07 109.24L793.38 108.43Q790.31 107.74 788.86 106.21Q787.41 104.68 787.41 102.36L787.41 102.36Q787.41 100.43 788.49 98.97Q789.57 97.52 791.48 96.71Q793.38 95.90 795.84 95.90L795.84 95.90Q799.38 95.90 801.41 97.43Q803.44 98.97 804.09 101.51Z" fill="#FAF6F0"/><rect x="44" y="146" width="196" height="2" fill="#E0A34B"/><path d="M47.44 192.14L47.44 192.14Q46.79 192.14 46.32 191.67Q45.85 191.20 45.85 190.54L45.85 190.54Q45.85 189.89 46.32 189.42Q46.79 188.95 47.44 188.95L47.44 188.95Q48.10 188.95 48.57 189.42Q49.04 189.89 49.04 190.54L49.04 190.54Q49.04 191.20 48.57 191.67Q48.10 192.14 47.44 192.14ZM65.34 173.82L67.51 173.82L67.51 192L65.38 192L55.47 177.72L55.29 177.72L55.29 192L53.09 192L53.09 173.82L55.22 173.82L65.16 188.13L65.34 188.13L65.34 173.82ZM83.03 192L71.91 192L71.91 173.82L82.88 173.82L82.88 175.77L74.11 175.77L74.11 181.91L82.32 181.91L82.32 183.87L74.11 183.87L74.11 190.05L83.03 190.05L83.03 192ZM91.59 175.77L85.87 175.77L85.87 173.82L99.50 173.82L99.50 175.77L93.79 175.77L93.79 192L91.59 192L91.59 175.77ZM111.97 192L109.94 192L109.94 173.82L112.04 173.82L112.04 180.53L112.22 180.53Q112.45 180.17 112.86 179.62Q113.27 179.06 114.05 178.63Q114.83 178.19 116.16 178.19L116.16 178.19Q117.88 178.19 119.20 179.05Q120.51 179.91 121.25 181.49Q121.98 183.07 121.98 185.22L121.98 185.22Q121.98 187.38 121.25 188.97Q120.51 190.55 119.20 191.42Q117.90 192.28 116.19 192.28L116.19 192.28Q114.88 192.28 114.09 191.84Q113.30 191.41 112.87 190.84Q112.45 190.28 112.22 189.90L112.22 189.90L111.97 189.90L111.97 192ZM112.00 185.18L112.00 185.18Q112.00 187.50 113.01 188.95Q114.02 190.40 115.91 190.40L115.91 190.40Q117.22 190.40 118.11 189.71Q118.99 189.01 119.44 187.82Q119.89 186.64 119.89 185.18L119.89 185.18Q119.89 183.74 119.45 182.59Q119.01 181.43 118.13 180.75Q117.24 180.07 115.91 180.07L115.91 180.07Q113.99 180.07 113.00 181.48Q112.00 182.89 112.00 185.18ZM126.53 197.11L126.53 197.11Q126.00 197.11 125.58 197.03Q125.16 196.94 125.00 196.87L125.00 196.87L125.53 195.02Q126.30 195.21 126.88 195.16Q127.47 195.11 127.93 194.64Q128.38 194.18 128.77 193.14L128.77 193.14L129.16 192.07L124.11 178.36L126.39 178.36L130.15 189.23L130.29 189.23L134.06 178.36L136.33 178.36L130.54 193.99Q129.38 197.11 126.53 197.11ZM149.15 178.36L152.06 178.36L152.06 180.14L149.15 180.14L149.15 188.09Q149.15 188.98 149.41 189.42Q149.67 189.86 150.09 190.01Q150.50 190.15 150.96 190.15L150.96 190.15Q151.31 190.15 151.53 190.11Q151.75 190.07 151.88 190.05L151.88 190.05L152.31 191.93Q152.10 192.01 151.71 192.09Q151.33 192.18 150.75 192.18L150.75 192.18Q149.86 192.18 149.01 191.80Q148.16 191.41 147.61 190.63Q147.05 189.85 147.05 188.66L147.05 188.66L147.05 180.14L144.99 180.14L144.99 178.36L147.05 178.36L147.05 175.10L149.15 175.10L149.15 178.36ZM157.32 192L155.22 192L155.22 178.36L157.25 178.36L157.25 180.42L157.39 180.42Q157.76 179.41 158.74 178.78Q159.71 178.15 160.94 178.15L160.94 178.15Q161.17 178.15 161.52 178.16Q161.86 178.17 162.04 178.19L162.04 178.19L162.04 180.32Q161.93 180.29 161.56 180.23Q161.18 180.17 160.76 180.17L160.76 180.17Q159.27 180.17 158.29 181.08Q157.32 181.99 157.32 183.37L157.32 183.37L157.32 192ZM168.54 192.32L168.54 192.32Q167.24 192.32 166.19 191.83Q165.13 191.33 164.51 190.40Q163.89 189.46 163.89 188.13L163.89 188.13Q163.89 186.96 164.35 186.22Q164.81 185.49 165.58 185.08Q166.35 184.66 167.29 184.45Q168.23 184.24 169.18 184.12L169.18 184.12Q170.42 183.96 171.20 183.87Q171.97 183.79 172.33 183.58Q172.69 183.38 172.69 182.87L172.69 182.87L172.69 182.80Q172.69 181.49 171.98 180.76Q171.26 180.03 169.82 180.03L169.82 180.03Q168.32 180.03 167.46 180.69Q166.61 181.35 166.27 182.09L166.27 182.09L164.28 181.38Q164.81 180.14 165.70 179.44Q166.59 178.75 167.66 178.47Q168.72 178.19 169.75 178.19L169.75 178.19Q170.40 178.19 171.26 178.34Q172.12 178.50 172.92 178.98Q173.72 179.46 174.26 180.42Q174.79 181.39 174.79 183.02L174.79 183.02L174.79 192L172.69 192L172.69 190.15L172.59 190.15Q172.37 190.60 171.88 191.10Q171.38 191.61 170.55 191.96Q169.73 192.32 168.54 192.32ZM168.86 190.44L168.86 190.44Q170.10 190.44 170.96 189.95Q171.81 189.46 172.25 188.69Q172.69 187.92 172.69 187.06L172.69 187.06L172.69 185.15Q172.56 185.31 172.11 185.43Q171.66 185.56 171.08 185.66Q170.50 185.75 169.95 185.82Q169.41 185.88 169.07 185.93L169.07 185.93Q168.25 186.03 167.55 186.27Q166.84 186.50 166.41 186.97Q165.98 187.44 165.98 188.24L165.98 188.24Q165.98 189.33 166.79 189.88Q167.61 190.44 168.86 190.44ZM183.77 192.28L183.77 192.28Q182.07 192.28 180.76 191.42Q179.46 190.55 178.72 188.97Q177.98 187.38 177.98 185.22L177.98 185.22Q177.98 183.07 178.72 181.49Q179.46 179.91 180.77 179.05Q182.09 178.19 183.81 178.19L183.81 178.19Q185.14 178.19 185.92 178.63Q186.69 179.06 187.11 179.62Q187.52 180.17 187.75 180.53L187.75 180.53L187.93 180.53L187.93 173.82L190.02 173.82L190.02 192L188.00 192L188.00 189.90L187.75 189.90Q187.52 190.28 187.09 190.84Q186.67 191.41 185.88 191.84Q185.09 192.28 183.77 192.28ZM184.06 190.40L184.06 190.40Q185.95 190.40 186.96 188.95Q187.96 187.50 187.96 185.18L187.96 185.18Q187.96 182.89 186.97 181.48Q185.97 180.07 184.06 180.07L184.06 180.07Q182.73 180.07 181.84 180.75Q180.96 181.43 180.52 182.59Q180.08 183.74 180.08 185.18L180.08 185.18Q180.08 186.64 180.53 187.82Q180.98 189.01 181.86 189.71Q182.74 190.40 184.06 190.40ZM199.86 192.28L199.86 192.28Q197.89 192.28 196.46 191.41Q195.04 190.54 194.27 188.96Q193.50 187.38 193.50 185.29L193.50 185.29Q193.50 183.19 194.27 181.59Q195.04 179.99 196.42 179.09Q197.80 178.19 199.65 178.19L199.65 178.19Q200.71 178.19 201.75 178.54Q202.79 178.90 203.64 179.69Q204.49 180.49 205.00 181.79Q205.51 183.10 205.51 185.00L205.51 185.00L205.51 185.89L195.61 185.89Q195.68 188.08 196.85 189.24Q198.01 190.40 199.86 190.40L199.86 190.40Q201.09 190.40 201.98 189.87Q202.87 189.34 203.27 188.27L203.27 188.27L205.29 188.84Q204.81 190.38 203.38 191.33Q201.94 192.28 199.86 192.28ZM195.61 184.08L195.61 184.08L203.38 184.08Q203.38 182.35 202.36 181.21Q201.35 180.07 199.65 180.07L199.65 180.07Q198.45 180.07 197.57 180.63Q196.69 181.19 196.18 182.11Q195.68 183.02 195.61 184.08ZM209.55 189.51L211.83 189.51L211.68 190.47Q211.53 191.49 211.23 192.64Q210.92 193.79 210.59 194.81Q210.26 195.84 210.05 196.44L210.05 196.44L208.45 196.44Q208.57 195.87 208.75 194.94Q208.94 194.01 209.13 192.86Q209.32 191.71 209.45 190.51L209.45 190.51L209.55 189.51ZM225.21 192L223.01 192L223.01 173.82L229.16 173.82Q231.30 173.82 232.66 174.59Q234.02 175.35 234.68 176.66Q235.34 177.96 235.34 179.57L235.34 179.57Q235.34 181.18 234.68 182.49Q234.03 183.81 232.67 184.58Q231.31 185.36 229.19 185.36L229.19 185.36L225.21 185.36L225.21 192ZM225.21 175.77L225.21 183.41L229.12 183.41Q231.31 183.41 232.24 182.31Q233.17 181.20 233.17 179.57L233.17 179.57Q233.17 177.93 232.24 176.85Q231.30 175.77 229.09 175.77L229.09 175.77L225.21 175.77ZM239.95 197.11L239.95 197.11Q239.42 197.11 239.00 197.03Q238.58 196.94 238.42 196.87L238.42 196.87L238.96 195.02Q239.72 195.21 240.31 195.16Q240.89 195.11 241.35 194.64Q241.81 194.18 242.19 193.14L242.19 193.14L242.58 192.07L237.54 178.36L239.81 178.36L243.57 189.23L243.72 189.23L247.48 178.36L249.75 178.36L243.96 193.99Q242.80 197.11 239.95 197.11ZM255.54 178.36L258.45 178.36L258.45 180.14L255.54 180.14L255.54 188.09Q255.54 188.98 255.80 189.42Q256.06 189.86 256.48 190.01Q256.89 190.15 257.35 190.15L257.35 190.15Q257.70 190.15 257.92 190.11Q258.14 190.07 258.28 190.05L258.28 190.05L258.70 191.93Q258.49 192.01 258.11 192.09Q257.73 192.18 257.14 192.18L257.14 192.18Q256.25 192.18 255.40 191.80Q254.56 191.41 254.00 190.63Q253.45 189.85 253.45 188.66L253.45 188.66L253.45 180.14L251.39 180.14L251.39 178.36L253.45 178.36L253.45 175.10L255.54 175.10L255.54 178.36ZM263.71 183.80L263.71 183.80L263.71 192L261.61 192L261.61 173.82L263.71 173.82L263.71 180.49L263.89 180.49Q264.37 179.44 265.33 178.81Q266.29 178.19 267.90 178.19L267.90 178.19Q269.99 178.19 271.27 179.45Q272.55 180.71 272.55 183.34L272.55 183.34L272.55 192L270.46 192L270.46 183.48Q270.46 181.85 269.62 180.96Q268.78 180.07 267.30 180.07L267.30 180.07Q265.74 180.07 264.73 181.04Q263.71 182.01 263.71 183.80ZM281.93 192.28L281.93 192.28Q280.08 192.28 278.69 191.41Q277.30 190.53 276.52 188.95Q275.75 187.37 275.75 185.25L275.75 185.25Q275.75 183.12 276.52 181.53Q277.30 179.94 278.69 179.06Q280.08 178.19 281.93 178.19L281.93 178.19Q283.77 178.19 285.16 179.06Q286.55 179.94 287.33 181.53Q288.11 183.12 288.11 185.25L288.11 185.25Q288.11 187.37 287.33 188.95Q286.55 190.53 285.16 191.41Q283.77 192.28 281.93 192.28ZM281.93 190.40L281.93 190.40Q283.33 190.40 284.23 189.68Q285.14 188.96 285.57 187.79Q286.01 186.62 286.01 185.25L286.01 185.25Q286.01 183.89 285.57 182.70Q285.14 181.52 284.23 180.80Q283.33 180.07 281.93 180.07L281.93 180.07Q280.52 180.07 279.62 180.80Q278.71 181.52 278.28 182.70Q277.84 183.89 277.84 185.25L277.84 185.25Q277.84 186.62 278.28 187.79Q278.71 188.96 279.62 189.68Q280.52 190.40 281.93 190.40ZM293.40 183.80L293.40 183.80L293.40 192L291.30 192L291.30 178.36L293.33 178.36L293.33 180.49L293.50 180.49Q293.98 179.46 294.96 178.82Q295.94 178.19 297.48 178.19L297.48 178.19Q299.55 178.19 300.82 179.46Q302.10 180.73 302.10 183.34L302.10 183.34L302.10 192L300.00 192L300.00 183.48Q300.00 181.87 299.17 180.97Q298.33 180.07 296.88 180.07L296.88 180.07Q295.38 180.07 294.39 181.04Q293.40 182.01 293.40 183.80ZM315.27 192L313.25 192L313.25 173.82L315.34 173.82L315.34 180.53L315.52 180.53Q315.75 180.17 316.16 179.62Q316.58 179.06 317.35 178.63Q318.13 178.19 319.46 178.19L319.46 178.19Q321.18 178.19 322.50 179.05Q323.81 179.91 324.55 181.49Q325.29 183.07 325.29 185.22L325.29 185.22Q325.29 187.38 324.55 188.97Q323.81 190.55 322.51 191.42Q321.20 192.28 319.50 192.28L319.50 192.28Q318.18 192.28 317.39 191.84Q316.60 191.41 316.18 190.84Q315.75 190.28 315.52 189.90L315.52 189.90L315.27 189.90L315.27 192ZM315.31 185.18L315.31 185.18Q315.31 187.50 316.31 188.95Q317.32 190.40 319.21 190.40L319.21 190.40Q320.53 190.40 321.41 189.71Q322.29 189.01 322.74 187.82Q323.19 186.64 323.19 185.18L323.19 185.18Q323.19 183.74 322.75 182.59Q322.31 181.43 321.43 180.75Q320.54 180.07 319.21 180.07L319.21 180.07Q317.30 180.07 316.30 181.48Q315.31 182.89 315.31 185.18ZM329.83 197.11L329.83 197.11Q329.30 197.11 328.88 197.03Q328.46 196.94 328.30 196.87L328.30 196.87L328.84 195.02Q329.60 195.21 330.19 195.16Q330.77 195.11 331.23 194.64Q331.69 194.18 332.07 193.14L332.07 193.14L332.46 192.07L327.42 178.36L329.69 178.36L333.45 189.23L333.60 189.23L337.36 178.36L339.63 178.36L333.84 193.99Q332.68 197.11 329.83 197.11ZM354.97 192.28L354.97 192.28Q353.06 192.28 351.67 191.38Q350.29 190.47 349.54 188.88Q348.79 187.29 348.79 185.25L348.79 185.25Q348.79 183.18 349.56 181.58Q350.33 179.99 351.71 179.09Q353.09 178.19 354.94 178.19L354.94 178.19Q356.38 178.19 357.53 178.72Q358.68 179.25 359.42 180.21Q360.16 181.17 360.34 182.45L360.34 182.45L358.24 182.45Q358.00 181.52 357.18 180.79Q356.36 180.07 354.97 180.07L354.97 180.07Q353.14 180.07 352.01 181.47Q350.89 182.86 350.89 185.18L350.89 185.18Q350.89 187.55 352.00 188.98Q353.11 190.40 354.97 190.40L354.97 190.40Q356.20 190.40 357.07 189.77Q357.95 189.14 358.24 188.02L358.24 188.02L360.34 188.02Q360.16 189.23 359.46 190.19Q358.76 191.16 357.62 191.72Q356.48 192.28 354.97 192.28ZM365.48 183.80L365.48 183.80L365.48 192L363.39 192L363.39 173.82L365.48 173.82L365.48 180.49L365.66 180.49Q366.14 179.44 367.10 178.81Q368.07 178.19 369.67 178.19L369.67 178.19Q371.77 178.19 373.05 179.45Q374.33 180.71 374.33 183.34L374.33 183.34L374.33 192L372.23 192L372.23 183.48Q372.23 181.85 371.39 180.96Q370.55 180.07 369.07 180.07L369.07 180.07Q367.52 180.07 366.50 181.04Q365.48 182.01 365.48 183.80ZM383.70 192.28L383.70 192.28Q381.86 192.28 380.47 191.41Q379.08 190.53 378.30 188.95Q377.52 187.37 377.52 185.25L377.52 185.25Q377.52 183.12 378.30 181.53Q379.08 179.94 380.47 179.06Q381.86 178.19 383.70 178.19L383.70 178.19Q385.55 178.19 386.94 179.06Q388.33 179.94 389.10 181.53Q389.88 183.12 389.88 185.25L389.88 185.25Q389.88 187.37 389.10 188.95Q388.33 190.53 386.94 191.41Q385.55 192.28 383.70 192.28ZM383.70 190.40L383.70 190.40Q385.10 190.40 386.01 189.68Q386.92 188.96 387.35 187.79Q387.79 186.62 387.79 185.25L387.79 185.25Q387.79 183.89 387.35 182.70Q386.92 181.52 386.01 180.80Q385.10 180.07 383.70 180.07L383.70 180.07Q382.30 180.07 381.39 180.80Q380.49 181.52 380.05 182.70Q379.62 183.89 379.62 185.25L379.62 185.25Q379.62 186.62 380.05 187.79Q380.49 188.96 381.39 189.68Q382.30 190.40 383.70 190.40ZM395.17 192L393.08 192L393.08 178.36L395.17 178.36L395.17 192ZM394.14 176.09L394.14 176.09Q393.53 176.09 393.09 175.67Q392.65 175.26 392.65 174.67L392.65 174.67Q392.65 174.08 393.09 173.67Q393.53 173.25 394.14 173.25L394.14 173.25Q394.75 173.25 395.19 173.67Q395.63 174.08 395.63 174.67L395.63 174.67Q395.63 175.26 395.19 175.67Q394.75 176.09 394.14 176.09ZM404.55 192.28L404.55 192.28Q402.63 192.28 401.24 191.38Q399.86 190.47 399.11 188.88Q398.37 187.29 398.37 185.25L398.37 185.25Q398.37 183.18 399.14 181.58Q399.90 179.99 401.28 179.09Q402.66 178.19 404.51 178.19L404.51 178.19Q405.95 178.19 407.10 178.72Q408.26 179.25 408.99 180.21Q409.73 181.17 409.91 182.45L409.91 182.45L407.81 182.45Q407.57 181.52 406.75 180.79Q405.93 180.07 404.55 180.07L404.55 180.07Q402.71 180.07 401.59 181.47Q400.46 182.86 400.46 185.18L400.46 185.18Q400.46 187.55 401.57 188.98Q402.68 190.40 404.55 190.40L404.55 190.40Q405.77 190.40 406.65 189.77Q407.52 189.14 407.81 188.02L407.81 188.02L409.91 188.02Q409.73 189.23 409.03 190.19Q408.34 191.16 407.20 191.72Q406.06 192.28 404.55 192.28ZM418.68 192.28L418.68 192.28Q416.71 192.28 415.28 191.41Q413.86 190.54 413.09 188.96Q412.32 187.38 412.32 185.29L412.32 185.29Q412.32 183.19 413.09 181.59Q413.86 179.99 415.24 179.09Q416.62 178.19 418.47 178.19L418.47 178.19Q419.53 178.19 420.57 178.54Q421.61 178.90 422.46 179.69Q423.31 180.49 423.82 181.79Q424.33 183.10 424.33 185.00L424.33 185.00L424.33 185.89L414.43 185.89Q414.50 188.08 415.67 189.24Q416.83 190.40 418.68 190.40L418.68 190.40Q419.91 190.40 420.80 189.87Q421.69 189.34 422.09 188.27L422.09 188.27L424.11 188.84Q423.63 190.38 422.20 191.33Q420.76 192.28 418.68 192.28ZM414.43 184.08L414.43 184.08L422.20 184.08Q422.20 182.35 421.18 181.21Q420.17 180.07 418.47 180.07L418.47 180.07Q417.27 180.07 416.39 180.63Q415.51 181.19 415.00 182.11Q414.50 183.02 414.43 184.08ZM436.08 185.64L436.08 185.64Q435.42 185.64 434.95 185.17Q434.48 184.70 434.48 184.05L434.48 184.05Q434.48 183.39 434.95 182.92Q435.42 182.45 436.08 182.45L436.08 182.45Q436.74 182.45 437.21 182.92Q437.68 183.39 437.68 184.05L437.68 184.05Q437.68 184.70 437.21 185.17Q436.74 185.64 436.08 185.64ZM452.49 192.32L452.49 192.32Q451.19 192.32 450.13 191.83Q449.08 191.33 448.46 190.40Q447.84 189.46 447.84 188.13L447.84 188.13Q447.84 186.96 448.30 186.22Q448.76 185.49 449.53 185.08Q450.30 184.66 451.24 184.45Q452.18 184.24 453.13 184.12L453.13 184.12Q454.37 183.96 455.15 183.87Q455.92 183.79 456.28 183.58Q456.64 183.38 456.64 182.87L456.64 182.87L456.64 182.80Q456.64 181.49 455.93 180.76Q455.21 180.03 453.77 180.03L453.77 180.03Q452.27 180.03 451.41 180.69Q450.56 181.35 450.21 182.09L450.21 182.09L448.23 181.38Q448.76 180.14 449.65 179.44Q450.54 178.75 451.60 178.47Q452.66 178.19 453.69 178.19L453.69 178.19Q454.35 178.19 455.21 178.34Q456.06 178.50 456.87 178.98Q457.67 179.46 458.20 180.42Q458.74 181.39 458.74 183.02L458.74 183.02L458.74 192L456.64 192L456.64 190.15L456.54 190.15Q456.32 190.60 455.83 191.10Q455.33 191.61 454.50 191.96Q453.68 192.32 452.49 192.32ZM452.81 190.44L452.81 190.44Q454.05 190.44 454.91 189.95Q455.76 189.46 456.20 188.69Q456.64 187.92 456.64 187.06L456.64 187.06L456.64 185.15Q456.51 185.31 456.06 185.43Q455.61 185.56 455.03 185.66Q454.45 185.75 453.90 185.82Q453.36 185.88 453.02 185.93L453.02 185.93Q452.20 186.03 451.50 186.27Q450.79 186.50 450.36 186.97Q449.93 187.44 449.93 188.24L449.93 188.24Q449.93 189.33 450.74 189.88Q451.56 190.44 452.81 190.44ZM471.17 186.42L471.17 186.42L471.17 178.36L473.26 178.36L473.26 192L471.17 192L471.17 189.69L471.02 189.69Q470.54 190.73 469.53 191.45Q468.52 192.18 466.98 192.18L466.98 192.18Q465.06 192.18 463.82 190.91Q462.57 189.64 462.57 187.03L462.57 187.03L462.57 178.36L464.67 178.36L464.67 186.89Q464.67 188.38 465.51 189.27Q466.35 190.15 467.65 190.15L467.65 190.15Q468.43 190.15 469.24 189.75Q470.06 189.35 470.61 188.53Q471.17 187.70 471.17 186.42ZM480.12 178.36L483.03 178.36L483.03 180.14L480.12 180.14L480.12 188.09Q480.12 188.98 480.38 189.42Q480.64 189.86 481.05 190.01Q481.46 190.15 481.93 190.15L481.93 190.15Q482.27 190.15 482.49 190.11Q482.72 190.07 482.85 190.05L482.85 190.05L483.28 191.93Q483.06 192.01 482.68 192.09Q482.30 192.18 481.71 192.18L481.71 192.18Q480.83 192.18 479.98 191.80Q479.13 191.41 478.57 190.63Q478.02 189.85 478.02 188.66L478.02 188.66L478.02 180.14L475.96 180.14L475.96 178.36L478.02 178.36L478.02 175.10L480.12 175.10L480.12 178.36ZM491.73 192.28L491.73 192.28Q489.88 192.28 488.49 191.41Q487.10 190.53 486.33 188.95Q485.55 187.37 485.55 185.25L485.55 185.25Q485.55 183.12 486.33 181.53Q487.10 179.94 488.49 179.06Q489.88 178.19 491.73 178.19L491.73 178.19Q493.57 178.19 494.96 179.06Q496.35 179.94 497.13 181.53Q497.91 183.12 497.91 185.25L497.91 185.25Q497.91 187.37 497.13 188.95Q496.35 190.53 494.96 191.41Q493.57 192.28 491.73 192.28ZM491.73 190.40L491.73 190.40Q493.13 190.40 494.04 189.68Q494.94 188.96 495.38 187.79Q495.81 186.62 495.81 185.25L495.81 185.25Q495.81 183.89 495.38 182.70Q494.94 181.52 494.04 180.80Q493.13 180.07 491.73 180.07L491.73 180.07Q490.32 180.07 489.42 180.80Q488.51 181.52 488.08 182.70Q487.64 183.89 487.64 185.25L487.64 185.25Q487.64 186.62 488.08 187.79Q488.51 188.96 489.42 189.68Q490.32 190.40 491.73 190.40ZM503.20 192L501.10 192L501.10 178.36L503.13 178.36L503.13 180.49L503.30 180.49Q503.73 179.40 504.68 178.79Q505.63 178.19 506.96 178.19L506.96 178.19Q508.31 178.19 509.21 178.79Q510.11 179.40 510.62 180.49L510.62 180.49L510.76 180.49Q511.29 179.44 512.33 178.81Q513.38 178.19 514.85 178.19L514.85 178.19Q516.67 178.19 517.84 179.33Q519.00 180.47 519.00 182.87L519.00 182.87L519.00 192L516.90 192L516.90 182.87Q516.90 181.36 516.08 180.72Q515.25 180.07 514.13 180.07L514.13 180.07Q512.70 180.07 511.91 180.93Q511.12 181.80 511.12 183.12L511.12 183.12L511.12 192L508.99 192L508.99 182.66Q508.99 181.50 508.23 180.78Q507.48 180.07 506.29 180.07L506.29 180.07Q505.47 180.07 504.76 180.50Q504.06 180.94 503.63 181.71Q503.20 182.47 503.20 183.48L503.20 183.48L503.20 192ZM526.85 192.32L526.85 192.32Q525.55 192.32 524.50 191.83Q523.44 191.33 522.82 190.40Q522.20 189.46 522.20 188.13L522.20 188.13Q522.20 186.96 522.66 186.22Q523.12 185.49 523.89 185.08Q524.66 184.66 525.60 184.45Q526.54 184.24 527.49 184.12L527.49 184.12Q528.73 183.96 529.51 183.87Q530.28 183.79 530.64 183.58Q531.00 183.38 531.00 182.87L531.00 182.87L531.00 182.80Q531.00 181.49 530.29 180.76Q529.57 180.03 528.13 180.03L528.13 180.03Q526.63 180.03 525.77 180.69Q524.92 181.35 524.58 182.09L524.58 182.09L522.59 181.38Q523.12 180.14 524.01 179.44Q524.90 178.75 525.96 178.47Q527.03 178.19 528.06 178.19L528.06 178.19Q528.71 178.19 529.57 178.34Q530.43 178.50 531.23 178.98Q532.03 179.46 532.57 180.42Q533.10 181.39 533.10 183.02L533.10 183.02L533.10 192L531.00 192L531.00 190.15L530.90 190.15Q530.68 190.60 530.19 191.10Q529.69 191.61 528.86 191.96Q528.04 192.32 526.85 192.32ZM527.17 190.44L527.17 190.44Q528.41 190.44 529.27 189.95Q530.12 189.46 530.56 188.69Q531.00 187.92 531.00 187.06L531.00 187.06L531.00 185.15Q530.87 185.31 530.42 185.43Q529.97 185.56 529.39 185.66Q528.81 185.75 528.26 185.82Q527.72 185.88 527.38 185.93L527.38 185.93Q526.56 186.03 525.86 186.27Q525.15 186.50 524.72 186.97Q524.29 187.44 524.29 188.24L524.29 188.24Q524.29 189.33 525.10 189.88Q525.92 190.44 527.17 190.44ZM539.95 178.36L542.86 178.36L542.86 180.14L539.95 180.14L539.95 188.09Q539.95 188.98 540.21 189.42Q540.48 189.86 540.89 190.01Q541.30 190.15 541.76 190.15L541.76 190.15Q542.11 190.15 542.33 190.11Q542.55 190.07 542.69 190.05L542.69 190.05L543.11 191.93Q542.90 192.01 542.52 192.09Q542.14 192.18 541.55 192.18L541.55 192.18Q540.66 192.18 539.81 191.80Q538.97 191.41 538.41 190.63Q537.86 189.85 537.86 188.66L537.86 188.66L537.86 180.14L535.80 180.14L535.80 178.36L537.86 178.36L537.86 175.10L539.95 175.10L539.95 178.36ZM548.12 192L546.02 192L546.02 178.36L548.12 178.36L548.12 192ZM547.09 176.09L547.09 176.09Q546.48 176.09 546.04 175.67Q545.60 175.26 545.60 174.67L545.60 174.67Q545.60 174.08 546.04 173.67Q546.48 173.25 547.09 173.25L547.09 173.25Q547.70 173.25 548.14 173.67Q548.58 174.08 548.58 174.67L548.58 174.67Q548.58 175.26 548.14 175.67Q547.70 176.09 547.09 176.09ZM557.49 192.28L557.49 192.28Q555.65 192.28 554.26 191.41Q552.87 190.53 552.09 188.95Q551.32 187.37 551.32 185.25L551.32 185.25Q551.32 183.12 552.09 181.53Q552.87 179.94 554.26 179.06Q555.65 178.19 557.49 178.19L557.49 178.19Q559.34 178.19 560.73 179.06Q562.12 179.94 562.90 181.53Q563.67 183.12 563.67 185.25L563.67 185.25Q563.67 187.37 562.90 188.95Q562.12 190.53 560.73 191.41Q559.34 192.28 557.49 192.28ZM557.49 190.40L557.49 190.40Q558.90 190.40 559.80 189.68Q560.71 188.96 561.14 187.79Q561.58 186.62 561.58 185.25L561.58 185.25Q561.58 183.89 561.14 182.70Q560.71 181.52 559.80 180.80Q558.90 180.07 557.49 180.07L557.49 180.07Q556.09 180.07 555.19 180.80Q554.28 181.52 553.85 182.70Q553.41 183.89 553.41 185.25L553.41 185.25Q553.41 186.62 553.85 187.79Q554.28 188.96 555.19 189.68Q556.09 190.40 557.49 190.40ZM568.96 183.80L568.96 183.80L568.96 192L566.87 192L566.87 178.36L568.89 178.36L568.89 180.49L569.07 180.49Q569.55 179.46 570.53 178.82Q571.50 178.19 573.05 178.19L573.05 178.19Q575.12 178.19 576.39 179.46Q577.66 180.73 577.66 183.34L577.66 183.34L577.66 192L575.57 192L575.57 183.48Q575.57 181.87 574.74 180.97Q573.90 180.07 572.44 180.07L572.44 180.07Q570.94 180.07 569.95 181.04Q568.96 182.01 568.96 183.80ZM582.35 189.51L584.63 189.51L584.48 190.47Q584.33 191.49 584.03 192.64Q583.72 193.79 583.39 194.81Q583.06 195.84 582.85 196.44L582.85 196.44L581.25 196.44Q581.37 195.87 581.55 194.94Q581.74 194.01 581.93 192.86Q582.12 191.71 582.25 190.51L582.25 190.51L582.35 189.51ZM597.62 192L595.53 192L595.53 178.36L597.55 178.36L597.55 180.42L597.69 180.42Q598.07 179.41 599.04 178.78Q600.02 178.15 601.24 178.15L601.24 178.15Q601.48 178.15 601.82 178.16Q602.17 178.17 602.35 178.19L602.35 178.19L602.35 180.32Q602.24 180.29 601.86 180.23Q601.48 180.17 601.07 180.17L601.07 180.17Q599.58 180.17 598.60 181.08Q597.62 181.99 597.62 183.37L597.62 183.37L597.62 192ZM610.55 192.28L610.55 192.28Q608.58 192.28 607.15 191.41Q605.73 190.54 604.96 188.96Q604.19 187.38 604.19 185.29L604.19 185.29Q604.19 183.19 604.96 181.59Q605.73 179.99 607.11 179.09Q608.49 178.19 610.34 178.19L610.34 178.19Q611.40 178.19 612.44 178.54Q613.48 178.90 614.33 179.69Q615.18 180.49 615.69 181.79Q616.19 183.10 616.19 185.00L616.19 185.00L616.19 185.89L606.30 185.89Q606.37 188.08 607.53 189.24Q608.70 190.40 610.55 190.40L610.55 190.40Q611.78 190.40 612.67 189.87Q613.56 189.34 613.96 188.27L613.96 188.27L615.98 188.84Q615.50 190.38 614.06 191.33Q612.63 192.28 610.55 192.28ZM606.30 184.08L606.30 184.08L614.06 184.08Q614.06 182.35 613.05 181.21Q612.04 180.07 610.34 180.07L610.34 180.07Q609.14 180.07 608.26 180.63Q607.38 181.19 606.87 182.11Q606.37 183.02 606.30 184.08ZM619.39 173.82L621.49 173.82L621.49 192L619.39 192L619.39 173.82ZM627.42 192L625.32 192L625.32 178.36L627.42 178.36L627.42 192ZM626.39 176.09L626.39 176.09Q625.77 176.09 625.33 175.67Q624.89 175.26 624.89 174.67L624.89 174.67Q624.89 174.08 625.33 173.67Q625.77 173.25 626.39 173.25L626.39 173.25Q627.00 173.25 627.44 173.67Q627.88 174.08 627.88 174.67L627.88 174.67Q627.88 175.26 627.44 175.67Q627.00 176.09 626.39 176.09ZM635.26 192.32L635.26 192.32Q633.97 192.32 632.91 191.83Q631.86 191.33 631.23 190.40Q630.61 189.46 630.61 188.13L630.61 188.13Q630.61 186.96 631.07 186.22Q631.54 185.49 632.31 185.08Q633.08 184.66 634.02 184.45Q634.95 184.24 635.90 184.12L635.90 184.12Q637.15 183.96 637.92 183.87Q638.70 183.79 639.06 183.58Q639.42 183.38 639.42 182.87L639.42 182.87L639.42 182.80Q639.42 181.49 638.70 180.76Q637.99 180.03 636.54 180.03L636.54 180.03Q635.04 180.03 634.19 180.69Q633.34 181.35 632.99 182.09L632.99 182.09L631.00 181.38Q631.54 180.14 632.43 179.44Q633.32 178.75 634.38 178.47Q635.44 178.19 636.47 178.19L636.47 178.19Q637.13 178.19 637.99 178.34Q638.84 178.50 639.65 178.98Q640.45 179.46 640.98 180.42Q641.51 181.39 641.51 183.02L641.51 183.02L641.51 192L639.42 192L639.42 190.15L639.31 190.15Q639.10 190.60 638.60 191.10Q638.11 191.61 637.28 191.96Q636.45 192.32 635.26 192.32ZM635.58 190.44L635.58 190.44Q636.83 190.44 637.68 189.95Q638.54 189.46 638.98 188.69Q639.42 187.92 639.42 187.06L639.42 187.06L639.42 185.15Q639.29 185.31 638.84 185.43Q638.39 185.56 637.81 185.66Q637.23 185.75 636.68 185.82Q636.13 185.88 635.80 185.93L635.80 185.93Q634.98 186.03 634.27 186.27Q633.57 186.50 633.14 186.97Q632.71 187.44 632.71 188.24L632.71 188.24Q632.71 189.33 633.52 189.88Q634.33 190.44 635.58 190.44ZM647.66 192L645.63 192L645.63 173.82L647.73 173.82L647.73 180.53L647.91 180.53Q648.14 180.17 648.55 179.62Q648.96 179.06 649.74 178.63Q650.52 178.19 651.85 178.19L651.85 178.19Q653.57 178.19 654.88 179.05Q656.20 179.91 656.94 181.49Q657.67 183.07 657.67 185.22L657.67 185.22Q657.67 187.38 656.94 188.97Q656.20 190.55 654.89 191.42Q653.59 192.28 651.88 192.28L651.88 192.28Q650.57 192.28 649.78 191.84Q648.99 191.41 648.56 190.84Q648.14 190.28 647.91 189.90L647.91 189.90L647.66 189.90L647.66 192ZM647.69 185.18L647.69 185.18Q647.69 187.50 648.70 188.95Q649.71 190.40 651.60 190.40L651.60 190.40Q652.91 190.40 653.80 189.71Q654.68 189.01 655.13 187.82Q655.58 186.64 655.58 185.18L655.58 185.18Q655.58 183.74 655.14 182.59Q654.70 181.43 653.81 180.75Q652.93 180.07 651.60 180.07L651.60 180.07Q649.68 180.07 648.69 181.48Q647.69 182.89 647.69 185.18ZM662.96 192L660.87 192L660.87 178.36L662.96 178.36L662.96 192ZM661.93 176.09L661.93 176.09Q661.32 176.09 660.88 175.67Q660.44 175.26 660.44 174.67L660.44 174.67Q660.44 174.08 660.88 173.67Q661.32 173.25 661.93 173.25L661.93 173.25Q662.55 173.25 662.99 173.67Q663.42 174.08 663.42 174.67L663.42 174.67Q663.42 175.26 662.99 175.67Q662.55 176.09 661.93 176.09ZM666.80 173.82L668.89 173.82L668.89 192L666.80 192L666.80 173.82ZM674.82 192L672.73 192L672.73 178.36L674.82 178.36L674.82 192ZM673.79 176.09L673.79 176.09Q673.18 176.09 672.74 175.67Q672.30 175.26 672.30 174.67L672.30 174.67Q672.30 174.08 672.74 173.67Q673.18 173.25 673.79 173.25L673.79 173.25Q674.41 173.25 674.85 173.67Q675.29 174.08 675.29 174.67L675.29 174.67Q675.29 175.26 674.85 175.67Q674.41 176.09 673.79 176.09ZM681.68 178.36L684.59 178.36L684.59 180.14L681.68 180.14L681.68 188.09Q681.68 188.98 681.94 189.42Q682.20 189.86 682.61 190.01Q683.03 190.15 683.49 190.15L683.49 190.15Q683.83 190.15 684.06 190.11Q684.28 190.07 684.41 190.05L684.41 190.05L684.84 191.93Q684.63 192.01 684.24 192.09Q683.86 192.18 683.28 192.18L683.28 192.18Q682.39 192.18 681.54 191.80Q680.69 191.41 680.14 190.63Q679.58 189.85 679.58 188.66L679.58 188.66L679.58 180.14L677.52 180.14L677.52 178.36L679.58 178.36L679.58 175.10L681.68 175.10L681.68 178.36ZM689.10 197.11L689.10 197.11Q688.57 197.11 688.15 197.03Q687.73 196.94 687.57 196.87L687.57 196.87L688.11 195.02Q688.87 195.21 689.45 195.16Q690.04 195.11 690.50 194.64Q690.95 194.18 691.34 193.14L691.34 193.14L691.73 192.07L686.68 178.36L688.96 178.36L692.72 189.23L692.86 189.23L696.63 178.36L698.90 178.36L693.11 193.99Q691.95 197.11 689.10 197.11ZM702.52 189.51L704.80 189.51L704.65 190.47Q704.50 191.49 704.20 192.64Q703.89 193.79 703.56 194.81Q703.23 195.84 703.02 196.44L703.02 196.44L701.42 196.44Q701.54 195.87 701.72 194.94Q701.91 194.01 702.10 192.86Q702.29 191.71 702.42 190.51L702.42 190.51L702.52 189.51ZM721.41 192.28L721.41 192.28Q719.44 192.28 718.02 191.41Q716.59 190.54 715.83 188.96Q715.06 187.38 715.06 185.29L715.06 185.29Q715.06 183.19 715.83 181.59Q716.59 179.99 717.97 179.09Q719.36 178.19 721.20 178.19L721.20 178.19Q722.27 178.19 723.31 178.54Q724.34 178.90 725.20 179.69Q726.05 180.49 726.56 181.79Q727.06 183.10 727.06 185.00L727.06 185.00L727.06 185.89L717.16 185.89Q717.23 188.08 718.40 189.24Q719.57 190.40 721.41 190.40L721.41 190.40Q722.65 190.40 723.54 189.87Q724.42 189.34 724.82 188.27L724.82 188.27L726.85 188.84Q726.37 190.38 724.93 191.33Q723.49 192.28 721.41 192.28ZM717.16 184.08L717.16 184.08L724.93 184.08Q724.93 182.35 723.92 181.21Q722.91 180.07 721.20 180.07L721.20 180.07Q720.00 180.07 719.12 180.63Q718.25 181.19 717.74 182.11Q717.23 183.02 717.16 184.08ZM739.13 178.36L741.41 178.36L736.37 192L734.23 192L729.19 178.36L731.46 178.36L735.23 189.23L735.37 189.23L739.13 178.36ZM748.19 192.32L748.19 192.32Q746.89 192.32 745.84 191.83Q744.78 191.33 744.16 190.40Q743.54 189.46 743.54 188.13L743.54 188.13Q743.54 186.96 744.00 186.22Q744.46 185.49 745.23 185.08Q746.01 184.66 746.94 184.45Q747.88 184.24 748.83 184.12L748.83 184.12Q750.07 183.96 750.85 183.87Q751.63 183.79 751.99 183.58Q752.35 183.38 752.35 182.87L752.35 182.87L752.35 182.80Q752.35 181.49 751.63 180.76Q750.92 180.03 749.47 180.03L749.47 180.03Q747.97 180.03 747.12 180.69Q746.26 181.35 745.92 182.09L745.92 182.09L743.93 181.38Q744.46 180.14 745.35 179.44Q746.25 178.75 747.31 178.47Q748.37 178.19 749.40 178.19L749.40 178.19Q750.05 178.19 750.91 178.34Q751.77 178.50 752.57 178.98Q753.38 179.46 753.91 180.42Q754.44 181.39 754.44 183.02L754.44 183.02L754.44 192L752.35 192L752.35 190.15L752.24 190.15Q752.03 190.60 751.53 191.10Q751.03 191.61 750.21 191.96Q749.38 192.32 748.19 192.32ZM748.51 190.44L748.51 190.44Q749.75 190.44 750.61 189.95Q751.47 189.46 751.91 188.69Q752.35 187.92 752.35 187.06L752.35 187.06L752.35 185.15Q752.21 185.31 751.76 185.43Q751.32 185.56 750.73 185.66Q750.15 185.75 749.61 185.82Q749.06 185.88 748.72 185.93L748.72 185.93Q747.91 186.03 747.20 186.27Q746.49 186.50 746.06 186.97Q745.63 187.44 745.63 188.24L745.63 188.24Q745.63 189.33 746.45 189.88Q747.26 190.44 748.51 190.44ZM758.28 173.82L760.37 173.82L760.37 192L758.28 192L758.28 173.82ZM772.80 186.42L772.80 186.42L772.80 178.36L774.89 178.36L774.89 192L772.80 192L772.80 189.69L772.66 189.69Q772.18 190.73 771.17 191.45Q770.15 192.18 768.61 192.18L768.61 192.18Q766.69 192.18 765.45 190.91Q764.21 189.64 764.21 187.03L764.21 187.03L764.21 178.36L766.30 178.36L766.30 186.89Q766.30 188.38 767.14 189.27Q767.98 190.15 769.28 190.15L769.28 190.15Q770.07 190.15 770.88 189.75Q771.69 189.35 772.24 188.53Q772.80 187.70 772.80 186.42ZM782.74 192.32L782.74 192.32Q781.45 192.32 780.39 191.83Q779.33 191.33 778.71 190.40Q778.09 189.46 778.09 188.13L778.09 188.13Q778.09 186.96 778.55 186.22Q779.01 185.49 779.79 185.08Q780.56 184.66 781.50 184.45Q782.43 184.24 783.38 184.12L783.38 184.12Q784.63 183.96 785.40 183.87Q786.18 183.79 786.54 183.58Q786.90 183.38 786.90 182.87L786.90 182.87L786.90 182.80Q786.90 181.49 786.18 180.76Q785.47 180.03 784.02 180.03L784.02 180.03Q782.52 180.03 781.67 180.69Q780.82 181.35 780.47 182.09L780.47 182.09L778.48 181.38Q779.01 180.14 779.91 179.44Q780.80 178.75 781.86 178.47Q782.92 178.19 783.95 178.19L783.95 178.19Q784.61 178.19 785.46 178.34Q786.32 178.50 787.12 178.98Q787.93 179.46 788.46 180.42Q788.99 181.39 788.99 183.02L788.99 183.02L788.99 192L786.90 192L786.90 190.15L786.79 190.15Q786.58 190.60 786.08 191.10Q785.58 191.61 784.76 191.96Q783.93 192.32 782.74 192.32ZM783.06 190.44L783.06 190.44Q784.31 190.44 785.16 189.95Q786.02 189.46 786.46 188.69Q786.90 187.92 786.90 187.06L786.90 187.06L786.90 185.15Q786.76 185.31 786.32 185.43Q785.87 185.56 785.29 185.66Q784.70 185.75 784.16 185.82Q783.61 185.88 783.28 185.93L783.28 185.93Q782.46 186.03 781.75 186.27Q781.05 186.50 780.62 186.97Q780.19 187.44 780.19 188.24L780.19 188.24Q780.19 189.33 781.00 189.88Q781.81 190.44 783.06 190.44ZM795.85 178.36L798.76 178.36L798.76 180.14L795.85 180.14L795.85 188.09Q795.85 188.98 796.11 189.42Q796.37 189.86 796.78 190.01Q797.20 190.15 797.66 190.15L797.66 190.15Q798.00 190.15 798.23 190.11Q798.45 190.07 798.58 190.05L798.58 190.05L799.01 191.93Q798.79 192.01 798.41 192.09Q798.03 192.18 797.44 192.18L797.44 192.18Q796.56 192.18 795.71 191.80Q794.86 191.41 794.31 190.63Q793.75 189.85 793.75 188.66L793.75 188.66L793.75 180.14L791.69 180.14L791.69 178.36L793.75 178.36L793.75 175.10L795.85 175.10L795.85 178.36ZM804.01 192L801.92 192L801.92 178.36L804.01 178.36L804.01 192ZM802.98 176.09L802.98 176.09Q802.37 176.09 801.93 175.67Q801.49 175.26 801.49 174.67L801.49 174.67Q801.49 174.08 801.93 173.67Q802.37 173.25 802.98 173.25L802.98 173.25Q803.60 173.25 804.04 173.67Q804.48 174.08 804.48 174.67L804.48 174.67Q804.48 175.26 804.04 175.67Q803.60 176.09 802.98 176.09ZM813.39 192.28L813.39 192.28Q811.54 192.28 810.15 191.41Q808.76 190.53 807.99 188.95Q807.21 187.37 807.21 185.25L807.21 185.25Q807.21 183.12 807.99 181.53Q808.76 179.94 810.15 179.06Q811.54 178.19 813.39 178.19L813.39 178.19Q815.24 178.19 816.63 179.06Q818.01 179.94 818.79 181.53Q819.57 183.12 819.57 185.25L819.57 185.25Q819.57 187.37 818.79 188.95Q818.01 190.53 816.63 191.41Q815.24 192.28 813.39 192.28ZM813.39 190.40L813.39 190.40Q814.79 190.40 815.70 189.68Q816.60 188.96 817.04 187.79Q817.47 186.62 817.47 185.25L817.47 185.25Q817.47 183.89 817.04 182.70Q816.60 181.52 815.70 180.80Q814.79 180.07 813.39 180.07L813.39 180.07Q811.99 180.07 811.08 180.80Q810.18 181.52 809.74 182.70Q809.31 183.89 809.31 185.25L809.31 185.25Q809.31 186.62 809.74 187.79Q810.18 188.96 811.08 189.68Q811.99 190.40 813.39 190.40ZM824.86 183.80L824.86 183.80L824.86 192L822.76 192L822.76 178.36L824.79 178.36L824.79 180.49L824.97 180.49Q825.45 179.46 826.42 178.82Q827.40 178.19 828.94 178.19L828.94 178.19Q831.01 178.19 832.29 179.46Q833.56 180.73 833.56 183.34L833.56 183.34L833.56 192L831.46 192L831.46 183.48Q831.46 181.87 830.63 180.97Q829.80 180.07 828.34 180.07L828.34 180.07Q826.84 180.07 825.85 181.04Q824.86 182.01 824.86 183.80Z" fill="#9C9082"/></svg>