<svg xmlns="http://www.w3.org/2000/svg" viewBox="0 0 1200 360" width="1200" height="360">
<defs><radialGradient id="tg" cx="50%" cy="50%" r="50%"><stop offset="0%" stop-color="#2DD4BF" stop-opacity="0.09"></stop><stop offset="100%" stop-color="#12100E" stop-opacity="0"></stop></radialGradient>
<pattern id="grid" width="34" height="34" patternUnits="userSpaceOnUse"><path d="M34 0H0V34" fill="none" stroke="#2DD4BF" stroke-opacity="0.035"></path></pattern>
<filter id="ag" x="-300%" y="-300%" width="700%" height="700%"><feGaussianBlur stdDeviation="2.4"></feGaussianBlur></filter><clipPath id="frameclip"><rect x="12" y="12" width="1176" height="336" rx="18"></rect></clipPath><filter id="ag-frame" x="-25%" y="-25%" width="150%" height="150%"><feGaussianBlur stdDeviation="4"></feGaussianBlur></filter></defs>
<rect x="12" y="12" width="1176" height="336" rx="18" fill="none" stroke="#E0A34B" stroke-width="8" opacity="0.5" filter="url(#ag-frame)"></rect><g clip-path="url(#frameclip)"><rect x="12" y="12" width="1176" height="336" rx="18" fill="#12100E"></rect><rect x="12" y="12" width="1176" height="336" fill="url(#grid)"></rect>
<circle cx="1030" cy="200" r="160" fill="url(#tg)"></circle>
<g><g transform="scale(3.779528)"><g transform="matrix(.66425 0 0 .66425 56.627 23.51)"><g transform="translate(65.05 -2.567)"><path d="m182.16 54.027-49.894 20.961" fill="none" stroke="#0E4B45" stroke-opacity=".42" stroke-width=".5" id="path21"></path><circle cx="132.26" cy="74.988" r="2.23" fill="#5DCAA5" id="circle21"></circle><circle cx="147.84" cy="68.442" r="1.0013" fill="#14807A" id="circle22"></circle><path d="m191.84 78.612-9.4888 13.607" fill="none" stroke="#0E4B45" stroke-opacity=".42" stroke-width=".5" id="path22"></path><circle cx="185.43" cy="87.803" r="1.0229" fill="#5EEAD4" id="circle23"></circle><circle cx="182.35" cy="92.219" r="1.6179" fill="#2DD4BF" id="circle24"></circle><path d="m244.16 75.608 13.113 18.02" fill="none" stroke="#0E4B45" stroke-opacity=".42" stroke-width=".5" id="path24"></path><circle cx="257.27" cy="93.628" r="1.622" fill="#5DCAA5" id="circle25"></circle><path d="m250.77 70.769 20.406 19.206" fill="none" stroke="#0E4B45" stroke-opacity=".42" stroke-width=".5" id="path25"></path><circle cx="271.18" cy="89.975" r="1.0438" fill="#5EEAD4" id="circle26"></circle><path d="m257.59 46.509 53.411 10.43" fill="none" stroke="#0E4B45" stroke-opacity=".42" stroke-width=".5" id="path26"></path><g fill="#14807A" id="g29"><circle fill="#14807A" cx="285.91" cy="52.04" r="1.26" id="circle27"></circle><circle fill="#5DCAA5" cx="292.66" cy="53.359" r="1.388" id="circle28"></circle><circle fill="#2DD4BF" cx="311" cy="56.939" r="2.6095" id="circle29"></circle></g><path d="M 256.5246,12.043804 287.80757,-9.465581" fill="none" stroke="#0E4B45" stroke-opacity="0.90139" stroke-width="0.5" id="path29" style="stroke:#0E4B45;stroke-opacity:0.89999998"></path><path d="m 179.77004,11.734034 -17.196,-12.8910004" stroke-opacity="0.90139" stroke-width="0.5" id="path20" style="fill:#12100e;fill-opacity:1;stroke:#0E4B45;stroke-opacity:0.89999998"></path><circle cx="287.83" cy="-9.4985" r="1.3569" fill="#5EEAD4" id="circle30"></circle><path d="m244.14 9.3941 27.139-30.792" fill="none" stroke="#0E4B45" stroke-opacity=".42" stroke-width=".5" id="path30"></path><circle cx="271.28" cy="-21.398" r="2.2442" fill="#2DD4BF" id="circle31"></circle><path d="m233.39-5.4944 6.6774-17.573" fill="none" stroke="#0E4B45" stroke-opacity=".42" stroke-width=".5" id="path31"></path><circle cx="240.07" cy="-23.068" r="1.5657" fill="#5DCAA5" id="circle32"></circle><path d="m196.5 5.6092-15.086-23.771" fill="none" stroke="#0E4B45" stroke-opacity=".42" stroke-width=".5" id="path32"></path><g fill="#14807A" id="g40"><circle fill="#14807A" cx="181.41" cy="-18.162" r="1.7744" id="circle33"></circle><g fill-opacity=".6" id="g39"></g></g><circle cx="162.58604" cy="-1.2468203" fill="#2DD4BF" id="circle20" r="1.0049"></circle></g><g fill="none" stroke="#14807A" id="g1"><circle id="inner-thin" stroke="#2DD4BF" cx="282.9" cy="36.294" r="43.25" stroke-opacity=".90139" stroke-width="1.1"></circle><circle id="outer-thick" stroke="#0E4B45" cx="282.9" cy="36.294" r="47" stroke-opacity=".20536" stroke-width="6"></circle><circle id="outer-super-thin" stroke="#14807A" cx="282.9" cy="36.294" r="48.5" stroke-opacity=".50897" stroke-width=".3"></circle></g><g transform="translate(65.05 -2.567)"><g fill="none" stroke="#14807A" stroke-opacity="0.35587" id="g4"><g><animateTransform attributeName="transform" attributeType="XML" type="rotate" from="0 217.85 38.861" to="360 217.85 38.861" dur="140s" repeatCount="indefinite"/><g stroke-width="12" id="g2" stroke="#2DD4BF" stroke-opacity=".62"><path id="outer-thick-parts" d="M 170.35,38.8921 A 47.5,47.5 0 0 1 182.4689,7.1682"></path><path d="m 194.5245,80.2394 a 47.5,47.5 0 0 1 -9.2044,-6.7655" id="path1"></path><path d="m 252.1331,5.9836 a 47.5,47.5 0 0 1 11.8053,21.3835" id="path2"></path><path d="m 196.74966,-4.2504975 a 49.922491,49.922491 0 0 1 11.31842,-4.0044956" id="path42" style="stroke-width:12.612"></path></g></g><g><animateTransform attributeName="transform" attributeType="XML" type="rotate" from="0 217.85 38.861" to="-360 217.85 38.861" dur="260s" repeatCount="indefinite"/><g stroke-width="8" id="g3" stroke="#5EEAD4" stroke-opacity=".6"><path id="outer-mid-thick-parts" d="m 254.5084,69.0671 a 47.5,47.5 0 0 1 -29.136,16.6945"></path><path d="m 263.9784,27.5289 a 47.5,47.5 0 0 1 -3.0171,31.2736" id="path3"></path><path d="M 180.65095,69.198305 A 47.5,47.5 0 0 1 169.85501,39.692574" id="path43"></path></g></g></g><g fill="none" stroke="#2DD4BF" id="g20"><g><animateTransform attributeName="transform" attributeType="XML" type="rotate" from="0 217.85 38.861" to="360 217.85 38.861" dur="55s" repeatCount="indefinite"/><g id="g19" stroke="#5EEAD4" stroke-opacity=".5"><path id="inner-small-parts" d="M259.3677 31.3032A42.2 42.2 0 0 1 259.8185 34.4465"></path><path d="M260.0431 38.098A42.2 42.2 0 0 1 259.281 46.8803" id="path5"></path><path d="M259.0083 48.1796A42.2 42.2 0 0 1 257.235 54.0155" id="path6"></path><path d="M254.0426 60.562A42.2 42.2 0 0 1 252.511 62.9329" id="path7"></path><path d="M250.3477 65.782A42.2 42.2 0 0 1 243.4552 72.4052" id="path8"></path><path d="M242.397 73.1871A42.2 42.2 0 0 1 237.8056 76.0445" id="path9"></path><path d="M231.0353 78.9483A42.2 42.2 0 0 1 228.8106 79.6127" id="path10"></path><path d="M195.0697 3.3378A42.2 42.2 0 0 1 199.2602 0.9762" id="path11"></path><path d="M176.5629 47.591A42.2 42.2 0 0 1 175.8833 43.2923" id="path12"></path><path d="M177.0478 49.6323A42.2 42.2 0 0 1 176.7633 48.4903" id="path13"></path><path id="outer-small-parts" d="M180.2606 15.3247A44.35 44.35 0 0 1 183.4488 10.8703"></path><path d="M175.9371 24.3615A44.35 44.35 0 0 1 179.5832 16.4429" id="path14"></path><path d="M174.2328 30.8324A44.35 44.35 0 0 1 174.7225 28.5197" id="path15"></path><path d="M173.8474 44.4015A44.35 44.35 0 0 1 173.5006 38.6345" id="path16"></path><path d="M176.1087 53.8471A44.35 44.35 0 0 1 173.9619 45.2449" id="path17"></path><path d="M178.8899 60.0513A44.35 44.35 0 0 1 177.8499 58.016" id="path18"></path><path d="M187.3965 71.1024A44.35 44.35 0 0 1 183.0976 66.4144" id="path19"></path></g></g></g></g><g transform="translate(65.05 -2.567)"><circle cx="299.93" cy="39.821" r="5.88" fill="#E0A34B" opacity="0.2" filter="url(#ag)"></circle><circle cx="299.93" cy="39.821" r="2.94" fill="#FFE0A0"></circle><circle cx="161.27" cy="41.804" r="3.84" fill="#E0A34B" opacity="0.2" filter="url(#ag)"></circle><circle cx="161.27" cy="41.804" r="1.92" fill="#FFE0A0"></circle><circle cx="164.14" cy="17.014" r="1.78" fill="#2DD4BF" opacity="0.11" filter="url(#ag)"></circle><circle cx="164.14" cy="17.014" r="1.14" fill="#5EEAD4"></circle><circle cx="163.82" cy="4.1752" r="2.84" fill="#2DD4BF" opacity="0.11" filter="url(#ag)"></circle><circle cx="163.82" cy="4.1752" r="1.82" fill="#5EEAD4"></circle><circle cx="261.26" cy="74.318" r="2.72" fill="#2DD4BF" opacity="0.11" filter="url(#ag)"></circle><circle cx="261.26" cy="74.318" r="1.74" fill="#5EEAD4"></circle><circle cx="222.09" cy="-17.492" r="1.66" fill="#2DD4BF" opacity="0.11" filter="url(#ag)"></circle><circle cx="222.09" cy="-17.492" r="1.06" fill="#5EEAD4"></circle></g></g></g></g>
<g id="text-outlines"><path fill="#2DD4BF" d="M79.70 104.00 78.59 100.09H73.93L72.81 104.00H70.42L74.70 89.34H77.92L82.20 104.00ZM76.34 91.72H76.17L74.37 98.14H78.15ZM87.48 104.00V102.22H90.92V91.13H87.48V89.34H96.72V91.13H93.28V102.22H96.72V104.00ZM119.21 104.00V89.34H128.38V91.32H121.56V95.58H128.13V97.55H121.56V102.03H128.38V104.00ZM136.96 92.72H136.77V104.00H134.71V89.34H137.74L142.04 100.62H142.23V89.34H144.29V104.00H141.26ZM158.03 101.98H157.88Q157.69 102.42 157.43 102.83Q157.17 103.24 156.78 103.56Q156.39 103.87 155.85 104.06Q155.30 104.25 154.59 104.25Q152.30 104.25 151.14 102.30Q149.99 100.35 149.99 96.78Q149.99 93.04 151.31 91.06Q152.63 89.09 155.36 89.09Q156.43 89.09 157.24 89.38Q158.05 89.68 158.62 90.17Q159.19 90.66 159.56 91.33Q159.94 91.99 160.17 92.72L158.05 93.44Q157.88 92.95 157.67 92.52Q157.46 92.09 157.16 91.76Q156.85 91.42 156.42 91.23Q155.99 91.04 155.38 91.04Q153.85 91.04 153.17 92.23Q152.49 93.42 152.49 95.43V97.76Q152.49 98.77 152.63 99.61Q152.78 100.45 153.13 101.05Q153.47 101.65 154.03 101.98Q154.59 102.32 155.38 102.32Q156.66 102.32 157.35 101.55Q158.03 100.79 158.03 99.59V98.27H155.19V96.50H160.17V104.00H158.03ZM166.48 104.00V102.22H169.92V91.13H166.48V89.34H175.72V91.13H172.28V102.22H175.72V104.00ZM184.36 92.72H184.17V104.00H182.11V89.34H185.14L189.44 100.62H189.63V89.34H191.69V104.00H188.66ZM198.21 104.00V89.34H207.38V91.32H200.56V95.58H207.13V97.55H200.56V102.03H207.38V104.00ZM214.01 104.00V89.34H223.18V91.32H216.36V95.58H222.93V97.55H216.36V102.03H223.18V104.00ZM232.09 104.00H229.76V89.34H235.25Q237.34 89.34 238.45 90.52Q239.55 91.69 239.55 93.75Q239.55 95.43 238.73 96.52Q237.91 97.62 236.38 97.87L239.76 104.00H237.16L234.05 98.08H232.09ZM234.91 96.19Q237.09 96.19 237.09 94.19V93.29Q237.09 91.30 234.91 91.30H232.09V96.19ZM265.90 99.34Q264.89 99.34 264.48 98.92Q264.07 98.50 264.07 97.89V97.34Q264.07 96.73 264.48 96.31Q264.89 95.89 265.90 95.89Q266.91 95.89 267.32 96.31Q267.73 96.73 267.73 97.34V97.89Q267.73 98.50 267.32 98.92Q266.91 99.34 265.90 99.34ZM300.90 104.00 299.79 100.09H295.13L294.01 104.00H291.62L295.90 89.34H299.12L303.40 104.00ZM297.54 91.72H297.37L295.57 98.14H299.35ZM310.80 89.34V98.35Q310.80 99.25 310.85 99.99Q310.91 100.72 311.16 101.24Q311.41 101.75 311.91 102.03Q312.42 102.30 313.30 102.30Q314.18 102.30 314.69 102.03Q315.19 101.75 315.44 101.24Q315.69 100.72 315.75 99.99Q315.80 99.25 315.80 98.35V89.34H318.15V97.93Q318.15 99.51 317.97 100.69Q317.79 101.88 317.27 102.67Q316.74 103.45 315.79 103.85Q314.83 104.25 313.30 104.25Q311.77 104.25 310.81 103.85Q309.86 103.45 309.33 102.67Q308.81 101.88 308.63 100.69Q308.45 99.51 308.45 97.93V89.34ZM330.28 91.32V104.00H327.92V91.32H323.32V89.34H334.88V91.32ZM344.90 104.25Q343.51 104.25 342.50 103.74Q341.48 103.22 340.82 102.26Q340.15 101.29 339.84 99.88Q339.52 98.48 339.52 96.67Q339.52 94.89 339.84 93.47Q340.15 92.05 340.82 91.09Q341.48 90.12 342.50 89.60Q343.51 89.09 344.90 89.09Q346.29 89.09 347.30 89.60Q348.32 90.12 348.98 91.09Q349.65 92.05 349.96 93.47Q350.28 94.89 350.28 96.67Q350.28 98.48 349.96 99.88Q349.65 101.29 348.98 102.26Q348.32 103.22 347.30 103.74Q346.29 104.25 344.90 104.25ZM344.90 102.30Q346.48 102.30 347.13 101.11Q347.78 99.93 347.78 97.89V95.43Q347.78 93.42 347.13 92.23Q346.48 91.04 344.90 91.04Q343.33 91.04 342.67 92.23Q342.02 93.42 342.02 95.43V97.91Q342.02 99.93 342.67 101.11Q343.33 102.30 344.90 102.30ZM363.75 96.99 363.81 92.58H363.64L360.70 100.11L357.76 92.58H357.59L357.66 96.99V104.00H355.58V89.34H358.45L360.70 95.16H360.85L363.12 89.34H365.82V104.00H363.75ZM379.90 104.00 378.79 100.09H374.13L373.01 104.00H370.62L374.90 89.34H378.12L382.40 104.00ZM376.54 91.72H376.37L374.57 98.14H378.35ZM393.48 91.32V104.00H391.12V91.32H386.52V89.34H398.07V91.32ZM403.48 104.00V102.22H406.92V91.13H403.48V89.34H412.72V91.13H409.28V102.22H412.72V104.00ZM423.90 104.25Q422.51 104.25 421.50 103.74Q420.48 103.22 419.82 102.26Q419.15 101.29 418.84 99.88Q418.52 98.48 418.52 96.67Q418.52 94.89 418.84 93.47Q419.15 92.05 419.82 91.09Q420.48 90.12 421.50 89.60Q422.51 89.09 423.90 89.09Q425.29 89.09 426.30 89.60Q427.32 90.12 427.98 91.09Q428.65 92.05 428.96 93.47Q429.28 94.89 429.28 96.67Q429.28 98.48 428.96 99.88Q428.65 101.29 427.98 102.26Q427.32 103.22 426.30 103.74Q425.29 104.25 423.90 104.25ZM423.90 102.30Q425.48 102.30 426.13 101.11Q426.78 99.93 426.78 97.89V95.43Q426.78 93.42 426.13 92.23Q425.48 91.04 423.90 91.04Q422.33 91.04 421.67 92.23Q421.02 93.42 421.02 95.43V97.91Q421.02 99.93 421.67 101.11Q422.33 102.30 423.90 102.30ZM437.16 92.72H436.97V104.00H434.91V89.34H437.94L442.24 100.62H442.43V89.34H444.49V104.00H441.46Z"></path><path fill="#FAF6F0" d="M71.69 156.00V115.26H98.49V122.18H80.03V133.55H96.68V140.36H80.03V156.00ZM115.06 156.60Q110.39 156.60 107.00 154.69Q103.61 152.77 101.79 149.25Q99.97 145.72 99.97 140.88Q99.97 136.15 101.79 132.59Q103.61 129.04 106.90 127.04Q110.20 125.05 114.65 125.05Q118.64 125.05 121.90 126.74Q125.15 128.44 127.08 131.88Q129.01 135.33 129.01 140.55V142.85H108.09Q108.23 146.59 110.17 148.51Q112.11 150.42 115.20 150.42Q117.36 150.42 118.90 149.51Q120.45 148.59 121.11 146.81L128.54 148.21Q127.42 152.01 123.91 154.30Q120.39 156.60 115.06 156.60ZM108.14 137.71H121.11Q120.80 134.73 119.19 132.98Q117.58 131.23 114.73 131.23Q111.78 131.23 110.09 133.04Q108.39 134.86 108.14 137.71ZM141.32 115.26V156.00H133.11V115.26ZM146.79 156.00V125.43H154.99V156.00ZM150.89 121.44Q149.03 121.44 147.72 120.21Q146.41 118.98 146.41 117.23Q146.41 115.48 147.72 114.25Q149.03 113.02 150.89 113.02Q152.75 113.02 154.08 114.25Q155.40 115.48 155.40 117.23Q155.40 118.98 154.08 120.21Q152.75 121.44 150.89 121.44ZM158.11 156.00 167.96 140.30 158.71 125.43H167.57L170.34 130.24Q171.16 131.77 171.88 133.26Q172.61 134.75 173.29 136.20Q173.97 134.75 174.70 133.25Q175.42 131.75 176.30 130.24L179.17 125.43H187.86L178.43 140.41L188.30 156.00H179.50L176.11 150.23Q175.26 148.75 174.52 147.28Q173.78 145.80 173.10 144.38Q172.44 145.80 171.74 147.28Q171.05 148.75 170.20 150.23L166.81 156.00ZM211.99 156.00 201.05 115.26H210.16L214.89 135.30Q215.52 138.12 216.05 141.32Q216.58 144.52 217.07 147.66Q217.62 144.52 218.20 141.32Q218.77 138.12 219.45 135.30L224.43 115.26H233.10L238.05 135.30Q238.73 138.09 239.30 141.26Q239.88 144.43 240.43 147.55Q240.92 144.43 241.45 141.26Q241.98 138.09 242.61 135.30L247.34 115.26H256.48L245.51 156.00H236.00L230.58 135.16Q230.04 132.95 229.60 130.50Q229.16 128.05 228.72 125.43Q228.34 127.97 227.93 130.42Q227.52 132.87 226.92 135.16L221.53 156.00ZM265.12 156.60Q260.75 156.60 257.85 154.29Q254.95 151.98 254.95 147.44Q254.95 144.02 256.59 142.08Q258.23 140.14 260.86 139.24Q263.48 138.34 266.49 138.06Q270.43 137.68 272.16 137.26Q273.90 136.83 273.90 135.33V135.19Q273.90 133.25 272.65 132.18Q271.41 131.12 269.11 131.12Q266.73 131.12 265.29 132.14Q263.84 133.17 263.34 134.64L255.82 133.39Q257.00 129.42 260.51 127.23Q264.03 125.05 269.14 125.05Q272.42 125.05 275.39 126.09Q278.36 127.12 280.23 129.41Q282.10 131.69 282.10 135.41V156.00H274.34V151.76H274.06Q272.94 153.89 270.73 155.25Q268.51 156.60 265.12 156.60ZM267.45 150.83Q270.32 150.83 272.13 149.16Q273.95 147.50 273.95 145.06V141.75Q273.46 142.11 272.35 142.37Q271.25 142.63 270.02 142.83Q268.79 143.04 267.88 143.15Q265.61 143.48 264.22 144.43Q262.82 145.39 262.82 147.22Q262.82 149.00 264.12 149.92Q265.42 150.83 267.45 150.83ZM295.80 138.31V156.00H287.60V115.26H295.64V131.28Q296.98 128.30 299.28 126.67Q301.57 125.05 304.96 125.05Q309.72 125.05 312.61 128.11Q315.49 131.17 315.49 136.56V156.00H307.26V137.98Q307.26 135.14 305.80 133.52Q304.34 131.91 301.74 131.91Q299.11 131.91 297.46 133.59Q295.80 135.27 295.80 138.31ZM329.17 115.26V156.00H320.96V115.26Z"></path><path fill="#9C9082" d="M78.26 202.29Q76.97 202.29 76.18 201.85Q75.38 201.40 74.96 200.83Q74.53 200.27 74.30 199.89H74.05V202.00H71.93V183.81H74.13V190.54H74.30Q74.53 190.17 74.94 189.62Q75.36 189.06 76.14 188.62Q76.92 188.18 78.25 188.18Q79.96 188.18 81.26 189.04Q82.56 189.89 83.30 191.47Q84.04 193.05 84.04 195.21Q84.04 197.39 83.31 198.97Q82.57 200.56 81.27 201.43Q79.97 202.29 78.26 202.29ZM77.93 200.33Q79.22 200.33 80.08 199.64Q80.94 198.95 81.37 197.78Q81.80 196.62 81.80 195.19Q81.80 193.77 81.38 192.63Q80.95 191.49 80.09 190.82Q79.23 190.15 77.93 190.15Q76.05 190.15 75.08 191.54Q74.10 192.93 74.10 195.19Q74.10 197.47 75.09 198.90Q76.08 200.33 77.93 200.33ZM91.30 202.32Q90.01 202.32 88.95 201.83Q87.90 201.34 87.27 200.40Q86.65 199.46 86.65 198.12Q86.65 196.95 87.11 196.21Q87.58 195.48 88.35 195.06Q89.13 194.64 90.07 194.43Q91.01 194.22 91.96 194.10Q93.18 193.94 93.95 193.86Q94.72 193.77 95.09 193.56Q95.46 193.36 95.46 192.86V192.78Q95.46 191.51 94.74 190.81Q94.02 190.11 92.61 190.11Q91.13 190.11 90.30 190.75Q89.47 191.39 89.15 192.11L87.04 191.42Q87.57 190.17 88.46 189.47Q89.35 188.77 90.42 188.47Q91.50 188.18 92.55 188.18Q93.23 188.18 94.10 188.35Q94.98 188.51 95.79 189.00Q96.60 189.49 97.13 190.45Q97.66 191.40 97.66 193.00V202.00H95.50V200.14H95.35Q95.12 200.62 94.61 201.13Q94.10 201.63 93.28 201.98Q92.46 202.32 91.30 202.32ZM91.68 200.38Q92.90 200.38 93.74 199.90Q94.58 199.42 95.02 198.66Q95.46 197.90 95.46 197.07V195.18Q95.33 195.33 94.88 195.46Q94.43 195.59 93.85 195.69Q93.27 195.79 92.72 195.85Q92.18 195.92 91.86 195.96Q91.07 196.06 90.38 196.29Q89.69 196.53 89.27 196.99Q88.86 197.45 88.86 198.23Q88.86 199.29 89.66 199.83Q90.46 200.38 91.68 200.38ZM107.07 202.29Q105.22 202.29 103.82 201.41Q102.42 200.54 101.64 198.95Q100.86 197.36 100.86 195.26Q100.86 193.13 101.64 191.53Q102.42 189.94 103.82 189.06Q105.22 188.18 107.07 188.18Q109.05 188.18 110.55 189.18Q112.04 190.17 112.60 191.95L110.49 192.55Q110.19 191.50 109.30 190.82Q108.42 190.15 107.07 190.15Q105.71 190.15 104.83 190.86Q103.95 191.58 103.52 192.73Q103.09 193.89 103.09 195.26Q103.09 196.60 103.52 197.76Q103.95 198.91 104.83 199.62Q105.71 200.33 107.07 200.33Q108.45 200.33 109.35 199.63Q110.25 198.92 110.55 197.81L112.65 198.41Q112.10 200.23 110.59 201.26Q109.07 202.29 107.07 202.29ZM115.80 202.00V183.81H118.00V194.37H118.27L124.10 188.35H126.82L121.11 194.21L127.25 202.00H124.43L119.44 195.62L118.00 196.97V202.00ZM134.70 202.29Q132.72 202.29 131.29 201.41Q129.85 200.54 129.08 198.96Q128.30 197.39 128.30 195.29Q128.30 193.19 129.06 191.59Q129.81 189.99 131.20 189.08Q132.59 188.18 134.44 188.18Q135.53 188.18 136.58 188.54Q137.64 188.90 138.50 189.70Q139.36 190.50 139.87 191.81Q140.39 193.11 140.39 195.01V195.92H130.52Q130.61 198.06 131.75 199.20Q132.89 200.34 134.71 200.34Q135.92 200.34 136.79 199.81Q137.66 199.28 138.04 198.24L140.17 198.83Q139.69 200.38 138.24 201.33Q136.80 202.29 134.70 202.29ZM130.53 194.07H138.15Q137.99 192.32 137.06 191.23Q136.13 190.13 134.44 190.13Q133.27 190.13 132.42 190.68Q131.57 191.23 131.08 192.12Q130.60 193.02 130.53 194.07ZM145.73 193.82V202.00H143.54V188.35H145.65L145.66 190.88Q146.32 189.43 147.39 188.80Q148.45 188.18 149.83 188.18Q151.91 188.18 153.18 189.46Q154.45 190.75 154.45 193.33V202.00H152.25V193.52Q152.25 191.94 151.43 191.05Q150.60 190.16 149.17 190.16Q147.70 190.16 146.72 191.12Q145.73 192.08 145.73 193.82ZM163.42 202.29Q161.72 202.29 160.42 201.43Q159.11 200.56 158.38 198.97Q157.65 197.39 157.65 195.21Q157.65 193.05 158.39 191.47Q159.12 189.89 160.43 189.04Q161.74 188.18 163.43 188.18Q164.76 188.18 165.54 188.62Q166.33 189.06 166.75 189.62Q167.17 190.17 167.39 190.54H167.56V183.81H169.76V202.00H167.63V199.89H167.39Q167.17 200.27 166.73 200.83Q166.30 201.40 165.51 201.85Q164.73 202.29 163.42 202.29ZM163.75 200.33Q165.61 200.33 166.59 198.90Q167.58 197.47 167.58 195.19Q167.58 192.93 166.61 191.54Q165.64 190.15 163.75 190.15Q162.46 190.15 161.60 190.82Q160.73 191.49 160.31 192.63Q159.88 193.77 159.88 195.19Q159.88 196.62 160.31 197.78Q160.75 198.95 161.61 199.64Q162.48 200.33 163.75 200.33ZM192.14 202.00 190.73 200.58 193.30 198.02Q194.11 197.21 195.18 196.32Q196.26 195.42 197.17 194.71Q196.48 194.85 195.78 194.95Q195.07 195.05 194.37 195.05H181.84V193.03H194.37Q195.07 193.03 195.78 193.13Q196.48 193.24 197.17 193.37Q196.26 192.66 195.18 191.76Q194.11 190.87 193.30 190.06L190.73 187.50L192.14 186.08L200.10 194.04ZM210.23 202.00 216.84 183.81H219.52L226.21 202.00H223.77L221.95 196.92H214.46L212.70 202.00ZM215.17 194.90H221.23L219.91 191.21Q219.58 190.29 219.17 188.97Q218.75 187.64 218.17 185.67Q217.60 187.68 217.17 189.02Q216.74 190.37 216.45 191.21ZM231.36 183.81V202.00H229.05V183.81ZM248.26 202.29Q246.28 202.29 244.85 201.41Q243.41 200.54 242.64 198.96Q241.86 197.39 241.86 195.29Q241.86 193.19 242.62 191.59Q243.38 189.99 244.76 189.08Q246.15 188.18 248.00 188.18Q249.09 188.18 250.15 188.54Q251.20 188.90 252.06 189.70Q252.92 190.50 253.44 191.81Q253.95 193.11 253.95 195.01V195.92H244.08Q244.17 198.06 245.31 199.20Q246.45 200.34 248.27 200.34Q249.48 200.34 250.35 199.81Q251.23 199.28 251.60 198.24L253.73 198.83Q253.25 200.38 251.81 201.33Q250.36 202.29 248.26 202.29ZM244.10 194.07H251.71Q251.56 192.32 250.62 191.23Q249.69 190.13 248.00 190.13Q246.83 190.13 245.98 190.68Q245.13 191.23 244.65 192.12Q244.16 193.02 244.10 194.07ZM259.29 193.82V202.00H257.10V188.35H259.21L259.22 190.88Q259.88 189.43 260.95 188.80Q262.02 188.18 263.40 188.18Q265.47 188.18 266.74 189.46Q268.01 190.75 268.01 193.33V202.00H265.81V193.52Q265.81 191.94 264.99 191.05Q264.17 190.16 262.74 190.16Q261.26 190.16 260.28 191.12Q259.29 192.08 259.29 193.82ZM277.40 207.40Q275.13 207.40 273.77 206.57Q272.42 205.74 271.78 204.61L273.56 203.46Q273.86 203.86 274.29 204.33Q274.72 204.81 275.46 205.14Q276.20 205.48 277.40 205.48Q279.03 205.48 280.09 204.70Q281.15 203.92 281.15 202.23V199.50H280.94Q280.71 199.89 280.28 200.43Q279.86 200.96 279.08 201.37Q278.29 201.78 276.97 201.78Q275.33 201.78 274.03 201.01Q272.72 200.23 271.97 198.74Q271.21 197.25 271.21 195.12Q271.21 193.00 271.95 191.45Q272.70 189.89 274.01 189.04Q275.32 188.18 277.02 188.18Q278.34 188.18 279.12 188.61Q279.91 189.05 280.34 189.61Q280.77 190.17 281.00 190.54H281.21V188.35H283.34V202.35Q283.34 204.11 282.55 205.23Q281.76 206.35 280.41 206.87Q279.06 207.40 277.40 207.40ZM277.34 199.83Q279.19 199.83 280.18 198.56Q281.17 197.30 281.17 195.07Q281.17 192.89 280.20 191.52Q279.23 190.15 277.34 190.15Q276.04 190.15 275.18 190.81Q274.31 191.48 273.88 192.59Q273.44 193.70 273.44 195.07Q273.44 197.17 274.43 198.50Q275.42 199.83 277.34 199.83ZM287.20 202.00V188.35H289.40V202.00ZM288.31 186.12Q287.69 186.12 287.24 185.69Q286.78 185.26 286.78 184.67Q286.78 184.06 287.24 183.63Q287.69 183.21 288.31 183.21Q288.95 183.21 289.40 183.63Q289.85 184.06 289.85 184.67Q289.85 185.26 289.40 185.69Q288.95 186.12 288.31 186.12ZM295.45 193.82V202.00H293.25V188.35H295.37L295.38 190.88Q296.04 189.43 297.11 188.80Q298.17 188.18 299.55 188.18Q301.63 188.18 302.90 189.46Q304.17 190.75 304.17 193.33V202.00H301.97V193.52Q301.97 191.94 301.15 191.05Q300.32 190.16 298.89 190.16Q297.42 190.16 296.43 191.12Q295.45 192.08 295.45 193.82ZM313.76 202.29Q311.78 202.29 310.35 201.41Q308.92 200.54 308.14 198.96Q307.37 197.39 307.37 195.29Q307.37 193.19 308.12 191.59Q308.88 189.99 310.26 189.08Q311.65 188.18 313.51 188.18Q314.59 188.18 315.65 188.54Q316.70 188.90 317.56 189.70Q318.43 190.50 318.94 191.81Q319.45 193.11 319.45 195.01V195.92H309.59Q309.67 198.06 310.81 199.20Q311.96 200.34 313.77 200.34Q314.98 200.34 315.86 199.81Q316.73 199.28 317.11 198.24L319.23 198.83Q318.75 200.38 317.31 201.33Q315.86 202.29 313.76 202.29ZM309.60 194.07H317.22Q317.06 192.32 316.12 191.23Q315.19 190.13 313.51 190.13Q312.33 190.13 311.49 190.68Q310.64 191.23 310.15 192.12Q309.66 193.02 309.60 194.07ZM328.34 202.29Q326.36 202.29 324.93 201.41Q323.49 200.54 322.72 198.96Q321.94 197.39 321.94 195.29Q321.94 193.19 322.70 191.59Q323.45 189.99 324.84 189.08Q326.23 188.18 328.08 188.18Q329.17 188.18 330.22 188.54Q331.28 188.90 332.14 189.70Q333.00 190.50 333.51 191.81Q334.03 193.11 334.03 195.01V195.92H324.16Q324.25 198.06 325.39 199.20Q326.53 200.34 328.35 200.34Q329.56 200.34 330.43 199.81Q331.30 199.28 331.68 198.24L333.81 198.83Q333.33 200.38 331.88 201.33Q330.44 202.29 328.34 202.29ZM324.17 194.07H331.79Q331.63 192.32 330.70 191.23Q329.77 190.13 328.08 190.13Q326.91 190.13 326.06 190.68Q325.21 191.23 324.72 192.12Q324.24 193.02 324.17 194.07ZM337.18 202.00V188.35H339.30V190.45H339.45Q339.82 189.41 340.79 188.79Q341.77 188.16 342.99 188.16Q343.23 188.16 343.57 188.17Q343.90 188.18 344.10 188.19V190.40Q344.00 190.38 343.61 190.33Q343.22 190.28 342.78 190.28Q341.30 190.28 340.34 191.18Q339.37 192.08 339.37 193.46V202.00ZM346.83 202.00V188.35H349.03V202.00ZM347.94 186.12Q347.32 186.12 346.87 185.69Q346.42 185.26 346.42 184.67Q346.42 184.06 346.87 183.63Q347.32 183.21 347.94 183.21Q348.58 183.21 349.03 183.63Q349.48 184.06 349.48 184.67Q349.48 185.26 349.03 185.69Q348.58 186.12 347.94 186.12ZM355.08 193.82V202.00H352.89V188.35H355.00L355.01 190.88Q355.67 189.43 356.74 188.80Q357.81 188.18 359.18 188.18Q361.26 188.18 362.53 189.46Q363.80 190.75 363.80 193.33V202.00H361.60V193.52Q361.60 191.94 360.78 191.05Q359.95 190.16 358.53 190.16Q357.05 190.16 356.07 191.12Q355.08 192.08 355.08 193.82ZM373.19 207.40Q370.92 207.40 369.56 206.57Q368.21 205.74 367.57 204.61L369.35 203.46Q369.65 203.86 370.08 204.33Q370.51 204.81 371.25 205.14Q371.99 205.48 373.19 205.48Q374.82 205.48 375.88 204.70Q376.93 203.92 376.93 202.23V199.50H376.73Q376.49 199.89 376.07 200.43Q375.65 200.96 374.86 201.37Q374.08 201.78 372.76 201.78Q371.12 201.78 369.82 201.01Q368.51 200.23 367.75 198.74Q367.00 197.25 367.00 195.12Q367.00 193.00 367.74 191.45Q368.49 189.89 369.80 189.04Q371.11 188.18 372.81 188.18Q374.13 188.18 374.91 188.61Q375.70 189.05 376.13 189.61Q376.56 190.17 376.79 190.54H376.99V188.35H379.13V202.35Q379.13 204.11 378.34 205.23Q377.54 206.35 376.20 206.87Q374.85 207.40 373.19 207.40ZM373.12 199.83Q374.98 199.83 375.97 198.56Q376.96 197.30 376.96 195.07Q376.96 192.89 375.99 191.52Q375.02 190.15 373.12 190.15Q371.83 190.15 370.96 190.81Q370.10 191.48 369.66 192.59Q369.23 193.70 369.23 195.07Q369.23 197.17 370.22 198.50Q371.21 199.83 373.12 199.83ZM391.69 195.01Q391.01 195.01 390.53 194.52Q390.04 194.04 390.04 193.36Q390.04 192.67 390.53 192.19Q391.01 191.71 391.69 191.71Q392.38 191.71 392.86 192.19Q393.34 192.67 393.34 193.36Q393.34 194.04 392.86 194.52Q392.38 195.01 391.69 195.01ZM404.52 202.00V183.81H406.84V191.67H416.39V183.81H418.71V202.00H416.39V193.72H406.84V202.00ZM426.65 202.32Q425.36 202.32 424.30 201.83Q423.25 201.34 422.62 200.40Q422.00 199.46 422.00 198.12Q422.00 196.95 422.47 196.21Q422.93 195.48 423.70 195.06Q424.48 194.64 425.42 194.43Q426.36 194.22 427.31 194.10Q428.53 193.94 429.30 193.86Q430.07 193.77 430.44 193.56Q430.82 193.36 430.82 192.86V192.78Q430.82 191.51 430.10 190.81Q429.38 190.11 427.96 190.11Q426.48 190.11 425.65 190.75Q424.82 191.39 424.50 192.11L422.39 191.42Q422.92 190.17 423.81 189.47Q424.70 188.77 425.77 188.47Q426.85 188.18 427.90 188.18Q428.58 188.18 429.45 188.35Q430.33 188.51 431.14 189.00Q431.95 189.49 432.48 190.45Q433.01 191.40 433.01 193.00V202.00H430.85V200.14H430.71Q430.47 200.62 429.96 201.13Q429.45 201.63 428.63 201.98Q427.81 202.32 426.65 202.32ZM427.03 200.38Q428.25 200.38 429.09 199.90Q429.94 199.42 430.38 198.66Q430.82 197.90 430.82 197.07V195.18Q430.68 195.33 430.23 195.46Q429.78 195.59 429.20 195.69Q428.62 195.79 428.07 195.85Q427.53 195.92 427.21 195.96Q426.42 196.06 425.73 196.29Q425.04 196.53 424.63 196.99Q424.21 197.45 424.21 198.23Q424.21 199.29 425.01 199.83Q425.81 200.38 427.03 200.38ZM436.87 202.00V188.35H439.01L439.02 190.85Q439.52 189.48 440.57 188.79Q441.63 188.11 442.84 188.11Q444.18 188.11 445.07 188.87Q445.95 189.63 446.32 190.89Q446.81 189.60 447.97 188.85Q449.14 188.11 450.62 188.11Q451.80 188.11 452.78 188.62Q453.75 189.13 454.33 190.17Q454.91 191.21 454.91 192.80V202.00H452.71V192.86Q452.71 191.38 451.88 190.75Q451.05 190.11 449.96 190.11Q448.58 190.11 447.78 190.95Q446.99 191.79 446.99 193.09V202.00H444.79V192.64Q444.79 191.50 444.04 190.81Q443.28 190.11 442.12 190.11Q440.92 190.11 440.00 190.94Q439.07 191.77 439.07 193.41V202.00ZM465.10 202.29Q463.81 202.29 463.02 201.85Q462.22 201.40 461.80 200.83Q461.37 200.27 461.14 199.89H460.89V202.00H458.77V183.81H460.97V190.54H461.14Q461.37 190.17 461.78 189.62Q462.20 189.06 462.98 188.62Q463.76 188.18 465.09 188.18Q466.80 188.18 468.10 189.04Q469.40 189.89 470.14 191.47Q470.88 193.05 470.88 195.21Q470.88 197.39 470.15 198.97Q469.41 200.56 468.11 201.43Q466.81 202.29 465.10 202.29ZM464.78 200.33Q466.06 200.33 466.92 199.64Q467.78 198.95 468.21 197.78Q468.65 196.62 468.65 195.19Q468.65 193.77 468.22 192.63Q467.79 191.49 466.93 190.82Q466.07 190.15 464.78 190.15Q462.90 190.15 461.92 191.54Q460.94 192.93 460.94 195.19Q460.94 197.47 461.93 198.90Q462.92 200.33 464.78 200.33ZM478.70 202.17Q476.64 202.17 475.36 200.89Q474.08 199.61 474.08 197.02V188.35H476.27V196.84Q476.27 198.41 477.10 199.30Q477.93 200.19 479.36 200.19Q480.83 200.19 481.81 199.24Q482.79 198.28 482.79 196.53V188.35H485.00V202.00H482.88V199.45Q482.21 200.94 481.13 201.55Q480.05 202.17 478.70 202.17ZM488.86 202.00V188.35H490.98V190.45H491.13Q491.51 189.41 492.48 188.79Q493.45 188.16 494.67 188.16Q494.91 188.16 495.25 188.17Q495.59 188.18 495.78 188.19V190.40Q495.68 190.38 495.29 190.33Q494.90 190.28 494.46 190.28Q492.99 190.28 492.02 191.18Q491.06 192.08 491.06 193.46V202.00ZM503.39 207.40Q501.12 207.40 499.76 206.57Q498.41 205.74 497.77 204.61L499.55 203.46Q499.85 203.86 500.28 204.33Q500.71 204.81 501.45 205.14Q502.19 205.48 503.39 205.48Q505.02 205.48 506.08 204.70Q507.13 203.92 507.13 202.23V199.50H506.93Q506.69 199.89 506.27 200.43Q505.85 200.96 505.06 201.37Q504.28 201.78 502.96 201.78Q501.32 201.78 500.02 201.01Q498.71 200.23 497.95 198.74Q497.20 197.25 497.20 195.12Q497.20 193.00 497.94 191.45Q498.69 189.89 500.00 189.04Q501.31 188.18 503.01 188.18Q504.33 188.18 505.11 188.61Q505.90 189.05 506.33 189.61Q506.76 190.17 506.99 190.54H507.19V188.35H509.33V202.35Q509.33 204.11 508.54 205.23Q507.74 206.35 506.40 206.87Q505.05 207.40 503.39 207.40ZM503.33 199.83Q505.18 199.83 506.17 198.56Q507.16 197.30 507.16 195.07Q507.16 192.89 506.19 191.52Q505.22 190.15 503.33 190.15Q502.03 190.15 501.16 190.81Q500.30 191.48 499.86 192.59Q499.43 193.70 499.43 195.07Q499.43 197.17 500.42 198.50Q501.41 199.83 503.33 199.83Z"></path><path fill="#E0A34B" d="M78.36 264.07Q77.58 264.07 76.97 263.66Q76.36 263.25 75.84 262.54Q75.33 261.85 74.96 261.44Q74.58 261.03 74.18 261.03Q73.57 261.03 73.21 261.77Q72.86 262.52 72.62 263.84L70.94 263.51Q71.28 261.32 72.09 260.22Q72.90 259.12 74.24 259.12Q75.02 259.12 75.63 259.53Q76.24 259.94 76.76 260.65Q77.27 261.34 77.64 261.75Q78.02 262.16 78.42 262.16Q79.03 262.16 79.39 261.42Q79.74 260.67 79.97 259.35L81.66 259.68Q81.32 261.87 80.51 262.97Q79.70 264.07 78.36 264.07ZM84.34 270.90 91.42 252.04H93.46L86.38 270.90ZM107.17 269.18Q107.17 270.86 105.76 271.65Q104.36 272.45 101.48 272.45Q100.07 272.45 99.12 272.27Q98.16 272.10 97.56 271.76Q96.96 271.42 96.70 270.94Q96.44 270.46 96.44 269.85Q96.44 268.97 96.93 268.47Q97.43 267.98 98.33 267.75V267.54Q97.78 267.33 97.46 266.95Q97.13 266.57 97.13 265.96Q97.13 265.17 97.68 264.76Q98.22 264.35 99.09 264.14V264.03Q98.10 263.57 97.55 262.73Q97.01 261.89 97.01 260.71Q97.01 259.85 97.32 259.15Q97.64 258.44 98.21 257.95Q98.79 257.46 99.60 257.19Q100.41 256.91 101.42 256.91Q102.55 256.91 103.45 257.27V256.91Q103.45 256.28 103.81 255.86Q104.17 255.44 104.90 255.44H106.88V257.25H104.36V257.75Q105.07 258.24 105.45 258.98Q105.83 259.73 105.83 260.71Q105.83 261.57 105.51 262.28Q105.20 262.98 104.62 263.47Q104.04 263.97 103.23 264.23Q102.42 264.49 101.42 264.49Q100.70 264.49 100.07 264.37Q99.69 264.47 99.32 264.72Q98.94 264.98 98.94 265.42Q98.94 265.92 99.42 266.05Q99.90 266.17 100.62 266.17H103.05Q105.24 266.17 106.20 267.00Q107.17 267.83 107.17 269.18ZM105.03 269.32Q105.03 268.78 104.59 268.45Q104.15 268.13 102.99 268.13H99.23Q98.43 268.50 98.43 269.34Q98.43 269.95 98.95 270.39Q99.46 270.83 100.66 270.83H102.36Q103.66 270.83 104.35 270.45Q105.03 270.06 105.03 269.32ZM101.42 262.92Q102.53 262.92 103.05 262.39Q103.58 261.87 103.58 260.99V260.42Q103.58 259.54 103.05 259.01Q102.53 258.49 101.42 258.49Q100.30 258.49 99.78 259.01Q99.25 259.54 99.25 260.42V260.99Q99.25 261.87 99.78 262.39Q100.30 262.92 101.42 262.92ZM114.10 268.25Q112.90 268.25 111.95 267.85Q110.99 267.45 110.33 266.72Q109.67 265.98 109.31 264.93Q108.96 263.88 108.96 262.58Q108.96 261.28 109.31 260.23Q109.67 259.18 110.33 258.44Q110.99 257.71 111.95 257.31Q112.90 256.91 114.10 256.91Q115.30 256.91 116.25 257.31Q117.21 257.71 117.87 258.44Q118.53 259.18 118.89 260.23Q119.25 261.28 119.25 262.58Q119.25 263.88 118.89 264.93Q118.53 265.98 117.87 266.72Q117.21 267.45 116.25 267.85Q115.30 268.25 114.10 268.25ZM114.10 266.45Q115.36 266.45 116.11 265.68Q116.85 264.91 116.85 263.40V261.76Q116.85 260.25 116.11 259.48Q115.36 258.72 114.10 258.72Q112.84 258.72 112.09 259.48Q111.35 260.25 111.35 261.76V263.40Q111.35 264.91 112.09 265.68Q112.84 266.45 114.10 266.45ZM121.98 266.15H125.57V254.31H121.98V252.46H127.86V266.15H131.45V268.00H121.98ZM141.65 266.15H141.53Q141.04 267.14 140.25 267.70Q139.45 268.25 138.25 268.25Q136.34 268.25 135.20 266.82Q134.07 265.40 134.07 262.58Q134.07 259.77 135.20 258.34Q136.34 256.91 138.25 256.91Q139.45 256.91 140.25 257.47Q141.04 258.02 141.53 259.01H141.65V252.46H143.94V268.00H141.65ZM139.19 266.38Q139.70 266.38 140.14 266.26Q140.58 266.13 140.92 265.88Q141.25 265.63 141.45 265.26Q141.65 264.89 141.65 264.39V260.78Q141.65 260.27 141.45 259.90Q141.25 259.54 140.92 259.28Q140.58 259.03 140.14 258.91Q139.70 258.78 139.19 258.78Q137.89 258.78 137.19 259.58Q136.49 260.38 136.49 261.70V263.46Q136.49 264.79 137.19 265.58Q137.89 266.38 139.19 266.38ZM147.26 252.46H149.55V259.01H149.67Q150.16 258.02 150.96 257.47Q151.75 256.91 152.95 256.91Q154.86 256.91 156.00 258.34Q157.13 259.77 157.13 262.58Q157.13 265.40 156.00 266.82Q154.86 268.25 152.95 268.25Q151.75 268.25 150.96 267.70Q150.16 267.14 149.67 266.15H149.55V268.00H147.26ZM152.01 266.38Q153.31 266.38 154.01 265.58Q154.71 264.79 154.71 263.46V261.70Q154.71 260.38 154.01 259.58Q153.31 258.78 152.01 258.78Q151.50 258.78 151.06 258.91Q150.62 259.03 150.28 259.28Q149.95 259.54 149.75 259.90Q149.55 260.27 149.55 260.78V264.39Q149.55 264.89 149.75 265.26Q149.95 265.63 150.28 265.88Q150.62 266.13 151.06 266.26Q151.50 266.38 152.01 266.38ZM168.53 268.00Q167.54 268.00 167.05 267.50Q166.56 266.99 166.45 266.17H166.35Q166.03 267.16 165.20 267.71Q164.37 268.25 163.09 268.25Q161.43 268.25 160.45 267.38Q159.46 266.51 159.46 264.98Q159.46 263.40 160.63 262.57Q161.79 261.74 164.21 261.74H166.28V260.90Q166.28 258.70 163.95 258.70Q162.90 258.70 162.25 259.11Q161.60 259.52 161.16 260.19L159.80 259.07Q160.26 258.19 161.35 257.55Q162.44 256.91 164.16 256.91Q166.22 256.91 167.40 257.90Q168.57 258.89 168.57 260.75V266.19H169.94V268.00ZM163.74 266.57Q164.86 266.57 165.57 266.07Q166.28 265.56 166.28 264.77V263.19H164.25Q161.77 263.19 161.77 264.68V265.10Q161.77 265.84 162.29 266.20Q162.82 266.57 163.74 266.57ZM172.40 266.15H175.27V259.01H172.40V257.16H177.56V260.04H177.69Q177.84 259.47 178.11 258.95Q178.38 258.42 178.80 258.04Q179.22 257.65 179.83 257.41Q180.44 257.16 181.26 257.16H182.56V259.35H180.42Q179.16 259.35 178.36 260.09Q177.56 260.84 177.56 262.10V266.15H181.49V268.00H172.40ZM190.35 268.00Q188.92 268.00 188.25 267.23Q187.58 266.47 187.58 265.25V259.01H184.24V257.16H186.61Q187.22 257.16 187.47 256.92Q187.73 256.68 187.73 256.05V253.34H189.87V257.16H194.49V259.01H189.87V266.15H194.49V268.00ZM197.76 252.46H200.05V259.01H200.16Q200.33 258.59 200.59 258.20Q200.85 257.81 201.23 257.53Q201.61 257.25 202.11 257.08Q202.62 256.91 203.29 256.91Q204.93 256.91 205.93 257.98Q206.94 259.05 206.94 261.03V268.00H204.65V261.36Q204.65 258.78 202.41 258.78Q201.96 258.78 201.54 258.90Q201.12 259.01 200.79 259.24Q200.45 259.47 200.25 259.83Q200.05 260.19 200.05 260.65V268.00H197.76ZM226.83 268.23Q225.15 268.11 223.99 267.45Q222.84 266.80 222.10 265.80L223.62 264.35Q224.33 265.21 225.13 265.68Q225.93 266.15 226.93 266.26V261.45L226.45 261.36Q225.40 261.18 224.67 260.80Q223.93 260.42 223.47 259.87Q223.01 259.33 222.80 258.67Q222.59 258.00 222.59 257.25Q222.59 255.46 223.70 254.40Q224.81 253.34 226.83 253.13V250.97H228.59V253.13Q229.98 253.28 230.99 253.82Q231.99 254.37 232.73 255.32L231.20 256.70Q230.69 256.05 230.03 255.65Q229.37 255.25 228.49 255.15V259.60L229.05 259.68Q230.10 259.87 230.84 260.25Q231.57 260.63 232.05 261.16Q232.52 261.70 232.73 262.37Q232.94 263.04 232.94 263.80Q232.94 265.61 231.82 266.76Q230.69 267.92 228.59 268.17V270.37H226.83ZM224.81 257.19Q224.81 258.07 225.31 258.56Q225.80 259.05 226.93 259.31V255.11Q224.81 255.36 224.81 257.19ZM230.71 263.90Q230.71 262.96 230.20 262.47Q229.68 261.97 228.49 261.74V266.24Q229.58 266.07 230.15 265.48Q230.71 264.89 230.71 263.90Z"></path><path fill="#5EEAD4" d="M246.82 257.16H248.77L249.82 266.28H250.01L251.63 257.16H253.86L255.45 266.28H255.64L256.71 257.16H258.58L257.07 268.00H254.25L252.81 259.60H252.62L251.15 268.00H248.33ZM260.76 252.46H263.05V259.01H263.16Q263.33 258.59 263.59 258.20Q263.85 257.81 264.23 257.53Q264.61 257.25 265.11 257.08Q265.62 256.91 266.29 256.91Q267.93 256.91 268.93 257.98Q269.94 259.05 269.94 261.03V268.00H267.65V261.36Q267.65 258.78 265.40 258.78Q264.96 258.78 264.54 258.90Q264.12 259.01 263.79 259.24Q263.45 259.47 263.25 259.83Q263.05 260.19 263.05 260.65V268.00H260.76ZM277.90 268.25Q276.70 268.25 275.75 267.85Q274.79 267.45 274.13 266.72Q273.47 265.98 273.11 264.93Q272.75 263.88 272.75 262.58Q272.75 261.28 273.11 260.23Q273.47 259.18 274.13 258.44Q274.79 257.71 275.75 257.31Q276.70 256.91 277.90 256.91Q279.10 256.91 280.05 257.31Q281.01 257.71 281.67 258.44Q282.33 259.18 282.69 260.23Q283.05 261.28 283.05 262.58Q283.05 263.88 282.69 264.93Q282.33 265.98 281.67 266.72Q281.01 267.45 280.05 267.85Q279.10 268.25 277.90 268.25ZM277.90 266.45Q279.16 266.45 279.91 265.68Q280.65 264.91 280.65 263.40V261.76Q280.65 260.25 279.91 259.48Q279.16 258.72 277.90 258.72Q276.64 258.72 275.89 259.48Q275.15 260.25 275.15 261.76V263.40Q275.15 264.91 275.89 265.68Q276.64 266.45 277.90 266.45ZM294.53 268.00Q293.55 268.00 293.05 267.50Q292.56 266.99 292.45 266.17H292.35Q292.03 267.16 291.20 267.71Q290.37 268.25 289.09 268.25Q287.43 268.25 286.45 267.38Q285.46 266.51 285.46 264.98Q285.46 263.40 286.63 262.57Q287.79 261.74 290.21 261.74H292.29V260.90Q292.29 258.70 289.95 258.70Q288.90 258.70 288.25 259.11Q287.60 259.52 287.16 260.19L285.80 259.07Q286.26 258.19 287.35 257.55Q288.44 256.91 290.16 256.91Q292.22 256.91 293.40 257.90Q294.57 258.89 294.57 260.75V266.19H295.94V268.00ZM289.74 266.57Q290.86 266.57 291.57 266.07Q292.29 265.56 292.29 264.77V263.19H290.25Q287.77 263.19 287.77 264.68V265.10Q287.77 265.84 288.30 266.20Q288.82 266.57 289.74 266.57ZM297.72 268.00V257.16H299.68V258.57H299.78Q300.03 257.88 300.51 257.39Q300.98 256.91 301.86 256.91Q302.72 256.91 303.19 257.38Q303.67 257.86 303.79 258.68H303.88Q304.17 257.94 304.70 257.43Q305.22 256.91 306.21 256.91Q307.47 256.91 307.96 257.79Q308.46 258.68 308.46 260.38V268.00H306.50V260.67Q306.50 259.54 306.23 259.11Q305.96 258.68 305.35 258.68Q304.80 258.68 304.43 259.04Q304.07 259.41 304.07 260.15V268.00H302.11V260.67Q302.11 259.54 301.85 259.11Q301.59 258.68 300.98 258.68Q300.41 258.68 300.04 259.04Q299.68 259.41 299.68 260.15V268.00ZM316.37 255.19Q315.49 255.19 315.14 254.83Q314.80 254.48 314.80 253.95V253.51Q314.80 252.99 315.14 252.63Q315.49 252.27 316.35 252.27Q317.23 252.27 317.58 252.63Q317.93 252.99 317.93 253.51V253.95Q317.93 254.48 317.58 254.83Q317.23 255.19 316.37 255.19ZM311.52 266.15H315.22V259.01H311.52V257.16H317.51V266.15H320.97V268.00H311.52Z"></path></g>


<line x1="72" y1="229" x2="240" y2="229" stroke="#E0A34B" stroke-width="2"></line>

</g><rect x="12" y="12" width="1176" height="336" rx="18" fill="none" stroke="#E0A34B" stroke-width="2"></rect></svg>