<?xml version="1.0" encoding="UTF-8"?>
<svg xmlns="http://www.w3.org/2000/svg" viewBox="0 0 400 224" width="400" height="224"><rect x="12" y="12" width="376" height="200" rx="18" fill="#12100E" stroke="#332A21" stroke-width="2"/><path d="M53.20 48L49.47 48L49.47 58L48.13 58L48.13 48L44.40 48L44.40 46.83L53.20 46.83L53.20 48ZM60.80 58.19L60.80 58.19Q59.78 58.19 59.04 57.80Q58.30 57.41 57.82 56.67Q57.34 55.94 57.12 54.86Q56.90 53.79 56.90 52.42L56.90 52.42Q56.90 51.06 57.12 49.98Q57.34 48.90 57.82 48.16Q58.30 47.42 59.04 47.03Q59.78 46.64 60.80 46.64L60.80 46.64Q61.82 46.64 62.56 47.03Q63.30 47.42 63.78 48.16Q64.26 48.90 64.48 49.98Q64.70 51.06 64.70 52.42L64.70 52.42Q64.70 53.79 64.48 54.86Q64.26 55.94 63.78 56.67Q63.30 57.41 62.56 57.80Q61.82 58.19 60.80 58.19ZM60.80 57.02L60.80 57.02Q61.47 57.02 61.94 56.76Q62.40 56.50 62.70 56.02Q63.01 55.54 63.14 54.86Q63.28 54.18 63.28 53.33L63.28 53.33L63.28 51.50Q63.28 50.67 63.14 49.98Q63.01 49.30 62.70 48.82Q62.40 48.34 61.94 48.07Q61.47 47.81 60.80 47.81L60.80 47.81Q60.13 47.81 59.66 48.07Q59.20 48.34 58.90 48.82Q58.59 49.30 58.46 49.98Q58.32 50.67 58.32 51.50L58.32 51.50L58.32 53.33Q58.32 54.18 58.46 54.86Q58.59 55.54 58.90 56.02Q59.20 56.50 59.66 56.76Q60.13 57.02 60.80 57.02ZM72.80 58.19L72.80 58.19Q71.78 58.19 71.04 57.80Q70.30 57.41 69.82 56.67Q69.34 55.94 69.12 54.86Q68.90 53.79 68.90 52.42L68.90 52.42Q68.90 51.06 69.12 49.98Q69.34 48.90 69.82 48.16Q70.30 47.42 71.04 47.03Q71.78 46.64 72.80 46.64L72.80 46.64Q73.82 46.64 74.56 47.03Q75.30 47.42 75.78 48.16Q76.26 48.90 76.48 49.98Q76.70 51.06 76.70 52.42L76.70 52.42Q76.70 53.79 76.48 54.86Q76.26 55.94 75.78 56.67Q75.30 57.41 74.56 57.80Q73.82 58.19 72.80 58.19ZM72.80 57.02L72.80 57.02Q73.47 57.02 73.94 56.76Q74.40 56.50 74.70 56.02Q75.01 55.54 75.14 54.86Q75.28 54.18 75.28 53.33L75.28 53.33L75.28 51.50Q75.28 50.67 75.14 49.98Q75.01 49.30 74.70 48.82Q74.40 48.34 73.94 48.07Q73.47 47.81 72.80 47.81L72.80 47.81Q72.13 47.81 71.66 48.07Q71.20 48.34 70.90 48.82Q70.59 49.30 70.46 49.98Q70.32 50.67 70.32 51.50L70.32 51.50L70.32 53.33Q70.32 54.18 70.46 54.86Q70.59 55.54 70.90 56.02Q71.20 56.50 71.66 56.76Q72.13 57.02 72.80 57.02ZM88.56 58L81.92 58L81.92 46.83L83.26 46.83L83.26 56.83L88.56 56.83L88.56 58ZM100.26 58L93.34 58L93.34 56.93L96.13 56.93L96.13 47.90L93.34 47.90L93.34 46.83L100.26 46.83L100.26 47.90L97.47 47.90L97.47 56.93L100.26 56.93L100.26 58ZM110.42 58L106.61 48.59L106.50 48.59L106.50 58L105.28 58L105.28 46.83L107.18 46.83L110.99 56.24L111.10 56.24L111.10 46.83L112.32 46.83L112.32 58L110.42 58ZM123.10 58L123.10 56.51L123.02 56.51Q122.88 56.83 122.69 57.14Q122.50 57.44 122.20 57.67Q121.90 57.90 121.49 58.05Q121.07 58.19 120.50 58.19L120.50 58.19Q118.67 58.19 117.78 56.72Q116.90 55.25 116.90 52.50L116.90 52.50Q116.90 49.62 117.87 48.13Q118.85 46.64 120.88 46.64L120.88 46.64Q121.66 46.64 122.24 46.85Q122.82 47.06 123.22 47.41Q123.63 47.76 123.90 48.20Q124.18 48.64 124.35 49.09L124.35 49.09L123.20 49.62Q123.06 49.25 122.87 48.92Q122.69 48.59 122.42 48.34Q122.16 48.10 121.79 47.95Q121.42 47.81 120.93 47.81L120.93 47.81Q119.58 47.81 118.95 48.82Q118.32 49.82 118.32 51.50L118.32 51.50L118.32 53.23Q118.32 54.08 118.45 54.78Q118.58 55.47 118.87 55.98Q119.17 56.50 119.64 56.78Q120.11 57.06 120.80 57.06L120.80 57.06Q121.89 57.06 122.50 56.40Q123.10 55.74 123.10 54.70L123.10 54.70L123.10 53.55L120.75 53.55L120.75 52.48L124.35 52.48L124.35 58L123.10 58Z" fill="#9C9082"/><circle id="dot" cx="49.5" cy="88" r="5.5" fill="#B07A2E"/><path d="M83.51 79.09L86.34 79.09L86.34 98L83.72 98L74.11 84.13L73.93 84.13L73.93 98L71.08 98L71.08 79.09L73.72 79.09L83.34 92.98L83.51 92.98L83.51 79.09ZM96.08 98.29L96.08 98.29Q94.00 98.29 92.48 97.38Q90.97 96.48 90.15 94.84Q89.34 93.20 89.34 91.00L89.34 91.00Q89.34 88.82 90.15 87.16Q90.97 85.50 92.44 84.57Q93.92 83.63 95.89 83.63L95.89 83.63Q97.50 83.63 98.93 84.35Q100.37 85.06 101.27 86.63Q102.17 88.19 102.17 90.76L102.17 90.76L102.17 91.74L92.09 91.74Q92.14 93.79 93.24 94.90Q94.34 96.01 96.11 96.01L96.11 96.01Q97.29 96.01 98.15 95.50Q99.01 94.99 99.38 93.98L99.38 93.98L101.99 94.45Q101.52 96.18 99.96 97.23Q98.40 98.29 96.08 98.29ZM92.10 89.67L92.10 89.67L99.46 89.67Q99.45 88.05 98.49 86.98Q97.52 85.91 95.91 85.91L95.91 85.91Q94.79 85.91 93.96 86.44Q93.12 86.96 92.64 87.81Q92.15 88.67 92.10 89.67ZM107.86 98L105.17 98L105.17 79.09L107.93 79.09L107.93 86.12L108.09 86.12Q108.34 85.67 108.79 85.09Q109.24 84.51 110.05 84.07Q110.85 83.63 112.16 83.63L112.16 83.63Q113.88 83.63 115.22 84.50Q116.57 85.37 117.34 87.00Q118.12 88.64 118.12 90.94L118.12 90.94Q118.12 93.23 117.35 94.87Q116.59 96.52 115.25 97.40Q113.91 98.28 112.19 98.28L112.19 98.28Q110.90 98.28 110.09 97.84Q109.27 97.41 108.81 96.83Q108.34 96.25 108.09 95.79L108.09 95.79L107.86 95.79L107.86 98ZM107.87 90.91L107.87 90.91Q107.87 93.14 108.83 94.53Q109.79 95.92 111.57 95.92L111.57 95.92Q112.81 95.92 113.65 95.26Q114.48 94.60 114.91 93.47Q115.33 92.33 115.33 90.91L115.33 90.91Q115.33 89.50 114.91 88.38Q114.49 87.27 113.66 86.63Q112.83 85.98 111.57 85.98L111.57 85.98Q109.76 85.98 108.82 87.33Q107.87 88.68 107.87 90.91ZM129.90 92.12L129.90 92.12L129.90 83.82L132.67 83.82L132.67 98L129.95 98L129.95 95.54L129.80 95.54Q129.31 96.68 128.24 97.43Q127.16 98.18 125.57 98.18L125.57 98.18Q123.53 98.18 122.22 96.83Q120.91 95.48 120.91 92.84L120.91 92.84L120.91 83.82L123.67 83.82L123.67 92.51Q123.67 93.96 124.48 94.81Q125.28 95.67 126.56 95.67L126.56 95.67Q127.34 95.67 128.11 95.29Q128.88 94.90 129.39 94.11Q129.91 93.32 129.90 92.12ZM136.07 79.09L138.83 79.09L138.83 98L136.07 98L136.07 79.09ZM146.37 98.31L146.37 98.31Q145.02 98.31 143.94 97.82Q142.85 97.32 142.21 96.35Q141.58 95.39 141.58 93.99L141.58 93.99Q141.58 92.78 142.04 92.01Q142.51 91.23 143.29 90.78Q144.07 90.33 145.04 90.10Q146.01 89.88 147.01 89.75L147.01 89.75Q148.29 89.61 149.08 89.51Q149.87 89.41 150.23 89.19Q150.60 88.97 150.60 88.47L150.60 88.47L150.60 88.41Q150.60 87.20 149.92 86.53Q149.24 85.87 147.90 85.87L147.90 85.87Q146.51 85.87 145.71 86.48Q144.91 87.09 144.60 87.84L144.60 87.84L142.01 87.25Q142.70 85.31 144.32 84.47Q145.94 83.63 147.86 83.63L147.86 83.63Q148.71 83.63 149.66 83.83Q150.62 84.03 151.46 84.56Q152.30 85.09 152.84 86.06Q153.37 87.03 153.37 88.58L153.37 88.58L153.37 98L150.67 98L150.67 96.06L150.56 96.06Q150.16 96.86 149.15 97.58Q148.13 98.31 146.37 98.31ZM146.97 96.10L146.97 96.10Q148.12 96.10 148.93 95.65Q149.75 95.19 150.18 94.46Q150.61 93.73 150.61 92.88L150.61 92.88L150.61 91.06Q150.41 91.25 149.76 91.40Q149.10 91.55 148.37 91.65Q147.64 91.75 147.19 91.81L147.19 91.81Q145.99 91.97 145.14 92.45Q144.28 92.92 144.28 94.03L144.28 94.03Q144.28 95.05 145.04 95.58Q145.80 96.10 146.97 96.10ZM166.40 98L163.55 98L163.55 79.09L175.28 79.09L175.28 81.55L166.40 81.55L166.40 87.31L174.44 87.31L174.44 89.75L166.40 89.75L166.40 98ZM184.24 98.29L184.24 98.29Q182.24 98.29 180.76 97.37Q179.27 96.46 178.45 94.81Q177.63 93.16 177.63 90.97L177.63 90.97Q177.63 88.77 178.45 87.11Q179.27 85.46 180.76 84.55Q182.24 83.63 184.24 83.63L184.24 83.63Q186.24 83.63 187.72 84.55Q189.20 85.46 190.03 87.11Q190.85 88.77 190.85 90.97L190.85 90.97Q190.85 93.16 190.03 94.81Q189.20 96.46 187.72 97.37Q186.24 98.29 184.24 98.29ZM184.25 95.97L184.25 95.97Q185.55 95.97 186.39 95.29Q187.24 94.60 187.65 93.46Q188.06 92.32 188.06 90.96L188.06 90.96Q188.06 89.61 187.65 88.46Q187.24 87.32 186.39 86.63Q185.55 85.94 184.25 85.94L184.25 85.94Q182.94 85.94 182.10 86.63Q181.25 87.32 180.83 88.46Q180.41 89.61 180.41 90.96L180.41 90.96Q180.41 92.32 180.83 93.46Q181.25 94.60 182.10 95.29Q182.94 95.97 184.25 95.97ZM196.38 98L193.62 98L193.62 83.82L196.29 83.82L196.29 86.07L196.44 86.07Q196.83 84.93 197.81 84.27Q198.79 83.61 200.04 83.61L200.04 83.61Q200.31 83.61 200.66 83.62Q201.01 83.64 201.21 83.67L201.21 83.67L201.21 86.31Q201.05 86.26 200.63 86.20Q200.21 86.14 199.77 86.14L199.77 86.14Q198.30 86.14 197.34 87.05Q196.38 87.95 196.38 89.34L196.38 89.34L196.38 98ZM209.26 103.61L209.26 103.61Q206.72 103.61 205.26 102.66Q203.79 101.70 203.23 100.40L203.23 100.40L205.60 99.42Q205.85 99.83 206.27 100.29Q206.69 100.74 207.42 101.07Q208.14 101.39 209.29 101.39L209.29 101.39Q210.86 101.39 211.88 100.63Q212.91 99.87 212.91 98.20L212.91 98.20L212.91 95.41L212.73 95.41Q212.48 95.87 212.02 96.42Q211.56 96.98 210.74 97.38Q209.92 97.79 208.62 97.79L208.62 97.79Q206.95 97.79 205.61 97.00Q204.26 96.21 203.48 94.66Q202.69 93.12 202.69 90.85L202.69 90.85Q202.69 88.59 203.46 86.98Q204.24 85.36 205.58 84.50Q206.93 83.63 208.64 83.63L208.64 83.63Q209.96 83.63 210.78 84.07Q211.59 84.51 212.05 85.09Q212.51 85.67 212.75 86.12L212.75 86.12L212.95 86.12L212.95 83.82L215.66 83.82L215.66 98.31Q215.66 100.13 214.81 101.31Q213.96 102.49 212.51 103.05Q211.07 103.61 209.26 103.61ZM209.23 95.50L209.23 95.50Q211.02 95.50 211.98 94.26Q212.93 93.01 212.93 90.82L212.93 90.82Q212.93 88.67 211.99 87.32Q211.04 85.98 209.23 85.98L209.23 85.98Q207.98 85.98 207.15 86.62Q206.32 87.26 205.90 88.36Q205.48 89.45 205.48 90.82L205.48 90.82Q205.48 92.90 206.43 94.20Q207.38 95.50 209.23 95.50ZM225.17 98.29L225.17 98.29Q223.08 98.29 221.57 97.38Q220.06 96.48 219.24 94.84Q218.42 93.20 218.42 91.00L218.42 91.00Q218.42 88.82 219.24 87.16Q220.06 85.50 221.53 84.57Q223.00 83.63 224.98 83.63L224.98 83.63Q226.58 83.63 228.02 84.35Q229.46 85.06 230.36 86.63Q231.26 88.19 231.26 90.76L231.26 90.76L231.26 91.74L221.17 91.74Q221.23 93.79 222.33 94.90Q223.43 96.01 225.20 96.01L225.20 96.01Q226.38 96.01 227.24 95.50Q228.10 94.99 228.47 93.98L228.47 93.98L231.08 94.45Q230.61 96.18 229.05 97.23Q227.49 98.29 225.17 98.29ZM221.18 89.67L221.18 89.67L228.55 89.67Q228.54 88.05 227.57 86.98Q226.60 85.91 225.00 85.91L225.00 85.91Q223.88 85.91 223.04 86.44Q222.21 86.96 221.72 87.81Q221.24 88.67 221.18 89.67Z" fill="#FAF6F0"/><path d="M47.35 140L45.67 140L45.67 126.18L50.34 126.18Q51.97 126.18 53.00 126.77Q54.04 127.35 54.54 128.34Q55.04 129.33 55.04 130.55L55.04 130.55Q55.04 131.78 54.54 132.77Q54.05 133.77 53.01 134.36Q51.98 134.95 50.37 134.95L50.37 134.95L47.35 134.95L47.35 140ZM47.35 127.67L47.35 133.47L50.32 133.47Q51.98 133.47 52.69 132.63Q53.39 131.80 53.39 130.55L53.39 130.55Q53.39 129.31 52.68 128.49Q51.98 127.67 50.29 127.67L50.29 127.67L47.35 127.67ZM59.11 140L57.52 140L57.52 129.64L59.06 129.64L59.06 131.20L59.17 131.20Q59.45 130.43 60.19 129.95Q60.94 129.47 61.87 129.47L61.87 129.47Q62.04 129.47 62.31 129.48Q62.57 129.49 62.70 129.50L62.70 129.50L62.70 131.12Q62.62 131.10 62.34 131.06Q62.05 131.01 61.73 131.01L61.73 131.01Q60.60 131.01 59.86 131.70Q59.11 132.39 59.11 133.44L59.11 133.44L59.11 140ZM68.80 140.22L68.80 140.22Q67.40 140.22 66.34 139.55Q65.29 138.88 64.70 137.68Q64.11 136.48 64.11 134.87L64.11 134.87Q64.11 133.25 64.70 132.05Q65.29 130.84 66.34 130.17Q67.40 129.50 68.80 129.50L68.80 129.50Q70.21 129.50 71.26 130.17Q72.32 130.84 72.91 132.05Q73.50 133.25 73.50 134.87L73.50 134.87Q73.50 136.48 72.91 137.68Q72.32 138.88 71.26 139.55Q70.21 140.22 68.80 140.22ZM68.80 138.79L68.80 138.79Q69.87 138.79 70.56 138.24Q71.25 137.69 71.58 136.80Q71.91 135.91 71.91 134.87L71.91 134.87Q71.91 133.83 71.58 132.94Q71.25 132.04 70.56 131.49Q69.87 130.93 68.80 130.93L68.80 130.93Q67.74 130.93 67.05 131.49Q66.36 132.04 66.03 132.94Q65.70 133.83 65.70 134.87L65.70 134.87Q65.70 135.91 66.03 136.80Q66.36 137.69 67.05 138.24Q67.74 138.79 68.80 138.79ZM80.14 140.22L80.14 140.22Q78.68 140.22 77.63 139.53Q76.58 138.84 76.01 137.63Q75.44 136.42 75.44 134.87L75.44 134.87Q75.44 133.29 76.03 132.08Q76.61 130.87 77.66 130.19Q78.71 129.50 80.11 129.50L80.11 129.50Q81.20 129.50 82.08 129.91Q82.96 130.31 83.52 131.04Q84.08 131.77 84.21 132.74L84.21 132.74L82.62 132.74Q82.44 132.03 81.81 131.48Q81.19 130.93 80.14 130.93L80.14 130.93Q78.74 130.93 77.89 131.99Q77.03 133.06 77.03 134.82L77.03 134.82Q77.03 136.62 77.88 137.70Q78.72 138.79 80.14 138.79L80.14 138.79Q81.07 138.79 81.73 138.31Q82.40 137.83 82.62 136.98L82.62 136.98L84.21 136.98Q84.08 137.89 83.55 138.63Q83.02 139.36 82.15 139.79Q81.28 140.22 80.14 140.22ZM90.88 140.22L90.88 140.22Q89.38 140.22 88.30 139.55Q87.22 138.89 86.63 137.69Q86.05 136.49 86.05 134.90L86.05 134.90Q86.05 133.31 86.63 132.09Q87.22 130.87 88.26 130.19Q89.31 129.50 90.72 129.50L90.72 129.50Q91.53 129.50 92.32 129.77Q93.11 130.04 93.75 130.65Q94.40 131.25 94.79 132.24Q95.17 133.23 95.17 134.68L95.17 134.68L95.17 135.36L87.65 135.36Q87.70 137.02 88.59 137.90Q89.48 138.79 90.88 138.79L90.88 138.79Q91.82 138.79 92.49 138.38Q93.17 137.98 93.47 137.17L93.47 137.17L95.01 137.60Q94.64 138.77 93.55 139.49Q92.46 140.22 90.88 140.22ZM87.65 133.98L87.65 133.98L93.55 133.98Q93.55 132.67 92.78 131.80Q92.01 130.93 90.72 130.93L90.72 130.93Q89.81 130.93 89.14 131.36Q88.47 131.78 88.09 132.48Q87.70 133.18 87.65 133.98ZM101.51 140.22L101.51 140.22Q100.22 140.22 99.23 139.56Q98.23 138.90 97.67 137.70Q97.11 136.49 97.11 134.85L97.11 134.85Q97.11 133.21 97.67 132.01Q98.23 130.81 99.23 130.16Q100.23 129.50 101.54 129.50L101.54 129.50Q102.55 129.50 103.14 129.84Q103.73 130.17 104.05 130.59Q104.36 131.01 104.54 131.28L104.54 131.28L104.67 131.28L104.67 126.18L106.26 126.18L106.26 140L104.72 140L104.72 138.41L104.54 138.41Q104.36 138.69 104.04 139.12Q103.71 139.55 103.11 139.88Q102.51 140.22 101.51 140.22ZM101.73 138.79L101.73 138.79Q103.17 138.79 103.93 137.68Q104.70 136.58 104.70 134.82L104.70 134.82Q104.70 133.08 103.94 132.00Q103.19 130.93 101.73 130.93L101.73 130.93Q100.72 130.93 100.05 131.45Q99.37 131.96 99.04 132.84Q98.71 133.73 98.71 134.82L98.71 134.82Q98.71 135.92 99.05 136.83Q99.39 137.73 100.06 138.26Q100.73 138.79 101.73 138.79ZM115.92 135.76L115.92 135.76L115.92 129.64L117.52 129.64L117.52 140L115.92 140L115.92 138.25L115.82 138.25Q115.45 139.04 114.68 139.59Q113.91 140.13 112.74 140.13L112.74 140.13Q111.28 140.13 110.34 139.17Q109.39 138.21 109.39 136.22L109.39 136.22L109.39 129.64L110.99 129.64L110.99 136.11Q110.99 137.25 111.62 137.92Q112.26 138.60 113.25 138.60L113.25 138.60Q113.85 138.60 114.46 138.29Q115.08 137.99 115.50 137.36Q115.92 136.73 115.92 135.76ZM122.02 140L120.43 140L120.43 129.64L121.97 129.64L121.97 131.20L122.08 131.20Q122.36 130.43 123.10 129.95Q123.85 129.47 124.78 129.47L124.78 129.47Q124.95 129.47 125.22 129.48Q125.48 129.49 125.61 129.50L125.61 129.50L125.61 131.12Q125.53 131.10 125.25 131.06Q124.96 131.01 124.64 131.01L124.64 131.01Q123.51 131.01 122.77 131.70Q122.02 132.39 122.02 133.44L122.02 133.44L122.02 140ZM130.55 140.24L130.55 140.24Q129.57 140.24 128.76 139.87Q127.96 139.49 127.49 138.78Q127.02 138.07 127.02 137.06L127.02 137.06Q127.02 136.17 127.37 135.61Q127.72 135.05 128.31 134.74Q128.89 134.42 129.60 134.26Q130.32 134.10 131.04 134.01L131.04 134.01Q131.98 133.89 132.57 133.82Q133.16 133.76 133.44 133.60Q133.71 133.45 133.71 133.06L133.71 133.06L133.71 133.01Q133.71 132.01 133.17 131.46Q132.62 130.90 131.52 130.90L131.52 130.90Q130.38 130.90 129.74 131.40Q129.09 131.90 128.83 132.47L128.83 132.47L127.31 131.93Q127.72 130.99 128.40 130.46Q129.07 129.93 129.88 129.71Q130.69 129.50 131.47 129.50L131.47 129.50Q131.97 129.50 132.62 129.62Q133.27 129.74 133.88 130.10Q134.49 130.47 134.90 131.20Q135.30 131.94 135.30 133.17L135.30 133.17L135.30 140L133.71 140L133.71 138.60L133.63 138.60Q133.47 138.93 133.09 139.32Q132.71 139.70 132.08 139.97Q131.46 140.24 130.55 140.24ZM130.80 138.81L130.80 138.81Q131.74 138.81 132.39 138.44Q133.04 138.07 133.38 137.48Q133.71 136.90 133.71 136.25L133.71 136.25L133.71 134.79Q133.61 134.91 133.27 135.01Q132.93 135.11 132.49 135.18Q132.04 135.25 131.63 135.30Q131.21 135.35 130.96 135.38L130.96 135.38Q130.34 135.47 129.80 135.64Q129.26 135.82 128.94 136.18Q128.61 136.53 128.61 137.14L128.61 137.14Q128.61 137.97 129.23 138.39Q129.84 138.81 130.80 138.81ZM138.22 126.18L139.81 126.18L139.81 140L138.22 140L138.22 126.18ZM149.66 143.89L148.07 143.89L148.07 129.64L149.61 129.64L149.61 131.28L149.80 131.28Q149.97 131.01 150.28 130.59Q150.60 130.17 151.19 129.84Q151.78 129.50 152.79 129.50L152.79 129.50Q154.10 129.50 155.10 130.16Q156.10 130.81 156.66 132.01Q157.22 133.21 157.22 134.85L157.22 134.85Q157.22 136.49 156.66 137.70Q156.10 138.90 155.11 139.56Q154.11 140.22 152.82 140.22L152.82 140.22Q151.82 140.22 151.22 139.88Q150.62 139.55 150.29 139.12Q149.97 138.69 149.80 138.41L149.80 138.41L149.66 138.41L149.66 143.89ZM149.63 134.82L149.63 134.82Q149.63 136.58 150.40 137.68Q151.17 138.79 152.60 138.79L152.60 138.79Q153.60 138.79 154.27 138.26Q154.94 137.73 155.28 136.83Q155.63 135.92 155.63 134.82L155.63 134.82Q155.63 133.73 155.29 132.84Q154.96 131.96 154.29 131.45Q153.61 130.93 152.60 130.93L152.60 130.93Q151.14 130.93 150.39 132.00Q149.63 133.08 149.63 134.82ZM159.65 126.18L161.24 126.18L161.24 140L159.65 140L159.65 126.18ZM167.20 140.24L167.20 140.24Q166.22 140.24 165.42 139.87Q164.61 139.49 164.14 138.78Q163.67 138.07 163.67 137.06L163.67 137.06Q163.67 136.17 164.02 135.61Q164.37 135.05 164.96 134.74Q165.54 134.42 166.26 134.26Q166.97 134.10 167.69 134.01L167.69 134.01Q168.63 133.89 169.22 133.82Q169.81 133.76 170.09 133.60Q170.36 133.45 170.36 133.06L170.36 133.06L170.36 133.01Q170.36 132.01 169.82 131.46Q169.27 130.90 168.17 130.90L168.17 130.90Q167.03 130.90 166.39 131.40Q165.74 131.90 165.48 132.47L165.48 132.47L163.96 131.93Q164.37 130.99 165.05 130.46Q165.73 129.93 166.53 129.71Q167.34 129.50 168.12 129.50L168.12 129.50Q168.62 129.50 169.27 129.62Q169.92 129.74 170.53 130.10Q171.14 130.47 171.55 131.20Q171.95 131.94 171.95 133.17L171.95 133.17L171.95 140L170.36 140L170.36 138.60L170.28 138.60Q170.12 138.93 169.74 139.32Q169.36 139.70 168.73 139.97Q168.11 140.24 167.20 140.24ZM167.45 138.81L167.45 138.81Q168.39 138.81 169.04 138.44Q169.69 138.07 170.03 137.48Q170.36 136.90 170.36 136.25L170.36 136.25L170.36 134.79Q170.26 134.91 169.92 135.01Q169.58 135.11 169.14 135.18Q168.69 135.25 168.28 135.30Q167.86 135.35 167.61 135.38L167.61 135.38Q166.99 135.47 166.45 135.64Q165.91 135.82 165.59 136.18Q165.26 136.53 165.26 137.14L165.26 137.14Q165.26 137.97 165.88 138.39Q166.49 138.81 167.45 138.81ZM176.46 133.77L176.46 133.77L176.46 140L174.87 140L174.87 129.64L176.41 129.64L176.41 131.26L176.54 131.26Q176.91 130.47 177.65 129.98Q178.39 129.50 179.56 129.50L179.56 129.50Q181.14 129.50 182.10 130.47Q183.07 131.43 183.07 133.41L183.07 133.41L183.07 140L181.48 140L181.48 133.52Q181.48 132.30 180.85 131.62Q180.21 130.93 179.11 130.93L179.11 130.93Q177.96 130.93 177.21 131.67Q176.46 132.41 176.46 133.77ZM190.33 140.22L190.33 140.22Q188.83 140.22 187.75 139.55Q186.67 138.89 186.09 137.69Q185.50 136.49 185.50 134.90L185.50 134.90Q185.50 133.31 186.09 132.09Q186.67 130.87 187.72 130.19Q188.77 129.50 190.17 129.50L190.17 129.50Q190.98 129.50 191.77 129.77Q192.56 130.04 193.21 130.65Q193.85 131.25 194.24 132.24Q194.62 133.23 194.62 134.68L194.62 134.68L194.62 135.36L187.10 135.36Q187.15 137.02 188.04 137.90Q188.93 138.79 190.33 138.79L190.33 138.79Q191.27 138.79 191.94 138.38Q192.62 137.98 192.92 137.17L192.92 137.17L194.46 137.60Q194.10 138.77 193.00 139.49Q191.91 140.22 190.33 140.22ZM187.10 133.98L187.10 133.98L193.00 133.98Q193.00 132.67 192.24 131.80Q191.47 130.93 190.17 130.93L190.17 130.93Q189.26 130.93 188.59 131.36Q187.92 131.78 187.54 132.48Q187.15 133.18 187.10 133.98ZM199.35 129.64L201.56 129.64L201.56 130.99L199.35 130.99L199.35 137.03Q199.35 137.71 199.55 138.04Q199.74 138.37 200.06 138.49Q200.37 138.60 200.72 138.60L200.72 138.60Q200.99 138.60 201.15 138.57Q201.32 138.54 201.42 138.52L201.42 138.52L201.75 139.95Q201.59 140.01 201.30 140.07Q201.01 140.13 200.56 140.13L200.56 140.13Q199.89 140.13 199.24 139.84Q198.60 139.55 198.18 138.96Q197.75 138.37 197.75 137.46L197.75 137.46L197.75 130.99L196.19 130.99L196.19 129.64L197.75 129.64L197.75 127.15L199.35 127.15L199.35 129.64ZM211.30 131.96L211.30 131.96L209.87 132.36Q209.66 131.82 209.17 131.35Q208.68 130.88 207.63 130.88L207.63 130.88Q206.68 130.88 206.05 131.31Q205.42 131.75 205.42 132.42L205.42 132.42Q205.42 133.01 205.85 133.35Q206.28 133.70 207.20 133.93L207.20 133.93L208.74 134.31Q211.49 134.98 211.49 137.11L211.49 137.11Q211.49 138.00 210.98 138.70Q210.47 139.41 209.56 139.81Q208.65 140.22 207.44 140.22L207.44 140.22Q205.86 140.22 204.82 139.53Q203.78 138.84 203.50 137.52L203.50 137.52L205.01 137.14Q205.44 138.81 207.42 138.81L207.42 138.81Q208.53 138.81 209.19 138.34Q209.85 137.86 209.85 137.19L209.85 137.19Q209.85 136.09 208.31 135.74L208.31 135.74L206.58 135.33Q205.16 134.99 204.49 134.28Q203.83 133.57 203.83 132.50L203.83 132.50Q203.83 131.62 204.32 130.95Q204.82 130.27 205.68 129.89Q206.54 129.50 207.63 129.50L207.63 129.50Q209.17 129.50 210.05 130.18Q210.93 130.85 211.30 131.96ZM222.29 140.24L222.29 140.24Q221.30 140.24 220.50 139.87Q219.70 139.49 219.22 138.78Q218.75 138.07 218.75 137.06L218.75 137.06Q218.75 136.17 219.10 135.61Q219.45 135.05 220.04 134.74Q220.63 134.42 221.34 134.26Q222.05 134.10 222.77 134.01L222.77 134.01Q223.72 133.89 224.31 133.82Q224.90 133.76 225.17 133.60Q225.44 133.45 225.44 133.06L225.44 133.06L225.44 133.01Q225.44 132.01 224.90 131.46Q224.36 130.90 223.26 130.90L223.26 130.90Q222.12 130.90 221.47 131.40Q220.82 131.90 220.56 132.47L220.56 132.47L219.05 131.93Q219.45 130.99 220.13 130.46Q220.81 129.93 221.62 129.71Q222.42 129.50 223.20 129.50L223.20 129.50Q223.70 129.50 224.35 129.62Q225.01 129.74 225.62 130.10Q226.23 130.47 226.63 131.20Q227.04 131.94 227.04 133.17L227.04 133.17L227.04 140L225.44 140L225.44 138.60L225.36 138.60Q225.20 138.93 224.82 139.32Q224.45 139.70 223.82 139.97Q223.19 140.24 222.29 140.24ZM222.53 138.81L222.53 138.81Q223.47 138.81 224.13 138.44Q224.78 138.07 225.11 137.48Q225.44 136.90 225.44 136.25L225.44 136.25L225.44 134.79Q225.34 134.91 225.00 135.01Q224.66 135.11 224.22 135.18Q223.78 135.25 223.36 135.30Q222.95 135.35 222.69 135.38L222.69 135.38Q222.07 135.47 221.53 135.64Q221.00 135.82 220.67 136.18Q220.34 136.53 220.34 137.14L220.34 137.14Q220.34 137.97 220.96 138.39Q221.58 138.81 222.53 138.81ZM231.54 133.77L231.54 133.77L231.54 140L229.95 140L229.95 129.64L231.49 129.64L231.49 131.26L231.63 131.26Q231.99 130.47 232.73 129.98Q233.47 129.50 234.65 129.50L234.65 129.50Q236.22 129.50 237.19 130.47Q238.16 131.43 238.16 133.41L238.16 133.41L238.16 140L236.56 140L236.56 133.52Q236.56 132.30 235.93 131.62Q235.30 130.93 234.19 130.93L234.19 130.93Q233.05 130.93 232.30 131.67Q231.54 132.41 231.54 133.77ZM244.98 140.22L244.98 140.22Q243.69 140.22 242.70 139.56Q241.71 138.90 241.15 137.70Q240.59 136.49 240.59 134.85L240.59 134.85Q240.59 133.21 241.15 132.01Q241.71 130.81 242.70 130.16Q243.70 129.50 245.01 129.50L245.01 129.50Q246.02 129.50 246.61 129.84Q247.20 130.17 247.52 130.59Q247.83 131.01 248.01 131.28L248.01 131.28L248.14 131.28L248.14 126.18L249.73 126.18L249.73 140L248.20 140L248.20 138.41L248.01 138.41Q247.83 138.69 247.51 139.12Q247.18 139.55 246.58 139.88Q245.98 140.22 244.98 140.22ZM245.20 138.79L245.20 138.79Q246.64 138.79 247.40 137.68Q248.17 136.58 248.17 134.82L248.17 134.82Q248.17 133.08 247.41 132.00Q246.66 130.93 245.20 130.93L245.20 130.93Q244.19 130.93 243.52 131.45Q242.85 131.96 242.51 132.84Q242.18 133.73 242.18 134.82L242.18 134.82Q242.18 135.92 242.52 136.83Q242.86 137.73 243.53 138.26Q244.20 138.79 245.20 138.79ZM259.80 133.77L259.80 133.77L259.80 140L258.21 140L258.21 129.64L259.75 129.64L259.75 131.26L259.88 131.26Q260.25 130.47 260.99 129.98Q261.73 129.50 262.90 129.50L262.90 129.50Q264.48 129.50 265.45 130.47Q266.41 131.43 266.41 133.41L266.41 133.41L266.41 140L264.82 140L264.82 133.52Q264.82 132.30 264.19 131.62Q263.55 130.93 262.45 130.93L262.45 130.93Q261.31 130.93 260.55 131.67Q259.80 132.41 259.80 133.77ZM269.22 133.33L275.27 133.33L275.27 134.82L269.22 134.82L269.22 133.33ZM279.83 140L278.29 140L278.29 126.18L279.88 126.18L279.88 131.28L280.02 131.28Q280.19 131.01 280.50 130.59Q280.82 130.17 281.41 129.84Q282.00 129.50 283.01 129.50L283.01 129.50Q284.32 129.50 285.32 130.16Q286.32 130.81 286.88 132.01Q287.44 133.21 287.44 134.85L287.44 134.85Q287.44 136.49 286.88 137.70Q286.32 138.90 285.33 139.56Q284.33 140.22 283.04 140.22L283.04 140.22Q282.04 140.22 281.44 139.88Q280.84 139.55 280.51 139.12Q280.19 138.69 280.02 138.41L280.02 138.41L279.83 138.41L279.83 140ZM279.85 134.82L279.85 134.82Q279.85 136.58 280.62 137.68Q281.39 138.79 282.82 138.79L282.82 138.79Q283.82 138.79 284.49 138.26Q285.16 137.73 285.50 136.83Q285.85 135.92 285.85 134.82L285.85 134.82Q285.85 133.73 285.51 132.84Q285.18 131.96 284.51 131.45Q283.83 130.93 282.82 130.93L282.82 130.93Q281.37 130.93 280.61 132.00Q279.85 133.08 279.85 134.82ZM294.08 140.22L294.08 140.22Q292.67 140.22 291.62 139.55Q290.56 138.88 289.97 137.68Q289.38 136.48 289.38 134.87L289.38 134.87Q289.38 133.25 289.97 132.05Q290.56 130.84 291.62 130.17Q292.67 129.50 294.08 129.50L294.08 129.50Q295.48 129.50 296.54 130.17Q297.59 130.84 298.18 132.05Q298.77 133.25 298.77 134.87L298.77 134.87Q298.77 136.48 298.18 137.68Q297.59 138.88 296.54 139.55Q295.48 140.22 294.08 140.22ZM294.08 138.79L294.08 138.79Q295.14 138.79 295.83 138.24Q296.52 137.69 296.85 136.80Q297.18 135.91 297.18 134.87L297.18 134.87Q297.18 133.83 296.85 132.94Q296.52 132.04 295.83 131.49Q295.14 130.93 294.08 130.93L294.08 130.93Q293.01 130.93 292.32 131.49Q291.63 132.04 291.30 132.94Q290.97 133.83 290.97 134.87L290.97 134.87Q290.97 135.91 291.30 136.80Q291.63 137.69 292.32 138.24Q293.01 138.79 294.08 138.79ZM305.12 140.22L305.12 140.22Q303.82 140.22 302.83 139.56Q301.84 138.90 301.28 137.70Q300.72 136.49 300.72 134.85L300.72 134.85Q300.72 133.21 301.28 132.01Q301.84 130.81 302.83 130.16Q303.83 129.50 305.14 129.50L305.14 129.50Q306.15 129.50 306.74 129.84Q307.33 130.17 307.65 130.59Q307.96 131.01 308.14 131.28L308.14 131.28L308.27 131.28L308.27 126.18L309.87 126.18L309.87 140L308.33 140L308.33 138.41L308.14 138.41Q307.96 138.69 307.64 139.12Q307.31 139.55 306.71 139.88Q306.11 140.22 305.12 140.22ZM305.33 138.79L305.33 138.79Q306.77 138.79 307.53 137.68Q308.30 136.58 308.30 134.82L308.30 134.82Q308.30 133.08 307.54 132.00Q306.79 130.93 305.33 130.93L305.33 130.93Q304.32 130.93 303.65 131.45Q302.98 131.96 302.64 132.84Q302.31 133.73 302.31 134.82L302.31 134.82Q302.31 135.92 302.65 136.83Q302.99 137.73 303.66 138.26Q304.33 138.79 305.33 138.79ZM314.02 143.89L314.02 143.89Q313.62 143.89 313.30 143.82Q312.98 143.76 312.86 143.70L312.86 143.70L313.27 142.29Q313.85 142.44 314.29 142.40Q314.74 142.36 315.08 142.01Q315.43 141.65 315.72 140.86L315.72 140.86L316.02 140.05L312.19 129.64L313.91 129.64L316.77 137.89L316.88 137.89L319.74 129.64L321.47 129.64L317.07 141.51Q316.19 143.89 314.02 143.89Z" fill="#9C9082"/><path d="M49.67 170.22L49.67 170.22Q48.26 170.22 47.21 169.55Q46.15 168.88 45.56 167.68Q44.97 166.48 44.97 164.87L44.97 164.87Q44.97 163.25 45.56 162.05Q46.15 160.84 47.21 160.17Q48.26 159.50 49.67 159.50L49.67 159.50Q51.07 159.50 52.13 160.17Q53.18 160.84 53.77 162.05Q54.36 163.25 54.36 164.87L54.36 164.87Q54.36 166.48 53.77 167.68Q53.18 168.88 52.13 169.55Q51.07 170.22 49.67 170.22ZM49.67 168.79L49.67 168.79Q50.73 168.79 51.42 168.24Q52.11 167.69 52.44 166.80Q52.77 165.91 52.77 164.87L52.77 164.87Q52.77 163.83 52.44 162.94Q52.11 162.04 51.42 161.49Q50.73 160.93 49.67 160.93L49.67 160.93Q48.60 160.93 47.91 161.49Q47.23 162.04 46.89 162.94Q46.56 163.83 46.56 164.87L46.56 164.87Q46.56 165.91 46.89 166.80Q47.23 167.69 47.91 168.24Q48.60 168.79 49.67 168.79ZM58.38 170L56.79 170L56.79 159.64L58.33 159.64L58.33 161.20L58.44 161.20Q58.72 160.43 59.46 159.95Q60.21 159.47 61.14 159.47L61.14 159.47Q61.31 159.47 61.58 159.48Q61.84 159.49 61.97 159.50L61.97 159.50L61.97 161.12Q61.89 161.10 61.61 161.06Q61.32 161.01 61.00 161.01L61.00 161.01Q59.87 161.01 59.13 161.70Q58.38 162.39 58.38 163.44L58.38 163.44L58.38 170ZM65.62 170L64.08 170L64.08 156.18L65.67 156.18L65.67 161.28L65.81 161.28Q65.98 161.01 66.30 160.59Q66.61 160.17 67.20 159.84Q67.79 159.50 68.80 159.50L68.80 159.50Q70.11 159.50 71.11 160.16Q72.11 160.81 72.67 162.01Q73.23 163.21 73.23 164.85L73.23 164.85Q73.23 166.49 72.67 167.70Q72.11 168.90 71.12 169.56Q70.13 170.22 68.83 170.22L68.83 170.22Q67.83 170.22 67.23 169.88Q66.63 169.55 66.31 169.12Q65.98 168.69 65.81 168.41L65.81 168.41L65.62 168.41L65.62 170ZM65.64 164.82L65.64 164.82Q65.64 166.58 66.41 167.68Q67.18 168.79 68.61 168.79L68.61 168.79Q69.61 168.79 70.28 168.26Q70.95 167.73 71.30 166.83Q71.64 165.92 71.64 164.82L71.64 164.82Q71.64 163.73 71.30 162.84Q70.97 161.96 70.30 161.45Q69.63 160.93 68.61 160.93L68.61 160.93Q67.16 160.93 66.40 162.00Q65.64 163.08 65.64 164.82ZM77.25 170L75.66 170L75.66 159.64L77.25 159.64L77.25 170ZM76.47 157.91L76.47 157.91Q76.00 157.91 75.67 157.59Q75.33 157.27 75.33 156.83L75.33 156.83Q75.33 156.38 75.67 156.07Q76.00 155.75 76.47 155.75L76.47 155.75Q76.93 155.75 77.27 156.07Q77.60 156.38 77.60 156.83L77.60 156.83Q77.60 157.27 77.27 157.59Q76.93 157.91 76.47 157.91ZM82.46 159.64L84.67 159.64L84.67 160.99L82.46 160.99L82.46 167.03Q82.46 167.71 82.66 168.04Q82.86 168.37 83.17 168.49Q83.48 168.60 83.84 168.60L83.84 168.60Q84.10 168.60 84.27 168.57Q84.44 168.54 84.54 168.52L84.54 168.52L84.86 169.95Q84.70 170.01 84.41 170.07Q84.12 170.13 83.67 170.13L83.67 170.13Q83.00 170.13 82.35 169.84Q81.71 169.55 81.29 168.96Q80.87 168.37 80.87 167.46L80.87 167.46L80.87 160.99L79.30 160.99L79.30 159.64L80.87 159.64L80.87 157.15L82.46 157.15L82.46 159.64ZM94.41 161.96L94.41 161.96L92.98 162.36Q92.78 161.82 92.28 161.35Q91.79 160.88 90.74 160.88L90.74 160.88Q89.79 160.88 89.16 161.31Q88.53 161.75 88.53 162.42L88.53 162.42Q88.53 163.01 88.96 163.35Q89.39 163.70 90.31 163.93L90.31 163.93L91.85 164.31Q94.60 164.98 94.60 167.11L94.60 167.11Q94.60 168.00 94.09 168.70Q93.58 169.41 92.67 169.81Q91.76 170.22 90.56 170.22L90.56 170.22Q88.97 170.22 87.93 169.53Q86.89 168.84 86.62 167.52L86.62 167.52L88.13 167.14Q88.55 168.81 90.53 168.81L90.53 168.81Q91.64 168.81 92.30 168.34Q92.96 167.86 92.96 167.19L92.96 167.19Q92.96 166.09 91.42 165.74L91.42 165.74L89.69 165.33Q88.27 164.99 87.60 164.28Q86.94 163.57 86.94 162.50L86.94 162.50Q86.94 161.62 87.43 160.95Q87.93 160.27 88.79 159.89Q89.65 159.50 90.74 159.50L90.74 159.50Q92.28 159.50 93.16 160.18Q94.04 160.85 94.41 161.96ZM97.65 168.11L99.38 168.11L99.27 168.84Q99.16 169.61 98.93 170.49Q98.69 171.36 98.44 172.14Q98.19 172.91 98.03 173.37L98.03 173.37L96.82 173.37Q96.90 172.94 97.05 172.23Q97.19 171.52 97.33 170.65Q97.48 169.78 97.57 168.87L97.57 168.87L97.65 168.11ZM109.42 170L107.88 170L107.88 156.18L109.47 156.18L109.47 161.28L109.61 161.28Q109.78 161.01 110.10 160.59Q110.41 160.17 111.00 159.84Q111.59 159.50 112.61 159.50L112.61 159.50Q113.91 159.50 114.91 160.16Q115.91 160.81 116.47 162.01Q117.03 163.21 117.03 164.85L117.03 164.85Q117.03 166.49 116.47 167.70Q115.91 168.90 114.92 169.56Q113.93 170.22 112.63 170.22L112.63 170.22Q111.63 170.22 111.03 169.88Q110.43 169.55 110.11 169.12Q109.78 168.69 109.61 168.41L109.61 168.41L109.42 168.41L109.42 170ZM109.45 164.82L109.45 164.82Q109.45 166.58 110.21 167.68Q110.98 168.79 112.42 168.79L112.42 168.79Q113.41 168.79 114.09 168.26Q114.76 167.73 115.10 166.83Q115.44 165.92 115.44 164.82L115.44 164.82Q115.44 163.73 115.10 162.84Q114.77 161.96 114.10 161.45Q113.43 160.93 112.42 160.93L112.42 160.93Q110.96 160.93 110.20 162.00Q109.45 163.08 109.45 164.82ZM125.99 165.76L125.99 165.76L125.99 159.64L127.58 159.64L127.58 170L125.99 170L125.99 168.25L125.88 168.25Q125.52 169.04 124.75 169.59Q123.98 170.13 122.81 170.13L122.81 170.13Q121.35 170.13 120.40 169.17Q119.46 168.21 119.46 166.22L119.46 166.22L119.46 159.64L121.05 159.64L121.05 166.11Q121.05 167.25 121.69 167.92Q122.33 168.60 123.32 168.60L123.32 168.60Q123.91 168.60 124.53 168.29Q125.15 167.99 125.57 167.36Q125.99 166.73 125.99 165.76ZM132.09 170L130.50 170L130.50 159.64L132.09 159.64L132.09 170ZM131.31 157.91L131.31 157.91Q130.84 157.91 130.51 157.59Q130.17 157.27 130.17 156.83L130.17 156.83Q130.17 156.38 130.51 156.07Q130.84 155.75 131.31 155.75L131.31 155.75Q131.77 155.75 132.11 156.07Q132.44 156.38 132.44 156.83L132.44 156.83Q132.44 157.27 132.11 157.59Q131.77 157.91 131.31 157.91ZM135.01 156.18L136.60 156.18L136.60 170L135.01 170L135.01 156.18ZM141.81 159.64L144.02 159.64L144.02 160.99L141.81 160.99L141.81 167.03Q141.81 167.71 142.01 168.04Q142.20 168.37 142.52 168.49Q142.83 168.60 143.18 168.60L143.18 168.60Q143.45 168.60 143.62 168.57Q143.78 168.54 143.88 168.52L143.88 168.52L144.21 169.95Q144.05 170.01 143.76 170.07Q143.47 170.13 143.02 170.13L143.02 170.13Q142.35 170.13 141.70 169.84Q141.06 169.55 140.64 168.96Q140.21 168.37 140.21 167.46L140.21 167.46L140.21 160.99L138.65 160.99L138.65 159.64L140.21 159.64L140.21 157.15L141.81 157.15L141.81 159.64ZM153.36 170L151.77 170L151.77 159.64L153.36 159.64L153.36 170ZM152.58 157.91L152.58 157.91Q152.11 157.91 151.78 157.59Q151.44 157.27 151.44 156.83L151.44 156.83Q151.44 156.38 151.78 156.07Q152.11 155.75 152.58 155.75L152.58 155.75Q153.04 155.75 153.37 156.07Q153.71 156.38 153.71 156.83L153.71 156.83Q153.71 157.27 153.37 157.59Q153.04 157.91 152.58 157.91ZM157.87 163.77L157.87 163.77L157.87 170L156.27 170L156.27 159.64L157.81 159.64L157.81 161.26L157.95 161.26Q158.31 160.47 159.05 159.98Q159.79 159.50 160.97 159.50L160.97 159.50Q162.54 159.50 163.51 160.47Q164.48 161.43 164.48 163.41L164.48 163.41L164.48 170L162.88 170L162.88 163.52Q162.88 162.30 162.25 161.62Q161.62 160.93 160.51 160.93L160.51 160.93Q159.37 160.93 158.62 161.67Q157.87 162.41 157.87 163.77ZM175.79 170.24L175.79 170.24Q174.80 170.24 174.00 169.87Q173.19 169.49 172.72 168.78Q172.25 168.07 172.25 167.06L172.25 167.06Q172.25 166.17 172.60 165.61Q172.95 165.05 173.54 164.74Q174.13 164.42 174.84 164.26Q175.55 164.10 176.27 164.01L176.27 164.01Q177.22 163.89 177.81 163.82Q178.40 163.76 178.67 163.60Q178.94 163.45 178.94 163.06L178.94 163.06L178.94 163.01Q178.94 162.01 178.40 161.46Q177.86 160.90 176.76 160.90L176.76 160.90Q175.62 160.90 174.97 161.40Q174.32 161.90 174.06 162.47L174.06 162.47L172.55 161.93Q172.95 160.99 173.63 160.46Q174.31 159.93 175.11 159.71Q175.92 159.50 176.70 159.50L176.70 159.50Q177.20 159.50 177.85 159.62Q178.50 159.74 179.12 160.10Q179.73 160.47 180.13 161.20Q180.54 161.94 180.54 163.17L180.54 163.17L180.54 170L178.94 170L178.94 168.60L178.86 168.60Q178.70 168.93 178.32 169.32Q177.94 169.70 177.32 169.97Q176.69 170.24 175.79 170.24ZM176.03 168.81L176.03 168.81Q176.97 168.81 177.62 168.44Q178.28 168.07 178.61 167.48Q178.94 166.90 178.94 166.25L178.94 166.25L178.94 164.79Q178.84 164.91 178.50 165.01Q178.16 165.11 177.72 165.18Q177.28 165.25 176.86 165.30Q176.45 165.35 176.19 165.38L176.19 165.38Q175.57 165.47 175.03 165.64Q174.50 165.82 174.17 166.18Q173.84 166.53 173.84 167.14L173.84 167.14Q173.84 167.97 174.46 168.39Q175.08 168.81 176.03 168.81ZM198.08 165.20L198.08 156.18L199.75 156.18L199.75 165.33Q199.75 166.75 199.09 167.86Q198.42 168.97 197.21 169.61Q196.01 170.24 194.38 170.24L194.38 170.24Q192.75 170.24 191.55 169.61Q190.34 168.97 189.67 167.86Q189.01 166.75 189.01 165.33L189.01 165.33L189.01 156.18L190.68 156.18L190.68 165.20Q190.68 166.71 191.67 167.70Q192.65 168.68 194.38 168.68L194.38 168.68Q196.11 168.68 197.10 167.70Q198.08 166.71 198.08 165.20L198.08 165.20ZM204.47 163.77L204.47 163.77L204.47 170L202.88 170L202.88 159.64L204.42 159.64L204.42 161.26L204.56 161.26Q204.92 160.47 205.66 159.98Q206.40 159.50 207.58 159.50L207.58 159.50Q209.15 159.50 210.12 160.47Q211.09 161.43 211.09 163.41L211.09 163.41L211.09 170L209.49 170L209.49 163.52Q209.49 162.30 208.86 161.62Q208.23 160.93 207.12 160.93L207.12 160.93Q205.98 160.93 205.23 161.67Q204.47 162.41 204.47 163.77ZM215.59 170L214.00 170L214.00 159.64L215.59 159.64L215.59 170ZM214.81 157.91L214.81 157.91Q214.35 157.91 214.01 157.59Q213.68 157.27 213.68 156.83L213.68 156.83Q213.68 156.38 214.01 156.07Q214.35 155.75 214.81 155.75L214.81 155.75Q215.28 155.75 215.61 156.07Q215.94 156.38 215.94 156.83L215.94 156.83Q215.94 157.27 215.61 157.59Q215.28 157.91 214.81 157.91ZM220.80 159.64L223.02 159.64L223.02 160.99L220.80 160.99L220.80 167.03Q220.80 167.71 221.00 168.04Q221.20 168.37 221.51 168.49Q221.83 168.60 222.18 168.60L222.18 168.60Q222.44 168.60 222.61 168.57Q222.78 168.54 222.88 168.52L222.88 168.52L223.20 169.95Q223.04 170.01 222.75 170.07Q222.46 170.13 222.02 170.13L222.02 170.13Q221.34 170.13 220.70 169.84Q220.05 169.55 219.63 168.96Q219.21 168.37 219.21 167.46L219.21 167.46L219.21 160.99L217.64 160.99L217.64 159.64L219.21 159.64L219.21 157.15L220.80 157.15L220.80 159.64ZM226.44 173.89L226.44 173.89Q226.04 173.89 225.72 173.82Q225.40 173.76 225.28 173.70L225.28 173.70L225.69 172.29Q226.27 172.44 226.71 172.40Q227.16 172.36 227.51 172.01Q227.85 171.65 228.14 170.86L228.14 170.86L228.44 170.05L224.61 159.64L226.34 159.64L229.20 167.89L229.30 167.89L232.16 159.64L233.89 159.64L229.49 171.51Q228.61 173.89 226.44 173.89ZM243.63 159.64L245.85 159.64L245.85 160.99L243.63 160.99L243.63 167.03Q243.63 167.71 243.83 168.04Q244.03 168.37 244.35 168.49Q244.66 168.60 245.01 168.60L245.01 168.60Q245.27 168.60 245.44 168.57Q245.61 168.54 245.71 168.52L245.71 168.52L246.04 169.95Q245.88 170.01 245.58 170.07Q245.29 170.13 244.85 170.13L244.85 170.13Q244.17 170.13 243.53 169.84Q242.89 169.55 242.46 168.96Q242.04 168.37 242.04 167.46L242.04 167.46L242.04 160.99L240.48 160.99L240.48 159.64L242.04 159.64L242.04 157.15L243.63 157.15L243.63 159.64ZM252.46 170.22L252.46 170.22Q251.06 170.22 250.00 169.55Q248.94 168.88 248.35 167.68Q247.76 166.48 247.76 164.87L247.76 164.87Q247.76 163.25 248.35 162.05Q248.94 160.84 250.00 160.17Q251.06 159.50 252.46 159.50L252.46 159.50Q253.86 159.50 254.92 160.17Q255.98 160.84 256.57 162.05Q257.16 163.25 257.16 164.87L257.16 164.87Q257.16 166.48 256.57 167.68Q255.98 168.88 254.92 169.55Q253.86 170.22 252.46 170.22ZM252.46 168.79L252.46 168.79Q253.53 168.79 254.21 168.24Q254.90 167.69 255.23 166.80Q255.56 165.91 255.56 164.87L255.56 164.87Q255.56 163.83 255.23 162.94Q254.90 162.04 254.21 161.49Q253.53 160.93 252.46 160.93L252.46 160.93Q251.39 160.93 250.71 161.49Q250.02 162.04 249.69 162.94Q249.36 163.83 249.36 164.87L249.36 164.87Q249.36 165.91 249.69 166.80Q250.02 167.69 250.71 168.24Q251.39 168.79 252.46 168.79ZM263.80 170.22L263.80 170.22Q262.39 170.22 261.34 169.55Q260.28 168.88 259.69 167.68Q259.10 166.48 259.10 164.87L259.10 164.87Q259.10 163.25 259.69 162.05Q260.28 160.84 261.34 160.17Q262.39 159.50 263.80 159.50L263.80 159.50Q265.20 159.50 266.25 160.17Q267.31 160.84 267.90 162.05Q268.49 163.25 268.49 164.87L268.49 164.87Q268.49 166.48 267.90 167.68Q267.31 168.88 266.25 169.55Q265.20 170.22 263.80 170.22ZM263.80 168.79L263.80 168.79Q264.86 168.79 265.55 168.24Q266.24 167.69 266.57 166.80Q266.90 165.91 266.90 164.87L266.90 164.87Q266.90 163.83 266.57 162.94Q266.24 162.04 265.55 161.49Q264.86 160.93 263.80 160.93L263.80 160.93Q262.73 160.93 262.04 161.49Q261.35 162.04 261.02 162.94Q260.69 163.83 260.69 164.87L260.69 164.87Q260.69 165.91 261.02 166.80Q261.35 167.69 262.04 168.24Q262.73 168.79 263.80 168.79ZM270.92 156.18L272.51 156.18L272.51 170L270.92 170L270.92 156.18ZM276.59 170.11L276.59 170.11Q276.09 170.11 275.73 169.75Q275.37 169.39 275.37 168.89L275.37 168.89Q275.37 168.39 275.73 168.04Q276.09 167.68 276.59 167.68L276.59 167.68Q277.09 167.68 277.44 168.04Q277.80 168.39 277.80 168.89L277.80 168.89Q277.80 169.39 277.44 169.75Q277.09 170.11 276.59 170.11Z" fill="#9C9082"/></svg>