<?xml version="1.0" encoding="UTF-8"?>
<svg xmlns="http://www.w3.org/2000/svg" viewBox="0 0 400 224" width="400" height="224"><rect x="12" y="12" width="376" height="200" rx="18" fill="#12100E" stroke="#332A21" stroke-width="2"/><path d="M48.77 58.19L48.77 58.19Q47.26 58.19 46.30 57.64Q45.34 57.09 44.72 56.22L44.72 56.22L45.70 55.42Q46.35 56.24 47.08 56.64Q47.81 57.04 48.82 57.04L48.82 57.04Q50.03 57.04 50.67 56.48Q51.31 55.92 51.31 54.91L51.31 54.91Q51.31 54.10 50.85 53.64Q50.38 53.18 49.23 52.99L49.23 52.99L47.98 52.78Q47.17 52.64 46.62 52.35Q46.06 52.06 45.73 51.66Q45.39 51.25 45.25 50.76Q45.10 50.27 45.10 49.74L45.10 49.74Q45.10 48.21 46.11 47.42Q47.12 46.64 48.83 46.64L48.83 46.64Q50.18 46.64 51.10 47.09Q52.02 47.54 52.58 48.35L52.58 48.35L51.63 49.17Q51.17 48.56 50.51 48.18Q49.86 47.79 48.82 47.79L48.82 47.79Q47.68 47.79 47.07 48.27Q46.46 48.75 46.46 49.71L46.46 49.71Q46.46 50.46 46.92 50.94Q47.38 51.41 48.56 51.62L48.56 51.62L49.76 51.82Q50.58 51.97 51.14 52.26Q51.70 52.54 52.04 52.94Q52.38 53.34 52.53 53.84Q52.67 54.34 52.67 54.88L52.67 54.88Q52.67 56.43 51.66 57.31Q50.64 58.19 48.77 58.19ZM64.26 58L57.34 58L57.34 56.93L60.13 56.93L60.13 47.90L57.34 47.90L57.34 46.83L64.26 46.83L64.26 47.90L61.47 47.90L61.47 56.93L64.26 56.93L64.26 58ZM75.28 58L75.28 52.40L75.28 48.86L75.15 48.86L72.80 54.61L70.45 48.86L70.32 48.86L70.32 52.40L70.32 58L69.09 58L69.09 46.83L70.82 46.83L72.78 51.76L72.88 51.76L74.85 46.83L76.51 46.83L76.51 58L75.28 58ZM81.28 46.83L82.62 46.83L82.62 53.54Q82.62 54.35 82.67 54.99Q82.72 55.63 82.93 56.09Q83.14 56.54 83.58 56.78Q84.02 57.02 84.80 57.02L84.80 57.02Q85.58 57.02 86.02 56.78Q86.46 56.54 86.67 56.09Q86.88 55.63 86.93 54.99Q86.98 54.35 86.98 53.54L86.98 53.54L86.98 46.83L88.32 46.83L88.32 53.22Q88.32 54.46 88.20 55.39Q88.08 56.32 87.70 56.94Q87.33 57.57 86.63 57.88Q85.94 58.19 84.80 58.19L84.80 58.19Q83.66 58.19 82.97 57.88Q82.27 57.57 81.90 56.94Q81.52 56.32 81.40 55.39Q81.28 54.46 81.28 53.22L81.28 53.22L81.28 46.83ZM100.56 58L93.92 58L93.92 46.83L95.26 46.83L95.26 56.83L100.56 56.83L100.56 58ZM113.12 58L111.70 58L110.75 54.82L106.83 54.82L105.89 58L104.50 58L107.92 46.83L109.70 46.83L113.12 58ZM110.43 53.65L108.86 48.26L108.72 48.26L107.15 53.65L110.43 53.65ZM125.20 48L121.47 48L121.47 58L120.13 58L120.13 48L116.40 48L116.40 46.83L125.20 46.83L125.20 48ZM136.26 58L129.34 58L129.34 56.93L132.13 56.93L132.13 47.90L129.34 47.90L129.34 46.83L136.26 46.83L136.26 47.90L133.47 47.90L133.47 56.93L136.26 56.93L136.26 58ZM144.80 58.19L144.80 58.19Q143.78 58.19 143.04 57.80Q142.30 57.41 141.82 56.67Q141.34 55.94 141.12 54.86Q140.90 53.79 140.90 52.42L140.90 52.42Q140.90 51.06 141.12 49.98Q141.34 48.90 141.82 48.16Q142.30 47.42 143.04 47.03Q143.78 46.64 144.80 46.64L144.80 46.64Q145.82 46.64 146.56 47.03Q147.30 47.42 147.78 48.16Q148.26 48.90 148.48 49.98Q148.70 51.06 148.70 52.42L148.70 52.42Q148.70 53.79 148.48 54.86Q148.26 55.94 147.78 56.67Q147.30 57.41 146.56 57.80Q145.82 58.19 144.80 58.19ZM144.80 57.02L144.80 57.02Q145.47 57.02 145.94 56.76Q146.40 56.50 146.70 56.02Q147.01 55.54 147.14 54.86Q147.28 54.18 147.28 53.33L147.28 53.33L147.28 51.50Q147.28 50.67 147.14 49.98Q147.01 49.30 146.70 48.82Q146.40 48.34 145.94 48.07Q145.47 47.81 144.80 47.81L144.80 47.81Q144.13 47.81 143.66 48.07Q143.20 48.34 142.90 48.82Q142.59 49.30 142.46 49.98Q142.32 50.67 142.32 51.50L142.32 51.50L142.32 53.33Q142.32 54.18 142.46 54.86Q142.59 55.54 142.90 56.02Q143.20 56.50 143.66 56.76Q144.13 57.02 144.80 57.02ZM158.42 58L154.61 48.59L154.50 48.59L154.50 58L153.28 58L153.28 46.83L155.18 46.83L158.99 56.24L159.10 56.24L159.10 46.83L160.32 46.83L160.32 58L158.42 58Z" fill="#9C9082"/><circle id="dot" cx="49.5" cy="88" r="5.5" fill="#B07A2E"/><path d="M84.14 84.06L81.39 84.06Q81.24 82.75 80.17 82.02Q79.10 81.30 77.48 81.30L77.48 81.30Q75.73 81.30 74.71 82.09Q73.68 82.89 73.68 84.10L73.68 84.10Q73.68 85 74.23 85.57Q74.78 86.14 75.58 86.46Q76.38 86.78 77.12 86.98L77.12 86.98L78.96 87.46Q79.87 87.68 80.82 88.06Q81.77 88.44 82.58 89.06Q83.39 89.67 83.90 90.59Q84.40 91.50 84.40 92.77L84.40 92.77Q84.40 94.37 83.57 95.63Q82.75 96.88 81.19 97.60Q79.63 98.31 77.40 98.31L77.40 98.31Q74.23 98.31 72.35 96.83Q70.47 95.34 70.33 92.77L70.33 92.77L73.19 92.77Q73.32 94.32 74.53 95.06Q75.74 95.81 77.38 95.81L77.38 95.81Q79.20 95.81 80.39 94.97Q81.58 94.13 81.58 92.75L81.58 92.75Q81.58 91.91 81.10 91.37Q80.62 90.83 79.82 90.48Q79.01 90.13 77.99 89.87L77.99 89.87L75.76 89.26Q73.48 88.64 72.16 87.44Q70.84 86.24 70.84 84.26L70.84 84.26Q70.84 82.63 71.72 81.41Q72.61 80.19 74.13 79.51Q75.65 78.83 77.54 78.83L77.54 78.83Q79.46 78.83 80.93 79.51Q82.41 80.18 83.26 81.36Q84.11 82.54 84.14 84.06L84.14 84.06ZM93.26 98.29L93.26 98.29Q91.27 98.29 89.78 97.37Q88.29 96.46 87.47 94.81Q86.65 93.16 86.65 90.97L86.65 90.97Q86.65 88.77 87.47 87.11Q88.29 85.46 89.78 84.55Q91.27 83.63 93.26 83.63L93.26 83.63Q95.26 83.63 96.75 84.55Q98.23 85.46 99.05 87.11Q99.87 88.77 99.87 90.97L99.87 90.97Q99.87 93.16 99.05 94.81Q98.23 96.46 96.75 97.37Q95.26 98.29 93.26 98.29ZM93.27 95.97L93.27 95.97Q94.57 95.97 95.42 95.29Q96.26 94.60 96.67 93.46Q97.08 92.32 97.08 90.96L97.08 90.96Q97.08 89.61 96.67 88.46Q96.26 87.32 95.42 86.63Q94.57 85.94 93.27 85.94L93.27 85.94Q91.97 85.94 91.12 86.63Q90.27 87.32 89.85 88.46Q89.44 89.61 89.44 90.96L89.44 90.96Q89.44 92.32 89.85 93.46Q90.27 94.60 91.12 95.29Q91.97 95.97 93.27 95.97ZM102.65 79.09L105.41 79.09L105.41 98L102.65 98L102.65 79.09ZM112.94 98.31L112.94 98.31Q111.60 98.31 110.51 97.82Q109.43 97.32 108.79 96.35Q108.15 95.39 108.15 93.99L108.15 93.99Q108.15 92.78 108.62 92.01Q109.09 91.23 109.87 90.78Q110.65 90.33 111.61 90.10Q112.58 89.88 113.59 89.75L113.59 89.75Q114.86 89.61 115.65 89.51Q116.44 89.41 116.81 89.19Q117.17 88.97 117.17 88.47L117.17 88.47L117.17 88.41Q117.17 87.20 116.49 86.53Q115.82 85.87 114.48 85.87L114.48 85.87Q113.08 85.87 112.28 86.48Q111.49 87.09 111.18 87.84L111.18 87.84L108.59 87.25Q109.28 85.31 110.90 84.47Q112.52 83.63 114.44 83.63L114.44 83.63Q115.29 83.63 116.24 83.83Q117.19 84.03 118.04 84.56Q118.88 85.09 119.41 86.06Q119.94 87.03 119.94 88.58L119.94 88.58L119.94 98L117.25 98L117.25 96.06L117.14 96.06Q116.74 96.86 115.72 97.58Q114.71 98.31 112.94 98.31ZM113.54 96.10L113.54 96.10Q114.70 96.10 115.51 95.65Q116.32 95.19 116.75 94.46Q117.18 93.73 117.18 92.88L117.18 92.88L117.18 91.06Q116.99 91.25 116.33 91.40Q115.68 91.55 114.95 91.65Q114.22 91.75 113.77 91.81L113.77 91.81Q112.57 91.97 111.71 92.45Q110.86 92.92 110.86 94.03L110.86 94.03Q110.86 95.05 111.61 95.58Q112.37 96.10 113.54 96.10ZM126.08 98L123.32 98L123.32 83.82L125.99 83.82L125.99 86.07L126.13 86.07Q126.52 84.93 127.50 84.27Q128.49 83.61 129.73 83.61L129.73 83.61Q130.00 83.61 130.35 83.62Q130.70 83.64 130.91 83.67L130.91 83.67L130.91 86.31Q130.74 86.26 130.32 86.20Q129.90 86.14 129.47 86.14L129.47 86.14Q128.00 86.14 127.04 87.05Q126.08 87.95 126.08 89.34L126.08 89.34L126.08 98ZM152.88 84.06L150.13 84.06Q149.98 82.75 148.91 82.02Q147.84 81.30 146.22 81.30L146.22 81.30Q144.47 81.30 143.45 82.09Q142.42 82.89 142.42 84.10L142.42 84.10Q142.42 85 142.97 85.57Q143.52 86.14 144.32 86.46Q145.12 86.78 145.86 86.98L145.86 86.98L147.70 87.46Q148.61 87.68 149.56 88.06Q150.51 88.44 151.32 89.06Q152.13 89.67 152.64 90.59Q153.14 91.50 153.14 92.77L153.14 92.77Q153.14 94.37 152.31 95.63Q151.49 96.88 149.93 97.60Q148.37 98.31 146.14 98.31L146.14 98.31Q142.97 98.31 141.09 96.83Q139.21 95.34 139.07 92.77L139.07 92.77L141.93 92.77Q142.06 94.32 143.27 95.06Q144.48 95.81 146.12 95.81L146.12 95.81Q147.94 95.81 149.13 94.97Q150.32 94.13 150.32 92.75L150.32 92.75Q150.32 91.91 149.84 91.37Q149.36 90.83 148.56 90.48Q147.75 90.13 146.73 89.87L146.73 89.87L144.50 89.26Q142.22 88.64 140.90 87.44Q139.58 86.24 139.58 84.26L139.58 84.26Q139.58 82.63 140.46 81.41Q141.35 80.19 142.87 79.51Q144.39 78.83 146.28 78.83L146.28 78.83Q148.20 78.83 149.67 79.51Q151.15 80.18 152.00 81.36Q152.84 82.54 152.88 84.06L152.88 84.06ZM157.77 103.32L157.77 103.32Q157.15 103.32 156.64 103.22Q156.14 103.12 155.89 103.01L155.89 103.01L156.55 100.75Q157.69 101.07 158.46 100.80Q159.23 100.54 159.76 99.13L159.76 99.13L160.10 98.18L154.91 83.82L157.86 83.82L161.45 94.82L161.60 94.82L165.19 83.82L168.16 83.82L162.31 99.89Q161.69 101.56 160.59 102.44Q159.48 103.32 157.77 103.32ZM181.08 87.28L181.08 87.28L178.58 87.72Q178.34 87.01 177.69 86.42Q177.04 85.82 175.74 85.82L175.74 85.82Q174.57 85.82 173.78 86.34Q172.99 86.87 173.00 87.69L173.00 87.69Q172.99 88.41 173.52 88.84Q174.05 89.27 175.23 89.54L175.23 89.54L177.48 90.06Q181.36 90.96 181.36 93.90L181.36 93.90Q181.36 95.18 180.62 96.17Q179.89 97.16 178.58 97.72Q177.28 98.29 175.56 98.29L175.56 98.29Q173.17 98.29 171.67 97.27Q170.18 96.25 169.82 94.36L169.82 94.36L172.49 93.96Q172.99 96.06 175.54 96.06L175.54 96.06Q176.90 96.06 177.71 95.49Q178.52 94.93 178.52 94.10L178.52 94.10Q178.52 92.75 176.52 92.30L176.52 92.30L174.12 91.78Q172.12 91.33 171.18 90.34Q170.24 89.34 170.24 87.83L170.24 87.83Q170.24 86.58 170.94 85.63Q171.64 84.69 172.88 84.16Q174.12 83.63 175.72 83.63L175.72 83.63Q178.01 83.63 179.33 84.63Q180.65 85.63 181.08 87.28ZM187.80 83.82L190.70 83.82L190.70 86.03L187.80 86.03L187.80 93.84Q187.80 95.04 188.31 95.38Q188.82 95.73 189.50 95.73L189.50 95.73Q189.83 95.73 190.08 95.68Q190.33 95.64 190.46 95.61L190.46 95.61L190.96 97.89Q190.72 97.98 190.28 98.08Q189.83 98.18 189.17 98.18L189.17 98.18Q188.08 98.20 187.14 97.80Q186.19 97.39 185.61 96.54Q185.04 95.69 185.04 94.41L185.04 94.41L185.04 86.03L182.96 86.03L182.96 83.82L185.04 83.82L185.04 80.42L187.80 80.42L187.80 83.82ZM199.56 98.29L199.56 98.29Q197.48 98.29 195.96 97.38Q194.45 96.48 193.63 94.84Q192.81 93.20 192.81 91.00L192.81 91.00Q192.81 88.82 193.63 87.16Q194.45 85.50 195.92 84.57Q197.39 83.63 199.37 83.63L199.37 83.63Q200.98 83.63 202.41 84.35Q203.85 85.06 204.75 86.63Q205.65 88.19 205.65 90.76L205.65 90.76L205.65 91.74L195.57 91.74Q195.62 93.79 196.72 94.90Q197.82 96.01 199.59 96.01L199.59 96.01Q200.77 96.01 201.63 95.50Q202.49 94.99 202.86 93.98L202.86 93.98L205.47 94.45Q205.00 96.18 203.44 97.23Q201.88 98.29 199.56 98.29ZM195.58 89.67L195.58 89.67L202.94 89.67Q202.93 88.05 201.96 86.98Q201.00 85.91 199.39 85.91L199.39 85.91Q198.27 85.91 197.44 86.44Q196.60 86.96 196.12 87.81Q195.63 88.67 195.58 89.67ZM211.18 98L208.42 98L208.42 83.82L211.07 83.82L211.07 86.13L211.25 86.13Q211.69 84.95 212.70 84.29Q213.70 83.63 215.11 83.63L215.11 83.63Q216.53 83.63 217.49 84.30Q218.46 84.96 218.92 86.13L218.92 86.13L219.07 86.13Q219.59 84.99 220.69 84.31Q221.79 83.63 223.33 83.63L223.33 83.63Q225.25 83.63 226.48 84.85Q227.70 86.06 227.70 88.49L227.70 88.49L227.70 98L224.94 98L224.94 88.75Q224.94 87.31 224.16 86.66Q223.38 86.02 222.28 86.02L222.28 86.02Q220.93 86.02 220.19 86.85Q219.44 87.68 219.44 88.96L219.44 88.96L219.44 98L216.69 98L216.69 88.57Q216.69 87.42 215.97 86.72Q215.25 86.02 214.09 86.02L214.09 86.02Q212.92 86.02 212.05 86.92Q211.18 87.83 211.18 89.26L211.18 89.26L211.18 98Z" fill="#FAF6F0"/><path d="M54.98 126.18L56.63 126.18L56.63 140L55.01 140L47.48 129.15L47.35 129.15L47.35 140L45.67 140L45.67 126.18L47.29 126.18L54.85 137.06L54.98 137.06L54.98 126.18ZM59.65 133.33L65.70 133.33L65.70 134.82L59.65 134.82L59.65 133.33ZM70.26 140L68.72 140L68.72 126.18L70.31 126.18L70.31 131.28L70.45 131.28Q70.62 131.01 70.94 130.59Q71.25 130.17 71.84 129.84Q72.43 129.50 73.44 129.50L73.44 129.50Q74.75 129.50 75.75 130.16Q76.75 130.81 77.31 132.01Q77.87 133.21 77.87 134.85L77.87 134.85Q77.87 136.49 77.31 137.70Q76.75 138.90 75.76 139.56Q74.77 140.22 73.47 140.22L73.47 140.22Q72.47 140.22 71.87 139.88Q71.27 139.55 70.95 139.12Q70.62 138.69 70.45 138.41L70.45 138.41L70.26 138.41L70.26 140ZM70.29 134.82L70.29 134.82Q70.29 136.58 71.05 137.68Q71.82 138.79 73.26 138.79L73.26 138.79Q74.25 138.79 74.93 138.26Q75.60 137.73 75.94 136.83Q76.28 135.92 76.28 134.82L76.28 134.82Q76.28 133.73 75.94 132.84Q75.61 131.96 74.94 131.45Q74.27 130.93 73.26 130.93L73.26 130.93Q71.80 130.93 71.04 132.00Q70.29 133.08 70.29 134.82ZM84.51 140.22L84.51 140.22Q83.11 140.22 82.05 139.55Q80.99 138.88 80.40 137.68Q79.81 136.48 79.81 134.87L79.81 134.87Q79.81 133.25 80.40 132.05Q80.99 130.84 82.05 130.17Q83.11 129.50 84.51 129.50L84.51 129.50Q85.91 129.50 86.97 130.17Q88.03 130.84 88.62 132.05Q89.21 133.25 89.21 134.87L89.21 134.87Q89.21 136.48 88.62 137.68Q88.03 138.88 86.97 139.55Q85.91 140.22 84.51 140.22ZM84.51 138.79L84.51 138.79Q85.58 138.79 86.26 138.24Q86.95 137.69 87.28 136.80Q87.61 135.91 87.61 134.87L87.61 134.87Q87.61 133.83 87.28 132.94Q86.95 132.04 86.26 131.49Q85.58 130.93 84.51 130.93L84.51 130.93Q83.44 130.93 82.76 131.49Q82.07 132.04 81.74 132.94Q81.41 133.83 81.41 134.87L81.41 134.87Q81.41 135.91 81.74 136.80Q82.07 137.69 82.76 138.24Q83.44 138.79 84.51 138.79ZM95.55 140.22L95.55 140.22Q94.25 140.22 93.26 139.56Q92.27 138.90 91.71 137.70Q91.15 136.49 91.15 134.85L91.15 134.85Q91.15 133.21 91.71 132.01Q92.27 130.81 93.27 130.16Q94.27 129.50 95.58 129.50L95.58 129.50Q96.59 129.50 97.18 129.84Q97.77 130.17 98.08 130.59Q98.40 131.01 98.57 131.28L98.57 131.28L98.71 131.28L98.71 126.18L100.30 126.18L100.30 140L98.76 140L98.76 138.41L98.57 138.41Q98.40 138.69 98.07 139.12Q97.75 139.55 97.15 139.88Q96.55 140.22 95.55 140.22ZM95.76 138.79L95.76 138.79Q97.20 138.79 97.97 137.68Q98.73 136.58 98.73 134.82L98.73 134.82Q98.73 133.08 97.98 132.00Q97.22 130.93 95.76 130.93L95.76 130.93Q94.75 130.93 94.08 131.45Q93.41 131.96 93.08 132.84Q92.74 133.73 92.74 134.82L92.74 134.82Q92.74 135.92 93.08 136.83Q93.42 137.73 94.09 138.26Q94.77 138.79 95.76 138.79ZM104.45 143.89L104.45 143.89Q104.05 143.89 103.73 143.82Q103.42 143.76 103.29 143.70L103.29 143.70L103.70 142.29Q104.28 142.44 104.72 142.40Q105.17 142.36 105.52 142.01Q105.86 141.65 106.15 140.86L106.15 140.86L106.45 140.05L102.62 129.64L104.35 129.64L107.21 137.89L107.32 137.89L110.18 129.64L111.90 129.64L107.50 141.51Q106.62 143.89 104.45 143.89ZM123.54 144.10L123.54 144.10Q121.80 144.10 120.79 143.47Q119.78 142.84 119.30 142.02L119.30 142.02L120.57 141.13Q120.78 141.42 121.11 141.78Q121.44 142.15 122.02 142.43Q122.60 142.70 123.54 142.70L123.54 142.70Q124.79 142.70 125.61 142.09Q126.42 141.48 126.42 140.19L126.42 140.19L126.42 138.08L126.29 138.08Q126.11 138.37 125.79 138.78Q125.47 139.20 124.87 139.52Q124.28 139.84 123.27 139.84L123.27 139.84Q122.01 139.84 121.02 139.24Q120.02 138.65 119.44 137.52Q118.87 136.38 118.87 134.76L118.87 134.76Q118.87 133.17 119.43 131.99Q119.99 130.80 120.99 130.15Q121.98 129.50 123.29 129.50L123.29 129.50Q124.30 129.50 124.90 129.84Q125.50 130.17 125.82 130.59Q126.14 131.01 126.32 131.28L126.32 131.28L126.48 131.28L126.48 129.64L128.02 129.64L128.02 140.30Q128.02 141.63 127.41 142.47Q126.81 143.31 125.79 143.71Q124.78 144.10 123.54 144.10ZM123.48 138.41L123.48 138.41Q124.92 138.41 125.68 137.43Q126.45 136.46 126.45 134.74L126.45 134.74Q126.45 133.06 125.69 131.99Q124.94 130.93 123.48 130.93L123.48 130.93Q122.47 130.93 121.80 131.44Q121.13 131.96 120.79 132.82Q120.46 133.68 120.46 134.74L120.46 134.74Q120.46 136.36 121.22 137.38Q121.98 138.41 123.48 138.41ZM132.52 140L130.93 140L130.93 129.64L132.47 129.64L132.47 131.20L132.58 131.20Q132.86 130.43 133.60 129.95Q134.34 129.47 135.28 129.47L135.28 129.47Q135.45 129.47 135.71 129.48Q135.98 129.49 136.11 129.50L136.11 129.50L136.11 131.12Q136.03 131.10 135.74 131.06Q135.46 131.01 135.14 131.01L135.14 131.01Q134.01 131.01 133.26 131.70Q132.52 132.39 132.52 133.44L132.52 133.44L132.52 140ZM141.05 140.24L141.05 140.24Q140.07 140.24 139.26 139.87Q138.46 139.49 137.99 138.78Q137.52 138.07 137.52 137.06L137.52 137.06Q137.52 136.17 137.87 135.61Q138.22 135.05 138.80 134.74Q139.39 134.42 140.10 134.26Q140.81 134.10 141.54 134.01L141.54 134.01Q142.48 133.89 143.07 133.82Q143.66 133.76 143.94 133.60Q144.21 133.45 144.21 133.06L144.21 133.06L144.21 133.01Q144.21 132.01 143.67 131.46Q143.12 130.90 142.02 130.90L142.02 130.90Q140.88 130.90 140.23 131.40Q139.59 131.90 139.32 132.47L139.32 132.47L137.81 131.93Q138.22 130.99 138.90 130.46Q139.57 129.93 140.38 129.71Q141.19 129.50 141.97 129.50L141.97 129.50Q142.47 129.50 143.12 129.62Q143.77 129.74 144.38 130.10Q144.99 130.47 145.40 131.20Q145.80 131.94 145.80 133.17L145.80 133.17L145.80 140L144.21 140L144.21 138.60L144.13 138.60Q143.97 138.93 143.59 139.32Q143.21 139.70 142.58 139.97Q141.96 140.24 141.05 140.24ZM141.29 138.81L141.29 138.81Q142.24 138.81 142.89 138.44Q143.54 138.07 143.87 137.48Q144.21 136.90 144.21 136.25L144.21 136.25L144.21 134.79Q144.11 134.91 143.77 135.01Q143.43 135.11 142.98 135.18Q142.54 135.25 142.13 135.30Q141.71 135.35 141.46 135.38L141.46 135.38Q140.84 135.47 140.30 135.64Q139.76 135.82 139.44 136.18Q139.11 136.53 139.11 137.14L139.11 137.14Q139.11 137.97 139.73 138.39Q140.34 138.81 141.29 138.81ZM155.46 129.64L157.19 129.64L153.36 140L151.74 140L147.91 129.64L149.63 129.64L152.49 137.89L152.60 137.89L155.46 129.64ZM160.89 140L159.30 140L159.30 129.64L160.89 129.64L160.89 140ZM160.11 127.91L160.11 127.91Q159.64 127.91 159.31 127.59Q158.97 127.27 158.97 126.83L158.97 126.83Q158.97 126.38 159.31 126.07Q159.64 125.75 160.11 125.75L160.11 125.75Q160.57 125.75 160.90 126.07Q161.24 126.38 161.24 126.83L161.24 126.83Q161.24 127.27 160.90 127.59Q160.57 127.91 160.11 127.91ZM166.10 129.64L168.31 129.64L168.31 130.99L166.10 130.99L166.10 137.03Q166.10 137.71 166.30 138.04Q166.49 138.37 166.81 138.49Q167.12 138.60 167.47 138.60L167.47 138.60Q167.74 138.60 167.90 138.57Q168.07 138.54 168.17 138.52L168.17 138.52L168.50 139.95Q168.34 140.01 168.05 140.07Q167.76 140.13 167.31 140.13L167.31 140.13Q166.64 140.13 165.99 139.84Q165.35 139.55 164.93 138.96Q164.50 138.37 164.50 137.46L164.50 137.46L164.50 130.99L162.94 130.99L162.94 129.64L164.50 129.64L164.50 127.15L166.10 127.15L166.10 129.64ZM171.74 143.89L171.74 143.89Q171.33 143.89 171.02 143.82Q170.70 143.76 170.58 143.70L170.58 143.70L170.98 142.29Q171.56 142.44 172.01 142.40Q172.45 142.36 172.80 142.01Q173.15 141.65 173.44 140.86L173.44 140.86L173.73 140.05L169.90 129.64L171.63 129.64L174.49 137.89L174.60 137.89L177.46 129.64L179.19 129.64L174.79 141.51Q173.90 143.89 171.74 143.89ZM188.23 140L186.63 140L186.63 129.64L188.23 129.64L188.23 140ZM187.44 127.91L187.44 127.91Q186.98 127.91 186.65 127.59Q186.31 127.27 186.31 126.83L186.31 126.83Q186.31 126.38 186.65 126.07Q186.98 125.75 187.44 125.75L187.44 125.75Q187.91 125.75 188.24 126.07Q188.58 126.38 188.58 126.83L188.58 126.83Q188.58 127.27 188.24 127.59Q187.91 127.91 187.44 127.91ZM192.73 133.77L192.73 133.77L192.73 140L191.14 140L191.14 129.64L192.68 129.64L192.68 131.26L192.82 131.26Q193.18 130.47 193.92 129.98Q194.66 129.50 195.84 129.50L195.84 129.50Q197.41 129.50 198.38 130.47Q199.35 131.43 199.35 133.41L199.35 133.41L199.35 140L197.75 140L197.75 133.52Q197.75 132.30 197.12 131.62Q196.49 130.93 195.38 130.93L195.38 130.93Q194.24 130.93 193.49 131.67Q192.73 132.41 192.73 133.77ZM216.89 135.20L216.89 126.18L218.56 126.18L218.56 135.33Q218.56 136.75 217.90 137.86Q217.23 138.97 216.03 139.61Q214.82 140.24 213.19 140.24L213.19 140.24Q211.57 140.24 210.36 139.61Q209.15 138.97 208.49 137.86Q207.82 136.75 207.82 135.33L207.82 135.33L207.82 126.18L209.49 126.18L209.49 135.20Q209.49 136.71 210.48 137.70Q211.46 138.68 213.19 138.68L213.19 138.68Q214.93 138.68 215.91 137.70Q216.89 136.71 216.89 135.20L216.89 135.20ZM223.29 133.77L223.29 133.77L223.29 140L221.69 140L221.69 129.64L223.23 129.64L223.23 131.26L223.37 131.26Q223.73 130.47 224.47 129.98Q225.22 129.50 226.39 129.50L226.39 129.50Q227.96 129.50 228.93 130.47Q229.90 131.43 229.90 133.41L229.90 133.41L229.90 140L228.31 140L228.31 133.52Q228.31 132.30 227.67 131.62Q227.04 130.93 225.93 130.93L225.93 130.93Q224.79 130.93 224.04 131.67Q223.29 132.41 223.29 133.77ZM234.40 140L232.81 140L232.81 129.64L234.35 129.64L234.35 131.20L234.46 131.20Q234.74 130.43 235.48 129.95Q236.23 129.47 237.16 129.47L237.16 129.47Q237.33 129.47 237.60 129.48Q237.86 129.49 237.99 129.50L237.99 129.50L237.99 131.12Q237.91 131.10 237.63 131.06Q237.34 131.01 237.02 131.01L237.02 131.01Q235.89 131.01 235.15 131.70Q234.40 132.39 234.40 133.44L234.40 133.44L234.40 140ZM244.23 140.22L244.23 140.22Q242.73 140.22 241.65 139.55Q240.56 138.89 239.98 137.69Q239.40 136.49 239.40 134.90L239.40 134.90Q239.40 133.31 239.98 132.09Q240.56 130.87 241.61 130.19Q242.66 129.50 244.07 129.50L244.07 129.50Q244.88 129.50 245.67 129.77Q246.46 130.04 247.10 130.65Q247.75 131.25 248.14 132.24Q248.52 133.23 248.52 134.68L248.52 134.68L248.52 135.36L241.00 135.36Q241.05 137.02 241.94 137.90Q242.83 138.79 244.23 138.79L244.23 138.79Q245.17 138.79 245.84 138.38Q246.52 137.98 246.82 137.17L246.82 137.17L248.36 137.60Q247.99 138.77 246.90 139.49Q245.81 140.22 244.23 140.22ZM241.00 133.98L241.00 133.98L246.90 133.98Q246.90 132.67 246.13 131.80Q245.36 130.93 244.07 130.93L244.07 130.93Q243.16 130.93 242.49 131.36Q241.82 131.78 241.44 132.48Q241.05 133.18 241.00 133.98ZM254.00 140.24L254.00 140.24Q253.01 140.24 252.21 139.87Q251.41 139.49 250.94 138.78Q250.46 138.07 250.46 137.06L250.46 137.06Q250.46 136.17 250.81 135.61Q251.16 135.05 251.75 134.74Q252.34 134.42 253.05 134.26Q253.76 134.10 254.48 134.01L254.48 134.01Q255.43 133.89 256.02 133.82Q256.61 133.76 256.88 133.60Q257.16 133.45 257.16 133.06L257.16 133.06L257.16 133.01Q257.16 132.01 256.61 131.46Q256.07 130.90 254.97 130.90L254.97 130.90Q253.83 130.90 253.18 131.40Q252.53 131.90 252.27 132.47L252.27 132.47L250.76 131.93Q251.16 130.99 251.84 130.46Q252.52 129.93 253.33 129.71Q254.13 129.50 254.92 129.50L254.92 129.50Q255.42 129.50 256.07 129.62Q256.72 129.74 257.33 130.10Q257.94 130.47 258.34 131.20Q258.75 131.94 258.75 133.17L258.75 133.17L258.75 140L257.16 140L257.16 138.60L257.08 138.60Q256.91 138.93 256.54 139.32Q256.16 139.70 255.53 139.97Q254.90 140.24 254.00 140.24ZM254.24 138.81L254.24 138.81Q255.19 138.81 255.84 138.44Q256.49 138.07 256.82 137.48Q257.16 136.90 257.16 136.25L257.16 136.25L257.16 134.79Q257.06 134.91 256.71 135.01Q256.37 135.11 255.93 135.18Q255.49 135.25 255.07 135.30Q254.66 135.35 254.40 135.38L254.40 135.38Q253.78 135.47 253.25 135.64Q252.71 135.82 252.38 136.18Q252.06 136.53 252.06 137.14L252.06 137.14Q252.06 137.97 252.67 138.39Q253.29 138.81 254.24 138.81ZM261.66 126.18L263.26 126.18L263.26 140L261.66 140L261.66 126.18ZM282.85 130.50L282.85 130.50L281.18 130.50Q280.97 129.54 280.40 128.89Q279.83 128.23 279.02 127.90Q278.21 127.56 277.29 127.56L277.29 127.56Q276.03 127.56 275.02 128.19Q274.00 128.83 273.41 130.06Q272.81 131.30 272.81 133.09L272.81 133.09Q272.81 134.89 273.41 136.12Q274.00 137.36 275.02 137.99Q276.03 138.62 277.29 138.62L277.29 138.62Q278.21 138.62 279.02 138.29Q279.83 137.95 280.40 137.29Q280.97 136.64 281.18 135.68L281.18 135.68L282.85 135.68Q282.59 137.10 281.80 138.11Q281.01 139.12 279.85 139.65Q278.68 140.19 277.29 140.19L277.29 140.19Q275.52 140.19 274.15 139.33Q272.77 138.46 271.98 136.87Q271.19 135.28 271.19 133.09L271.19 133.09Q271.19 130.90 271.98 129.31Q272.77 127.72 274.15 126.86Q275.52 125.99 277.29 125.99L277.29 125.99Q278.68 125.99 279.85 126.53Q281.01 127.07 281.80 128.07Q282.59 129.08 282.85 130.50ZM290.89 139.06L289.38 139.06L289.38 135.36L285.68 135.36L285.68 133.85L289.38 133.85L289.38 130.15L290.89 130.15L290.89 133.85L294.59 133.85L294.59 135.36L290.89 135.36L290.89 139.06ZM303.41 139.06L301.90 139.06L301.90 135.36L298.21 135.36L298.21 133.85L301.90 133.85L301.90 130.15L303.41 130.15L303.41 133.85L307.11 133.85L307.11 135.36L303.41 135.36L303.41 139.06ZM311.03 138.11L312.75 138.11L312.64 138.84Q312.53 139.61 312.30 140.49Q312.06 141.36 311.81 142.14Q311.57 142.91 311.40 143.37L311.40 143.37L310.19 143.37Q310.28 142.94 310.42 142.23Q310.56 141.52 310.71 140.65Q310.85 139.78 310.94 138.87L310.94 138.87L311.03 138.11Z" fill="#9C9082"/><path d="M49.37 170.22L49.37 170.22Q48.08 170.22 47.08 169.56Q46.09 168.90 45.53 167.70Q44.97 166.49 44.97 164.85L44.97 164.85Q44.97 163.21 45.53 162.01Q46.09 160.81 47.09 160.16Q48.09 159.50 49.40 159.50L49.40 159.50Q50.41 159.50 51.00 159.84Q51.59 160.17 51.90 160.59Q52.22 161.01 52.39 161.28L52.39 161.28L52.53 161.28L52.53 156.18L54.12 156.18L54.12 170L52.58 170L52.58 168.41L52.39 168.41Q52.22 168.69 51.89 169.12Q51.57 169.55 50.97 169.88Q50.37 170.22 49.37 170.22ZM49.59 168.79L49.59 168.79Q51.02 168.79 51.79 167.68Q52.56 166.58 52.56 164.82L52.56 164.82Q52.56 163.08 51.80 162.00Q51.04 160.93 49.59 160.93L49.59 160.93Q48.57 160.93 47.90 161.45Q47.23 161.96 46.90 162.84Q46.56 163.73 46.56 164.82L46.56 164.82Q46.56 165.92 46.90 166.83Q47.25 167.73 47.92 168.26Q48.59 168.79 49.59 168.79ZM61.46 170.22L61.46 170.22Q60.06 170.22 59.00 169.55Q57.95 168.88 57.36 167.68Q56.77 166.48 56.77 164.87L56.77 164.87Q56.77 163.25 57.36 162.05Q57.95 160.84 59.00 160.17Q60.06 159.50 61.46 159.50L61.46 159.50Q62.87 159.50 63.92 160.17Q64.98 160.84 65.57 162.05Q66.16 163.25 66.16 164.87L66.16 164.87Q66.16 166.48 65.57 167.68Q64.98 168.88 63.92 169.55Q62.87 170.22 61.46 170.22ZM61.46 168.79L61.46 168.79Q62.53 168.79 63.22 168.24Q63.90 167.69 64.23 166.80Q64.57 165.91 64.57 164.87L64.57 164.87Q64.57 163.83 64.23 162.94Q63.90 162.04 63.22 161.49Q62.53 160.93 61.46 160.93L61.46 160.93Q60.40 160.93 59.71 161.49Q59.02 162.04 58.69 162.94Q58.36 163.83 58.36 164.87L58.36 164.87Q58.36 165.91 58.69 166.80Q59.02 167.69 59.71 168.24Q60.40 168.79 61.46 168.79ZM72.80 170.22L72.80 170.22Q71.34 170.22 70.29 169.53Q69.23 168.84 68.67 167.63Q68.10 166.42 68.10 164.87L68.10 164.87Q68.10 163.29 68.68 162.08Q69.27 160.87 70.32 160.19Q71.37 159.50 72.77 159.50L72.77 159.50Q73.86 159.50 74.74 159.91Q75.62 160.31 76.18 161.04Q76.74 161.77 76.87 162.74L76.87 162.74L75.28 162.74Q75.10 162.03 74.47 161.48Q73.85 160.93 72.80 160.93L72.80 160.93Q71.40 160.93 70.55 161.99Q69.69 163.06 69.69 164.82L69.69 164.82Q69.69 166.62 70.54 167.70Q71.38 168.79 72.80 168.79L72.80 168.79Q73.73 168.79 74.39 168.31Q75.06 167.83 75.28 166.98L75.28 166.98L76.87 166.98Q76.74 167.89 76.21 168.63Q75.68 169.36 74.81 169.79Q73.94 170.22 72.80 170.22ZM85.72 165.76L85.72 165.76L85.72 159.64L87.32 159.64L87.32 170L85.72 170L85.72 168.25L85.62 168.25Q85.25 169.04 84.48 169.59Q83.71 170.13 82.54 170.13L82.54 170.13Q81.08 170.13 80.14 169.17Q79.19 168.21 79.19 166.22L79.19 166.22L79.19 159.64L80.79 159.64L80.79 166.11Q80.79 167.25 81.42 167.92Q82.06 168.60 83.05 168.60L83.05 168.60Q83.65 168.60 84.26 168.29Q84.88 167.99 85.30 167.36Q85.72 166.73 85.72 165.76ZM91.82 170L90.23 170L90.23 159.64L91.77 159.64L91.77 161.26L91.90 161.26Q92.23 160.43 92.95 159.96Q93.67 159.50 94.68 159.50L94.68 159.50Q95.71 159.50 96.40 159.96Q97.08 160.43 97.46 161.26L97.46 161.26L97.57 161.26Q97.97 160.45 98.77 159.98Q99.56 159.50 100.68 159.50L100.68 159.50Q102.07 159.50 102.95 160.37Q103.83 161.24 103.83 163.06L103.83 163.06L103.83 170L102.24 170L102.24 163.06Q102.24 161.92 101.61 161.42Q100.99 160.93 100.14 160.93L100.14 160.93Q99.04 160.93 98.44 161.59Q97.84 162.25 97.84 163.25L97.84 163.25L97.84 170L96.22 170L96.22 162.90Q96.22 162.02 95.65 161.47Q95.08 160.93 94.17 160.93L94.17 160.93Q93.55 160.93 93.01 161.26Q92.48 161.59 92.15 162.18Q91.82 162.76 91.82 163.52L91.82 163.52L91.82 170ZM111.09 170.22L111.09 170.22Q109.60 170.22 108.51 169.55Q107.43 168.89 106.85 167.69Q106.26 166.49 106.26 164.90L106.26 164.90Q106.26 163.31 106.85 162.09Q107.43 160.87 108.48 160.19Q109.53 159.50 110.93 159.50L110.93 159.50Q111.74 159.50 112.53 159.77Q113.32 160.04 113.97 160.65Q114.62 161.25 115.00 162.24Q115.38 163.23 115.38 164.68L115.38 164.68L115.38 165.36L107.86 165.36Q107.92 167.02 108.80 167.90Q109.69 168.79 111.09 168.79L111.09 168.79Q112.03 168.79 112.71 168.38Q113.38 167.98 113.68 167.17L113.68 167.17L115.22 167.60Q114.86 168.77 113.77 169.49Q112.67 170.22 111.09 170.22ZM107.86 163.98L107.86 163.98L113.77 163.98Q113.77 162.67 113.00 161.80Q112.23 160.93 110.93 160.93L110.93 160.93Q110.02 160.93 109.35 161.36Q108.69 161.78 108.30 162.48Q107.92 163.18 107.86 163.98ZM119.41 163.77L119.41 163.77L119.41 170L117.81 170L117.81 159.64L119.35 159.64L119.35 161.26L119.49 161.26Q119.85 160.47 120.59 159.98Q121.34 159.50 122.51 159.50L122.51 159.50Q124.08 159.50 125.05 160.47Q126.02 161.43 126.02 163.41L126.02 163.41L126.02 170L124.43 170L124.43 163.52Q124.43 162.30 123.79 161.62Q123.16 160.93 122.05 160.93L122.05 160.93Q120.91 160.93 120.16 161.67Q119.41 162.41 119.41 163.77ZM131.23 159.64L133.44 159.64L133.44 160.99L131.23 160.99L131.23 167.03Q131.23 167.71 131.43 168.04Q131.63 168.37 131.94 168.49Q132.25 168.60 132.60 168.60L132.60 168.60Q132.87 168.60 133.04 168.57Q133.20 168.54 133.31 168.52L133.31 168.52L133.63 169.95Q133.47 170.01 133.18 170.07Q132.89 170.13 132.44 170.13L132.44 170.13Q131.77 170.13 131.12 169.84Q130.48 169.55 130.06 168.96Q129.63 168.37 129.63 167.46L129.63 167.46L129.63 160.99L128.07 160.99L128.07 159.64L129.63 159.64L129.63 157.15L131.23 157.15L131.23 159.64ZM140.19 170.22L140.19 170.22Q138.69 170.22 137.61 169.55Q136.52 168.89 135.94 167.69Q135.36 166.49 135.36 164.90L135.36 164.90Q135.36 163.31 135.94 162.09Q136.52 160.87 137.57 160.19Q138.62 159.50 140.03 159.50L140.03 159.50Q140.84 159.50 141.62 159.77Q142.41 160.04 143.06 160.65Q143.71 161.25 144.09 162.24Q144.48 163.23 144.48 164.68L144.48 164.68L144.48 165.36L136.96 165.36Q137.01 167.02 137.90 167.90Q138.78 168.79 140.19 168.79L140.19 168.79Q141.13 168.79 141.80 168.38Q142.47 167.98 142.78 167.17L142.78 167.17L144.32 167.60Q143.95 168.77 142.86 169.49Q141.77 170.22 140.19 170.22ZM136.96 163.98L136.96 163.98L142.86 163.98Q142.86 162.67 142.09 161.80Q141.32 160.93 140.03 160.93L140.03 160.93Q139.11 160.93 138.45 161.36Q137.78 161.78 137.39 162.48Q137.01 163.18 136.96 163.98ZM150.82 170.22L150.82 170.22Q149.53 170.22 148.53 169.56Q147.54 168.90 146.98 167.70Q146.42 166.49 146.42 164.85L146.42 164.85Q146.42 163.21 146.98 162.01Q147.54 160.81 148.54 160.16Q149.54 159.50 150.85 159.50L150.85 159.50Q151.86 159.50 152.45 159.84Q153.04 160.17 153.35 160.59Q153.67 161.01 153.84 161.28L153.84 161.28L153.98 161.28L153.98 156.18L155.57 156.18L155.57 170L154.03 170L154.03 168.41L153.84 168.41Q153.67 168.69 153.34 169.12Q153.02 169.55 152.42 169.88Q151.82 170.22 150.82 170.22ZM151.04 168.79L151.04 168.79Q152.47 168.79 153.24 167.68Q154.01 166.58 154.01 164.82L154.01 164.82Q154.01 163.08 153.25 162.00Q152.49 160.93 151.04 160.93L151.04 160.93Q150.02 160.93 149.35 161.45Q148.68 161.96 148.35 162.84Q148.01 163.73 148.01 164.82L148.01 164.82Q148.01 165.92 148.35 166.83Q148.70 167.73 149.37 168.26Q150.04 168.79 151.04 168.79ZM167.10 170.24L167.10 170.24Q166.11 170.24 165.31 169.87Q164.50 169.49 164.03 168.78Q163.56 168.07 163.56 167.06L163.56 167.06Q163.56 166.17 163.91 165.61Q164.26 165.05 164.85 164.74Q165.44 164.42 166.15 164.26Q166.86 164.10 167.58 164.01L167.58 164.01Q168.53 163.89 169.12 163.82Q169.71 163.76 169.98 163.60Q170.25 163.45 170.25 163.06L170.25 163.06L170.25 163.01Q170.25 162.01 169.71 161.46Q169.17 160.90 168.07 160.90L168.07 160.90Q166.93 160.90 166.28 161.40Q165.63 161.90 165.37 162.47L165.37 162.47L163.86 161.93Q164.26 160.99 164.94 160.46Q165.62 159.93 166.42 159.71Q167.23 159.50 168.01 159.50L168.01 159.50Q168.51 159.50 169.16 159.62Q169.81 159.74 170.42 160.10Q171.04 160.47 171.44 161.20Q171.85 161.94 171.85 163.17L171.85 163.17L171.85 170L170.25 170L170.25 168.60L170.17 168.60Q170.01 168.93 169.63 169.32Q169.25 169.70 168.63 169.97Q168.00 170.24 167.10 170.24ZM167.34 168.81L167.34 168.81Q168.28 168.81 168.93 168.44Q169.58 168.07 169.92 167.48Q170.25 166.90 170.25 166.25L170.25 166.25L170.25 164.79Q170.15 164.91 169.81 165.01Q169.47 165.11 169.03 165.18Q168.59 165.25 168.17 165.30Q167.76 165.35 167.50 165.38L167.50 165.38Q166.88 165.47 166.34 165.64Q165.81 165.82 165.48 166.18Q165.15 166.53 165.15 167.14L165.15 167.14Q165.15 167.97 165.77 168.39Q166.39 168.81 167.34 168.81ZM182.10 161.96L182.10 161.96L180.67 162.36Q180.46 161.82 179.97 161.35Q179.48 160.88 178.43 160.88L178.43 160.88Q177.48 160.88 176.85 161.31Q176.22 161.75 176.22 162.42L176.22 162.42Q176.22 163.01 176.65 163.35Q177.08 163.70 178.00 163.93L178.00 163.93L179.54 164.31Q182.29 164.98 182.29 167.11L182.29 167.11Q182.29 168.00 181.78 168.70Q181.27 169.41 180.36 169.81Q179.45 170.22 178.24 170.22L178.24 170.22Q176.66 170.22 175.62 169.53Q174.58 168.84 174.30 167.52L174.30 167.52L175.81 167.14Q176.24 168.81 178.21 168.81L178.21 168.81Q179.33 168.81 179.99 168.34Q180.64 167.86 180.64 167.19L180.64 167.19Q180.64 166.09 179.11 165.74L179.11 165.74L177.38 165.33Q175.95 164.99 175.29 164.28Q174.63 163.57 174.63 162.50L174.63 162.50Q174.63 161.62 175.12 160.95Q175.62 160.27 176.48 159.89Q177.34 159.50 178.43 159.50L178.43 159.50Q179.97 159.50 180.85 160.18Q181.73 160.85 182.10 161.96ZM193.09 170.24L193.09 170.24Q192.10 170.24 191.30 169.87Q190.49 169.49 190.02 168.78Q189.55 168.07 189.55 167.06L189.55 167.06Q189.55 166.17 189.90 165.61Q190.25 165.05 190.84 164.74Q191.43 164.42 192.14 164.26Q192.85 164.10 193.57 164.01L193.57 164.01Q194.52 163.89 195.11 163.82Q195.70 163.76 195.97 163.60Q196.24 163.45 196.24 163.06L196.24 163.06L196.24 163.01Q196.24 162.01 195.70 161.46Q195.16 160.90 194.06 160.90L194.06 160.90Q192.92 160.90 192.27 161.40Q191.62 161.90 191.36 162.47L191.36 162.47L189.85 161.93Q190.25 160.99 190.93 160.46Q191.61 159.93 192.41 159.71Q193.22 159.50 194.00 159.50L194.00 159.50Q194.50 159.50 195.15 159.62Q195.80 159.74 196.41 160.10Q197.03 160.47 197.43 161.20Q197.84 161.94 197.84 163.17L197.84 163.17L197.84 170L196.24 170L196.24 168.60L196.16 168.60Q196.00 168.93 195.62 169.32Q195.24 169.70 194.62 169.97Q193.99 170.24 193.09 170.24ZM193.33 168.81L193.33 168.81Q194.27 168.81 194.92 168.44Q195.57 168.07 195.91 167.48Q196.24 166.90 196.24 166.25L196.24 166.25L196.24 164.79Q196.14 164.91 195.80 165.01Q195.46 165.11 195.02 165.18Q194.58 165.25 194.16 165.30Q193.75 165.35 193.49 165.38L193.49 165.38Q192.87 165.47 192.33 165.64Q191.80 165.82 191.47 166.18Q191.14 166.53 191.14 167.14L191.14 167.14Q191.14 167.97 191.76 168.39Q192.38 168.81 193.33 168.81ZM208.39 159.64L210.71 159.64L210.71 160.99L208.39 160.99L208.39 170L206.80 170L206.80 160.99L205.12 160.99L205.12 159.64L206.80 159.64L206.80 158.21Q206.80 157.32 207.21 156.72Q207.63 156.13 208.30 155.83Q208.97 155.53 209.71 155.53L209.71 155.53Q210.30 155.53 210.67 155.63Q211.04 155.72 211.22 155.80L211.22 155.80L210.76 157.18Q210.64 157.14 210.43 157.08Q210.22 157.02 209.87 157.02L209.87 157.02Q209.08 157.02 208.74 157.42Q208.39 157.81 208.39 158.58L208.39 158.58L208.39 159.64ZM219.48 165.76L219.48 165.76L219.48 159.64L221.07 159.64L221.07 170L219.48 170L219.48 168.25L219.37 168.25Q219.01 169.04 218.24 169.59Q217.47 170.13 216.30 170.13L216.30 170.13Q214.84 170.13 213.89 169.17Q212.95 168.21 212.95 166.22L212.95 166.22L212.95 159.64L214.54 159.64L214.54 166.11Q214.54 167.25 215.18 167.92Q215.82 168.60 216.81 168.60L216.81 168.60Q217.40 168.60 218.02 168.29Q218.64 167.99 219.06 167.36Q219.48 166.73 219.48 165.76ZM223.99 156.18L225.58 156.18L225.58 170L223.99 170L223.99 156.18ZM228.49 156.18L230.09 156.18L230.09 170L228.49 170L228.49 156.18ZM240.64 159.64L242.85 159.64L242.85 160.99L240.64 160.99L240.64 167.03Q240.64 167.71 240.84 168.04Q241.04 168.37 241.35 168.49Q241.66 168.60 242.02 168.60L242.02 168.60Q242.28 168.60 242.45 168.57Q242.62 168.54 242.72 168.52L242.72 168.52L243.04 169.95Q242.88 170.01 242.59 170.07Q242.30 170.13 241.85 170.13L241.85 170.13Q241.18 170.13 240.53 169.84Q239.89 169.55 239.47 168.96Q239.05 168.37 239.05 167.46L239.05 167.46L239.05 160.99L237.48 160.99L237.48 159.64L239.05 159.64L239.05 157.15L240.64 157.15L240.64 159.64ZM251.79 165.76L251.79 165.76L251.79 159.64L253.38 159.64L253.38 170L251.79 170L251.79 168.25L251.68 168.25Q251.31 169.04 250.54 169.59Q249.77 170.13 248.60 170.13L248.60 170.13Q247.14 170.13 246.20 169.17Q245.25 168.21 245.25 166.22L245.25 166.22L245.25 159.64L246.85 159.64L246.85 166.11Q246.85 167.25 247.48 167.92Q248.12 168.60 249.11 168.60L249.11 168.60Q249.71 168.60 250.32 168.29Q250.94 167.99 251.36 167.36Q251.79 166.73 251.79 165.76ZM258.59 159.64L260.80 159.64L260.80 160.99L258.59 160.99L258.59 167.03Q258.59 167.71 258.79 168.04Q258.98 168.37 259.30 168.49Q259.61 168.60 259.96 168.60L259.96 168.60Q260.23 168.60 260.39 168.57Q260.56 168.54 260.66 168.52L260.66 168.52L260.99 169.95Q260.83 170.01 260.54 170.07Q260.25 170.13 259.80 170.13L259.80 170.13Q259.13 170.13 258.48 169.84Q257.84 169.55 257.42 168.96Q256.99 168.37 256.99 167.46L256.99 167.46L256.99 160.99L255.43 160.99L255.43 159.64L256.99 159.64L256.99 157.15L258.59 157.15L258.59 159.64ZM267.41 170.22L267.41 170.22Q266.01 170.22 264.95 169.55Q263.90 168.88 263.31 167.68Q262.72 166.48 262.72 164.87L262.72 164.87Q262.72 163.25 263.31 162.05Q263.90 160.84 264.95 160.17Q266.01 159.50 267.41 159.50L267.41 159.50Q268.82 159.50 269.87 160.17Q270.93 160.84 271.52 162.05Q272.11 163.25 272.11 164.87L272.11 164.87Q272.11 166.48 271.52 167.68Q270.93 168.88 269.87 169.55Q268.82 170.22 267.41 170.22ZM267.41 168.79L267.41 168.79Q268.48 168.79 269.17 168.24Q269.85 167.69 270.19 166.80Q270.52 165.91 270.52 164.87L270.52 164.87Q270.52 163.83 270.19 162.94Q269.85 162.04 269.17 161.49Q268.48 160.93 267.41 160.93L267.41 160.93Q266.35 160.93 265.66 161.49Q264.97 162.04 264.64 162.94Q264.31 163.83 264.31 164.87L264.31 164.87Q264.31 165.91 264.64 166.80Q264.97 167.69 265.66 168.24Q266.35 168.79 267.41 168.79ZM276.13 170L274.54 170L274.54 159.64L276.08 159.64L276.08 161.20L276.18 161.20Q276.47 160.43 277.21 159.95Q277.95 159.47 278.88 159.47L278.88 159.47Q279.06 159.47 279.32 159.48Q279.58 159.49 279.72 159.50L279.72 159.50L279.72 161.12Q279.64 161.10 279.35 161.06Q279.06 161.01 278.75 161.01L278.75 161.01Q277.61 161.01 276.87 161.70Q276.13 162.39 276.13 163.44L276.13 163.44L276.13 170ZM283.20 170L281.61 170L281.61 159.64L283.20 159.64L283.20 170ZM282.42 157.91L282.42 157.91Q281.95 157.91 281.62 157.59Q281.28 157.27 281.28 156.83L281.28 156.83Q281.28 156.38 281.62 156.07Q281.95 155.75 282.42 155.75L282.42 155.75Q282.88 155.75 283.22 156.07Q283.55 156.38 283.55 156.83L283.55 156.83Q283.55 157.27 283.22 157.59Q282.88 157.91 282.42 157.91ZM289.16 170.24L289.16 170.24Q288.18 170.24 287.38 169.87Q286.57 169.49 286.10 168.78Q285.63 168.07 285.63 167.06L285.63 167.06Q285.63 166.17 285.98 165.61Q286.33 165.05 286.92 164.74Q287.50 164.42 288.22 164.26Q288.93 164.10 289.65 164.01L289.65 164.01Q290.60 163.89 291.19 163.82Q291.78 163.76 292.05 163.60Q292.32 163.45 292.32 163.06L292.32 163.06L292.32 163.01Q292.32 162.01 291.78 161.46Q291.24 160.90 290.14 160.90L290.14 160.90Q289.00 160.90 288.35 161.40Q287.70 161.90 287.44 162.47L287.44 162.47L285.93 161.93Q286.33 160.99 287.01 160.46Q287.69 159.93 288.49 159.71Q289.30 159.50 290.08 159.50L290.08 159.50Q290.58 159.50 291.23 159.62Q291.88 159.74 292.49 160.10Q293.11 160.47 293.51 161.20Q293.91 161.94 293.91 163.17L293.91 163.17L293.91 170L292.32 170L292.32 168.60L292.24 168.60Q292.08 168.93 291.70 169.32Q291.32 169.70 290.70 169.97Q290.07 170.24 289.16 170.24ZM289.41 168.81L289.41 168.81Q290.35 168.81 291.00 168.44Q291.65 168.07 291.99 167.48Q292.32 166.90 292.32 166.25L292.32 166.25L292.32 164.79Q292.22 164.91 291.88 165.01Q291.54 165.11 291.10 165.18Q290.66 165.25 290.24 165.30Q289.83 165.35 289.57 165.38L289.57 165.38Q288.95 165.47 288.41 165.64Q287.88 165.82 287.55 166.18Q287.22 166.53 287.22 167.14L287.22 167.14Q287.22 167.97 287.84 168.39Q288.46 168.81 289.41 168.81ZM296.83 156.18L298.42 156.18L298.42 170L296.83 170L296.83 156.18ZM302.50 170.11L302.50 170.11Q302.00 170.11 301.64 169.75Q301.28 169.39 301.28 168.89L301.28 168.89Q301.28 168.39 301.64 168.04Q302.00 167.68 302.50 167.68L302.50 167.68Q303.00 167.68 303.35 168.04Q303.71 168.39 303.71 168.89L303.71 168.89Q303.71 169.39 303.35 169.75Q303.00 170.11 302.50 170.11Z" fill="#9C9082"/></svg>