<?xml version="1.0" encoding="UTF-8"?>
<svg xmlns="http://www.w3.org/2000/svg" viewBox="0 0 400 224" width="400" height="224"><rect x="12" y="12" width="376" height="200" rx="18" fill="#FBF8F3" stroke="#E2DACE" stroke-width="1.5"/><path d="M46.78 53.23L46.78 58L45.44 58L45.44 46.83L49.50 46.83Q51.06 46.83 51.87 47.68Q52.69 48.53 52.69 50.05L52.69 50.05Q52.69 51.41 51.98 52.22Q51.28 53.04 49.94 53.17L49.94 53.17L52.78 58L51.28 58L48.56 53.23L46.78 53.23ZM46.78 52.10L49.47 52.10Q50.32 52.10 50.79 51.67Q51.26 51.25 51.26 50.46L51.26 50.46L51.26 49.63Q51.26 48.85 50.79 48.42Q50.32 48 49.47 48L49.47 48L46.78 48L46.78 52.10ZM64.32 58L57.44 58L57.44 46.83L64.32 46.83L64.32 48L58.78 48L58.78 51.76L64.13 51.76L64.13 52.93L58.78 52.93L58.78 56.83L64.32 56.83L64.32 58ZM74.42 58L70.61 48.59L70.50 48.59L70.50 58L69.28 58L69.28 46.83L71.18 46.83L74.99 56.24L75.10 56.24L75.10 46.83L76.32 46.83L76.32 58L74.42 58ZM81.52 58L81.52 46.83L84.64 46.83Q86.69 46.83 87.70 48.24Q88.70 49.65 88.70 52.42L88.70 52.42Q88.70 55.18 87.70 56.59Q86.69 58 84.64 58L84.64 58L81.52 58ZM82.86 56.83L84.58 56.83Q85.92 56.83 86.60 55.90Q87.28 54.98 87.28 53.28L87.28 53.28L87.28 51.55Q87.28 49.86 86.60 48.93Q85.92 48 84.58 48L84.58 48L82.86 48L82.86 56.83ZM100.32 58L93.44 58L93.44 46.83L100.32 46.83L100.32 48L94.78 48L94.78 51.76L100.13 51.76L100.13 52.93L94.78 52.93L94.78 56.83L100.32 56.83L100.32 58ZM106.78 53.23L106.78 58L105.44 58L105.44 46.83L109.50 46.83Q111.06 46.83 111.87 47.68Q112.69 48.53 112.69 50.05L112.69 50.05Q112.69 51.41 111.98 52.22Q111.28 53.04 109.94 53.17L109.94 53.17L112.78 58L111.28 58L108.56 53.23L106.78 53.23ZM106.78 52.10L109.47 52.10Q110.32 52.10 110.79 51.67Q111.26 51.25 111.26 50.46L111.26 50.46L111.26 49.63Q111.26 48.85 110.79 48.42Q110.32 48 109.47 48L109.47 48L106.78 48L106.78 52.10ZM124.26 58L117.34 58L117.34 56.93L120.13 56.93L120.13 47.90L117.34 47.90L117.34 46.83L124.26 46.83L124.26 47.90L121.47 47.90L121.47 56.93L124.26 56.93L124.26 58ZM134.42 58L130.61 48.59L130.50 48.59L130.50 58L129.28 58L129.28 46.83L131.18 46.83L134.99 56.24L135.10 56.24L135.10 46.83L136.32 46.83L136.32 58L134.42 58ZM147.10 58L147.10 56.51L147.02 56.51Q146.88 56.83 146.69 57.14Q146.50 57.44 146.20 57.67Q145.90 57.90 145.49 58.05Q145.07 58.19 144.50 58.19L144.50 58.19Q142.67 58.19 141.78 56.72Q140.90 55.25 140.90 52.50L140.90 52.50Q140.90 49.62 141.87 48.13Q142.85 46.64 144.88 46.64L144.88 46.64Q145.66 46.64 146.24 46.85Q146.82 47.06 147.22 47.41Q147.63 47.76 147.90 48.20Q148.18 48.64 148.35 49.09L148.35 49.09L147.20 49.62Q147.06 49.25 146.87 48.92Q146.69 48.59 146.42 48.34Q146.16 48.10 145.79 47.95Q145.42 47.81 144.93 47.81L144.93 47.81Q143.58 47.81 142.95 48.82Q142.32 49.82 142.32 51.50L142.32 51.50L142.32 53.23Q142.32 54.08 142.45 54.78Q142.58 55.47 142.87 55.98Q143.17 56.50 143.64 56.78Q144.11 57.06 144.80 57.06L144.80 57.06Q145.89 57.06 146.50 56.40Q147.10 55.74 147.10 54.70L147.10 54.70L147.10 53.55L144.75 53.55L144.75 52.48L148.35 52.48L148.35 58L147.10 58Z" fill="#6B6055"/><circle id="dot" cx="49.5" cy="88" r="5.5" fill="#C9A96E"/><path d="M77.40 98.26L77.40 98.26Q75.49 98.26 74.00 97.60Q72.52 96.95 71.65 95.78Q70.79 94.61 70.73 93.07L70.73 93.07L73.63 93.07Q73.71 94.33 74.78 95.06Q75.85 95.80 77.38 95.80L77.38 95.80Q79.05 95.80 80.13 94.95Q81.21 94.09 81.21 92.72L81.21 92.72Q81.21 91.29 80.12 90.39Q79.04 89.49 77.07 89.49L77.07 89.49L75.47 89.49L75.47 87.16L77.07 87.16Q78.64 87.16 79.64 86.33Q80.63 85.50 80.62 84.13L80.62 84.13Q80.63 82.82 79.76 82.02Q78.89 81.21 77.44 81.21L77.44 81.21Q76.04 81.21 74.99 81.96Q73.93 82.70 73.88 84.00L73.88 84.00L71.12 84.00Q71.17 82.46 72.03 81.30Q72.90 80.13 74.32 79.48Q75.74 78.83 77.48 78.83L77.48 78.83Q79.29 78.83 80.62 79.54Q81.95 80.25 82.67 81.42Q83.39 82.59 83.38 83.98L83.38 83.98Q83.39 85.57 82.51 86.68Q81.62 87.79 80.13 88.17L80.13 88.17L80.13 88.31Q82.02 88.60 83.06 89.81Q84.10 91.02 84.09 92.81L84.09 92.81Q84.10 94.38 83.23 95.61Q82.36 96.85 80.85 97.55Q79.33 98.26 77.40 98.26ZM93.65 98L93.65 98L87.53 98L87.53 79.09L93.84 79.09Q96.63 79.09 98.62 80.22Q100.61 81.35 101.68 83.46Q102.74 85.57 102.74 88.52L102.74 88.52Q102.74 91.47 101.67 93.60Q100.60 95.72 98.56 96.86Q96.53 98 93.65 98ZM90.38 81.58L90.38 95.51L93.49 95.51Q96.72 95.51 98.33 93.69Q99.94 91.88 99.94 88.52L99.94 88.52Q99.94 85.18 98.35 83.38Q96.77 81.58 93.67 81.58L93.67 81.58L90.38 81.58ZM112.58 98L112.58 79.09L116.04 79.09L122.06 93.79L122.28 93.79L128.30 79.09L131.76 79.09L131.76 98L129.05 98L129.05 84.32L128.87 84.32L123.29 97.97L121.04 97.97L115.47 84.31L115.29 84.31L115.29 98L112.58 98ZM141.37 98.29L141.37 98.29Q139.37 98.29 137.89 97.37Q136.40 96.46 135.58 94.81Q134.76 93.16 134.76 90.97L134.76 90.97Q134.76 88.77 135.58 87.11Q136.40 85.46 137.89 84.55Q139.37 83.63 141.37 83.63L141.37 83.63Q143.37 83.63 144.85 84.55Q146.34 85.46 147.16 87.11Q147.98 88.77 147.98 90.97L147.98 90.97Q147.98 93.16 147.16 94.81Q146.34 96.46 144.85 97.37Q143.37 98.29 141.37 98.29ZM141.38 95.97L141.38 95.97Q142.68 95.97 143.52 95.29Q144.37 94.60 144.78 93.46Q145.19 92.32 145.19 90.96L145.19 90.96Q145.19 89.61 144.78 88.46Q144.37 87.32 143.52 86.63Q142.68 85.94 141.38 85.94L141.38 85.94Q140.08 85.94 139.23 86.63Q138.38 87.32 137.96 88.46Q137.55 89.61 137.55 90.96L137.55 90.96Q137.55 92.32 137.96 93.46Q138.38 94.60 139.23 95.29Q140.08 95.97 141.38 95.97ZM156.06 98.28L156.06 98.28Q154.35 98.28 153.01 97.40Q151.67 96.52 150.90 94.87Q150.13 93.23 150.13 90.94L150.13 90.94Q150.13 88.64 150.91 87.00Q151.68 85.37 153.02 84.50Q154.37 83.63 156.08 83.63L156.08 83.63Q157.40 83.63 158.21 84.07Q159.02 84.51 159.46 85.09Q159.91 85.67 160.16 86.12L160.16 86.12L160.33 86.12L160.33 79.09L163.09 79.09L163.09 98L160.39 98L160.39 95.79L160.16 95.79Q159.91 96.25 159.45 96.83Q158.98 97.41 158.17 97.84Q157.36 98.28 156.06 98.28ZM156.67 95.92L156.67 95.92Q158.46 95.92 159.42 94.53Q160.37 93.14 160.37 90.91L160.37 90.91Q160.37 88.68 159.43 87.33Q158.48 85.98 156.67 85.98L156.67 85.98Q155.43 85.98 154.59 86.63Q153.76 87.27 153.34 88.38Q152.92 89.50 152.92 90.91L152.92 90.91Q152.92 92.33 153.35 93.47Q153.77 94.60 154.61 95.26Q155.44 95.92 156.67 95.92ZM172.83 98.29L172.83 98.29Q170.75 98.29 169.23 97.38Q167.72 96.48 166.90 94.84Q166.08 93.20 166.08 91.00L166.08 91.00Q166.08 88.82 166.90 87.16Q167.72 85.50 169.19 84.57Q170.66 83.63 172.64 83.63L172.64 83.63Q174.25 83.63 175.68 84.35Q177.12 85.06 178.02 86.63Q178.92 88.19 178.92 90.76L178.92 90.76L178.92 91.74L168.84 91.74Q168.89 93.79 169.99 94.90Q171.09 96.01 172.86 96.01L172.86 96.01Q174.04 96.01 174.90 95.50Q175.76 94.99 176.13 93.98L176.13 93.98L178.74 94.45Q178.27 96.18 176.71 97.23Q175.15 98.29 172.83 98.29ZM168.85 89.67L168.85 89.67L176.21 89.67Q176.20 88.05 175.23 86.98Q174.27 85.91 172.66 85.91L172.66 85.91Q171.54 85.91 170.71 86.44Q169.87 86.96 169.39 87.81Q168.90 88.67 168.85 89.67ZM181.69 79.09L184.45 79.09L184.45 98L181.69 98L181.69 79.09ZM193.24 79.09L196.33 79.09L201.59 94.49L201.80 94.49L207.07 79.09L210.15 79.09L203.34 98L200.05 98L193.24 79.09ZM215.11 98L212.35 98L212.35 83.82L215.11 83.82L215.11 98ZM213.75 81.63L213.75 81.63Q213.03 81.63 212.51 81.15Q212.00 80.66 212.00 79.99L212.00 79.99Q212.00 79.30 212.51 78.82Q213.03 78.33 213.75 78.33L213.75 78.33Q214.46 78.33 214.97 78.82Q215.49 79.30 215.49 79.99L215.49 79.99Q215.49 80.66 214.97 81.15Q214.46 81.63 213.75 81.63ZM224.64 98.29L224.64 98.29Q222.55 98.29 221.04 97.38Q219.52 96.48 218.70 94.84Q217.89 93.20 217.89 91.00L217.89 91.00Q217.89 88.82 218.70 87.16Q219.52 85.50 220.99 84.57Q222.47 83.63 224.44 83.63L224.44 83.63Q226.05 83.63 227.48 84.35Q228.92 85.06 229.82 86.63Q230.72 88.19 230.72 90.76L230.72 90.76L230.72 91.74L220.64 91.74Q220.69 93.79 221.79 94.90Q222.89 96.01 224.66 96.01L224.66 96.01Q225.85 96.01 226.70 95.50Q227.56 94.99 227.93 93.98L227.93 93.98L230.55 94.45Q230.07 96.18 228.51 97.23Q226.95 98.29 224.64 98.29ZM220.65 89.67L220.65 89.67L228.02 89.67Q228.01 88.05 227.04 86.98Q226.07 85.91 224.46 85.91L224.46 85.91Q223.34 85.91 222.51 86.44Q221.67 86.96 221.19 87.81Q220.70 88.67 220.65 89.67ZM239.38 98L236.57 98L232.40 83.82L235.25 83.82L238.03 94.23L238.17 94.23L240.96 83.82L243.81 83.82L246.58 94.19L246.72 94.19L249.48 83.82L252.33 83.82L248.17 98L245.35 98L242.47 87.76L242.26 87.76L239.38 98ZM260.76 98.29L260.76 98.29Q258.67 98.29 257.15 97.38Q255.64 96.48 254.82 94.84Q254.01 93.20 254.01 91.00L254.01 91.00Q254.01 88.82 254.82 87.16Q255.64 85.50 257.11 84.57Q258.59 83.63 260.56 83.63L260.56 83.63Q262.17 83.63 263.60 84.35Q265.04 85.06 265.94 86.63Q266.84 88.19 266.84 90.76L266.84 90.76L266.84 91.74L256.76 91.74Q256.81 93.79 257.91 94.90Q259.01 96.01 260.78 96.01L260.78 96.01Q261.97 96.01 262.82 95.50Q263.68 94.99 264.05 93.98L264.05 93.98L266.66 94.45Q266.19 96.18 264.63 97.23Q263.07 98.29 260.76 98.29ZM256.77 89.67L256.77 89.67L264.13 89.67Q264.13 88.05 263.16 86.98Q262.19 85.91 260.58 85.91L260.58 85.91Q259.46 85.91 258.63 86.44Q257.79 86.96 257.31 87.81Q256.82 88.67 256.77 89.67ZM272.38 98L269.61 98L269.61 83.82L272.28 83.82L272.28 86.07L272.43 86.07Q272.82 84.93 273.80 84.27Q274.79 83.61 276.03 83.61L276.03 83.61Q276.30 83.61 276.65 83.62Q277.00 83.64 277.20 83.67L277.20 83.67L277.20 86.31Q277.04 86.26 276.62 86.20Q276.20 86.14 275.76 86.14L275.76 86.14Q274.30 86.14 273.34 87.05Q272.38 87.95 272.38 89.34L272.38 89.34L272.38 98Z" fill="#1A1613"/><path d="M57.33 133.09L57.33 133.09Q57.33 135.28 56.54 136.87Q55.75 138.46 54.38 139.33Q53.00 140.19 51.23 140.19L51.23 140.19Q49.47 140.19 48.09 139.33Q46.71 138.46 45.92 136.87Q45.13 135.28 45.13 133.09L45.13 133.09Q45.13 130.90 45.92 129.31Q46.71 127.72 48.09 126.86Q49.47 125.99 51.23 125.99L51.23 125.99Q53.00 125.99 54.38 126.86Q55.75 127.72 56.54 129.31Q57.33 130.90 57.33 133.09ZM55.71 133.09L55.71 133.09Q55.71 131.30 55.12 130.06Q54.52 128.83 53.50 128.19Q52.49 127.56 51.23 127.56L51.23 127.56Q49.98 127.56 48.96 128.19Q47.95 128.83 47.35 130.06Q46.75 131.30 46.75 133.09L46.75 133.09Q46.75 134.89 47.35 136.12Q47.95 137.36 48.96 137.99Q49.98 138.62 51.23 138.62L51.23 138.62Q52.49 138.62 53.50 137.99Q54.52 137.36 55.12 136.12Q55.71 134.89 55.71 133.09ZM61.52 143.89L59.92 143.89L59.92 129.64L61.46 129.64L61.46 131.28L61.65 131.28Q61.83 131.01 62.14 130.59Q62.45 130.17 63.04 129.84Q63.63 129.50 64.65 129.50L64.65 129.50Q65.96 129.50 66.95 130.16Q67.95 130.81 68.51 132.01Q69.07 133.21 69.07 134.85L69.07 134.85Q69.07 136.49 68.51 137.70Q67.95 138.90 66.96 139.56Q65.97 140.22 64.67 140.22L64.67 140.22Q63.67 140.22 63.07 139.88Q62.47 139.55 62.15 139.12Q61.83 138.69 61.65 138.41L61.65 138.41L61.52 138.41L61.52 143.89ZM61.49 134.82L61.49 134.82Q61.49 136.58 62.25 137.68Q63.02 138.79 64.46 138.79L64.46 138.79Q65.46 138.79 66.13 138.26Q66.80 137.73 67.14 136.83Q67.48 135.92 67.48 134.82L67.48 134.82Q67.48 133.73 67.15 132.84Q66.81 131.96 66.14 131.45Q65.47 130.93 64.46 130.93L64.46 130.93Q63 130.93 62.24 132.00Q61.49 133.08 61.49 134.82ZM75.85 140.22L75.85 140.22Q74.35 140.22 73.27 139.55Q72.18 138.89 71.60 137.69Q71.02 136.49 71.02 134.90L71.02 134.90Q71.02 133.31 71.60 132.09Q72.18 130.87 73.23 130.19Q74.28 129.50 75.68 129.50L75.68 129.50Q76.49 129.50 77.28 129.77Q78.07 130.04 78.72 130.65Q79.37 131.25 79.75 132.24Q80.14 133.23 80.14 134.68L80.14 134.68L80.14 135.36L72.61 135.36Q72.67 137.02 73.56 137.90Q74.44 138.79 75.85 138.79L75.85 138.79Q76.78 138.79 77.46 138.38Q78.13 137.98 78.44 137.17L78.44 137.17L79.98 137.60Q79.61 138.77 78.52 139.49Q77.43 140.22 75.85 140.22ZM72.61 133.98L72.61 133.98L78.52 133.98Q78.52 132.67 77.75 131.80Q76.98 130.93 75.68 130.93L75.68 130.93Q74.77 130.93 74.11 131.36Q73.44 131.78 73.05 132.48Q72.67 133.18 72.61 133.98ZM84.16 133.77L84.16 133.77L84.16 140L82.57 140L82.57 129.64L84.11 129.64L84.11 131.26L84.24 131.26Q84.60 130.47 85.35 129.98Q86.09 129.50 87.26 129.50L87.26 129.50Q88.83 129.50 89.80 130.47Q90.77 131.43 90.77 133.41L90.77 133.41L90.77 140L89.18 140L89.18 133.52Q89.18 132.30 88.54 131.62Q87.91 130.93 86.80 130.93L86.80 130.93Q85.66 130.93 84.91 131.67Q84.16 132.41 84.16 133.77ZM105.08 130.50L103.35 130.50Q102.91 129.14 101.91 128.35Q100.91 127.56 99.41 127.56L99.41 127.56Q98.18 127.56 97.17 128.19Q96.17 128.83 95.58 130.06Q94.98 131.30 94.98 133.09L94.98 133.09Q94.98 134.89 95.58 136.12Q96.18 137.36 97.21 137.99Q98.23 138.62 99.52 138.62L99.52 138.62Q100.68 138.62 101.58 138.13Q102.48 137.63 103.00 136.72Q103.51 135.82 103.54 134.58L103.54 134.58L99.89 134.58L99.89 133.09L105.16 133.09L105.16 134.58Q105.16 136.28 104.43 137.54Q103.71 138.81 102.43 139.50Q101.16 140.19 99.52 140.19L99.52 140.19Q97.68 140.19 96.29 139.33Q94.91 138.46 94.13 136.87Q93.36 135.28 93.36 133.09L93.36 133.09Q93.36 130.90 94.13 129.31Q94.91 127.72 96.27 126.86Q97.64 125.99 99.41 125.99L99.41 125.99Q100.87 125.99 102.05 126.56Q103.24 127.13 104.03 128.15Q104.82 129.16 105.08 130.50L105.08 130.50ZM116.11 140L108.02 140L108.02 126.18L109.69 126.18L109.69 138.52L116.11 138.52L116.11 140ZM125.42 140L123.83 140L123.83 129.64L125.37 129.64L125.37 131.20L125.48 131.20Q125.76 130.43 126.50 129.95Q127.25 129.47 128.18 129.47L128.18 129.47Q128.35 129.47 128.62 129.48Q128.88 129.49 129.01 129.50L129.01 129.50L129.01 131.12Q128.93 131.10 128.65 131.06Q128.36 131.01 128.04 131.01L128.04 131.01Q126.91 131.01 126.17 131.70Q125.42 132.39 125.42 133.44L125.42 133.44L125.42 140ZM135.25 140.22L135.25 140.22Q133.75 140.22 132.67 139.55Q131.58 138.89 131.00 137.69Q130.42 136.49 130.42 134.90L130.42 134.90Q130.42 133.31 131.00 132.09Q131.58 130.87 132.63 130.19Q133.68 129.50 135.09 129.50L135.09 129.50Q135.90 129.50 136.69 129.77Q137.48 130.04 138.12 130.65Q138.77 131.25 139.16 132.24Q139.54 133.23 139.54 134.68L139.54 134.68L139.54 135.36L132.02 135.36Q132.07 137.02 132.96 137.90Q133.85 138.79 135.25 138.79L135.25 138.79Q136.19 138.79 136.86 138.38Q137.54 137.98 137.84 137.17L137.84 137.17L139.38 137.60Q139.01 138.77 137.92 139.49Q136.83 140.22 135.25 140.22ZM132.02 133.98L132.02 133.98L137.92 133.98Q137.92 132.67 137.15 131.80Q136.38 130.93 135.09 130.93L135.09 130.93Q134.18 130.93 133.51 131.36Q132.84 131.78 132.46 132.48Q132.07 133.18 132.02 133.98ZM143.56 133.77L143.56 133.77L143.56 140L141.97 140L141.97 129.64L143.51 129.64L143.51 131.26L143.64 131.26Q144.01 130.47 144.75 129.98Q145.49 129.50 146.66 129.50L146.66 129.50Q148.24 129.50 149.21 130.47Q150.17 131.43 150.17 133.41L150.17 133.41L150.17 140L148.58 140L148.58 133.52Q148.58 132.30 147.95 131.62Q147.31 130.93 146.21 130.93L146.21 130.93Q145.07 130.93 144.31 131.67Q143.56 132.41 143.56 133.77ZM157.00 140.22L157.00 140.22Q155.71 140.22 154.71 139.56Q153.72 138.90 153.16 137.70Q152.60 136.49 152.60 134.85L152.60 134.85Q152.60 133.21 153.16 132.01Q153.72 130.81 154.72 130.16Q155.72 129.50 157.03 129.50L157.03 129.50Q158.04 129.50 158.63 129.84Q159.22 130.17 159.53 130.59Q159.85 131.01 160.02 131.28L160.02 131.28L160.16 131.28L160.16 126.18L161.75 126.18L161.75 140L160.21 140L160.21 138.41L160.02 138.41Q159.85 138.69 159.52 139.12Q159.20 139.55 158.60 139.88Q158 140.22 157.00 140.22ZM157.22 138.79L157.22 138.79Q158.65 138.79 159.42 137.68Q160.19 136.58 160.19 134.82L160.19 134.82Q160.19 133.08 159.43 132.00Q158.67 130.93 157.22 130.93L157.22 130.93Q156.21 130.93 155.53 131.45Q154.86 131.96 154.53 132.84Q154.19 133.73 154.19 134.82L154.19 134.82Q154.19 135.92 154.54 136.83Q154.88 137.73 155.55 138.26Q156.22 138.79 157.22 138.79ZM169.23 140.22L169.23 140.22Q167.73 140.22 166.65 139.55Q165.56 138.89 164.98 137.69Q164.40 136.49 164.40 134.90L164.40 134.90Q164.40 133.31 164.98 132.09Q165.56 130.87 166.61 130.19Q167.66 129.50 169.07 129.50L169.07 129.50Q169.88 129.50 170.66 129.77Q171.45 130.04 172.10 130.65Q172.75 131.25 173.13 132.24Q173.52 133.23 173.52 134.68L173.52 134.68L173.52 135.36L166.00 135.36Q166.05 137.02 166.94 137.90Q167.82 138.79 169.23 138.79L169.23 138.79Q170.17 138.79 170.84 138.38Q171.51 137.98 171.82 137.17L171.82 137.17L173.36 137.60Q172.99 138.77 171.90 139.49Q170.81 140.22 169.23 140.22ZM166.00 133.98L166.00 133.98L171.90 133.98Q171.90 132.67 171.13 131.80Q170.36 130.93 169.07 130.93L169.07 130.93Q168.15 130.93 167.49 131.36Q166.82 131.78 166.43 132.48Q166.05 133.18 166.00 133.98ZM177.54 140L175.95 140L175.95 129.64L177.49 129.64L177.49 131.20L177.59 131.20Q177.88 130.43 178.62 129.95Q179.36 129.47 180.29 129.47L180.29 129.47Q180.47 129.47 180.73 129.48Q180.99 129.49 181.13 129.50L181.13 129.50L181.13 131.12Q181.05 131.10 180.76 131.06Q180.47 131.01 180.16 131.01L180.16 131.01Q179.02 131.01 178.28 131.70Q177.54 132.39 177.54 133.44L177.54 133.44L177.54 140ZM187.36 140.22L187.36 140.22Q185.87 140.22 184.78 139.55Q183.70 138.89 183.12 137.69Q182.53 136.49 182.53 134.90L182.53 134.90Q182.53 133.31 183.12 132.09Q183.70 130.87 184.75 130.19Q185.80 129.50 187.20 129.50L187.20 129.50Q188.01 129.50 188.80 129.77Q189.59 130.04 190.24 130.65Q190.89 131.25 191.27 132.24Q191.65 133.23 191.65 134.68L191.65 134.68L191.65 135.36L184.13 135.36Q184.19 137.02 185.07 137.90Q185.96 138.79 187.36 138.79L187.36 138.79Q188.30 138.79 188.98 138.38Q189.65 137.98 189.95 137.17L189.95 137.17L191.49 137.60Q191.13 138.77 190.04 139.49Q188.94 140.22 187.36 140.22ZM184.13 133.98L184.13 133.98L190.04 133.98Q190.04 132.67 189.27 131.80Q188.50 130.93 187.20 130.93L187.20 130.93Q186.29 130.93 185.62 131.36Q184.95 131.78 184.57 132.48Q184.19 133.18 184.13 133.98ZM195.68 140L194.08 140L194.08 129.64L195.62 129.64L195.62 131.20L195.73 131.20Q196.01 130.43 196.76 129.95Q197.50 129.47 198.43 129.47L198.43 129.47Q198.60 129.47 198.87 129.48Q199.13 129.49 199.27 129.50L199.27 129.50L199.27 131.12Q199.18 131.10 198.90 131.06Q198.61 131.01 198.29 131.01L198.29 131.01Q197.16 131.01 196.42 131.70Q195.68 132.39 195.68 133.44L195.68 133.44L195.68 140ZM208.09 140L206.50 140L206.50 129.64L208.09 129.64L208.09 140ZM207.31 127.91L207.31 127.91Q206.84 127.91 206.51 127.59Q206.17 127.27 206.17 126.83L206.17 126.83Q206.17 126.38 206.51 126.07Q206.84 125.75 207.31 125.75L207.31 125.75Q207.77 125.75 208.11 126.07Q208.44 126.38 208.44 126.83L208.44 126.83Q208.44 127.27 208.11 127.59Q207.77 127.91 207.31 127.91ZM212.60 133.77L212.60 133.77L212.60 140L211.01 140L211.01 129.64L212.54 129.64L212.54 131.26L212.68 131.26Q213.04 130.47 213.79 129.98Q214.53 129.50 215.70 129.50L215.70 129.50Q217.27 129.50 218.24 130.47Q219.21 131.43 219.21 133.41L219.21 133.41L219.21 140L217.62 140L217.62 133.52Q217.62 132.30 216.98 131.62Q216.35 130.93 215.24 130.93L215.24 130.93Q214.10 130.93 213.35 131.67Q212.60 132.41 212.60 133.77ZM238.80 130.50L238.80 130.50L237.13 130.50Q236.93 129.54 236.35 128.89Q235.78 128.23 234.97 127.90Q234.16 127.56 233.24 127.56L233.24 127.56Q231.99 127.56 230.97 128.19Q229.96 128.83 229.36 130.06Q228.76 131.30 228.76 133.09L228.76 133.09Q228.76 134.89 229.36 136.12Q229.96 137.36 230.97 137.99Q231.99 138.62 233.24 138.62L233.24 138.62Q234.16 138.62 234.97 138.29Q235.78 137.95 236.35 137.29Q236.93 136.64 237.13 135.68L237.13 135.68L238.80 135.68Q238.55 137.10 237.76 138.11Q236.97 139.12 235.80 139.65Q234.63 140.19 233.24 140.19L233.24 140.19Q231.48 140.19 230.10 139.33Q228.72 138.46 227.93 136.87Q227.14 135.28 227.14 133.09L227.14 133.09Q227.14 130.90 227.93 129.31Q228.72 127.72 230.10 126.86Q231.48 125.99 233.24 125.99L233.24 125.99Q234.63 125.99 235.80 126.53Q236.97 127.07 237.76 128.07Q238.55 129.08 238.80 130.50ZM246.85 139.06L245.34 139.06L245.34 135.36L241.64 135.36L241.64 133.85L245.34 133.85L245.34 130.15L246.85 130.15L246.85 133.85L250.54 133.85L250.54 135.36L246.85 135.36L246.85 139.06ZM259.37 139.06L257.86 139.06L257.86 135.36L254.16 135.36L254.16 133.85L257.86 133.85L257.86 130.15L259.37 130.15L259.37 133.85L263.07 133.85L263.07 135.36L259.37 135.36L259.37 139.06ZM267.49 140.11L267.49 140.11Q266.99 140.11 266.64 139.75Q266.28 139.39 266.28 138.89L266.28 138.89Q266.28 138.39 266.64 138.04Q266.99 137.68 267.49 137.68L267.49 137.68Q267.99 137.68 268.35 138.04Q268.71 138.39 268.71 138.89L268.71 138.89Q268.71 139.39 268.35 139.75Q267.99 140.11 267.49 140.11Z" fill="#6B6055"/><path d="M47.35 170L45.67 170L45.67 156.18L50.34 156.18Q51.96 156.18 53.00 156.73Q54.04 157.28 54.54 158.24Q55.04 159.20 55.04 160.42L55.04 160.42Q55.04 161.80 54.41 162.82Q53.78 163.84 52.45 164.29L52.45 164.29L55.58 170L53.63 170L50.72 164.60Q50.55 164.60 50.37 164.60L50.37 164.60L47.35 164.60L47.35 170ZM47.35 157.67L47.35 163.09L50.32 163.09Q51.98 163.09 52.68 162.38Q53.39 161.66 53.39 160.42L53.39 160.42Q53.39 159.17 52.68 158.42Q51.97 157.67 50.29 157.67L50.29 157.67L47.35 157.67ZM59.77 166.09L58.38 170L56.63 170L61.70 156.18L63.43 156.18L68.51 170L66.75 170L65.36 166.09L59.77 166.09ZM62.51 158.37L60.30 164.60L64.84 164.60L62.62 158.37L62.51 158.37ZM70.66 156.18L72.34 156.18L72.34 170L70.66 170L70.66 156.18ZM75.68 156.18L77.36 156.18L77.36 170L75.68 170L75.68 156.18ZM90.04 170.22L90.04 170.22Q88.64 170.22 87.58 169.55Q86.53 168.88 85.94 167.68Q85.35 166.48 85.35 164.87L85.35 164.87Q85.35 163.25 85.94 162.05Q86.53 160.84 87.58 160.17Q88.64 159.50 90.04 159.50L90.04 159.50Q91.45 159.50 92.50 160.17Q93.56 160.84 94.15 162.05Q94.74 163.25 94.74 164.87L94.74 164.87Q94.74 166.48 94.15 167.68Q93.56 168.88 92.50 169.55Q91.45 170.22 90.04 170.22ZM90.04 168.79L90.04 168.79Q91.11 168.79 91.80 168.24Q92.49 167.69 92.82 166.80Q93.15 165.91 93.15 164.87L93.15 164.87Q93.15 163.83 92.82 162.94Q92.49 162.04 91.80 161.49Q91.11 160.93 90.04 160.93L90.04 160.93Q88.98 160.93 88.29 161.49Q87.60 162.04 87.27 162.94Q86.94 163.83 86.94 164.87L86.94 164.87Q86.94 165.91 87.27 166.80Q87.60 167.69 88.29 168.24Q88.98 168.79 90.04 168.79ZM101.08 170L99.52 170L96.36 159.64L98.03 159.64L100.27 167.57L100.38 167.57L102.59 159.64L104.29 159.64L106.48 167.54L106.59 167.54L108.83 159.64L110.50 159.64L107.34 170L105.78 170L103.51 162.04L103.35 162.04L101.08 170ZM114.20 163.77L114.20 163.77L114.20 170L112.61 170L112.61 159.64L114.14 159.64L114.14 161.26L114.28 161.26Q114.64 160.47 115.38 159.98Q116.13 159.50 117.30 159.50L117.30 159.50Q118.87 159.50 119.84 160.47Q120.81 161.43 120.81 163.41L120.81 163.41L120.81 170L119.22 170L119.22 163.52Q119.22 162.30 118.58 161.62Q117.95 160.93 116.84 160.93L116.84 160.93Q115.70 160.93 114.95 161.67Q114.20 162.41 114.20 163.77ZM128.07 170.22L128.07 170.22Q126.57 170.22 125.49 169.55Q124.41 168.89 123.82 167.69Q123.24 166.49 123.24 164.90L123.24 164.90Q123.24 163.31 123.82 162.09Q124.41 160.87 125.46 160.19Q126.50 159.50 127.91 159.50L127.91 159.50Q128.72 159.50 129.51 159.77Q130.30 160.04 130.94 160.65Q131.59 161.25 131.98 162.24Q132.36 163.23 132.36 164.68L132.36 164.68L132.36 165.36L124.84 165.36Q124.89 167.02 125.78 167.90Q126.67 168.79 128.07 168.79L128.07 168.79Q129.01 168.79 129.68 168.38Q130.36 167.98 130.66 167.17L130.66 167.17L132.20 167.60Q131.83 168.77 130.74 169.49Q129.65 170.22 128.07 170.22ZM124.84 163.98L124.84 163.98L130.74 163.98Q130.74 162.67 129.97 161.80Q129.20 160.93 127.91 160.93L127.91 160.93Q127.00 160.93 126.33 161.36Q125.66 161.78 125.28 162.48Q124.89 163.18 124.84 163.98ZM136.38 170L134.79 170L134.79 159.64L136.33 159.64L136.33 161.20L136.44 161.20Q136.72 160.43 137.46 159.95Q138.20 159.47 139.13 159.47L139.13 159.47Q139.31 159.47 139.57 159.48Q139.84 159.49 139.97 159.50L139.97 159.50L139.97 161.12Q139.89 161.10 139.60 161.06Q139.32 161.01 139.00 161.01L139.00 161.01Q137.87 161.01 137.12 161.70Q136.38 162.39 136.38 163.44L136.38 163.44L136.38 170ZM149.20 161.96L149.20 161.96L147.77 162.36Q147.56 161.82 147.07 161.35Q146.58 160.88 145.53 160.88L145.53 160.88Q144.58 160.88 143.95 161.31Q143.32 161.75 143.32 162.42L143.32 162.42Q143.32 163.01 143.75 163.35Q144.18 163.70 145.10 163.93L145.10 163.93L146.64 164.31Q149.39 164.98 149.39 167.11L149.39 167.11Q149.39 168.00 148.88 168.70Q148.37 169.41 147.46 169.81Q146.55 170.22 145.34 170.22L145.34 170.22Q143.76 170.22 142.72 169.53Q141.68 168.84 141.40 167.52L141.40 167.52L142.91 167.14Q143.34 168.81 145.32 168.81L145.32 168.81Q146.43 168.81 147.09 168.34Q147.74 167.86 147.74 167.19L147.74 167.19Q147.74 166.09 146.21 165.74L146.21 165.74L144.48 165.33Q143.06 164.99 142.39 164.28Q141.73 163.57 141.73 162.50L141.73 162.50Q141.73 161.62 142.22 160.95Q142.72 160.27 143.58 159.89Q144.44 159.50 145.53 159.50L145.53 159.50Q147.07 159.50 147.95 160.18Q148.83 160.85 149.20 161.96ZM153.38 163.77L153.38 163.77L153.38 170L151.79 170L151.79 156.18L153.38 156.18L153.38 161.26L153.52 161.26Q153.88 160.45 154.62 159.98Q155.35 159.50 156.57 159.50L156.57 159.50Q158.16 159.50 159.13 160.46Q160.11 161.42 160.11 163.41L160.11 163.41L160.11 170L158.51 170L158.51 163.52Q158.51 162.29 157.88 161.61Q157.24 160.93 156.11 160.93L156.11 160.93Q154.93 160.93 154.16 161.67Q153.38 162.41 153.38 163.77ZM164.61 170L163.02 170L163.02 159.64L164.61 159.64L164.61 170ZM163.83 157.91L163.83 157.91Q163.36 157.91 163.03 157.59Q162.70 157.27 162.70 156.83L162.70 156.83Q162.70 156.38 163.03 156.07Q163.36 155.75 163.83 155.75L163.83 155.75Q164.30 155.75 164.63 156.07Q164.96 156.38 164.96 156.83L164.96 156.83Q164.96 157.27 164.63 157.59Q164.30 157.91 163.83 157.91ZM169.12 173.89L167.53 173.89L167.53 159.64L169.07 159.64L169.07 161.28L169.25 161.28Q169.43 161.01 169.74 160.59Q170.06 160.17 170.65 159.84Q171.24 159.50 172.25 159.50L172.25 159.50Q173.56 159.50 174.56 160.16Q175.56 160.81 176.12 162.01Q176.68 163.21 176.68 164.85L176.68 164.85Q176.68 166.49 176.12 167.70Q175.56 168.90 174.56 169.56Q173.57 170.22 172.28 170.22L172.28 170.22Q171.28 170.22 170.68 169.88Q170.08 169.55 169.75 169.12Q169.43 168.69 169.25 168.41L169.25 168.41L169.12 168.41L169.12 173.89ZM169.09 164.82L169.09 164.82Q169.09 166.58 169.86 167.68Q170.62 168.79 172.06 168.79L172.06 168.79Q173.06 168.79 173.73 168.26Q174.40 167.73 174.74 166.83Q175.08 165.92 175.08 164.82L175.08 164.82Q175.08 163.73 174.75 162.84Q174.42 161.96 173.74 161.45Q173.07 160.93 172.06 160.93L172.06 160.93Q170.60 160.93 169.85 162.00Q169.09 163.08 169.09 164.82ZM179.75 168.11L181.48 168.11L181.37 168.84Q181.26 169.61 181.02 170.49Q180.79 171.36 180.54 172.14Q180.29 172.91 180.13 173.37L180.13 173.37L178.92 173.37Q179.00 172.94 179.15 172.23Q179.29 171.52 179.43 170.65Q179.58 169.78 179.67 168.87L179.67 168.87L179.75 168.11ZM191.36 163.77L191.36 163.77L191.36 170L189.77 170L189.77 159.64L191.30 159.64L191.30 161.26L191.44 161.26Q191.80 160.47 192.55 159.98Q193.29 159.50 194.46 159.50L194.46 159.50Q196.03 159.50 197.00 160.47Q197.97 161.43 197.97 163.41L197.97 163.41L197.97 170L196.38 170L196.38 163.52Q196.38 162.30 195.74 161.62Q195.11 160.93 194.00 160.93L194.00 160.93Q192.86 160.93 192.11 161.67Q191.36 162.41 191.36 163.77ZM205.10 170.22L205.10 170.22Q203.69 170.22 202.64 169.55Q201.58 168.88 200.99 167.68Q200.40 166.48 200.40 164.87L200.40 164.87Q200.40 163.25 200.99 162.05Q201.58 160.84 202.64 160.17Q203.69 159.50 205.10 159.50L205.10 159.50Q206.50 159.50 207.55 160.17Q208.61 160.84 209.20 162.05Q209.79 163.25 209.79 164.87L209.79 164.87Q209.79 166.48 209.20 167.68Q208.61 168.88 207.55 169.55Q206.50 170.22 205.10 170.22ZM205.10 168.79L205.10 168.79Q206.16 168.79 206.85 168.24Q207.54 167.69 207.87 166.80Q208.20 165.91 208.20 164.87L208.20 164.87Q208.20 163.83 207.87 162.94Q207.54 162.04 206.85 161.49Q206.16 160.93 205.10 160.93L205.10 160.93Q204.03 160.93 203.34 161.49Q202.65 162.04 202.32 162.94Q201.99 163.83 201.99 164.87L201.99 164.87Q201.99 165.91 202.32 166.80Q202.65 167.69 203.34 168.24Q204.03 168.79 205.10 168.79ZM221.91 170.22L221.91 170.22Q220.41 170.22 219.33 169.55Q218.25 168.89 217.66 167.69Q217.08 166.49 217.08 164.90L217.08 164.90Q217.08 163.31 217.66 162.09Q218.25 160.87 219.29 160.19Q220.34 159.50 221.75 159.50L221.75 159.50Q222.56 159.50 223.35 159.77Q224.14 160.04 224.78 160.65Q225.43 161.25 225.82 162.24Q226.20 163.23 226.20 164.68L226.20 164.68L226.20 165.36L218.68 165.36Q218.73 167.02 219.62 167.90Q220.51 168.79 221.91 168.79L221.91 168.79Q222.85 168.79 223.52 168.38Q224.20 167.98 224.50 167.17L224.50 167.17L226.04 167.60Q225.67 168.77 224.58 169.49Q223.49 170.22 221.91 170.22ZM218.68 163.98L218.68 163.98L224.58 163.98Q224.58 162.67 223.81 161.80Q223.04 160.93 221.75 160.93L221.75 160.93Q220.84 160.93 220.17 161.36Q219.50 161.78 219.12 162.48Q218.73 163.18 218.68 163.98ZM230.22 163.77L230.22 163.77L230.22 170L228.63 170L228.63 159.64L230.17 159.64L230.17 161.26L230.30 161.26Q230.67 160.47 231.41 159.98Q232.15 159.50 233.33 159.50L233.33 159.50Q234.90 159.50 235.87 160.47Q236.83 161.43 236.83 163.41L236.83 163.41L236.83 170L235.24 170L235.24 163.52Q235.24 162.30 234.61 161.62Q233.97 160.93 232.87 160.93L232.87 160.93Q231.73 160.93 230.97 161.67Q230.22 162.41 230.22 163.77ZM243.93 174.10L243.93 174.10Q242.20 174.10 241.19 173.47Q240.18 172.84 239.69 172.02L239.69 172.02L240.96 171.13Q241.18 171.42 241.51 171.78Q241.84 172.15 242.42 172.43Q242.99 172.70 243.93 172.70L243.93 172.70Q245.19 172.70 246.00 172.09Q246.82 171.48 246.82 170.19L246.82 170.19L246.82 168.08L246.68 168.08Q246.51 168.37 246.19 168.78Q245.87 169.20 245.27 169.52Q244.67 169.84 243.66 169.84L243.66 169.84Q242.41 169.84 241.41 169.24Q240.42 168.65 239.84 167.52Q239.26 166.38 239.26 164.76L239.26 164.76Q239.26 163.17 239.82 161.99Q240.38 160.80 241.38 160.15Q242.38 159.50 243.69 159.50L243.69 159.50Q244.70 159.50 245.30 159.84Q245.90 160.17 246.22 160.59Q246.54 161.01 246.71 161.28L246.71 161.28L246.87 161.28L246.87 159.64L248.41 159.64L248.41 170.30Q248.41 171.63 247.81 172.47Q247.20 173.31 246.19 173.71Q245.17 174.10 243.93 174.10ZM243.88 168.41L243.88 168.41Q245.31 168.41 246.08 167.43Q246.85 166.46 246.85 164.74L246.85 164.74Q246.85 163.06 246.09 161.99Q245.34 160.93 243.88 160.93L243.88 160.93Q242.87 160.93 242.19 161.44Q241.52 161.96 241.19 162.82Q240.86 163.68 240.86 164.74L240.86 164.74Q240.86 166.36 241.62 167.38Q242.38 168.41 243.88 168.41ZM252.92 170L251.33 170L251.33 159.64L252.92 159.64L252.92 170ZM252.14 157.91L252.14 157.91Q251.67 157.91 251.34 157.59Q251.00 157.27 251.00 156.83L251.00 156.83Q251.00 156.38 251.34 156.07Q251.67 155.75 252.14 155.75L252.14 155.75Q252.60 155.75 252.94 156.07Q253.27 156.38 253.27 156.83L253.27 156.83Q253.27 157.27 252.94 157.59Q252.60 157.91 252.14 157.91ZM257.43 163.77L257.43 163.77L257.43 170L255.83 170L255.83 159.64L257.37 159.64L257.37 161.26L257.51 161.26Q257.87 160.47 258.61 159.98Q259.36 159.50 260.53 159.50L260.53 159.50Q262.10 159.50 263.07 160.47Q264.04 161.43 264.04 163.41L264.04 163.41L264.04 170L262.45 170L262.45 163.52Q262.45 162.30 261.81 161.62Q261.18 160.93 260.07 160.93L260.07 160.93Q258.93 160.93 258.18 161.67Q257.43 162.41 257.43 163.77ZM271.30 170.22L271.30 170.22Q269.80 170.22 268.72 169.55Q267.63 168.89 267.05 167.69Q266.47 166.49 266.47 164.90L266.47 164.90Q266.47 163.31 267.05 162.09Q267.63 160.87 268.68 160.19Q269.73 159.50 271.14 159.50L271.14 159.50Q271.95 159.50 272.74 159.77Q273.52 160.04 274.17 160.65Q274.82 161.25 275.20 162.24Q275.59 163.23 275.59 164.68L275.59 164.68L275.59 165.36L268.07 165.36Q268.12 167.02 269.01 167.90Q269.89 168.79 271.30 168.79L271.30 168.79Q272.24 168.79 272.91 168.38Q273.59 167.98 273.89 167.17L273.89 167.17L275.43 167.60Q275.06 168.77 273.97 169.49Q272.88 170.22 271.30 170.22ZM268.07 163.98L268.07 163.98L273.97 163.98Q273.97 162.67 273.20 161.80Q272.43 160.93 271.14 160.93L271.14 160.93Q270.23 160.93 269.56 161.36Q268.89 161.78 268.50 162.48Q268.12 163.18 268.07 163.98ZM283.36 156.18L284.95 156.18L284.95 170L283.36 170L283.36 156.18ZM290.92 170.24L290.92 170.24Q289.93 170.24 289.13 169.87Q288.33 169.49 287.86 168.78Q287.38 168.07 287.38 167.06L287.38 167.06Q287.38 166.17 287.73 165.61Q288.09 165.05 288.67 164.74Q289.26 164.42 289.97 164.26Q290.68 164.10 291.40 164.01L291.40 164.01Q292.35 163.89 292.94 163.82Q293.53 163.76 293.80 163.60Q294.08 163.45 294.08 163.06L294.08 163.06L294.08 163.01Q294.08 162.01 293.53 161.46Q292.99 160.90 291.89 160.90L291.89 160.90Q290.75 160.90 290.10 161.40Q289.45 161.90 289.19 162.47L289.19 162.47L287.68 161.93Q288.09 160.99 288.76 160.46Q289.44 159.93 290.25 159.71Q291.05 159.50 291.84 159.50L291.84 159.50Q292.34 159.50 292.99 159.62Q293.64 159.74 294.25 160.10Q294.86 160.47 295.26 161.20Q295.67 161.94 295.67 163.17L295.67 163.17L295.67 170L294.08 170L294.08 168.60L294.00 168.60Q293.83 168.93 293.46 169.32Q293.08 169.70 292.45 169.97Q291.82 170.24 290.92 170.24ZM291.16 168.81L291.16 168.81Q292.11 168.81 292.76 168.44Q293.41 168.07 293.74 167.48Q294.08 166.90 294.08 166.25L294.08 166.25L294.08 164.79Q293.98 164.91 293.63 165.01Q293.29 165.11 292.85 165.18Q292.41 165.25 292.00 165.30Q291.58 165.35 291.32 165.38L291.32 165.38Q290.70 165.47 290.17 165.64Q289.63 165.82 289.30 166.18Q288.98 166.53 288.98 167.14L288.98 167.14Q288.98 167.97 289.59 168.39Q290.21 168.81 291.16 168.81ZM299.61 173.89L299.61 173.89Q299.20 173.89 298.89 173.82Q298.57 173.76 298.45 173.70L298.45 173.70L298.85 172.29Q299.43 172.44 299.88 172.40Q300.32 172.36 300.67 172.01Q301.02 171.65 301.31 170.86L301.31 170.86L301.61 170.05L297.77 159.64L299.50 159.64L302.36 167.89L302.47 167.89L305.33 159.64L307.06 159.64L302.66 171.51Q301.78 173.89 299.61 173.89ZM313.51 170.22L313.51 170.22Q312.01 170.22 310.93 169.55Q309.84 168.89 309.26 167.69Q308.68 166.49 308.68 164.90L308.68 164.90Q308.68 163.31 309.26 162.09Q309.84 160.87 310.89 160.19Q311.94 159.50 313.35 159.50L313.35 159.50Q314.16 159.50 314.95 159.77Q315.74 160.04 316.38 160.65Q317.03 161.25 317.42 162.24Q317.80 163.23 317.80 164.68L317.80 164.68L317.80 165.36L310.28 165.36Q310.33 167.02 311.22 167.90Q312.11 168.79 313.51 168.79L313.51 168.79Q314.45 168.79 315.12 168.38Q315.80 167.98 316.10 167.17L316.10 167.17L317.64 167.60Q317.27 168.77 316.18 169.49Q315.09 170.22 313.51 170.22ZM310.28 163.98L310.28 163.98L316.18 163.98Q316.18 162.67 315.41 161.80Q314.64 160.93 313.35 160.93L313.35 160.93Q312.44 160.93 311.77 161.36Q311.10 161.78 310.72 162.48Q310.33 163.18 310.28 163.98ZM321.82 170L320.23 170L320.23 159.64L321.77 159.64L321.77 161.20L321.88 161.20Q322.16 160.43 322.90 159.95Q323.64 159.47 324.57 159.47L324.57 159.47Q324.75 159.47 325.01 159.48Q325.28 159.49 325.41 159.50L325.41 159.50L325.41 161.12Q325.33 161.10 325.04 161.06Q324.76 161.01 324.44 161.01L324.44 161.01Q323.31 161.01 322.56 161.70Q321.82 162.39 321.82 163.44L321.82 163.44L321.82 170ZM328.46 170.11L328.46 170.11Q327.96 170.11 327.60 169.75Q327.25 169.39 327.25 168.89L327.25 168.89Q327.25 168.39 327.60 168.04Q327.96 167.68 328.46 167.68L328.46 167.68Q328.96 167.68 329.32 168.04Q329.67 168.39 329.67 168.89L329.67 168.89Q329.67 169.39 329.32 169.75Q328.96 170.11 328.46 170.11Z" fill="#6B6055"/></svg>