<?xml version="1.0" encoding="UTF-8"?>
<svg xmlns="http://www.w3.org/2000/svg" viewBox="0 0 1200 272" width="1200" height="272"><rect x="12" y="12" width="1176" height="248" rx="18" fill="#FBF8F3" stroke="#C9A96E" stroke-width="1.5"/><path d="M47.65 61L45.89 61L45.89 46.34L55.13 46.34L55.13 47.88L47.65 47.88L47.65 52.81L54.50 52.81L54.50 54.34L47.65 54.34L47.65 61ZM70.64 61L61.56 61L61.56 59.59L65.22 59.59L65.22 47.75L61.56 47.75L61.56 46.34L70.64 46.34L70.64 47.75L66.98 47.75L66.98 59.59L70.64 59.59L70.64 61ZM86.52 61L77.49 61L77.49 46.34L86.52 46.34L86.52 47.88L79.25 47.88L79.25 52.81L86.27 52.81L86.27 54.34L79.25 54.34L79.25 59.47L86.52 59.47L86.52 61ZM102.63 61L93.92 61L93.92 46.34L95.68 46.34L95.68 59.47L102.63 59.47L102.63 61ZM109.19 61L109.19 46.34L113.29 46.34Q115.98 46.34 117.30 48.19Q118.62 50.04 118.62 53.67L118.62 53.67Q118.62 57.30 117.30 59.15Q115.98 61 113.29 61L113.29 61L109.19 61ZM110.96 59.47L113.21 59.47Q114.97 59.47 115.86 58.25Q116.75 57.03 116.75 54.80L116.75 54.80L116.75 52.54Q116.75 50.31 115.86 49.09Q114.97 47.88 113.21 47.88L113.21 47.88L110.96 47.88L110.96 59.47ZM147.22 61L142.22 48.65L142.08 48.65L142.08 61L140.48 61L140.48 46.34L142.98 46.34L147.98 58.69L148.12 58.69L148.12 46.34L149.72 46.34L149.72 61L147.22 61ZM160.90 61.25L160.90 61.25Q159.56 61.25 158.59 60.74Q157.62 60.22 156.99 59.26Q156.36 58.29 156.07 56.88Q155.78 55.48 155.78 53.67L155.78 53.67Q155.78 51.89 156.07 50.47Q156.36 49.05 156.99 48.09Q157.62 47.12 158.59 46.60Q159.56 46.09 160.90 46.09L160.90 46.09Q162.24 46.09 163.21 46.60Q164.18 47.12 164.81 48.09Q165.44 49.05 165.73 50.47Q166.02 51.89 166.02 53.67L166.02 53.67Q166.02 55.48 165.73 56.88Q165.44 58.29 164.81 59.26Q164.18 60.22 163.21 60.74Q162.24 61.25 160.90 61.25ZM160.90 59.72L160.90 59.72Q161.78 59.72 162.39 59.37Q163 59.03 163.40 58.40Q163.80 57.77 163.98 56.87Q164.16 55.98 164.16 54.87L164.16 54.87L164.16 52.47Q164.16 51.38 163.98 50.48Q163.80 49.58 163.40 48.95Q163 48.32 162.39 47.97Q161.78 47.62 160.90 47.62L160.90 47.62Q160.02 47.62 159.41 47.97Q158.80 48.32 158.40 48.95Q158.00 49.58 157.82 50.48Q157.64 51.38 157.64 52.47L157.64 52.47L157.64 54.87Q157.64 55.98 157.82 56.87Q158.00 57.77 158.40 58.40Q158.80 59.03 159.41 59.37Q160.02 59.72 160.90 59.72ZM182.47 47.88L177.58 47.88L177.58 61L175.82 61L175.82 47.88L170.93 47.88L170.93 46.34L182.47 46.34L182.47 47.88ZM197.12 61L188.09 61L188.09 46.34L197.12 46.34L197.12 47.88L189.85 47.88L189.85 52.81L196.87 52.81L196.87 54.34L189.85 54.34L189.85 59.47L197.12 59.47L197.12 61ZM208.26 61.25L208.26 61.25Q206.28 61.25 205.02 60.53Q203.76 59.80 202.95 58.67L202.95 58.67L204.23 57.62Q205.09 58.69 206.04 59.22Q207.00 59.74 208.32 59.74L208.32 59.74Q209.92 59.74 210.76 59.01Q211.60 58.27 211.60 56.95L211.60 56.95Q211.60 55.88 210.99 55.28Q210.38 54.68 208.87 54.43L208.87 54.43L207.23 54.15Q206.16 53.97 205.43 53.59Q204.71 53.21 204.27 52.67Q203.83 52.14 203.64 51.50Q203.45 50.86 203.45 50.16L203.45 50.16Q203.45 48.15 204.77 47.12Q206.10 46.09 208.34 46.09L208.34 46.09Q210.11 46.09 211.31 46.68Q212.52 47.27 213.26 48.34L213.26 48.34L212.02 49.41Q211.41 48.61 210.55 48.11Q209.69 47.60 208.32 47.60L208.32 47.60Q206.83 47.60 206.03 48.23Q205.23 48.86 205.23 50.12L205.23 50.12Q205.23 51.11 205.83 51.73Q206.43 52.35 207.99 52.62L207.99 52.62L209.56 52.89Q210.63 53.08 211.37 53.46Q212.10 53.84 212.55 54.36Q213.00 54.89 213.19 55.54Q213.38 56.19 213.38 56.91L213.38 56.91Q213.38 58.94 212.05 60.10Q210.72 61.25 208.26 61.25Z" fill="#8F5D18"/><path d="M65.61 118L47.20 118L47.20 88.91L65.43 88.91L65.43 92.69L51.59 92.69L51.59 101.55L64.48 101.55L64.48 105.32L51.59 105.32L51.59 114.22L65.61 114.22L65.61 118ZM84.58 96.18L89.14 96.18L81.23 118L76.68 118L68.76 96.18L73.32 96.18L78.84 112.97L79.07 112.97L84.58 96.18ZM102.03 118.44L102.03 118.44Q98.82 118.44 96.49 117.05Q94.16 115.66 92.91 113.13Q91.65 110.61 91.65 107.23L91.65 107.23Q91.65 103.88 92.91 101.32Q94.16 98.77 96.43 97.33Q98.70 95.90 101.74 95.90L101.74 95.90Q104.21 95.90 106.42 97.00Q108.63 98.10 110.01 100.51Q111.39 102.91 111.39 106.86L111.39 106.86L111.39 108.37L95.88 108.37Q95.97 111.52 97.66 113.23Q99.35 114.93 102.08 114.93L102.08 114.93Q103.89 114.93 105.22 114.15Q106.54 113.37 107.11 111.82L107.11 111.82L111.13 112.55Q110.40 115.20 108 116.82Q105.60 118.44 102.03 118.44ZM95.90 105.19L95.90 105.19L107.23 105.19Q107.22 102.69 105.73 101.05Q104.24 99.41 101.76 99.41L101.76 99.41Q100.05 99.41 98.76 100.21Q97.47 101.01 96.73 102.33Q95.98 103.64 95.90 105.19ZM119.87 118L115.63 118L115.63 96.18L119.73 96.18L119.73 99.65L119.96 99.65Q120.55 97.89 122.07 96.87Q123.58 95.86 125.50 95.86L125.50 95.86Q125.91 95.86 126.45 95.88Q126.99 95.91 127.30 95.95L127.30 95.95L127.30 100.02Q127.05 99.95 126.40 99.85Q125.75 99.76 125.09 99.76L125.09 99.76Q122.83 99.76 121.35 101.15Q119.87 102.53 119.87 104.68L119.87 104.68L119.87 118ZM133.18 126.18L133.18 126.18Q132.23 126.18 131.45 126.03Q130.66 125.88 130.28 125.71L130.28 125.71L131.30 122.23Q133.05 122.72 134.24 122.31Q135.42 121.91 136.23 119.73L136.23 119.73L136.76 118.28L128.78 96.18L133.32 96.18L138.85 113.11L139.07 113.11L144.60 96.18L149.16 96.18L140.17 120.91Q139.22 123.48 137.51 124.83Q135.81 126.18 133.18 126.18ZM158.36 96.18L162.84 96.18L162.84 99.59L158.36 99.59L158.36 111.59Q158.36 113.44 159.15 113.97Q159.94 114.51 160.97 114.51L160.97 114.51Q161.49 114.51 161.87 114.43Q162.25 114.36 162.47 114.32L162.47 114.32L163.23 117.83Q162.86 117.97 162.17 118.12Q161.49 118.27 160.48 118.28L160.48 118.28Q158.80 118.31 157.35 117.69Q155.89 117.06 155.00 115.76Q154.11 114.45 154.11 112.47L154.11 112.47L154.11 99.59L150.92 99.59L150.92 96.18L154.11 96.18L154.11 90.95L158.36 90.95L158.36 96.18ZM171.27 105.05L171.27 105.05L171.27 118L167.02 118L167.02 88.91L171.21 88.91L171.21 99.73L171.48 99.73Q172.25 97.96 173.83 96.93Q175.40 95.90 177.95 95.90L177.95 95.90Q181.31 95.90 183.37 97.97Q185.42 100.05 185.42 104.12L185.42 104.12L185.42 118L181.17 118L181.17 104.63Q181.17 102.23 179.93 100.90Q178.70 99.58 176.50 99.58L176.50 99.58Q174.22 99.58 172.75 101.00Q171.27 102.43 171.27 105.05ZM194.85 118L190.60 118L190.60 96.18L194.85 96.18L194.85 118ZM192.74 92.82L192.74 92.82Q191.64 92.82 190.85 92.07Q190.06 91.32 190.06 90.29L190.06 90.29Q190.06 89.24 190.85 88.49Q191.64 87.74 192.74 87.74L192.74 87.74Q193.84 87.74 194.63 88.49Q195.43 89.24 195.43 90.29L195.43 90.29Q195.43 91.32 194.63 92.07Q193.84 92.82 192.74 92.82ZM204.30 105.05L204.30 105.05L204.30 118L200.06 118L200.06 96.18L204.13 96.18L204.13 99.73L204.40 99.73Q205.16 98 206.77 96.95Q208.38 95.90 210.84 95.90L210.84 95.90Q214.19 95.90 216.23 97.99Q218.27 100.07 218.27 104.12L218.27 104.12L218.27 118L214.02 118L214.02 104.63Q214.02 102.26 212.78 100.92Q211.55 99.58 209.39 99.58L209.39 99.58Q207.17 99.58 205.74 101.00Q204.30 102.43 204.30 105.05ZM232.60 126.64L232.60 126.64Q228.69 126.64 226.44 125.17Q224.19 123.70 223.32 121.69L223.32 121.69L226.97 120.19Q227.36 120.81 228.00 121.52Q228.65 122.22 229.76 122.72Q230.88 123.21 232.64 123.21L232.64 123.21Q235.05 123.21 236.63 122.05Q238.21 120.88 238.21 118.31L238.21 118.31L238.21 114.02L237.94 114.02Q237.55 114.72 236.84 115.57Q236.13 116.42 234.88 117.05Q233.62 117.67 231.62 117.67L231.62 117.67Q229.05 117.67 226.98 116.46Q224.91 115.24 223.70 112.87Q222.50 110.49 222.50 107.01L222.50 107.01Q222.50 103.53 223.68 101.04Q224.87 98.55 226.94 97.23Q229.02 95.90 231.64 95.90L231.64 95.90Q233.68 95.90 234.93 96.57Q236.19 97.25 236.89 98.14Q237.60 99.04 237.97 99.72L237.97 99.72L238.28 99.72L238.28 96.18L242.44 96.18L242.44 118.48Q242.44 121.28 241.13 123.09Q239.83 124.90 237.60 125.77Q235.38 126.64 232.60 126.64ZM232.55 114.15L232.55 114.15Q235.31 114.15 236.78 112.24Q238.25 110.33 238.25 106.95L238.25 106.95Q238.25 103.64 236.79 101.57Q235.34 99.51 232.55 99.51L232.55 99.51Q230.64 99.51 229.36 100.49Q228.08 101.48 227.43 103.16Q226.79 104.85 226.79 106.95L226.79 106.95Q226.79 110.16 228.25 112.15Q229.71 114.15 232.55 114.15ZM261.98 118L257.73 118L257.73 96.18L261.98 96.18L261.98 118ZM259.88 92.82L259.88 92.82Q258.77 92.82 257.98 92.07Q257.19 91.32 257.19 90.29L257.19 90.29Q257.19 89.24 257.98 88.49Q258.77 87.74 259.88 87.74L259.88 87.74Q260.97 87.74 261.77 88.49Q262.56 89.24 262.56 90.29L262.56 90.29Q262.56 91.32 261.77 92.07Q260.97 92.82 259.88 92.82ZM283.54 101.51L283.54 101.51L279.69 102.19Q279.32 101.10 278.32 100.18Q277.32 99.26 275.33 99.26L275.33 99.26Q273.53 99.26 272.31 100.07Q271.10 100.87 271.11 102.13L271.11 102.13Q271.10 103.24 271.91 103.90Q272.73 104.56 274.53 104.99L274.53 104.99L278 105.78Q283.97 107.16 283.97 111.69L283.97 111.69Q283.97 113.67 282.84 115.19Q281.71 116.71 279.70 117.57Q277.69 118.44 275.05 118.44L275.05 118.44Q271.37 118.44 269.07 116.87Q266.76 115.30 266.22 112.40L266.22 112.40L270.33 111.78Q271.10 115.02 275.02 115.02L275.02 115.02Q277.11 115.02 278.36 114.14Q279.61 113.27 279.61 112.01L279.61 112.01Q279.61 109.92 276.52 109.24L276.52 109.24L272.83 108.43Q269.76 107.74 268.31 106.21Q266.86 104.68 266.86 102.36L266.86 102.36Q266.86 100.43 267.94 98.97Q269.02 97.52 270.93 96.71Q272.83 95.90 275.29 95.90L275.29 95.90Q278.82 95.90 280.86 97.43Q282.89 98.97 283.54 101.51ZM304.57 118.48L304.57 118.48Q302.50 118.48 300.83 117.72Q299.16 116.95 298.18 115.46Q297.20 113.98 297.20 111.84L297.20 111.84Q297.20 109.97 297.92 108.78Q298.63 107.59 299.83 106.89Q301.03 106.20 302.53 105.85Q304.02 105.50 305.57 105.32L305.57 105.32Q307.53 105.09 308.74 104.94Q309.95 104.79 310.52 104.45Q311.08 104.11 311.08 103.34L311.08 103.34L311.08 103.24Q311.08 101.38 310.03 100.36Q308.99 99.34 306.93 99.34L306.93 99.34Q304.78 99.34 303.56 100.27Q302.33 101.21 301.86 102.38L301.86 102.38L297.87 101.47Q298.93 98.48 301.42 97.19Q303.92 95.90 306.87 95.90L306.87 95.90Q308.18 95.90 309.64 96.20Q311.11 96.51 312.40 97.33Q313.70 98.14 314.52 99.63Q315.34 101.13 315.34 103.51L315.34 103.51L315.34 118L311.19 118L311.19 115.02L311.02 115.02Q310.41 116.24 308.85 117.36Q307.28 118.48 304.57 118.48ZM305.49 115.07L305.49 115.07Q307.27 115.07 308.52 114.38Q309.77 113.68 310.43 112.55Q311.09 111.42 311.09 110.13L311.09 110.13L311.09 107.32Q310.79 107.62 309.78 107.84Q308.78 108.07 307.65 108.23Q306.53 108.38 305.84 108.48L305.84 108.48Q303.99 108.72 302.67 109.46Q301.36 110.19 301.36 111.89L301.36 111.89Q301.36 113.47 302.53 114.27Q303.69 115.07 305.49 115.07ZM324.74 105.05L324.74 105.05L324.74 118L320.49 118L320.49 96.18L324.57 96.18L324.57 99.73L324.84 99.73Q325.59 98 327.20 96.95Q328.82 95.90 331.27 95.90L331.27 95.90Q334.63 95.90 336.66 97.99Q338.70 100.07 338.70 104.12L338.70 104.12L338.70 118L334.45 118L334.45 104.63Q334.45 102.26 333.22 100.92Q331.98 99.58 329.82 99.58L329.82 99.58Q327.61 99.58 326.17 101.00Q324.74 102.43 324.74 105.05ZM363.38 118.44L363.38 118.44Q360.17 118.44 357.84 117.05Q355.51 115.66 354.26 113.13Q353 110.61 353 107.23L353 107.23Q353 103.88 354.26 101.32Q355.51 98.77 357.78 97.33Q360.05 95.90 363.09 95.90L363.09 95.90Q365.56 95.90 367.77 97.00Q369.97 98.10 371.36 100.51Q372.74 102.91 372.74 106.86L372.74 106.86L372.74 108.37L357.23 108.37Q357.32 111.52 359.01 113.23Q360.70 114.93 363.43 114.93L363.43 114.93Q365.24 114.93 366.57 114.15Q367.89 113.37 368.45 111.82L368.45 111.82L372.47 112.55Q371.75 115.20 369.35 116.82Q366.95 118.44 363.38 118.44ZM357.25 105.19L357.25 105.19L368.58 105.19Q368.57 102.69 367.08 101.05Q365.59 99.41 363.11 99.41L363.11 99.41Q361.39 99.41 360.11 100.21Q358.82 101.01 358.08 102.33Q357.33 103.64 357.25 105.19ZM375.67 96.18L380.33 96.18L385.14 104.68L390 96.18L394.64 96.18L387.84 107.09L394.70 118L390.06 118L385.14 109.85L380.24 118L375.58 118L382.37 107.09L375.67 96.18ZM402.77 126.18L398.52 126.18L398.52 96.18L402.67 96.18L402.67 99.72L403.02 99.72Q403.41 99.04 404.10 98.14Q404.78 97.25 406.03 96.57Q407.27 95.90 409.29 95.90L409.29 95.90Q411.93 95.90 414.00 97.23Q416.06 98.57 417.26 101.08Q418.45 103.60 418.45 107.13L418.45 107.13Q418.45 110.66 417.27 113.19Q416.09 115.73 414.03 117.08Q411.97 118.43 409.33 118.43L409.33 118.43Q407.34 118.43 406.09 117.76Q404.84 117.09 404.12 116.20Q403.41 115.30 403.02 114.61L403.02 114.61L402.77 114.61L402.77 126.18ZM402.68 107.09L402.68 107.09Q402.68 110.53 404.16 112.67Q405.64 114.80 408.38 114.80L408.38 114.80Q410.28 114.80 411.57 113.79Q412.85 112.77 413.51 111.03Q414.16 109.28 414.16 107.09L414.16 107.09Q414.16 104.92 413.51 103.21Q412.87 101.49 411.59 100.50Q410.31 99.51 408.38 99.51L408.38 99.51Q405.59 99.51 404.14 101.59Q402.68 103.67 402.68 107.09ZM432.11 118.44L432.11 118.44Q428.90 118.44 426.57 117.05Q424.24 115.66 422.98 113.13Q421.73 110.61 421.73 107.23L421.73 107.23Q421.73 103.88 422.98 101.32Q424.24 98.77 426.51 97.33Q428.77 95.90 431.81 95.90L431.81 95.90Q434.28 95.90 436.49 97.00Q438.70 98.10 440.09 100.51Q441.47 102.91 441.47 106.86L441.47 106.86L441.47 108.37L425.96 108.37Q426.05 111.52 427.74 113.23Q429.43 114.93 432.15 114.93L432.15 114.93Q433.97 114.93 435.29 114.15Q436.61 113.37 437.18 111.82L437.18 111.82L441.20 112.55Q440.48 115.20 438.08 116.82Q435.68 118.44 432.11 118.44ZM425.97 105.19L425.97 105.19L437.31 105.19Q437.30 102.69 435.80 101.05Q434.31 99.41 431.84 99.41L431.84 99.41Q430.12 99.41 428.84 100.21Q427.55 101.01 426.81 102.33Q426.06 103.64 425.97 105.19ZM449.95 118L445.70 118L445.70 96.18L449.81 96.18L449.81 99.65L450.03 99.65Q450.63 97.89 452.14 96.87Q453.66 95.86 455.57 95.86L455.57 95.86Q455.99 95.86 456.53 95.88Q457.07 95.91 457.38 95.95L457.38 95.95L457.38 100.02Q457.12 99.95 456.48 99.85Q455.83 99.76 455.16 99.76L455.16 99.76Q452.90 99.76 451.43 101.15Q449.95 102.53 449.95 104.68L449.95 104.68L449.95 118ZM464.82 118L460.57 118L460.57 96.18L464.82 96.18L464.82 118ZM462.72 92.82L462.72 92.82Q461.61 92.82 460.82 92.07Q460.03 91.32 460.03 90.29L460.03 90.29Q460.03 89.24 460.82 88.49Q461.61 87.74 462.72 87.74L462.72 87.74Q463.81 87.74 464.61 88.49Q465.40 89.24 465.40 90.29L465.40 90.29Q465.40 91.32 464.61 92.07Q463.81 92.82 462.72 92.82ZM474.28 118L470.03 118L470.03 96.18L474.11 96.18L474.11 99.73L474.38 99.73Q475.06 97.93 476.61 96.91Q478.15 95.90 480.31 95.90L480.31 95.90Q482.50 95.90 483.98 96.92Q485.47 97.94 486.18 99.73L486.18 99.73L486.41 99.73Q487.20 97.99 488.90 96.94Q490.60 95.90 492.95 95.90L492.95 95.90Q495.92 95.90 497.81 97.77Q499.69 99.63 499.69 103.37L499.69 103.37L499.69 118L495.44 118L495.44 103.77Q495.44 101.55 494.24 100.56Q493.04 99.56 491.35 99.56L491.35 99.56Q489.28 99.56 488.13 100.84Q486.97 102.12 486.97 104.09L486.97 104.09L486.97 118L482.74 118L482.74 103.50Q482.74 101.72 481.63 100.64Q480.53 99.56 478.75 99.56L478.75 99.56Q476.95 99.56 475.61 100.95Q474.28 102.35 474.28 104.55L474.28 104.55L474.28 118ZM514.27 118.44L514.27 118.44Q511.06 118.44 508.73 117.05Q506.40 115.66 505.15 113.13Q503.89 110.61 503.89 107.23L503.89 107.23Q503.89 103.88 505.15 101.32Q506.40 98.77 508.67 97.33Q510.93 95.90 513.97 95.90L513.97 95.90Q516.45 95.90 518.65 97.00Q520.86 98.10 522.25 100.51Q523.63 102.91 523.63 106.86L523.63 106.86L523.63 108.37L508.12 108.37Q508.21 111.52 509.90 113.23Q511.59 114.93 514.32 114.93L514.32 114.93Q516.13 114.93 517.45 114.15Q518.78 113.37 519.34 111.82L519.34 111.82L523.36 112.55Q522.64 115.20 520.24 116.82Q517.84 118.44 514.27 118.44ZM508.14 105.19L508.14 105.19L519.47 105.19Q519.46 102.69 517.97 101.05Q516.47 99.41 514.00 99.41L514.00 99.41Q512.28 99.41 511.00 100.21Q509.71 101.01 508.97 102.33Q508.22 103.64 508.14 105.19ZM532.11 105.05L532.11 105.05L532.11 118L527.86 118L527.86 96.18L531.94 96.18L531.94 99.73L532.21 99.73Q532.96 98 534.58 96.95Q536.19 95.90 538.64 95.90L538.64 95.90Q542.00 95.90 544.04 97.99Q546.07 100.07 546.07 104.12L546.07 104.12L546.07 118L541.83 118L541.83 104.63Q541.83 102.26 540.59 100.92Q539.36 99.58 537.20 99.58L537.20 99.58Q534.98 99.58 533.55 101.00Q532.11 102.43 532.11 105.05ZM556.97 96.18L561.44 96.18L561.44 99.59L556.97 99.59L556.97 111.59Q556.97 113.44 557.75 113.97Q558.54 114.51 559.58 114.51L559.58 114.51Q560.09 114.51 560.47 114.43Q560.86 114.36 561.07 114.32L561.07 114.32L561.84 117.83Q561.47 117.97 560.78 118.12Q560.09 118.27 559.08 118.28L559.08 118.28Q557.41 118.31 555.95 117.69Q554.49 117.06 553.61 115.76Q552.72 114.45 552.72 112.47L552.72 112.47L552.72 99.59L549.52 99.59L549.52 96.18L552.72 96.18L552.72 90.95L556.97 90.95L556.97 96.18Z" fill="#1A1613"/><path d="M56.86 176L46.20 176L46.20 157.82L48.40 157.82L48.40 174.05L56.86 174.05L56.86 176ZM70.92 176L60.26 176L60.26 157.82L62.47 157.82L62.47 174.05L70.92 174.05L70.92 176ZM74.33 176L74.33 157.82L76.95 157.82L83.13 172.91L83.35 172.91L89.53 157.82L92.15 157.82L92.15 176L90.09 176L90.09 162.19L89.92 162.19L84.23 176L82.25 176L76.56 162.19L76.39 162.19L76.39 176L74.33 176ZM112.96 165.42L112.96 165.42L111.08 165.95Q110.81 165.24 110.16 164.62Q109.51 164.00 108.13 164.00L108.13 164.00Q106.88 164.00 106.05 164.57Q105.22 165.14 105.22 166.02L105.22 166.02Q105.22 166.80 105.79 167.26Q106.36 167.71 107.57 168.01L107.57 168.01L109.59 168.51Q113.21 169.39 113.21 172.20L113.21 172.20Q113.21 173.37 112.54 174.30Q111.87 175.22 110.67 175.75Q109.47 176.28 107.88 176.28L107.88 176.28Q105.80 176.28 104.43 175.38Q103.06 174.47 102.70 172.73L102.70 172.73L104.69 172.24Q105.25 174.44 107.85 174.44L107.85 174.44Q109.31 174.44 110.18 173.81Q111.05 173.19 111.05 172.31L111.05 172.31Q111.05 170.86 109.02 170.39L109.02 170.39L106.75 169.86Q104.88 169.41 104.00 168.48Q103.13 167.54 103.13 166.13L103.13 166.13Q103.13 164.97 103.78 164.09Q104.43 163.20 105.56 162.69Q106.70 162.19 108.13 162.19L108.13 162.19Q110.16 162.19 111.32 163.07Q112.47 163.96 112.96 165.42ZM117.72 181.11L117.72 181.11Q117.19 181.11 116.77 181.03Q116.35 180.94 116.19 180.87L116.19 180.87L116.73 179.02Q117.49 179.21 118.08 179.16Q118.66 179.11 119.12 178.64Q119.58 178.18 119.96 177.14L119.96 177.14L120.35 176.07L115.31 162.36L117.58 162.36L121.34 173.23L121.49 173.23L125.25 162.36L127.52 162.36L121.73 177.99Q120.57 181.11 117.72 181.11ZM139.95 165.42L139.95 165.42L138.07 165.95Q137.79 165.24 137.15 164.62Q136.50 164.00 135.12 164.00L135.12 164.00Q133.87 164.00 133.04 164.57Q132.21 165.14 132.21 166.02L132.21 166.02Q132.21 166.80 132.78 167.26Q133.35 167.71 134.55 168.01L134.55 168.01L136.58 168.51Q140.20 169.39 140.20 172.20L140.20 172.20Q140.20 173.37 139.53 174.30Q138.86 175.22 137.66 175.75Q136.46 176.28 134.87 176.28L134.87 176.28Q132.79 176.28 131.42 175.38Q130.05 174.47 129.69 172.73L129.69 172.73L131.68 172.24Q132.24 174.44 134.84 174.44L134.84 174.44Q136.30 174.44 137.17 173.81Q138.03 173.19 138.03 172.31L138.03 172.31Q138.03 170.86 136.01 170.39L136.01 170.39L133.74 169.86Q131.86 169.41 130.99 168.48Q130.12 167.54 130.12 166.13L130.12 166.13Q130.12 164.97 130.77 164.09Q131.42 163.20 132.55 162.69Q133.68 162.19 135.12 162.19L135.12 162.19Q137.15 162.19 138.30 163.07Q139.46 163.96 139.95 165.42ZM146.38 162.36L149.29 162.36L149.29 164.14L146.38 164.14L146.38 172.09Q146.38 172.98 146.64 173.42Q146.90 173.86 147.32 174.01Q147.73 174.15 148.19 174.15L148.19 174.15Q148.54 174.15 148.76 174.11Q148.98 174.07 149.11 174.05L149.11 174.05L149.54 175.93Q149.33 176.01 148.94 176.09Q148.56 176.18 147.98 176.18L147.98 176.18Q147.09 176.18 146.24 175.80Q145.39 175.41 144.84 174.63Q144.28 173.85 144.28 172.66L144.28 172.66L144.28 164.14L142.22 164.14L142.22 162.36L144.28 162.36L144.28 159.10L146.38 159.10L146.38 162.36ZM158.17 176.28L158.17 176.28Q156.20 176.28 154.77 175.41Q153.35 174.54 152.58 172.96Q151.81 171.38 151.81 169.29L151.81 169.29Q151.81 167.19 152.58 165.59Q153.35 163.99 154.73 163.09Q156.11 162.19 157.96 162.19L157.96 162.19Q159.02 162.19 160.06 162.54Q161.10 162.90 161.95 163.69Q162.80 164.49 163.31 165.79Q163.82 167.10 163.82 169.00L163.82 169.00L163.82 169.89L153.92 169.89Q153.99 172.08 155.16 173.24Q156.32 174.40 158.17 174.40L158.17 174.40Q159.40 174.40 160.29 173.87Q161.18 173.34 161.58 172.27L161.58 172.27L163.60 172.84Q163.12 174.38 161.68 175.33Q160.25 176.28 158.17 176.28ZM153.92 168.08L153.92 168.08L161.68 168.08Q161.68 166.35 160.67 165.21Q159.66 164.07 157.96 164.07L157.96 164.07Q156.76 164.07 155.88 164.63Q155.00 165.19 154.49 166.11Q153.99 167.02 153.92 168.08ZM169.11 176L167.01 176L167.01 162.36L169.04 162.36L169.04 164.49L169.21 164.49Q169.64 163.40 170.59 162.79Q171.54 162.19 172.87 162.19L172.87 162.19Q174.22 162.19 175.12 162.79Q176.02 163.40 176.53 164.49L176.53 164.49L176.67 164.49Q177.19 163.44 178.24 162.81Q179.29 162.19 180.75 162.19L180.75 162.19Q182.58 162.19 183.75 163.33Q184.91 164.47 184.91 166.87L184.91 166.87L184.91 176L182.81 176L182.81 166.87Q182.81 165.36 181.99 164.72Q181.16 164.07 180.04 164.07L180.04 164.07Q178.61 164.07 177.82 164.93Q177.03 165.80 177.03 167.12L177.03 167.12L177.03 176L174.89 176L174.89 166.66Q174.89 165.50 174.14 164.78Q173.39 164.07 172.20 164.07L172.20 164.07Q171.38 164.07 170.67 164.50Q169.97 164.94 169.54 165.71Q169.11 166.47 169.11 167.48L169.11 167.48L169.11 176ZM198.40 165.42L198.40 165.42L196.52 165.95Q196.25 165.24 195.60 164.62Q194.95 164.00 193.57 164.00L193.57 164.00Q192.32 164.00 191.49 164.57Q190.66 165.14 190.66 166.02L190.66 166.02Q190.66 166.80 191.23 167.26Q191.80 167.71 193.01 168.01L193.01 168.01L195.03 168.51Q198.65 169.39 198.65 172.20L198.65 172.20Q198.65 173.37 197.98 174.30Q197.31 175.22 196.11 175.75Q194.91 176.28 193.33 176.28L193.33 176.28Q191.24 176.28 189.87 175.38Q188.50 174.47 188.14 172.73L188.14 172.73L190.13 172.24Q190.69 174.44 193.29 174.44L193.29 174.44Q194.75 174.44 195.62 173.81Q196.49 173.19 196.49 172.31L196.49 172.31Q196.49 170.86 194.46 170.39L194.46 170.39L192.19 169.86Q190.32 169.41 189.44 168.48Q188.57 167.54 188.57 166.13L188.57 166.13Q188.57 164.97 189.22 164.09Q189.87 163.20 191.00 162.69Q192.14 162.19 193.57 162.19L193.57 162.19Q195.60 162.19 196.76 163.07Q197.92 163.96 198.40 165.42ZM210.94 176L208.84 176L208.84 162.36L210.94 162.36L210.94 176ZM209.91 160.09L209.91 160.09Q209.30 160.09 208.86 159.67Q208.42 159.26 208.42 158.67L208.42 158.67Q208.42 158.08 208.86 157.67Q209.30 157.25 209.91 157.25L209.91 157.25Q210.52 157.25 210.96 157.67Q211.40 158.08 211.40 158.67L211.40 158.67Q211.40 159.26 210.96 159.67Q210.52 160.09 209.91 160.09ZM216.87 167.80L216.87 167.80L216.87 176L214.77 176L214.77 162.36L216.80 162.36L216.80 164.49L216.98 164.49Q217.46 163.46 218.43 162.82Q219.41 162.19 220.95 162.19L220.95 162.19Q223.02 162.19 224.30 163.46Q225.57 164.73 225.57 167.34L225.57 167.34L225.57 176L223.47 176L223.47 167.48Q223.47 165.87 222.64 164.97Q221.81 164.07 220.35 164.07L220.35 164.07Q218.85 164.07 217.86 165.04Q216.87 166.01 216.87 167.80ZM237.96 176.14L237.96 176.14Q237.31 176.14 236.84 175.67Q236.37 175.20 236.37 174.54L236.37 174.54Q236.37 173.89 236.84 173.42Q237.31 172.95 237.96 172.95L237.96 172.95Q238.62 172.95 239.09 173.42Q239.56 173.89 239.56 174.54L239.56 174.54Q239.56 175.20 239.09 175.67Q238.62 176.14 237.96 176.14ZM255.86 157.82L258.03 157.82L258.03 176L255.90 176L245.99 161.72L245.81 161.72L245.81 176L243.61 176L243.61 157.82L245.74 157.82L255.68 172.13L255.86 172.13L255.86 157.82ZM273.55 176L262.43 176L262.43 157.82L273.40 157.82L273.40 159.77L264.63 159.77L264.63 165.91L272.84 165.91L272.84 167.87L264.63 167.87L264.63 174.05L273.55 174.05L273.55 176ZM282.10 159.77L276.39 159.77L276.39 157.82L290.02 157.82L290.02 159.77L284.31 159.77L284.31 176L282.10 176L282.10 159.77ZM304.19 176.32L304.19 176.32Q302.90 176.32 301.84 175.83Q300.78 175.33 300.16 174.40Q299.54 173.46 299.54 172.13L299.54 172.13Q299.54 170.96 300.00 170.22Q300.46 169.49 301.24 169.08Q302.01 168.66 302.94 168.45Q303.88 168.24 304.83 168.12L304.83 168.12Q306.07 167.96 306.85 167.87Q307.63 167.79 307.99 167.58Q308.35 167.38 308.35 166.87L308.35 166.87L308.35 166.80Q308.35 165.49 307.63 164.76Q306.92 164.03 305.47 164.03L305.47 164.03Q303.97 164.03 303.12 164.69Q302.27 165.35 301.92 166.09L301.92 166.09L299.93 165.38Q300.46 164.14 301.36 163.44Q302.25 162.75 303.31 162.47Q304.37 162.19 305.40 162.19L305.40 162.19Q306.06 162.19 306.91 162.34Q307.77 162.50 308.57 162.98Q309.38 163.46 309.91 164.42Q310.44 165.39 310.44 167.02L310.44 167.02L310.44 176L308.35 176L308.35 174.15L308.24 174.15Q308.03 174.60 307.53 175.10Q307.03 175.61 306.21 175.96Q305.38 176.32 304.19 176.32ZM304.51 174.44L304.51 174.44Q305.75 174.44 306.61 173.95Q307.47 173.46 307.91 172.69Q308.35 171.92 308.35 171.06L308.35 171.06L308.35 169.15Q308.21 169.31 307.77 169.43Q307.32 169.56 306.74 169.66Q306.15 169.75 305.61 169.82Q305.06 169.88 304.72 169.93L304.72 169.93Q303.91 170.03 303.20 170.27Q302.50 170.50 302.07 170.97Q301.63 171.44 301.63 172.24L301.63 172.24Q301.63 173.33 302.45 173.88Q303.26 174.44 304.51 174.44ZM316.37 167.80L316.37 167.80L316.37 176L314.28 176L314.28 162.36L316.30 162.36L316.30 164.49L316.48 164.49Q316.96 163.46 317.93 162.82Q318.91 162.19 320.46 162.19L320.46 162.19Q322.52 162.19 323.80 163.46Q325.07 164.73 325.07 167.34L325.07 167.34L325.07 176L322.98 176L322.98 167.48Q322.98 165.87 322.14 164.97Q321.31 164.07 319.85 164.07L319.85 164.07Q318.35 164.07 317.36 165.04Q316.37 166.01 316.37 167.80ZM334.06 176.28L334.06 176.28Q332.35 176.28 331.05 175.42Q329.74 174.55 329.01 172.97Q328.27 171.38 328.27 169.22L328.27 169.22Q328.27 167.07 329.01 165.49Q329.74 163.91 331.06 163.05Q332.37 162.19 334.09 162.19L334.09 162.19Q335.42 162.19 336.20 162.63Q336.98 163.06 337.39 163.62Q337.80 164.17 338.03 164.53L338.03 164.53L338.21 164.53L338.21 157.82L340.31 157.82L340.31 176L338.28 176L338.28 173.90L338.03 173.90Q337.80 174.28 337.38 174.84Q336.95 175.41 336.16 175.84Q335.37 176.28 334.06 176.28ZM334.34 174.40L334.34 174.40Q336.23 174.40 337.24 172.95Q338.25 171.50 338.25 169.18L338.25 169.18Q338.25 166.89 337.25 165.48Q336.26 164.07 334.34 164.07L334.34 164.07Q333.01 164.07 332.13 164.75Q331.24 165.43 330.80 166.59Q330.36 167.74 330.36 169.18L330.36 169.18Q330.36 170.64 330.81 171.82Q331.26 173.01 332.14 173.71Q333.03 174.40 334.34 174.40ZM353.94 176L351.74 176L351.74 157.82L357.88 157.82Q360.02 157.82 361.39 158.59Q362.75 159.35 363.41 160.66Q364.06 161.96 364.06 163.57L364.06 163.57Q364.06 165.18 363.41 166.49Q362.76 167.81 361.40 168.58Q360.04 169.36 357.92 169.36L357.92 169.36L353.94 169.36L353.94 176ZM353.94 159.77L353.94 167.41L357.85 167.41Q360.04 167.41 360.97 166.31Q361.90 165.20 361.90 163.57L361.90 163.57Q361.90 161.93 360.97 160.85Q360.03 159.77 357.81 159.77L357.81 159.77L353.94 159.77ZM368.68 181.11L368.68 181.11Q368.15 181.11 367.73 181.03Q367.31 180.94 367.15 180.87L367.15 180.87L367.69 179.02Q368.45 179.21 369.04 179.16Q369.62 179.11 370.08 178.64Q370.54 178.18 370.92 177.14L370.92 177.14L371.31 176.07L366.27 162.36L368.54 162.36L372.30 173.23L372.44 173.23L376.21 162.36L378.48 162.36L372.69 177.99Q371.53 181.11 368.68 181.11ZM384.27 162.36L387.18 162.36L387.18 164.14L384.27 164.14L384.27 172.09Q384.27 172.98 384.53 173.42Q384.79 173.86 385.21 174.01Q385.62 174.15 386.08 174.15L386.08 174.15Q386.43 174.15 386.65 174.11Q386.87 174.07 387.00 174.05L387.00 174.05L387.43 175.93Q387.22 176.01 386.84 176.09Q386.45 176.18 385.87 176.18L385.87 176.18Q384.98 176.18 384.13 175.80Q383.28 175.41 382.73 174.63Q382.17 173.85 382.17 172.66L382.17 172.66L382.17 164.14L380.12 164.14L380.12 162.36L382.17 162.36L382.17 159.10L384.27 159.10L384.27 162.36ZM392.44 167.80L392.44 167.80L392.44 176L390.34 176L390.34 157.82L392.44 157.82L392.44 164.49L392.62 164.49Q393.09 163.44 394.06 162.81Q395.02 162.19 396.63 162.19L396.63 162.19Q398.72 162.19 400.00 163.45Q401.28 164.71 401.28 167.34L401.28 167.34L401.28 176L399.18 176L399.18 167.48Q399.18 165.85 398.35 164.96Q397.51 164.07 396.02 164.07L396.02 164.07Q394.47 164.07 393.45 165.04Q392.44 166.01 392.44 167.80ZM410.65 176.28L410.65 176.28Q408.81 176.28 407.42 175.41Q406.03 174.53 405.25 172.95Q404.48 171.37 404.48 169.25L404.48 169.25Q404.48 167.12 405.25 165.53Q406.03 163.94 407.42 163.06Q408.81 162.19 410.65 162.19L410.65 162.19Q412.50 162.19 413.89 163.06Q415.28 163.94 416.06 165.53Q416.83 167.12 416.83 169.25L416.83 169.25Q416.83 171.37 416.06 172.95Q415.28 174.53 413.89 175.41Q412.50 176.28 410.65 176.28ZM410.65 174.40L410.65 174.40Q412.06 174.40 412.96 173.68Q413.87 172.96 414.30 171.79Q414.74 170.62 414.74 169.25L414.74 169.25Q414.74 167.89 414.30 166.70Q413.87 165.52 412.96 164.80Q412.06 164.07 410.65 164.07L410.65 164.07Q409.25 164.07 408.35 164.80Q407.44 165.52 407.01 166.70Q406.57 167.89 406.57 169.25L406.57 169.25Q406.57 170.62 407.01 171.79Q407.44 172.96 408.35 173.68Q409.25 174.40 410.65 174.40ZM422.13 167.80L422.13 167.80L422.13 176L420.03 176L420.03 162.36L422.05 162.36L422.05 164.49L422.23 164.49Q422.71 163.46 423.69 162.82Q424.66 162.19 426.21 162.19L426.21 162.19Q428.28 162.19 429.55 163.46Q430.83 164.73 430.83 167.34L430.83 167.34L430.83 176L428.73 176L428.73 167.48Q428.73 165.87 427.90 164.97Q427.06 164.07 425.61 164.07L425.61 164.07Q424.10 164.07 423.11 165.04Q422.13 166.01 422.13 167.80ZM436.19 176.14L436.19 176.14Q435.53 176.14 435.06 175.67Q434.59 175.20 434.59 174.54L434.59 174.54Q434.59 173.89 435.06 173.42Q435.53 172.95 436.19 172.95L436.19 172.95Q436.84 172.95 437.31 173.42Q437.79 173.89 437.79 174.54L437.79 174.54Q437.79 175.20 437.31 175.67Q436.84 176.14 436.19 176.14ZM459.98 176L448.87 176L448.87 157.82L459.84 157.82L459.84 159.77L451.07 159.77L451.07 165.91L459.27 165.91L459.27 167.87L451.07 167.87L451.07 174.05L459.98 174.05L459.98 176ZM462.68 162.36L465.09 162.36L468.36 167.94L471.63 162.36L474.04 162.36L469.64 169.18L474.04 176L471.63 176L468.36 170.71L465.09 176L462.68 176L467.01 169.18L462.68 162.36ZM479.12 181.11L477.03 181.11L477.03 162.36L479.05 162.36L479.05 164.53L479.30 164.53Q479.53 164.17 479.94 163.62Q480.35 163.06 481.13 162.63Q481.91 162.19 483.24 162.19L483.24 162.19Q484.96 162.19 486.28 163.05Q487.59 163.91 488.33 165.49Q489.06 167.07 489.06 169.22L489.06 169.22Q489.06 171.38 488.33 172.97Q487.59 174.55 486.29 175.42Q484.98 176.28 483.28 176.28L483.28 176.28Q481.96 176.28 481.17 175.84Q480.38 175.41 479.96 174.84Q479.53 174.28 479.30 173.90L479.30 173.90L479.12 173.90L479.12 181.11ZM479.09 169.18L479.09 169.18Q479.09 171.50 480.09 172.95Q481.10 174.40 482.99 174.40L482.99 174.40Q484.31 174.40 485.19 173.71Q486.07 173.01 486.52 171.82Q486.97 170.64 486.97 169.18L486.97 169.18Q486.97 167.74 486.53 166.59Q486.09 165.43 485.21 164.75Q484.32 164.07 482.99 164.07L482.99 164.07Q481.07 164.07 480.08 165.48Q479.09 166.89 479.09 169.18ZM497.98 176.28L497.98 176.28Q496.01 176.28 494.58 175.41Q493.16 174.54 492.39 172.96Q491.62 171.38 491.62 169.29L491.62 169.29Q491.62 167.19 492.39 165.59Q493.16 163.99 494.54 163.09Q495.92 162.19 497.76 162.19L497.76 162.19Q498.83 162.19 499.87 162.54Q500.91 162.90 501.76 163.69Q502.61 164.49 503.12 165.79Q503.62 167.10 503.62 169.00L503.62 169.00L503.62 169.89L493.72 169.89Q493.80 172.08 494.96 173.24Q496.13 174.40 497.98 174.40L497.98 174.40Q499.21 174.40 500.10 173.87Q500.99 173.34 501.39 172.27L501.39 172.27L503.41 172.84Q502.93 174.38 501.49 175.33Q500.05 176.28 497.98 176.28ZM493.72 168.08L493.72 168.08L501.49 168.08Q501.49 166.35 500.48 165.21Q499.47 164.07 497.76 164.07L497.76 164.07Q496.57 164.07 495.69 164.63Q494.81 165.19 494.30 166.11Q493.80 167.02 493.72 168.08ZM508.91 176L506.82 176L506.82 162.36L508.84 162.36L508.84 164.42L508.99 164.42Q509.36 163.41 510.34 162.78Q511.31 162.15 512.54 162.15L512.54 162.15Q512.77 162.15 513.11 162.16Q513.46 162.17 513.64 162.19L513.64 162.19L513.64 164.32Q513.53 164.29 513.15 164.23Q512.78 164.17 512.36 164.17L512.36 164.17Q510.87 164.17 509.89 165.08Q508.91 165.99 508.91 167.37L508.91 167.37L508.91 176ZM518.22 176L516.12 176L516.12 162.36L518.22 162.36L518.22 176ZM517.19 160.09L517.19 160.09Q516.58 160.09 516.14 159.67Q515.70 159.26 515.70 158.67L515.70 158.67Q515.70 158.08 516.14 157.67Q516.58 157.25 517.19 157.25L517.19 157.25Q517.80 157.25 518.24 157.67Q518.68 158.08 518.68 158.67L518.68 158.67Q518.68 159.26 518.24 159.67Q517.80 160.09 517.19 160.09ZM524.15 176L522.05 176L522.05 162.36L524.08 162.36L524.08 164.49L524.26 164.49Q524.68 163.40 525.63 162.79Q526.58 162.19 527.91 162.19L527.91 162.19Q529.26 162.19 530.16 162.79Q531.06 163.40 531.57 164.49L531.57 164.49L531.71 164.49Q532.24 163.44 533.28 162.81Q534.33 162.19 535.80 162.19L535.80 162.19Q537.63 162.19 538.79 163.33Q539.95 164.47 539.95 166.87L539.95 166.87L539.95 176L537.86 176L537.86 166.87Q537.86 165.36 537.03 164.72Q536.21 164.07 535.09 164.07L535.09 164.07Q533.65 164.07 532.86 164.93Q532.07 165.80 532.07 167.12L532.07 167.12L532.07 176L529.94 176L529.94 166.66Q529.94 165.50 529.18 164.78Q528.43 164.07 527.24 164.07L527.24 164.07Q526.42 164.07 525.72 164.50Q525.01 164.94 524.58 165.71Q524.15 166.47 524.15 167.48L524.15 167.48L524.15 176ZM549.50 176.28L549.50 176.28Q547.53 176.28 546.11 175.41Q544.68 174.54 543.92 172.96Q543.15 171.38 543.15 169.29L543.15 169.29Q543.15 167.19 543.92 165.59Q544.68 163.99 546.06 163.09Q547.44 162.19 549.29 162.19L549.29 162.19Q550.36 162.19 551.40 162.54Q552.43 162.90 553.29 163.69Q554.14 164.49 554.64 165.79Q555.15 167.10 555.15 169.00L555.15 169.00L555.15 169.89L545.25 169.89Q545.32 172.08 546.49 173.24Q547.66 174.40 549.50 174.40L549.50 174.40Q550.74 174.40 551.63 173.87Q552.51 173.34 552.91 172.27L552.91 172.27L554.94 172.84Q554.46 174.38 553.02 175.33Q551.58 176.28 549.50 176.28ZM545.25 168.08L545.25 168.08L553.02 168.08Q553.02 166.35 552.01 165.21Q551.00 164.07 549.29 164.07L549.29 164.07Q548.09 164.07 547.21 164.63Q546.33 165.19 545.83 166.11Q545.32 167.02 545.25 168.08ZM560.44 167.80L560.44 167.80L560.44 176L558.35 176L558.35 162.36L560.37 162.36L560.37 164.49L560.55 164.49Q561.03 163.46 562.00 162.82Q562.98 162.19 564.53 162.19L564.53 162.19Q566.59 162.19 567.87 163.46Q569.14 164.73 569.14 167.34L569.14 167.34L569.14 176L567.05 176L567.05 167.48Q567.05 165.87 566.21 164.97Q565.38 164.07 563.92 164.07L563.92 164.07Q562.42 164.07 561.43 165.04Q560.44 166.01 560.44 167.80ZM576.00 162.36L578.91 162.36L578.91 164.14L576.00 164.14L576.00 172.09Q576.00 172.98 576.26 173.42Q576.52 173.86 576.93 174.01Q577.35 174.15 577.81 174.15L577.81 174.15Q578.15 174.15 578.38 174.11Q578.60 174.07 578.73 174.05L578.73 174.05L579.16 175.93Q578.94 176.01 578.56 176.09Q578.18 176.18 577.59 176.18L577.59 176.18Q576.71 176.18 575.86 175.80Q575.01 175.41 574.46 174.63Q573.90 173.85 573.90 172.66L573.90 172.66L573.90 164.14L571.84 164.14L571.84 162.36L573.90 162.36L573.90 159.10L576.00 159.10L576.00 162.36ZM591.73 165.42L591.73 165.42L589.85 165.95Q589.57 165.24 588.92 164.62Q588.27 164.00 586.90 164.00L586.90 164.00Q585.65 164.00 584.82 164.57Q583.99 165.14 583.99 166.02L583.99 166.02Q583.99 166.80 584.55 167.26Q585.12 167.71 586.33 168.01L586.33 168.01L588.35 168.51Q591.98 169.39 591.98 172.20L591.98 172.20Q591.98 173.37 591.31 174.30Q590.64 175.22 589.44 175.75Q588.24 176.28 586.65 176.28L586.65 176.28Q584.56 176.28 583.20 175.38Q581.83 174.47 581.46 172.73L581.46 172.73L583.45 172.24Q584.01 174.44 586.61 174.44L586.61 174.44Q588.08 174.44 588.94 173.81Q589.81 173.19 589.81 172.31L589.81 172.31Q589.81 170.86 587.79 170.39L587.79 170.39L585.51 169.86Q583.64 169.41 582.77 168.48Q581.89 167.54 581.89 166.13L581.89 166.13Q581.89 164.97 582.54 164.09Q583.20 163.20 584.33 162.69Q585.46 162.19 586.90 162.19L586.90 162.19Q588.92 162.19 590.08 163.07Q591.24 163.96 591.73 165.42ZM595.99 173.51L598.26 173.51L598.12 174.47Q597.97 175.49 597.66 176.64Q597.36 177.79 597.03 178.81Q596.70 179.84 596.49 180.44L596.49 180.44L594.89 180.44Q595.00 179.87 595.19 178.94Q595.38 178.01 595.57 176.86Q595.76 175.71 595.88 174.51L595.88 174.51L595.99 173.51ZM611.26 181.11L609.16 181.11L609.16 162.36L611.19 162.36L611.19 164.53L611.44 164.53Q611.67 164.17 612.08 163.62Q612.49 163.06 613.27 162.63Q614.05 162.19 615.38 162.19L615.38 162.19Q617.10 162.19 618.41 163.05Q619.73 163.91 620.46 165.49Q621.20 167.07 621.20 169.22L621.20 169.22Q621.20 171.38 620.46 172.97Q619.73 174.55 618.42 175.42Q617.12 176.28 615.41 176.28L615.41 176.28Q614.10 176.28 613.31 175.84Q612.52 175.41 612.09 174.84Q611.67 174.28 611.44 173.90L611.44 173.90L611.26 173.90L611.26 181.11ZM611.22 169.18L611.22 169.18Q611.22 171.50 612.23 172.95Q613.24 174.40 615.13 174.40L615.13 174.40Q616.44 174.40 617.33 173.71Q618.21 173.01 618.66 171.82Q619.11 170.64 619.11 169.18L619.11 169.18Q619.11 167.74 618.67 166.59Q618.23 165.43 617.34 164.75Q616.46 164.07 615.13 164.07L615.13 164.07Q613.21 164.07 612.22 165.48Q611.22 166.89 611.22 169.18ZM628.41 176.32L628.41 176.32Q627.11 176.32 626.06 175.83Q625.00 175.33 624.38 174.40Q623.76 173.46 623.76 172.13L623.76 172.13Q623.76 170.96 624.22 170.22Q624.68 169.49 625.45 169.08Q626.23 168.66 627.16 168.45Q628.10 168.24 629.05 168.12L629.05 168.12Q630.29 167.96 631.07 167.87Q631.85 167.79 632.21 167.58Q632.57 167.38 632.57 166.87L632.57 166.87L632.57 166.80Q632.57 165.49 631.85 164.76Q631.14 164.03 629.69 164.03L629.69 164.03Q628.19 164.03 627.34 164.69Q626.48 165.35 626.14 166.09L626.14 166.09L624.15 165.38Q624.68 164.14 625.57 163.44Q626.47 162.75 627.53 162.47Q628.59 162.19 629.62 162.19L629.62 162.19Q630.27 162.19 631.13 162.34Q631.99 162.50 632.79 162.98Q633.60 163.46 634.13 164.42Q634.66 165.39 634.66 167.02L634.66 167.02L634.66 176L632.57 176L632.57 174.15L632.46 174.15Q632.25 174.60 631.75 175.10Q631.25 175.61 630.43 175.96Q629.60 176.32 628.41 176.32ZM628.73 174.44L628.73 174.44Q629.97 174.44 630.83 173.95Q631.69 173.46 632.13 172.69Q632.57 171.92 632.57 171.06L632.57 171.06L632.57 169.15Q632.43 169.31 631.98 169.43Q631.54 169.56 630.95 169.66Q630.37 169.75 629.83 169.82Q629.28 169.88 628.94 169.93L628.94 169.93Q628.13 170.03 627.42 170.27Q626.71 170.50 626.28 170.97Q625.85 171.44 625.85 172.24L625.85 172.24Q625.85 173.33 626.67 173.88Q627.48 174.44 628.73 174.44ZM640.59 176L638.50 176L638.50 162.36L640.52 162.36L640.52 164.42L640.66 164.42Q641.03 163.41 642.01 162.78Q642.99 162.15 644.21 162.15L644.21 162.15Q644.44 162.15 644.79 162.16Q645.14 162.17 645.31 162.19L645.31 162.19L645.31 164.32Q645.21 164.29 644.83 164.23Q644.45 164.17 644.04 164.17L644.04 164.17Q642.54 164.17 641.57 165.08Q640.59 165.99 640.59 167.37L640.59 167.37L640.59 176ZM650.82 162.36L653.73 162.36L653.73 164.14L650.82 164.14L650.82 172.09Q650.82 172.98 651.08 173.42Q651.34 173.86 651.75 174.01Q652.17 174.15 652.63 174.15L652.63 174.15Q652.98 174.15 653.20 174.11Q653.42 174.07 653.55 174.05L653.55 174.05L653.98 175.93Q653.77 176.01 653.38 176.09Q653.00 176.18 652.42 176.18L652.42 176.18Q651.53 176.18 650.68 175.80Q649.83 175.41 649.28 174.63Q648.72 173.85 648.72 172.66L648.72 172.66L648.72 164.14L646.66 164.14L646.66 162.36L648.72 162.36L648.72 159.10L650.82 159.10L650.82 162.36ZM658.99 176L656.89 176L656.89 162.36L658.99 162.36L658.99 176ZM657.96 160.09L657.96 160.09Q657.34 160.09 656.90 159.67Q656.46 159.26 656.46 158.67L656.46 158.67Q656.46 158.08 656.90 157.67Q657.34 157.25 657.96 157.25L657.96 157.25Q658.57 157.25 659.01 157.67Q659.45 158.08 659.45 158.67L659.45 158.67Q659.45 159.26 659.01 159.67Q658.57 160.09 657.96 160.09ZM666.83 176.32L666.83 176.32Q665.54 176.32 664.48 175.83Q663.42 175.33 662.80 174.40Q662.18 173.46 662.18 172.13L662.18 172.13Q662.18 170.96 662.64 170.22Q663.11 169.49 663.88 169.08Q664.65 168.66 665.59 168.45Q666.52 168.24 667.47 168.12L667.47 168.12Q668.72 167.96 669.49 167.87Q670.27 167.79 670.63 167.58Q670.99 167.38 670.99 166.87L670.99 166.87L670.99 166.80Q670.99 165.49 670.27 164.76Q669.56 164.03 668.11 164.03L668.11 164.03Q666.61 164.03 665.76 164.69Q664.91 165.35 664.56 166.09L664.56 166.09L662.57 165.38Q663.11 164.14 664.00 163.44Q664.89 162.75 665.95 162.47Q667.01 162.19 668.04 162.19L668.04 162.19Q668.70 162.19 669.55 162.34Q670.41 162.50 671.22 162.98Q672.02 163.46 672.55 164.42Q673.08 165.39 673.08 167.02L673.08 167.02L673.08 176L670.99 176L670.99 174.15L670.88 174.15Q670.67 174.60 670.17 175.10Q669.67 175.61 668.85 175.96Q668.02 176.32 666.83 176.32ZM667.15 174.44L667.15 174.44Q668.40 174.44 669.25 173.95Q670.11 173.46 670.55 172.69Q670.99 171.92 670.99 171.06L670.99 171.06L670.99 169.15Q670.86 169.31 670.41 169.43Q669.96 169.56 669.38 169.66Q668.80 169.75 668.25 169.82Q667.70 169.88 667.37 169.93L667.37 169.93Q666.55 170.03 665.84 170.27Q665.14 170.50 664.71 170.97Q664.28 171.44 664.28 172.24L664.28 172.24Q664.28 173.33 665.09 173.88Q665.90 174.44 667.15 174.44ZM676.92 157.82L679.01 157.82L679.01 176L676.92 176L676.92 157.82ZM693.89 176.32L693.89 176.32Q692.60 176.32 691.54 175.83Q690.48 175.33 689.86 174.40Q689.24 173.46 689.24 172.13L689.24 172.13Q689.24 170.96 689.70 170.22Q690.16 169.49 690.94 169.08Q691.71 168.66 692.65 168.45Q693.58 168.24 694.53 168.12L694.53 168.12Q695.78 167.96 696.55 167.87Q697.33 167.79 697.69 167.58Q698.05 167.38 698.05 166.87L698.05 166.87L698.05 166.80Q698.05 165.49 697.33 164.76Q696.62 164.03 695.17 164.03L695.17 164.03Q693.67 164.03 692.82 164.69Q691.97 165.35 691.62 166.09L691.62 166.09L689.63 165.38Q690.16 164.14 691.06 163.44Q691.95 162.75 693.01 162.47Q694.07 162.19 695.10 162.19L695.10 162.19Q695.76 162.19 696.61 162.34Q697.47 162.50 698.27 162.98Q699.08 163.46 699.61 164.42Q700.14 165.39 700.14 167.02L700.14 167.02L700.14 176L698.05 176L698.05 174.15L697.94 174.15Q697.73 174.60 697.23 175.10Q696.73 175.61 695.91 175.96Q695.08 176.32 693.89 176.32ZM694.21 174.44L694.21 174.44Q695.46 174.44 696.31 173.95Q697.17 173.46 697.61 172.69Q698.05 171.92 698.05 171.06L698.05 171.06L698.05 169.15Q697.92 169.31 697.47 169.43Q697.02 169.56 696.44 169.66Q695.86 169.75 695.31 169.82Q694.76 169.88 694.43 169.93L694.43 169.93Q693.61 170.03 692.90 170.27Q692.20 170.50 691.77 170.97Q691.34 171.44 691.34 172.24L691.34 172.24Q691.34 173.33 692.15 173.88Q692.96 174.44 694.21 174.44ZM706.07 167.80L706.07 167.80L706.07 176L703.98 176L703.98 162.36L706.00 162.36L706.00 164.49L706.18 164.49Q706.66 163.46 707.64 162.82Q708.61 162.19 710.16 162.19L710.16 162.19Q712.23 162.19 713.50 163.46Q714.77 164.73 714.77 167.34L714.77 167.34L714.77 176L712.68 176L712.68 167.48Q712.68 165.87 711.84 164.97Q711.01 164.07 709.55 164.07L709.55 164.07Q708.05 164.07 707.06 165.04Q706.07 166.01 706.07 167.80ZM728.27 165.42L728.27 165.42L726.39 165.95Q726.11 165.24 725.46 164.62Q724.81 164.00 723.44 164.00L723.44 164.00Q722.19 164.00 721.36 164.57Q720.53 165.14 720.53 166.02L720.53 166.02Q720.53 166.80 721.10 167.26Q721.66 167.71 722.87 168.01L722.87 168.01L724.89 168.51Q728.52 169.39 728.52 172.20L728.52 172.20Q728.52 173.37 727.85 174.30Q727.18 175.22 725.98 175.75Q724.78 176.28 723.19 176.28L723.19 176.28Q721.10 176.28 719.74 175.38Q718.37 174.47 718.01 172.73L718.01 172.73L719.99 172.24Q720.55 174.44 723.15 174.44L723.15 174.44Q724.62 174.44 725.49 173.81Q726.35 173.19 726.35 172.31L726.35 172.31Q726.35 170.86 724.33 170.39L724.33 170.39L722.05 169.86Q720.18 169.41 719.31 168.48Q718.43 167.54 718.43 166.13L718.43 166.13Q718.43 164.97 719.08 164.09Q719.74 163.20 720.87 162.69Q722.00 162.19 723.44 162.19L723.44 162.19Q725.46 162.19 726.62 163.07Q727.78 163.96 728.27 165.42ZM736.83 176L734.77 176L730.61 162.36L732.81 162.36L735.76 172.80L735.90 172.80L738.82 162.36L741.05 162.36L743.93 172.77L744.07 172.77L747.02 162.36L749.22 162.36L745.07 176L743.01 176L740.02 165.52L739.81 165.52L736.83 176ZM757.71 176.28L757.71 176.28Q755.74 176.28 754.31 175.41Q752.89 174.54 752.12 172.96Q751.35 171.38 751.35 169.29L751.35 169.29Q751.35 167.19 752.12 165.59Q752.89 163.99 754.27 163.09Q755.65 162.19 757.49 162.19L757.49 162.19Q758.56 162.19 759.60 162.54Q760.64 162.90 761.49 163.69Q762.34 164.49 762.85 165.79Q763.35 167.10 763.35 169.00L763.35 169.00L763.35 169.89L753.45 169.89Q753.53 172.08 754.69 173.24Q755.86 174.40 757.71 174.40L757.71 174.40Q758.94 174.40 759.83 173.87Q760.72 173.34 761.12 172.27L761.12 172.27L763.14 172.84Q762.66 174.38 761.22 175.33Q759.78 176.28 757.71 176.28ZM753.45 168.08L753.45 168.08L761.22 168.08Q761.22 166.35 760.21 165.21Q759.20 164.07 757.49 164.07L757.49 164.07Q756.30 164.07 755.42 164.63Q754.54 165.19 754.03 166.11Q753.53 167.02 753.45 168.08ZM768.64 176L766.55 176L766.55 162.36L768.57 162.36L768.57 164.42L768.72 164.42Q769.09 163.41 770.07 162.78Q771.04 162.15 772.27 162.15L772.27 162.15Q772.50 162.15 772.84 162.16Q773.19 162.17 773.37 162.19L773.37 162.19L773.37 164.32Q773.26 164.29 772.88 164.23Q772.51 164.17 772.09 164.17L772.09 164.17Q770.60 164.17 769.62 165.08Q768.64 165.99 768.64 167.37L768.64 167.37L768.64 176ZM785.51 165.42L785.51 165.42L783.63 165.95Q783.36 165.24 782.71 164.62Q782.06 164.00 780.68 164.00L780.68 164.00Q779.43 164.00 778.60 164.57Q777.77 165.14 777.77 166.02L777.77 166.02Q777.77 166.80 778.34 167.26Q778.91 167.71 780.12 168.01L780.12 168.01L782.14 168.51Q785.76 169.39 785.76 172.20L785.76 172.20Q785.76 173.37 785.09 174.30Q784.42 175.22 783.22 175.75Q782.02 176.28 780.43 176.28L780.43 176.28Q778.35 176.28 776.98 175.38Q775.61 174.47 775.25 172.73L775.25 172.73L777.24 172.24Q777.80 174.44 780.40 174.44L780.40 174.44Q781.86 174.44 782.73 173.81Q783.60 173.19 783.60 172.31L783.60 172.31Q783.60 170.86 781.57 170.39L781.57 170.39L779.30 169.86Q777.43 169.41 776.55 168.48Q775.68 167.54 775.68 166.13L775.68 166.13Q775.68 164.97 776.33 164.09Q776.98 163.20 778.11 162.69Q779.25 162.19 780.68 162.19L780.68 162.19Q782.71 162.19 783.87 163.07Q785.02 163.96 785.51 165.42ZM789.77 173.51L792.05 173.51L791.90 174.47Q791.75 175.49 791.45 176.64Q791.14 177.79 790.81 178.81Q790.48 179.84 790.27 180.44L790.27 180.44L788.67 180.44Q788.79 179.87 788.98 178.94Q789.16 178.01 789.35 176.86Q789.54 175.71 789.67 174.51L789.67 174.51L789.77 173.51ZM808.49 176.28L808.49 176.28Q806.64 176.28 805.25 175.41Q803.86 174.53 803.09 172.95Q802.31 171.37 802.31 169.25L802.31 169.25Q802.31 167.12 803.09 165.53Q803.86 163.94 805.25 163.06Q806.64 162.19 808.49 162.19L808.49 162.19Q810.34 162.19 811.72 163.06Q813.11 163.94 813.89 165.53Q814.67 167.12 814.67 169.25L814.67 169.25Q814.67 171.37 813.89 172.95Q813.11 174.53 811.72 175.41Q810.34 176.28 808.49 176.28ZM808.49 174.40L808.49 174.40Q809.89 174.40 810.80 173.68Q811.70 172.96 812.14 171.79Q812.57 170.62 812.57 169.25L812.57 169.25Q812.57 167.89 812.14 166.70Q811.70 165.52 810.80 164.80Q809.89 164.07 808.49 164.07L808.49 164.07Q807.09 164.07 806.18 164.80Q805.27 165.52 804.84 166.70Q804.40 167.89 804.40 169.25L804.40 169.25Q804.40 170.62 804.84 171.79Q805.27 172.96 806.18 173.68Q807.09 174.40 808.49 174.40ZM819.96 181.11L817.86 181.11L817.86 162.36L819.89 162.36L819.89 164.53L820.14 164.53Q820.37 164.17 820.78 163.62Q821.19 163.06 821.97 162.63Q822.75 162.19 824.08 162.19L824.08 162.19Q825.80 162.19 827.11 163.05Q828.43 163.91 829.17 165.49Q829.90 167.07 829.90 169.22L829.90 169.22Q829.90 171.38 829.17 172.97Q828.43 174.55 827.12 175.42Q825.82 176.28 824.11 176.28L824.11 176.28Q822.80 176.28 822.01 175.84Q821.22 175.41 820.79 174.84Q820.37 174.28 820.14 173.90L820.14 173.90L819.96 173.90L819.96 181.11ZM819.92 169.18L819.92 169.18Q819.92 171.50 820.93 172.95Q821.94 174.40 823.83 174.40L823.83 174.40Q825.14 174.40 826.03 173.71Q826.91 173.01 827.36 171.82Q827.81 170.64 827.81 169.18L827.81 169.18Q827.81 167.74 827.37 166.59Q826.93 165.43 826.04 164.75Q825.16 164.07 823.83 164.07L823.83 164.07Q821.91 164.07 820.92 165.48Q819.92 166.89 819.92 169.18ZM838.82 176.28L838.82 176.28Q836.84 176.28 835.42 175.41Q833.99 174.54 833.23 172.96Q832.46 171.38 832.46 169.29L832.46 169.29Q832.46 167.19 833.23 165.59Q833.99 163.99 835.38 163.09Q836.76 162.19 838.60 162.19L838.60 162.19Q839.67 162.19 840.71 162.54Q841.75 162.90 842.60 163.69Q843.45 164.49 843.96 165.79Q844.46 167.10 844.46 169.00L844.46 169.00L844.46 169.89L834.56 169.89Q834.63 172.08 835.80 173.24Q836.97 174.40 838.82 174.40L838.82 174.40Q840.05 174.40 840.94 173.87Q841.82 173.34 842.22 172.27L842.22 172.27L844.25 172.84Q843.77 174.38 842.33 175.33Q840.89 176.28 838.82 176.28ZM834.56 168.08L834.56 168.08L842.33 168.08Q842.33 166.35 841.32 165.21Q840.31 164.07 838.60 164.07L838.60 164.07Q837.40 164.07 836.52 164.63Q835.65 165.19 835.14 166.11Q834.63 167.02 834.56 168.08ZM849.75 167.80L849.75 167.80L849.75 176L847.66 176L847.66 162.36L849.68 162.36L849.68 164.49L849.86 164.49Q850.34 163.46 851.32 162.82Q852.29 162.19 853.84 162.19L853.84 162.19Q855.91 162.19 857.18 163.46Q858.45 164.73 858.45 167.34L858.45 167.34L858.45 176L856.36 176L856.36 167.48Q856.36 165.87 855.52 164.97Q854.69 164.07 853.23 164.07L853.23 164.07Q851.73 164.07 850.74 165.04Q849.75 166.01 849.75 167.80ZM880.72 181.11L878.62 181.11L878.62 173.90L878.45 173.90Q878.22 174.28 877.79 174.84Q877.36 175.41 876.57 175.84Q875.78 176.28 874.47 176.28L874.47 176.28Q872.76 176.28 871.46 175.42Q870.15 174.55 869.42 172.97Q868.68 171.38 868.68 169.22L868.68 169.22Q868.68 167.07 869.42 165.49Q870.15 163.91 871.47 163.05Q872.78 162.19 874.50 162.19L874.50 162.19Q875.84 162.19 876.61 162.63Q877.39 163.06 877.80 163.62Q878.22 164.17 878.45 164.53L878.45 164.53L878.69 164.53L878.69 162.36L880.72 162.36L880.72 181.11ZM874.75 174.40L874.75 174.40Q876.64 174.40 877.65 172.95Q878.66 171.50 878.66 169.18L878.66 169.18Q878.66 166.89 877.66 165.48Q876.67 164.07 874.75 164.07L874.75 164.07Q873.42 164.07 872.54 164.75Q871.65 165.43 871.22 166.59Q870.78 167.74 870.78 169.18L870.78 169.18Q870.78 170.64 871.22 171.82Q871.67 173.01 872.56 173.71Q873.44 174.40 874.75 174.40ZM893.15 170.42L893.15 170.42L893.15 162.36L895.24 162.36L895.24 176L893.15 176L893.15 173.69L893.01 173.69Q892.53 174.73 891.51 175.45Q890.50 176.18 888.96 176.18L888.96 176.18Q887.04 176.18 885.80 174.91Q884.55 173.64 884.55 171.03L884.55 171.03L884.55 162.36L886.65 162.36L886.65 170.89Q886.65 172.38 887.49 173.27Q888.33 174.15 889.63 174.15L889.63 174.15Q890.41 174.15 891.23 173.75Q892.04 173.35 892.59 172.53Q893.15 171.70 893.15 170.42ZM904.80 176.28L904.80 176.28Q902.82 176.28 901.40 175.41Q899.97 174.54 899.21 172.96Q898.44 171.38 898.44 169.29L898.44 169.29Q898.44 167.19 899.21 165.59Q899.97 163.99 901.36 163.09Q902.74 162.19 904.58 162.19L904.58 162.19Q905.65 162.19 906.69 162.54Q907.73 162.90 908.58 163.69Q909.43 164.49 909.94 165.79Q910.44 167.10 910.44 169.00L910.44 169.00L910.44 169.89L900.54 169.89Q900.61 172.08 901.78 173.24Q902.95 174.40 904.80 174.40L904.80 174.40Q906.03 174.40 906.92 173.87Q907.81 173.34 908.20 172.27L908.20 172.27L910.23 172.84Q909.75 174.38 908.31 175.33Q906.87 176.28 904.80 176.28ZM900.54 168.08L900.54 168.08L908.31 168.08Q908.31 166.35 907.30 165.21Q906.29 164.07 904.58 164.07L904.58 164.07Q903.38 164.07 902.50 164.63Q901.63 165.19 901.12 166.11Q900.61 167.02 900.54 168.08ZM923.30 165.42L923.30 165.42L921.41 165.95Q921.14 165.24 920.49 164.62Q919.84 164.00 918.47 164.00L918.47 164.00Q917.22 164.00 916.39 164.57Q915.56 165.14 915.56 166.02L915.56 166.02Q915.56 166.80 916.12 167.26Q916.69 167.71 917.90 168.01L917.90 168.01L919.92 168.51Q923.55 169.39 923.55 172.20L923.55 172.20Q923.55 173.37 922.88 174.30Q922.20 175.22 921.01 175.75Q919.81 176.28 918.22 176.28L918.22 176.28Q916.13 176.28 914.77 175.38Q913.40 174.47 913.03 172.73L913.03 172.73L915.02 172.24Q915.58 174.44 918.18 174.44L918.18 174.44Q919.65 174.44 920.51 173.81Q921.38 173.19 921.38 172.31L921.38 172.31Q921.38 170.86 919.36 170.39L919.36 170.39L917.08 169.86Q915.21 169.41 914.33 168.48Q913.46 167.54 913.46 166.13L913.46 166.13Q913.46 164.97 914.11 164.09Q914.77 163.20 915.90 162.69Q917.03 162.19 918.47 162.19L918.47 162.19Q920.49 162.19 921.65 163.07Q922.81 163.96 923.30 165.42ZM929.72 162.36L932.64 162.36L932.64 164.14L929.72 164.14L929.72 172.09Q929.72 172.98 929.99 173.42Q930.25 173.86 930.66 174.01Q931.07 174.15 931.54 174.15L931.54 174.15Q931.88 174.15 932.10 174.11Q932.33 174.07 932.46 174.05L932.46 174.05L932.88 175.93Q932.67 176.01 932.29 176.09Q931.91 176.18 931.32 176.18L931.32 176.18Q930.43 176.18 929.59 175.80Q928.74 175.41 928.18 174.63Q927.63 173.85 927.63 172.66L927.63 172.66L927.63 164.14L925.57 164.14L925.57 162.36L927.63 162.36L927.63 159.10L929.72 159.10L929.72 162.36ZM937.89 176L935.80 176L935.80 162.36L937.89 162.36L937.89 176ZM936.86 160.09L936.86 160.09Q936.25 160.09 935.81 159.67Q935.37 159.26 935.37 158.67L935.37 158.67Q935.37 158.08 935.81 157.67Q936.25 157.25 936.86 157.25L936.86 157.25Q937.47 157.25 937.91 157.67Q938.35 158.08 938.35 158.67L938.35 158.67Q938.35 159.26 937.91 159.67Q937.47 160.09 936.86 160.09ZM947.27 176.28L947.27 176.28Q945.42 176.28 944.03 175.41Q942.64 174.53 941.86 172.95Q941.09 171.37 941.09 169.25L941.09 169.25Q941.09 167.12 941.86 165.53Q942.64 163.94 944.03 163.06Q945.42 162.19 947.27 162.19L947.27 162.19Q949.11 162.19 950.50 163.06Q951.89 163.94 952.67 165.53Q953.45 167.12 953.45 169.25L953.45 169.25Q953.45 171.37 952.67 172.95Q951.89 174.53 950.50 175.41Q949.11 176.28 947.27 176.28ZM947.27 174.40L947.27 174.40Q948.67 174.40 949.58 173.68Q950.48 172.96 950.92 171.79Q951.35 170.62 951.35 169.25L951.35 169.25Q951.35 167.89 950.92 166.70Q950.48 165.52 949.58 164.80Q948.67 164.07 947.27 164.07L947.27 164.07Q945.86 164.07 944.96 164.80Q944.05 165.52 943.62 166.70Q943.18 167.89 943.18 169.25L943.18 169.25Q943.18 170.62 943.62 171.79Q944.05 172.96 944.96 173.68Q945.86 174.40 947.27 174.40ZM958.74 167.80L958.74 167.80L958.74 176L956.64 176L956.64 162.36L958.67 162.36L958.67 164.49L958.84 164.49Q959.32 163.46 960.30 162.82Q961.28 162.19 962.82 162.19L962.82 162.19Q964.89 162.19 966.16 163.46Q967.44 164.73 967.44 167.34L967.44 167.34L967.44 176L965.34 176L965.34 167.48Q965.34 165.87 964.51 164.97Q963.67 164.07 962.22 164.07L962.22 164.07Q960.72 164.07 959.73 165.04Q958.74 166.01 958.74 167.80ZM980.93 165.42L980.93 165.42L979.05 165.95Q978.77 165.24 978.13 164.62Q977.48 164.00 976.10 164.00L976.10 164.00Q974.85 164.00 974.02 164.57Q973.19 165.14 973.19 166.02L973.19 166.02Q973.19 166.80 973.76 167.26Q974.33 167.71 975.53 168.01L975.53 168.01L977.56 168.51Q981.18 169.39 981.18 172.20L981.18 172.20Q981.18 173.37 980.51 174.30Q979.84 175.22 978.64 175.75Q977.44 176.28 975.85 176.28L975.85 176.28Q973.77 176.28 972.40 175.38Q971.03 174.47 970.67 172.73L970.67 172.73L972.66 172.24Q973.22 174.44 975.82 174.44L975.82 174.44Q977.28 174.44 978.15 173.81Q979.01 173.19 979.01 172.31L979.01 172.31Q979.01 170.86 976.99 170.39L976.99 170.39L974.72 169.86Q972.84 169.41 971.97 168.48Q971.10 167.54 971.10 166.13L971.10 166.13Q971.10 164.97 971.75 164.09Q972.40 163.20 973.53 162.69Q974.66 162.19 976.10 162.19L976.10 162.19Q978.13 162.19 979.28 163.07Q980.44 163.96 980.93 165.42ZM985.87 176.14L985.87 176.14Q985.21 176.14 984.74 175.67Q984.27 175.20 984.27 174.54L984.27 174.54Q984.27 173.89 984.74 173.42Q985.21 172.95 985.87 172.95L985.87 172.95Q986.52 172.95 987.00 173.42Q987.47 173.89 987.47 174.54L987.47 174.54Q987.47 175.20 987.00 175.67Q986.52 176.14 985.87 176.14Z" fill="#6B6055"/><path d="M46.18 222L44.60 211.68L46.02 211.68L47.20 220.60L47.38 220.60L49.14 211.68L50.90 211.68L52.66 220.60L52.84 220.60L54.02 211.68L55.40 211.68L53.82 222L51.74 222L50.10 213.36L49.94 213.36L48.26 222L46.18 222ZM58.18 222L56.60 211.68L58.02 211.68L59.20 220.60L59.38 220.60L61.14 211.68L62.90 211.68L64.66 220.60L64.84 220.60L66.02 211.68L67.40 211.68L65.82 222L63.74 222L62.10 213.36L61.94 213.36L60.26 222L58.18 222ZM70.18 222L68.60 211.68L70.02 211.68L71.20 220.60L71.38 220.60L73.14 211.68L74.90 211.68L76.66 220.60L76.84 220.60L78.02 211.68L79.40 211.68L77.82 222L75.74 222L74.10 213.36L73.94 213.36L72.26 222L70.18 222ZM86 222.18L86 222.18Q85.18 222.18 84.85 221.84Q84.52 221.50 84.52 220.98L84.52 220.98L84.52 220.62Q84.52 220.10 84.85 219.76Q85.18 219.42 86 219.42L86 219.42Q86.82 219.42 87.15 219.76Q87.48 220.10 87.48 220.62L87.48 220.62L87.48 220.98Q87.48 221.50 87.15 221.84Q86.82 222.18 86 222.18ZM103.22 223.18L103.22 223.18Q103.22 224.74 101.92 225.49Q100.62 226.24 98.02 226.24L98.02 226.24Q95.52 226.24 94.43 225.58Q93.34 224.92 93.34 223.68L93.34 223.68Q93.34 222.84 93.78 222.38Q94.22 221.92 95.02 221.70L95.02 221.70L95.02 221.46Q94.58 221.24 94.34 220.90Q94.10 220.56 94.10 220.04L94.10 220.04Q94.10 219.24 94.63 218.84Q95.16 218.44 95.96 218.24L95.96 218.24L95.96 218.16Q95 217.74 94.47 216.92Q93.94 216.10 93.94 215L93.94 215Q93.94 214.22 94.22 213.56Q94.50 212.90 95.03 212.43Q95.56 211.96 96.30 211.70Q97.04 211.44 97.94 211.44L97.94 211.44Q99.10 211.44 99.98 211.86L99.98 211.86L99.98 211.68Q99.98 211.08 100.26 210.68Q100.54 210.28 101.22 210.28L101.22 210.28L103.12 210.28L103.12 211.68L100.80 211.68L100.80 212.38Q101.36 212.86 101.66 213.52Q101.96 214.18 101.96 215L101.96 215Q101.96 215.78 101.67 216.44Q101.38 217.10 100.86 217.57Q100.34 218.04 99.59 218.30Q98.84 218.56 97.94 218.56L97.94 218.56Q97.68 218.56 97.44 218.54Q97.20 218.52 96.96 218.48L96.96 218.48Q96.72 218.52 96.46 218.61Q96.20 218.70 95.98 218.85Q95.76 219 95.62 219.20Q95.48 219.40 95.48 219.66L95.48 219.66Q95.48 220.12 95.94 220.27Q96.40 220.42 97.14 220.42L97.14 220.42L99.42 220.42Q101.42 220.42 102.32 221.17Q103.22 221.92 103.22 223.18ZM101.72 223.26L101.72 223.26Q101.72 222.64 101.22 222.27Q100.72 221.90 99.48 221.90L99.48 221.90L95.90 221.90Q94.86 222.32 94.86 223.30L94.86 223.30Q94.86 223.98 95.40 224.47Q95.94 224.96 97.20 224.96L97.20 224.96L98.76 224.96Q100.16 224.96 100.94 224.53Q101.72 224.10 101.72 223.26ZM97.94 217.32L97.94 217.32Q99.14 217.32 99.71 216.76Q100.28 216.20 100.28 215.28L100.28 215.28L100.28 214.70Q100.28 213.78 99.71 213.23Q99.14 212.68 97.94 212.68L97.94 212.68Q96.74 212.68 96.18 213.23Q95.62 213.78 95.62 214.70L95.62 214.70L95.62 215.28Q95.62 216.20 96.18 216.76Q96.74 217.32 97.94 217.32ZM110 222.24L110 222.24Q108.92 222.24 108.05 221.86Q107.18 221.48 106.57 220.77Q105.96 220.06 105.64 219.07Q105.32 218.08 105.32 216.84L105.32 216.84Q105.32 215.62 105.64 214.62Q105.96 213.62 106.57 212.91Q107.18 212.20 108.05 211.82Q108.92 211.44 110 211.44L110 211.44Q111.08 211.44 111.95 211.82Q112.82 212.20 113.43 212.91Q114.04 213.62 114.36 214.62Q114.68 215.62 114.68 216.84L114.68 216.84Q114.68 218.08 114.36 219.07Q114.04 220.06 113.43 220.77Q112.82 221.48 111.95 221.86Q111.08 222.24 110 222.24ZM110 220.86L110 220.86Q111.34 220.86 112.16 220.06Q112.98 219.26 112.98 217.58L112.98 217.58L112.98 216.10Q112.98 214.42 112.16 213.62Q111.34 212.82 110 212.82L110 212.82Q108.66 212.82 107.84 213.62Q107.02 214.42 107.02 216.10L107.02 216.10L107.02 217.58Q107.02 219.26 107.84 220.06Q108.66 220.86 110 220.86ZM117.60 222L117.60 220.64L121.20 220.64L121.20 208.56L117.60 208.56L117.60 207.20L122.80 207.20L122.80 220.64L126.40 220.64L126.40 222L117.60 222ZM136.50 222L136.50 220.32L136.42 220.32Q135.42 222.24 133.24 222.24L133.24 222.24Q131.34 222.24 130.27 220.82Q129.20 219.40 129.20 216.84L129.20 216.84Q129.20 214.28 130.27 212.86Q131.34 211.44 133.24 211.44L133.24 211.44Q135.42 211.44 136.42 213.36L136.42 213.36L136.50 213.36L136.50 207.20L138.10 207.20L138.10 222L136.50 222ZM133.86 220.82L133.86 220.82Q134.40 220.82 134.88 220.68Q135.36 220.54 135.72 220.27Q136.08 220 136.29 219.61Q136.50 219.22 136.50 218.70L136.50 218.70L136.50 214.98Q136.50 214.46 136.29 214.07Q136.08 213.68 135.72 213.41Q135.36 213.14 134.88 213Q134.40 212.86 133.86 212.86L133.86 212.86Q132.46 212.86 131.69 213.71Q130.92 214.56 130.92 215.96L130.92 215.96L130.92 217.72Q130.92 219.12 131.69 219.97Q132.46 220.82 133.86 220.82ZM141.90 222L141.90 207.20L143.50 207.20L143.50 213.36L143.58 213.36Q144.58 211.44 146.76 211.44L146.76 211.44Q148.66 211.44 149.73 212.86Q150.80 214.28 150.80 216.84L150.80 216.84Q150.80 219.40 149.73 220.82Q148.66 222.24 146.76 222.24L146.76 222.24Q144.58 222.24 143.58 220.32L143.58 220.32L143.50 220.32L143.50 222L141.90 222ZM146.14 220.82L146.14 220.82Q147.54 220.82 148.31 219.97Q149.08 219.12 149.08 217.72L149.08 217.72L149.08 215.96Q149.08 214.56 148.31 213.71Q147.54 212.86 146.14 212.86L146.14 212.86Q145.60 212.86 145.12 213Q144.64 213.14 144.28 213.41Q143.92 213.68 143.71 214.07Q143.50 214.46 143.50 214.98L143.50 214.98L143.50 218.70Q143.50 219.22 143.71 219.61Q143.92 220 144.28 220.27Q144.64 220.54 145.12 220.68Q145.60 220.82 146.14 220.82ZM163 222L161.90 222Q160.96 222 160.56 221.52Q160.16 221.04 160.06 220.32L160.06 220.32L159.96 220.32Q159.62 221.22 158.87 221.73Q158.12 222.24 156.86 222.24L156.86 222.24Q155.24 222.24 154.28 221.40Q153.32 220.56 153.32 219.10L153.32 219.10Q153.32 217.66 154.37 216.88Q155.42 216.10 157.76 216.10L157.76 216.10L159.96 216.10L159.96 215.08Q159.96 213.94 159.32 213.37Q158.68 212.80 157.50 212.80L157.50 212.80Q156.46 212.80 155.80 213.21Q155.14 213.62 154.74 214.32L154.74 214.32L153.66 213.52Q153.86 213.12 154.20 212.74Q154.54 212.36 155.04 212.07Q155.54 211.78 156.18 211.61Q156.82 211.44 157.60 211.44L157.60 211.44Q159.42 211.44 160.49 212.36Q161.56 213.28 161.56 214.92L161.56 214.92L161.56 220.60L163 220.60L163 222ZM157.14 220.90L157.14 220.90Q157.76 220.90 158.27 220.75Q158.78 220.60 159.16 220.35Q159.54 220.10 159.75 219.75Q159.96 219.40 159.96 219L159.96 219L159.96 217.30L157.76 217.30Q156.32 217.30 155.66 217.70Q155 218.10 155 218.86L155 218.86L155 219.28Q155 220.08 155.57 220.49Q156.14 220.90 157.14 220.90ZM165.54 222L165.54 220.64L168.56 220.64L168.56 213.04L165.54 213.04L165.54 211.68L170.16 211.68L170.16 214.28L170.26 214.28Q170.58 213.06 171.47 212.37Q172.36 211.68 173.74 211.68L173.74 211.68L175.18 211.68L175.18 213.28L173.24 213.28Q171.86 213.28 171.01 214.08Q170.16 214.88 170.16 216.18L170.16 216.18L170.16 220.64L174.16 220.64L174.16 222L165.54 222ZM186.52 222L182.50 222Q181.32 222 180.77 221.34Q180.22 220.68 180.22 219.64L180.22 219.64L180.22 213.04L176.78 213.04L176.78 211.68L179.34 211.68Q179.86 211.68 180.07 211.47Q180.28 211.26 180.28 210.74L180.28 210.74L180.28 208.04L181.82 208.04L181.82 211.68L186.52 211.68L186.52 213.04L181.82 213.04L181.82 220.64L186.52 220.64L186.52 222ZM189.96 222L189.96 207.20L191.56 207.20L191.56 213.36L191.64 213.36Q191.80 212.98 192.04 212.63Q192.28 212.28 192.63 212.02Q192.98 211.76 193.46 211.60Q193.94 211.44 194.58 211.44L194.58 211.44Q196.20 211.44 197.18 212.47Q198.16 213.50 198.16 215.38L198.16 215.38L198.16 222L196.56 222L196.56 215.66Q196.56 214.24 195.94 213.55Q195.32 212.86 194.12 212.86L194.12 212.86Q193.64 212.86 193.18 212.98Q192.72 213.10 192.36 213.34Q192 213.58 191.78 213.96Q191.56 214.34 191.56 214.84L191.56 214.84L191.56 222L189.96 222ZM206 222.18L206 222.18Q205.18 222.18 204.85 221.84Q204.52 221.50 204.52 220.98L204.52 220.98L204.52 220.62Q204.52 220.10 204.85 219.76Q205.18 219.42 206 219.42L206 219.42Q206.82 219.42 207.15 219.76Q207.48 220.10 207.48 220.62L207.48 220.62L207.48 220.98Q207.48 221.50 207.15 221.84Q206.82 222.18 206 222.18ZM220.50 222L220.50 220.32L220.42 220.32Q219.42 222.24 217.24 222.24L217.24 222.24Q215.34 222.24 214.27 220.82Q213.20 219.40 213.20 216.84L213.20 216.84Q213.20 214.28 214.27 212.86Q215.34 211.44 217.24 211.44L217.24 211.44Q219.42 211.44 220.42 213.36L220.42 213.36L220.50 213.36L220.50 207.20L222.10 207.20L222.10 222L220.50 222ZM217.86 220.82L217.86 220.82Q218.40 220.82 218.88 220.68Q219.36 220.54 219.72 220.27Q220.08 220 220.29 219.61Q220.50 219.22 220.50 218.70L220.50 218.70L220.50 214.98Q220.50 214.46 220.29 214.07Q220.08 213.68 219.72 213.41Q219.36 213.14 218.88 213Q218.40 212.86 217.86 212.86L217.86 212.86Q216.46 212.86 215.69 213.71Q214.92 214.56 214.92 215.96L214.92 215.96L214.92 217.72Q214.92 219.12 215.69 219.97Q216.46 220.82 217.86 220.82ZM230.18 222.24L230.18 222.24Q229.06 222.24 228.17 221.86Q227.28 221.48 226.65 220.77Q226.02 220.06 225.68 219.07Q225.34 218.08 225.34 216.86L225.34 216.86Q225.34 215.62 225.69 214.62Q226.04 213.62 226.66 212.91Q227.28 212.20 228.15 211.82Q229.02 211.44 230.08 211.44L230.08 211.44Q231.12 211.44 231.97 211.82Q232.82 212.20 233.42 212.87Q234.02 213.54 234.34 214.46Q234.66 215.38 234.66 216.48L234.66 216.48L234.66 217.24L227.02 217.24L227.02 217.72Q227.02 218.40 227.24 218.98Q227.46 219.56 227.87 219.98Q228.28 220.40 228.87 220.63Q229.46 220.86 230.18 220.86L230.18 220.86Q231.22 220.86 231.98 220.38Q232.74 219.90 233.14 219.06L233.14 219.06L234.32 219.86Q233.86 220.90 232.79 221.57Q231.72 222.24 230.18 222.24ZM230.08 212.76L230.08 212.76Q229.42 212.76 228.86 213Q228.30 213.24 227.89 213.66Q227.48 214.08 227.25 214.65Q227.02 215.22 227.02 215.90L227.02 215.90L227.02 216.04L232.94 216.04L232.94 215.82Q232.94 215.14 232.73 214.58Q232.52 214.02 232.15 213.61Q231.78 213.20 231.25 212.98Q230.72 212.76 230.08 212.76ZM243.02 222L240.98 222L237.28 211.68L238.90 211.68L240.38 216L241.98 220.66L242.06 220.66L243.66 216L245.14 211.68L246.72 211.68L243.02 222ZM271.62 215.02L267.48 219.16L266.52 218.20L268.24 216.48L269.24 215.64L269.22 215.58L267.30 215.70L260.58 215.70L260.58 214.34L267.30 214.34L269.22 214.46L269.24 214.40L268.24 213.56L266.52 211.84L267.48 210.88L271.62 215.02Z" fill="#8F5D18"/></svg>