<?xml version="1.0" encoding="UTF-8"?>
<svg xmlns="http://www.w3.org/2000/svg" viewBox="0 0 600 160" width="600" height="160"><rect x="12" y="12" width="576" height="136" rx="18" fill="#FBF8F3" stroke="#0E5F5A" stroke-width="2"/><path d="M53.09 55L46.04 55L46.04 43.13L47.47 43.13L47.47 53.76L53.09 53.76L53.09 55ZM65.57 55L58.23 55L58.23 53.86L61.19 53.86L61.19 44.27L58.23 44.27L58.23 43.13L65.57 43.13L65.57 44.27L62.61 44.27L62.61 53.86L65.57 53.86L65.57 55ZM76.42 55L72.37 45.00L72.25 45.00L72.25 55L70.96 55L70.96 43.13L72.98 43.13L77.03 53.13L77.15 53.13L77.15 43.13L78.44 43.13L78.44 55L76.42 55ZM90.56 55L86.97 49.19L85.27 51.19L85.27 55L83.84 55L83.84 43.13L85.27 43.13L85.27 49.32L85.32 49.32L86.89 47.35L90.39 43.13L92.11 43.13L87.94 48.13L92.23 55L90.56 55ZM104.04 55L96.73 55L96.73 43.13L104.04 43.13L104.04 44.38L98.16 44.38L98.16 48.37L103.84 48.37L103.84 49.61L98.16 49.61L98.16 53.76L104.04 53.76L104.04 55ZM109.61 55L109.61 43.13L112.93 43.13Q115.11 43.13 116.18 44.63Q117.25 46.13 117.25 49.07L117.25 49.07Q117.25 52.01 116.18 53.50Q115.11 55 112.93 55L112.93 55L109.61 55ZM111.04 53.76L112.86 53.76Q114.29 53.76 115.01 52.77Q115.73 51.79 115.73 49.98L115.73 49.98L115.73 48.15Q115.73 46.35 115.01 45.36Q114.29 44.38 112.86 44.38L112.86 44.38L111.04 44.38L111.04 53.76ZM129.57 55L122.23 55L122.23 53.86L125.19 53.86L125.19 44.27L122.23 44.27L122.23 43.13L129.57 43.13L129.57 44.27L126.61 44.27L126.61 53.86L129.57 53.86L129.57 55ZM140.42 55L136.37 45.00L136.25 45.00L136.25 55L134.96 55L134.96 43.13L136.98 43.13L141.03 53.13L141.15 53.13L141.15 43.13L142.44 43.13L142.44 55L140.42 55Z" fill="#0E5F5A"/><circle id="dot" cx="49.5" cy="92" r="6" fill="#A86F22"/><path d="M73.79 102L70.93 102L70.93 87.27L73.79 87.27L73.79 102ZM72.38 85.00L72.38 85.00Q71.63 85.00 71.09 84.50Q70.56 83.99 70.56 83.29L70.56 83.29Q70.56 82.58 71.09 82.08Q71.63 81.58 72.38 81.58L72.38 81.58Q73.11 81.58 73.65 82.08Q74.19 82.58 74.19 83.29L74.19 83.29Q74.19 83.99 73.65 84.50Q73.11 85.00 72.38 85.00ZM80.22 93.26L80.22 93.26L80.22 102L77.35 102L77.35 87.27L80.10 87.27L80.10 89.67L80.28 89.67Q80.79 88.50 81.88 87.79Q82.97 87.08 84.63 87.08L84.63 87.08Q86.89 87.08 88.26 88.49Q89.64 89.90 89.64 92.63L89.64 92.63L89.64 102L86.77 102L86.77 92.98Q86.77 91.38 85.94 90.47Q85.11 89.56 83.65 89.56L83.65 89.56Q82.15 89.56 81.18 90.53Q80.22 91.49 80.22 93.26ZM98.09 81.44L100.65 81.44L94.33 104.95L91.77 104.95L98.09 81.44ZM108.97 107.83L108.97 107.83Q106.34 107.83 104.82 106.84Q103.30 105.84 102.71 104.49L102.71 104.49L105.18 103.48Q105.44 103.90 105.87 104.37Q106.31 104.85 107.06 105.18Q107.81 105.52 109.00 105.52L109.00 105.52Q110.63 105.52 111.70 104.73Q112.76 103.95 112.76 102.21L112.76 102.21L112.76 99.32L112.58 99.32Q112.32 99.79 111.84 100.36Q111.36 100.94 110.51 101.36Q109.66 101.78 108.31 101.78L108.31 101.78Q106.58 101.78 105.18 100.96Q103.79 100.14 102.97 98.53Q102.16 96.93 102.16 94.58L102.16 94.58Q102.16 92.23 102.96 90.55Q103.76 88.87 105.16 87.98Q106.56 87.08 108.33 87.08L108.33 87.08Q109.70 87.08 110.55 87.54Q111.40 87.99 111.87 88.60Q112.35 89.20 112.60 89.66L112.60 89.66L112.81 89.66L112.81 87.27L115.62 87.27L115.62 102.33Q115.62 104.21 114.74 105.44Q113.85 106.66 112.35 107.24Q110.85 107.83 108.97 107.83ZM108.95 99.40L108.95 99.40Q110.81 99.40 111.80 98.11Q112.79 96.82 112.79 94.54L112.79 94.54Q112.79 92.31 111.81 90.91Q110.82 89.52 108.95 89.52L108.95 89.52Q107.65 89.52 106.79 90.18Q105.92 90.85 105.49 91.99Q105.05 93.12 105.05 94.54L105.05 94.54Q105.05 96.71 106.04 98.05Q107.03 99.40 108.95 99.40ZM125.37 102.30L125.37 102.30Q123.30 102.30 121.75 101.35Q120.21 100.40 119.36 98.69Q118.50 96.98 118.50 94.70L118.50 94.70Q118.50 92.41 119.36 90.70Q120.21 88.98 121.75 88.03Q123.30 87.08 125.37 87.08L125.37 87.08Q127.45 87.08 128.99 88.03Q130.53 88.98 131.38 90.70Q132.23 92.41 132.23 94.70L132.23 94.70Q132.23 96.98 131.38 98.69Q130.53 100.40 128.99 101.35Q127.45 102.30 125.37 102.30ZM125.38 99.89L125.38 99.89Q126.73 99.89 127.61 99.18Q128.48 98.47 128.91 97.29Q129.34 96.10 129.34 94.69L129.34 94.69Q129.34 93.28 128.91 92.10Q128.48 90.91 127.61 90.19Q126.73 89.48 125.38 89.48L125.38 89.48Q124.02 89.48 123.14 90.19Q122.26 90.91 121.83 92.10Q121.40 93.28 121.40 94.69L121.40 94.69Q121.40 96.10 121.83 97.29Q122.26 98.47 123.14 99.18Q124.02 99.89 125.38 99.89ZM135.12 82.36L137.99 82.36L137.99 102L135.12 102L135.12 82.36ZM147.06 102.29L147.06 102.29Q145.28 102.29 143.89 101.38Q142.50 100.47 141.70 98.75Q140.90 97.04 140.90 94.67L140.90 94.67Q140.90 92.28 141.70 90.58Q142.50 88.88 143.90 87.98Q145.30 87.08 147.08 87.08L147.08 87.08Q148.45 87.08 149.29 87.54Q150.13 87.99 150.59 88.60Q151.06 89.20 151.32 89.66L151.32 89.66L151.49 89.66L151.49 82.36L154.36 82.36L154.36 102L151.56 102L151.56 99.71L151.32 99.71Q151.06 100.18 150.57 100.78Q150.09 101.39 149.25 101.84Q148.40 102.29 147.06 102.29ZM147.69 99.84L147.69 99.84Q149.55 99.84 150.54 98.40Q151.54 96.96 151.54 94.64L151.54 94.64Q151.54 92.33 150.55 90.92Q149.57 89.52 147.69 89.52L147.69 89.52Q146.40 89.52 145.53 90.19Q144.67 90.86 144.24 92.01Q143.80 93.17 143.80 94.64L143.80 94.64Q143.80 96.11 144.24 97.29Q144.68 98.47 145.55 99.16Q146.42 99.84 147.69 99.84ZM161.17 102L158.37 102L158.37 82.36L161.24 82.36L161.24 89.66L161.41 89.66Q161.67 89.20 162.13 88.60Q162.60 87.99 163.44 87.54Q164.28 87.08 165.64 87.08L165.64 87.08Q167.42 87.08 168.82 87.98Q170.21 88.88 171.02 90.58Q171.82 92.28 171.82 94.67L171.82 94.67Q171.82 97.04 171.03 98.75Q170.23 100.47 168.84 101.38Q167.45 102.29 165.67 102.29L165.67 102.29Q164.32 102.29 163.48 101.84Q162.64 101.39 162.15 100.78Q161.67 100.18 161.41 99.71L161.41 99.71L161.17 99.71L161.17 102ZM161.18 94.64L161.18 94.64Q161.18 96.96 162.18 98.40Q163.17 99.84 165.02 99.84L165.02 99.84Q166.31 99.84 167.18 99.16Q168.04 98.47 168.49 97.29Q168.93 96.11 168.93 94.64L168.93 94.64Q168.93 93.17 168.49 92.01Q168.05 90.86 167.19 90.19Q166.33 89.52 165.02 89.52L165.02 89.52Q163.15 89.52 162.16 90.92Q161.18 92.33 161.18 94.64ZM179.02 102.33L179.02 102.33Q177.62 102.33 176.49 101.81Q175.37 101.29 174.71 100.29Q174.04 99.29 174.04 97.84L174.04 97.84Q174.04 96.58 174.53 95.78Q175.01 94.97 175.82 94.50Q176.63 94.03 177.64 93.80Q178.65 93.56 179.69 93.44L179.69 93.44Q181.01 93.28 181.83 93.18Q182.65 93.08 183.03 92.85Q183.41 92.62 183.41 92.11L183.41 92.11L183.41 92.04Q183.41 90.78 182.71 90.09Q182.00 89.40 180.61 89.40L180.61 89.40Q179.16 89.40 178.33 90.03Q177.51 90.67 177.19 91.45L177.19 91.45L174.49 90.84Q175.21 88.83 176.90 87.95Q178.58 87.08 180.57 87.08L180.57 87.08Q181.46 87.08 182.44 87.29Q183.43 87.49 184.31 88.04Q185.19 88.60 185.74 89.60Q186.29 90.61 186.29 92.22L186.29 92.22L186.29 102L183.49 102L183.49 99.99L183.37 99.99Q182.96 100.81 181.91 101.57Q180.85 102.33 179.02 102.33ZM179.64 100.02L179.64 100.02Q180.84 100.02 181.69 99.56Q182.53 99.09 182.98 98.32Q183.42 97.56 183.42 96.69L183.42 96.69L183.42 94.79Q183.22 94.99 182.54 95.14Q181.86 95.30 181.10 95.40Q180.34 95.51 179.87 95.58L179.87 95.58Q178.63 95.74 177.74 96.23Q176.85 96.73 176.85 97.88L176.85 97.88Q176.85 98.94 177.64 99.48Q178.43 100.02 179.64 100.02ZM192.67 102L189.80 102L189.80 87.27L192.57 87.27L192.57 89.61L192.73 89.61Q193.13 88.42 194.15 87.74Q195.17 87.05 196.47 87.05L196.47 87.05Q196.75 87.05 197.11 87.07Q197.47 87.09 197.69 87.12L197.69 87.12L197.69 89.86Q197.51 89.81 197.08 89.75Q196.64 89.69 196.19 89.69L196.19 89.69Q194.67 89.69 193.67 90.62Q192.67 91.56 192.67 93.01L192.67 93.01L192.67 102ZM203.73 87.27L206.75 87.27L206.75 89.57L203.73 89.57L203.73 97.68Q203.73 98.92 204.26 99.28Q204.80 99.64 205.50 99.64L205.50 99.64Q205.84 99.64 206.10 99.59Q206.36 99.55 206.50 99.52L206.50 99.52L207.02 101.88Q206.77 101.98 206.31 102.08Q205.84 102.18 205.16 102.19L205.16 102.19Q204.03 102.21 203.05 101.79Q202.06 101.37 201.47 100.49Q200.87 99.60 200.87 98.27L200.87 98.27L200.87 89.57L198.71 89.57L198.71 87.27L200.87 87.27L200.87 83.74L203.73 83.74L203.73 87.27ZM212.48 93.26L212.48 93.26L212.48 102L209.62 102L209.62 82.36L212.45 82.36L212.45 89.67L212.63 89.67Q213.15 88.47 214.21 87.78Q215.27 87.08 216.99 87.08L216.99 87.08Q219.26 87.08 220.65 88.48Q222.03 89.88 222.03 92.63L222.03 92.63L222.03 102L219.17 102L219.17 92.98Q219.17 91.36 218.33 90.46Q217.50 89.56 216.01 89.56L216.01 89.56Q214.48 89.56 213.48 90.53Q212.48 91.49 212.48 93.26Z" fill="#1A1613"/><path d="M45.36 132L45.36 130.84L48.42 130.84L48.42 120.58L45.36 120.58L45.36 119.42L49.78 119.42L49.78 130.84L52.84 130.84L52.84 132L45.36 132ZM59.84 121.29L59.84 121.29Q59.25 121.29 59.01 121.04Q58.77 120.80 58.77 120.42L58.77 120.42L58.77 120.15Q58.77 119.78 59.01 119.53Q59.25 119.28 59.84 119.28L59.84 119.28Q60.44 119.28 60.68 119.53Q60.92 119.78 60.92 120.15L60.92 120.15L60.92 120.42Q60.92 120.80 60.68 121.04Q60.44 121.29 59.84 121.29ZM56.00 132L56.00 130.84L59.16 130.84L59.16 124.38L56.00 124.38L56.00 123.23L60.52 123.23L60.52 130.84L63.48 130.84L63.48 132L56.00 132ZM67.43 132L66.07 132L66.07 123.23L67.43 123.23L67.43 124.66L67.49 124.66Q67.63 124.33 67.83 124.04Q68.04 123.74 68.34 123.52Q68.63 123.30 69.04 123.16Q69.45 123.02 69.99 123.02L69.99 123.02Q71.37 123.02 72.20 123.90Q73.04 124.78 73.04 126.37L73.04 126.37L73.04 132L71.68 132L71.68 126.61Q71.68 125.40 71.15 124.82Q70.62 124.23 69.60 124.23L69.60 124.23Q69.19 124.23 68.80 124.33Q68.41 124.44 68.11 124.64Q67.80 124.84 67.61 125.17Q67.43 125.49 67.43 125.91L67.43 125.91L67.43 132ZM76.39 132L76.39 119.42L77.75 119.42L77.75 127.36L77.81 127.36L79.34 125.91L82.27 123.23L83.93 123.23L80.30 126.66L84.36 132L82.68 132L79.26 127.44L77.75 128.82L77.75 132L76.39 132ZM90.05 132.20L90.05 132.20Q89.10 132.20 88.34 131.88Q87.59 131.56 87.05 130.95Q86.52 130.35 86.23 129.51Q85.94 128.67 85.94 127.63L85.94 127.63Q85.94 126.58 86.24 125.73Q86.53 124.88 87.06 124.27Q87.59 123.67 88.33 123.35Q89.07 123.02 89.97 123.02L89.97 123.02Q90.85 123.02 91.57 123.35Q92.30 123.67 92.81 124.24Q93.32 124.81 93.59 125.59Q93.86 126.37 93.86 127.31L93.86 127.31L93.86 127.95L87.37 127.95L87.37 128.36Q87.37 128.94 87.55 129.43Q87.74 129.93 88.09 130.28Q88.44 130.64 88.94 130.84Q89.44 131.03 90.05 131.03L90.05 131.03Q90.94 131.03 91.58 130.62Q92.23 130.22 92.57 129.50L92.57 129.50L93.57 130.18Q93.18 131.06 92.27 131.63Q91.36 132.20 90.05 132.20ZM89.97 124.15L89.97 124.15Q89.41 124.15 88.93 124.35Q88.46 124.55 88.11 124.91Q87.76 125.27 87.56 125.75Q87.37 126.24 87.37 126.81L87.37 126.81L87.37 126.93L92.40 126.93L92.40 126.75Q92.40 126.17 92.22 125.69Q92.04 125.22 91.73 124.87Q91.41 124.52 90.96 124.33Q90.51 124.15 89.97 124.15ZM102.23 132L102.23 130.57L102.16 130.57Q101.31 132.20 99.45 132.20L99.45 132.20Q97.84 132.20 96.93 131.00Q96.02 129.79 96.02 127.61L96.02 127.61Q96.02 125.44 96.93 124.23Q97.84 123.02 99.45 123.02L99.45 123.02Q101.31 123.02 102.16 124.66L102.16 124.66L102.23 124.66L102.23 119.42L103.59 119.42L103.59 132L102.23 132ZM99.98 131.00L99.98 131.00Q100.44 131.00 100.85 130.88Q101.26 130.76 101.56 130.53Q101.87 130.30 102.05 129.97Q102.23 129.64 102.23 129.19L102.23 129.19L102.23 126.03Q102.23 125.59 102.05 125.26Q101.87 124.93 101.56 124.70Q101.26 124.47 100.85 124.35Q100.44 124.23 99.98 124.23L99.98 124.23Q98.79 124.23 98.14 124.95Q97.48 125.68 97.48 126.87L97.48 126.87L97.48 128.36Q97.48 129.55 98.14 130.27Q98.79 131.00 99.98 131.00ZM110.84 121.29L110.84 121.29Q110.25 121.29 110.01 121.04Q109.77 120.80 109.77 120.42L109.77 120.42L109.77 120.15Q109.77 119.78 110.01 119.53Q110.25 119.28 110.84 119.28L110.84 119.28Q111.44 119.28 111.68 119.53Q111.92 119.78 111.92 120.15L111.92 120.15L111.92 120.42Q111.92 120.80 111.68 121.04Q111.44 121.29 110.84 121.29ZM107.00 132L107.00 130.84L110.16 130.84L110.16 124.38L107.00 124.38L107.00 123.23L111.52 123.23L111.52 130.84L114.48 130.84L114.48 132L107.00 132ZM118.43 132L117.07 132L117.07 123.23L118.43 123.23L118.43 124.66L118.49 124.66Q118.63 124.33 118.83 124.04Q119.04 123.74 119.34 123.52Q119.63 123.30 120.04 123.16Q120.45 123.02 120.99 123.02L120.99 123.02Q122.37 123.02 123.20 123.90Q124.04 124.78 124.04 126.37L124.04 126.37L124.04 132L122.68 132L122.68 126.61Q122.68 125.40 122.15 124.82Q121.62 124.23 120.60 124.23L120.60 124.23Q120.19 124.23 119.80 124.33Q119.41 124.44 119.11 124.64Q118.80 124.84 118.61 125.17Q118.43 125.49 118.43 125.91L118.43 125.91L118.43 132ZM130.70 132.15L130.70 132.15Q130.00 132.15 129.72 131.86Q129.44 131.57 129.44 131.13L129.44 131.13L129.44 130.83Q129.44 130.38 129.72 130.10Q130.00 129.81 130.70 129.81L130.70 129.81Q131.40 129.81 131.68 130.10Q131.96 130.38 131.96 130.83L131.96 130.83L131.96 131.13Q131.96 131.57 131.68 131.86Q131.40 132.15 130.70 132.15ZM141.21 132.20L141.21 132.20Q140.25 132.20 139.51 131.87Q138.78 131.54 138.27 130.95Q137.76 130.35 137.49 129.50Q137.23 128.65 137.23 127.61L137.23 127.61Q137.23 126.58 137.50 125.73Q137.77 124.88 138.28 124.27Q138.79 123.67 139.52 123.35Q140.25 123.02 141.19 123.02L141.19 123.02Q142.46 123.02 143.26 123.58Q144.06 124.15 144.44 125.05L144.44 125.05L143.35 125.63Q143.11 124.94 142.56 124.57Q142.01 124.20 141.19 124.20L141.19 124.20Q140.59 124.20 140.13 124.39Q139.66 124.59 139.34 124.94Q139.01 125.30 138.85 125.80Q138.69 126.29 138.69 126.87L138.69 126.87L138.69 128.36Q138.69 128.94 138.85 129.43Q139.01 129.93 139.34 130.28Q139.66 130.64 140.14 130.84Q140.61 131.03 141.22 131.03L141.22 131.03Q142.11 131.03 142.69 130.62Q143.26 130.22 143.60 129.50L143.60 129.50L144.57 130.16Q144.18 131.05 143.36 131.63Q142.53 132.20 141.21 132.20ZM151.10 132.20L151.10 132.20Q150.18 132.20 149.44 131.88Q148.70 131.56 148.18 130.95Q147.67 130.35 147.39 129.51Q147.12 128.67 147.12 127.61L147.12 127.61Q147.12 126.58 147.39 125.73Q147.67 124.88 148.18 124.27Q148.70 123.67 149.44 123.35Q150.18 123.02 151.10 123.02L151.10 123.02Q152.02 123.02 152.76 123.35Q153.50 123.67 154.02 124.27Q154.53 124.88 154.81 125.73Q155.08 126.58 155.08 127.61L155.08 127.61Q155.08 128.67 154.81 129.51Q154.53 130.35 154.02 130.95Q153.50 131.56 152.76 131.88Q152.02 132.20 151.10 132.20ZM151.10 131.03L151.10 131.03Q152.24 131.03 152.94 130.35Q153.63 129.67 153.63 128.24L153.63 128.24L153.63 126.98Q153.63 125.56 152.94 124.88Q152.24 124.20 151.10 124.20L151.10 124.20Q149.96 124.20 149.26 124.88Q148.57 125.56 148.57 126.98L148.57 126.98L148.57 128.24Q148.57 129.67 149.26 130.35Q149.96 131.03 151.10 131.03ZM158.38 132L157.12 132L157.12 123.23L158.38 123.23L158.38 124.25L158.44 124.25Q158.65 123.74 159.02 123.38Q159.40 123.02 160.13 123.02L160.13 123.02Q160.89 123.02 161.27 123.41Q161.64 123.79 161.72 124.40L161.72 124.40L161.78 124.40Q162.01 123.81 162.46 123.41Q162.90 123.02 163.68 123.02L163.68 123.02Q164.75 123.02 165.12 123.77Q165.48 124.52 165.48 125.91L165.48 125.91L165.48 132L164.22 132L164.22 126.14Q164.22 125.01 163.99 124.58Q163.76 124.15 163.15 124.15L163.15 124.15Q162.61 124.15 162.27 124.49Q161.93 124.84 161.93 125.56L161.93 125.56L161.93 132L160.67 132L160.67 126.14Q160.67 125.01 160.44 124.58Q160.21 124.15 159.62 124.15L159.62 124.15Q159.07 124.15 158.72 124.49Q158.38 124.84 158.38 125.56L158.38 125.56L158.38 132ZM169.15 134.35L167.93 134.35L173.85 119.08L175.07 119.08L169.15 134.35ZM182.24 121.29L182.24 121.29Q181.65 121.29 181.41 121.04Q181.17 120.80 181.17 120.42L181.17 120.42L181.17 120.15Q181.17 119.78 181.41 119.53Q181.65 119.28 182.24 119.28L182.24 119.28Q182.84 119.28 183.08 119.53Q183.31 119.78 183.31 120.15L183.31 120.15L183.31 120.42Q183.31 120.80 183.08 121.04Q182.84 121.29 182.24 121.29ZM178.40 132L178.40 130.84L181.56 130.84L181.56 124.38L178.40 124.38L178.40 123.23L182.92 123.23L182.92 130.84L185.88 130.84L185.88 132L178.40 132ZM189.83 132L188.47 132L188.47 123.23L189.83 123.23L189.83 124.66L189.89 124.66Q190.03 124.33 190.23 124.04Q190.44 123.74 190.74 123.52Q191.03 123.30 191.44 123.16Q191.85 123.02 192.39 123.02L192.39 123.02Q193.77 123.02 194.60 123.90Q195.44 124.78 195.44 126.37L195.44 126.37L195.44 132L194.08 132L194.08 126.61Q194.08 125.40 193.55 124.82Q193.02 124.23 192.00 124.23L192.00 124.23Q191.59 124.23 191.20 124.33Q190.81 124.44 190.51 124.64Q190.20 124.84 190.01 125.17Q189.83 125.49 189.83 125.91L189.83 125.91L189.83 132ZM199.75 134.35L198.53 134.35L204.45 119.08L205.67 119.08L199.75 134.35ZM208.61 132L208.61 130.84L211.57 130.84L211.57 124.38L208.44 124.38L208.44 123.23L211.57 123.23L211.57 121.43Q211.57 120.54 212.04 119.98Q212.50 119.42 213.51 119.42L213.51 119.42L216.45 119.42L216.45 120.58L212.93 120.58L212.93 123.23L216.45 123.23L216.45 124.38L212.93 124.38L212.93 130.84L216.06 130.84L216.06 132L208.61 132ZM222.65 132.20L222.65 132.20Q221.70 132.20 220.94 131.88Q220.19 131.56 219.65 130.95Q219.12 130.35 218.83 129.51Q218.54 128.67 218.54 127.63L218.54 127.63Q218.54 126.58 218.84 125.73Q219.13 124.88 219.66 124.27Q220.19 123.67 220.93 123.35Q221.67 123.02 222.57 123.02L222.57 123.02Q223.45 123.02 224.17 123.35Q224.90 123.67 225.41 124.24Q225.92 124.81 226.19 125.59Q226.46 126.37 226.46 127.31L226.46 127.31L226.46 127.95L219.97 127.95L219.97 128.36Q219.97 128.94 220.15 129.43Q220.34 129.93 220.69 130.28Q221.04 130.64 221.54 130.84Q222.04 131.03 222.65 131.03L222.65 131.03Q223.54 131.03 224.18 130.62Q224.83 130.22 225.17 129.50L225.17 129.50L226.17 130.18Q225.78 131.06 224.87 131.63Q223.96 132.20 222.65 132.20ZM222.57 124.15L222.57 124.15Q222.01 124.15 221.53 124.35Q221.05 124.55 220.71 124.91Q220.36 125.27 220.16 125.75Q219.97 126.24 219.97 126.81L219.97 126.81L219.97 126.93L225.00 126.93L225.00 126.75Q225.00 126.17 224.82 125.69Q224.64 125.22 224.33 124.87Q224.01 124.52 223.56 124.33Q223.11 124.15 222.57 124.15ZM228.96 132L228.96 130.84L232.02 130.84L232.02 120.58L228.96 120.58L228.96 119.42L233.38 119.42L233.38 130.84L236.44 130.84L236.44 132L228.96 132ZM243.44 121.29L243.44 121.29Q242.85 121.29 242.61 121.04Q242.37 120.80 242.37 120.42L242.37 120.42L242.37 120.15Q242.37 119.78 242.61 119.53Q242.85 119.28 243.44 119.28L243.44 119.28Q244.04 119.28 244.28 119.53Q244.51 119.78 244.51 120.15L244.51 120.15L244.51 120.42Q244.51 120.80 244.28 121.04Q244.04 121.29 243.44 121.29ZM239.60 132L239.60 130.84L242.76 130.84L242.76 124.38L239.60 124.38L239.60 123.23L244.12 123.23L244.12 130.84L247.08 130.84L247.08 132L239.60 132ZM250.60 132L249.04 132L252.30 127.55L249.12 123.23L250.75 123.23L252.08 125.08L253.13 126.54L253.20 126.54L254.22 125.08L255.53 123.23L257.09 123.23L253.88 127.53L257.18 132L255.55 132L254.07 129.94L253.07 128.55L253.00 128.55L252.03 129.94L250.60 132ZM265.76 127.55L260.83 127.55L260.83 126.12L265.76 126.12L265.76 127.55ZM270.25 132L268.91 123.23L270.12 123.23L271.12 130.81L271.27 130.81L272.77 123.23L274.26 123.23L275.76 130.81L275.91 130.81L276.92 123.23L278.09 123.23L276.75 132L274.98 132L273.58 124.66L273.45 124.66L272.02 132L270.25 132ZM287.95 132L287.01 132Q286.22 132 285.88 131.59Q285.54 131.18 285.45 130.57L285.45 130.57L285.37 130.57Q285.08 131.34 284.44 131.77Q283.80 132.20 282.73 132.20L282.73 132.20Q281.35 132.20 280.54 131.49Q279.72 130.78 279.72 129.53L279.72 129.53Q279.72 128.31 280.61 127.65Q281.51 126.98 283.50 126.98L283.50 126.98L285.37 126.98L285.37 126.12Q285.37 125.15 284.82 124.66Q284.28 124.18 283.27 124.18L283.27 124.18Q282.39 124.18 281.83 124.53Q281.27 124.88 280.93 125.47L280.93 125.47L280.01 124.79Q280.18 124.45 280.47 124.13Q280.76 123.81 281.18 123.56Q281.61 123.31 282.15 123.17Q282.70 123.02 283.36 123.02L283.36 123.02Q284.91 123.02 285.82 123.81Q286.73 124.59 286.73 125.98L286.73 125.98L286.73 130.81L287.95 130.81L287.95 132ZM282.97 131.06L282.97 131.06Q283.50 131.06 283.93 130.94Q284.36 130.81 284.69 130.60Q285.01 130.38 285.19 130.09Q285.37 129.79 285.37 129.45L285.37 129.45L285.37 128.00L283.50 128.00Q282.27 128.00 281.71 128.34Q281.15 128.69 281.15 129.33L281.15 129.33L281.15 129.69Q281.15 130.37 281.63 130.72Q282.12 131.06 282.97 131.06ZM290.47 132L290.47 119.42L291.83 119.42L291.83 124.66L291.89 124.66Q292.03 124.33 292.23 124.04Q292.44 123.74 292.74 123.52Q293.03 123.30 293.44 123.16Q293.85 123.02 294.39 123.02L294.39 123.02Q295.77 123.02 296.60 123.90Q297.44 124.78 297.44 126.37L297.44 126.37L297.44 132L296.08 132L296.08 126.61Q296.08 125.40 295.55 124.82Q295.02 124.23 294.00 124.23L294.00 124.23Q293.59 124.23 293.20 124.33Q292.81 124.44 292.51 124.64Q292.20 124.84 292.01 125.17Q291.83 125.49 291.83 125.91L291.83 125.91L291.83 132L290.47 132ZM300.36 132L300.36 130.84L303.42 130.84L303.42 120.58L300.36 120.58L300.36 119.42L304.78 119.42L304.78 130.84L307.84 130.84L307.84 132L300.36 132ZM329.28 126.07L325.76 129.59L324.94 128.77L326.40 127.31L327.25 126.59L327.24 126.54L325.60 126.64L319.89 126.64L319.89 125.49L325.60 125.49L327.24 125.59L327.25 125.54L326.40 124.83L324.94 123.36L325.76 122.55L329.28 126.07Z" fill="#8F5D18"/></svg>