<?xml version="1.0" encoding="UTF-8"?>
<svg xmlns="http://www.w3.org/2000/svg" viewBox="0 0 600 160" width="600" height="160"><rect x="12" y="12" width="576" height="136" rx="18" fill="#FBF8F3" stroke="#0E5F5A" stroke-width="2"/><path d="M52.84 55L45.53 55L45.53 43.13L52.84 43.13L52.84 44.38L46.96 44.38L46.96 48.37L52.64 48.37L52.64 49.61L46.96 49.61L46.96 53.76L52.84 53.76L52.84 55ZM64.36 50.55L59.43 50.55L59.43 49.12L64.36 49.12L64.36 50.55ZM77.33 55L77.33 49.05L77.33 45.29L77.20 45.29L74.70 51.40L72.20 45.29L72.06 45.29L72.06 49.05L72.06 55L70.76 55L70.76 43.13L72.59 43.13L74.68 48.37L74.78 48.37L76.88 43.13L78.64 43.13L78.64 55L77.33 55ZM92.09 55L90.58 55L89.57 51.62L85.41 51.62L84.41 55L82.93 55L86.56 43.13L88.45 43.13L92.09 55ZM89.23 50.38L87.57 44.65L87.41 44.65L85.75 50.38L89.23 50.38ZM103.97 55L96.63 55L96.63 53.86L99.59 53.86L99.59 44.27L96.63 44.27L96.63 43.13L103.97 43.13L103.97 44.27L101.01 44.27L101.01 53.86L103.97 53.86L103.97 55ZM117.09 55L110.04 55L110.04 43.13L111.47 43.13L111.47 53.76L117.09 53.76L117.09 55Z" fill="#0E5F5A"/><circle id="dot" cx="49.5" cy="92" r="6" fill="#A86F22"/><path d="M82.75 107.34L82.75 107.34Q76.80 107.34 73.61 104.15Q70.42 100.95 70.41 95.13L70.41 95.13Q70.42 91.35 71.87 88.60Q73.31 85.85 76.05 84.37Q78.78 82.88 82.62 82.88L82.62 82.88Q85.37 82.88 87.47 83.74Q89.57 84.61 91.00 86.11Q92.43 87.62 93.16 89.56Q93.89 91.51 93.89 93.68L93.89 93.68Q93.89 95.19 93.70 96.64Q93.51 98.08 92.99 99.24Q92.47 100.40 91.51 101.10Q90.55 101.80 89.02 101.83L89.02 101.83Q88.20 101.86 87.43 101.64Q86.66 101.42 86.13 100.92Q85.60 100.43 85.48 99.66L85.48 99.66L85.37 99.66Q85.03 100.50 83.99 101.14Q82.95 101.78 81.31 101.71L81.31 101.71Q78.89 101.62 77.48 99.79Q76.07 97.96 76.07 95.01L76.07 95.01Q76.07 93.12 76.78 91.75Q77.49 90.37 78.66 89.57Q79.83 88.78 81.22 88.62L81.22 88.62Q82.72 88.43 83.84 88.89Q84.96 89.34 85.18 89.98L85.18 89.98L85.30 89.98L85.30 88.90L87.66 88.90L87.66 97.80Q87.66 98.56 88.06 99.09Q88.45 99.61 89.19 99.61L89.19 99.61Q90.51 99.61 90.99 98.16Q91.47 96.70 91.46 93.58L91.46 93.58Q91.47 91.15 90.41 89.23Q89.34 87.31 87.33 86.21Q85.33 85.11 82.52 85.11L82.52 85.11Q79.45 85.11 77.32 86.34Q75.18 87.58 74.07 89.84Q72.96 92.10 72.96 95.14L72.96 95.14Q72.96 99.92 75.50 102.49Q78.03 105.07 82.87 105.07L82.87 105.07Q83.95 105.07 84.98 104.88Q86.02 104.69 86.83 104.46Q87.64 104.22 88.04 104.08L88.04 104.08L88.71 106.18Q88.12 106.46 87.14 106.73Q86.16 107.00 85.01 107.17Q83.86 107.34 82.75 107.34ZM81.87 99.36L81.87 99.36Q83.74 99.36 84.53 98.25Q85.33 97.13 85.32 94.89L85.32 94.89Q85.31 92.70 84.49 91.82Q83.67 90.94 81.91 90.94L81.91 90.94Q80.29 90.94 79.39 92.09Q78.50 93.24 78.49 94.90L78.49 94.90Q78.50 96.06 78.82 97.08Q79.14 98.10 79.88 98.73Q80.62 99.36 81.87 99.36ZM102.93 107.83L102.93 107.83Q100.29 107.83 98.77 106.84Q97.25 105.84 96.67 104.49L96.67 104.49L99.13 103.48Q99.39 103.90 99.83 104.37Q100.26 104.85 101.02 105.18Q101.77 105.52 102.96 105.52L102.96 105.52Q104.59 105.52 105.65 104.73Q106.72 103.95 106.72 102.21L106.72 102.21L106.72 99.32L106.53 99.32Q106.28 99.79 105.80 100.36Q105.32 100.94 104.47 101.36Q103.62 101.78 102.27 101.78L102.27 101.78Q100.53 101.78 99.14 100.96Q97.74 100.14 96.93 98.53Q96.11 96.93 96.11 94.58L96.11 94.58Q96.11 92.23 96.91 90.55Q97.71 88.87 99.11 87.98Q100.51 87.08 102.29 87.08L102.29 87.08Q103.66 87.08 104.51 87.54Q105.36 87.99 105.83 88.60Q106.30 89.20 106.55 89.66L106.55 89.66L106.76 89.66L106.76 87.27L109.57 87.27L109.57 102.33Q109.57 104.21 108.69 105.44Q107.81 106.66 106.31 107.24Q104.81 107.83 102.93 107.83ZM102.90 99.40L102.90 99.40Q104.76 99.40 105.75 98.11Q106.75 96.82 106.75 94.54L106.75 94.54Q106.75 92.31 105.76 90.91Q104.78 89.52 102.90 89.52L102.90 89.52Q101.61 89.52 100.74 90.18Q99.88 90.85 99.44 91.99Q99.01 93.12 99.01 94.54L99.01 94.54Q99.01 96.71 100.00 98.05Q100.98 99.40 102.90 99.40ZM119.32 102.30L119.32 102.30Q117.25 102.30 115.71 101.35Q114.16 100.40 113.31 98.69Q112.46 96.98 112.46 94.70L112.46 94.70Q112.46 92.41 113.31 90.70Q114.16 88.98 115.71 88.03Q117.25 87.08 119.32 87.08L119.32 87.08Q121.40 87.08 122.94 88.03Q124.48 88.98 125.33 90.70Q126.19 92.41 126.19 94.70L126.19 94.70Q126.19 96.98 125.33 98.69Q124.48 100.40 122.94 101.35Q121.40 102.30 119.32 102.30ZM119.33 99.89L119.33 99.89Q120.68 99.89 121.56 99.18Q122.44 98.47 122.87 97.29Q123.29 96.10 123.29 94.69L123.29 94.69Q123.29 93.28 122.87 92.10Q122.44 90.91 121.56 90.19Q120.68 89.48 119.33 89.48L119.33 89.48Q117.98 89.48 117.10 90.19Q116.22 90.91 115.78 92.10Q115.35 93.28 115.35 94.69L115.35 94.69Q115.35 96.10 115.78 97.29Q116.22 98.47 117.10 99.18Q117.98 99.89 119.33 99.89ZM129.08 82.36L131.95 82.36L131.95 102L129.08 102L129.08 82.36ZM141.01 102.29L141.01 102.29Q139.23 102.29 137.84 101.38Q136.45 100.47 135.65 98.75Q134.86 97.04 134.86 94.67L134.86 94.67Q134.86 92.28 135.66 90.58Q136.46 88.88 137.86 87.98Q139.26 87.08 141.03 87.08L141.03 87.08Q142.40 87.08 143.24 87.54Q144.08 87.99 144.55 88.60Q145.01 89.20 145.27 89.66L145.27 89.66L145.44 89.66L145.44 82.36L148.31 82.36L148.31 102L145.51 102L145.51 99.71L145.27 99.71Q145.01 100.18 144.53 100.78Q144.04 101.39 143.20 101.84Q142.36 102.29 141.01 102.29ZM141.65 99.84L141.65 99.84Q143.51 99.84 144.50 98.40Q145.49 96.96 145.49 94.64L145.49 94.64Q145.49 92.33 144.51 90.92Q143.53 89.52 141.65 89.52L141.65 89.52Q140.35 89.52 139.49 90.19Q138.63 90.86 138.19 92.01Q137.75 93.17 137.75 94.64L137.75 94.64Q137.75 96.11 138.20 97.29Q138.64 98.47 139.50 99.16Q140.37 99.84 141.65 99.84ZM155.13 102L152.33 102L152.33 82.36L155.19 82.36L155.19 89.66L155.37 89.66Q155.62 89.20 156.09 88.60Q156.55 87.99 157.39 87.54Q158.23 87.08 159.59 87.08L159.59 87.08Q161.38 87.08 162.77 87.98Q164.17 88.88 164.97 90.58Q165.78 92.28 165.78 94.67L165.78 94.67Q165.78 97.04 164.98 98.75Q164.19 100.47 162.80 101.38Q161.41 102.29 159.62 102.29L159.62 102.29Q158.28 102.29 157.44 101.84Q156.59 101.39 156.11 100.78Q155.62 100.18 155.37 99.71L155.37 99.71L155.13 99.71L155.13 102ZM155.13 94.64L155.13 94.64Q155.13 96.96 156.13 98.40Q157.13 99.84 158.98 99.84L158.98 99.84Q160.26 99.84 161.13 99.16Q162 98.47 162.44 97.29Q162.88 96.11 162.88 94.64L162.88 94.64Q162.88 93.17 162.45 92.01Q162.01 90.86 161.15 90.19Q160.28 89.52 158.98 89.52L158.98 89.52Q157.10 89.52 156.12 90.92Q155.13 92.33 155.13 94.64ZM172.98 102.33L172.98 102.33Q171.58 102.33 170.45 101.81Q169.32 101.29 168.66 100.29Q168.00 99.29 168.00 97.84L168.00 97.84Q168.00 96.58 168.48 95.78Q168.97 94.97 169.78 94.50Q170.59 94.03 171.59 93.80Q172.60 93.56 173.65 93.44L173.65 93.44Q174.97 93.28 175.79 93.18Q176.61 93.08 176.99 92.85Q177.37 92.62 177.37 92.11L177.37 92.11L177.37 92.04Q177.37 90.78 176.66 90.09Q175.96 89.40 174.57 89.40L174.57 89.40Q173.12 89.40 172.29 90.03Q171.46 90.67 171.14 91.45L171.14 91.45L168.45 90.84Q169.17 88.83 170.85 87.95Q172.53 87.08 174.53 87.08L174.53 87.08Q175.41 87.08 176.40 87.29Q177.39 87.49 178.26 88.04Q179.14 88.60 179.69 89.60Q180.24 90.61 180.24 92.22L180.24 92.22L180.24 102L177.44 102L177.44 99.99L177.33 99.99Q176.92 100.81 175.86 101.57Q174.81 102.33 172.98 102.33ZM173.60 100.02L173.60 100.02Q174.80 100.02 175.64 99.56Q176.48 99.09 176.93 98.32Q177.38 97.56 177.38 96.69L177.38 96.69L177.38 94.79Q177.18 94.99 176.49 95.14Q175.81 95.30 175.06 95.40Q174.30 95.51 173.83 95.58L173.83 95.58Q172.58 95.74 171.70 96.23Q170.81 96.73 170.81 97.88L170.81 97.88Q170.81 98.94 171.59 99.48Q172.38 100.02 173.60 100.02ZM186.63 102L183.76 102L183.76 87.27L186.53 87.27L186.53 89.61L186.68 89.61Q187.09 88.42 188.11 87.74Q189.13 87.05 190.42 87.05L190.42 87.05Q190.70 87.05 191.07 87.07Q191.43 87.09 191.64 87.12L191.64 87.12L191.64 89.86Q191.47 89.81 191.03 89.75Q190.60 89.69 190.15 89.69L190.15 89.69Q188.62 89.69 187.62 90.62Q186.63 91.56 186.63 93.01L186.63 93.01L186.63 102ZM197.69 87.27L200.71 87.27L200.71 89.57L197.69 89.57L197.69 97.68Q197.69 98.92 198.22 99.28Q198.75 99.64 199.45 99.64L199.45 99.64Q199.80 99.64 200.06 99.59Q200.32 99.55 200.46 99.52L200.46 99.52L200.98 101.88Q200.73 101.98 200.26 102.08Q199.80 102.18 199.12 102.19L199.12 102.19Q197.99 102.21 197.00 101.79Q196.02 101.37 195.42 100.49Q194.82 99.60 194.82 98.27L194.82 98.27L194.82 89.57L192.66 89.57L192.66 87.27L194.82 87.27L194.82 83.74L197.69 83.74L197.69 87.27ZM206.44 93.26L206.44 93.26L206.44 102L203.57 102L203.57 82.36L206.40 82.36L206.40 89.67L206.58 89.67Q207.10 88.47 208.17 87.78Q209.23 87.08 210.95 87.08L210.95 87.08Q213.22 87.08 214.60 88.48Q215.99 89.88 215.99 92.63L215.99 92.63L215.99 102L213.12 102L213.12 92.98Q213.12 91.36 212.29 90.46Q211.45 89.56 209.97 89.56L209.97 89.56Q208.43 89.56 207.44 90.53Q206.44 91.49 206.44 93.26ZM221.41 102.18L221.41 102.18Q220.63 102.18 220.06 101.62Q219.50 101.06 219.50 100.26L219.50 100.26Q219.50 99.48 220.06 98.92Q220.63 98.36 221.41 98.36L221.41 98.36Q222.20 98.36 222.76 98.92Q223.33 99.48 223.33 100.26L223.33 100.26Q223.33 101.06 222.76 101.62Q222.20 102.18 221.41 102.18ZM232.38 102.29L232.38 102.29Q230.60 102.29 229.21 101.38Q227.82 100.47 227.02 98.75Q226.22 97.04 226.22 94.67L226.22 94.67Q226.22 92.28 227.02 90.58Q227.82 88.88 229.22 87.98Q230.62 87.08 232.40 87.08L232.40 87.08Q233.77 87.08 234.61 87.54Q235.45 87.99 235.91 88.60Q236.38 89.20 236.64 89.66L236.64 89.66L236.81 89.66L236.81 82.36L239.68 82.36L239.68 102L236.88 102L236.88 99.71L236.64 99.71Q236.38 100.18 235.89 100.78Q235.41 101.39 234.57 101.84Q233.72 102.29 232.38 102.29ZM233.01 99.84L233.01 99.84Q234.87 99.84 235.86 98.40Q236.86 96.96 236.86 94.64L236.86 94.64Q236.86 92.33 235.87 90.92Q234.89 89.52 233.01 89.52L233.01 89.52Q231.72 89.52 230.85 90.19Q229.99 90.86 229.56 92.01Q229.12 93.17 229.12 94.64L229.12 94.64Q229.12 96.11 229.56 97.29Q230.00 98.47 230.87 99.16Q231.74 99.84 233.01 99.84ZM249.81 102.30L249.81 102.30Q247.64 102.30 246.07 101.36Q244.50 100.42 243.65 98.72Q242.80 97.01 242.80 94.73L242.80 94.73Q242.80 92.47 243.65 90.74Q244.50 89.02 246.02 88.05Q247.55 87.08 249.61 87.08L249.61 87.08Q251.27 87.08 252.77 87.82Q254.26 88.57 255.19 90.19Q256.13 91.82 256.13 94.48L256.13 94.48L256.13 95.50L245.66 95.50Q245.71 97.63 246.85 98.78Q248.00 99.93 249.84 99.93L249.84 99.93Q251.06 99.93 251.96 99.40Q252.85 98.87 253.23 97.83L253.23 97.83L255.94 98.32Q255.45 100.11 253.83 101.20Q252.21 102.30 249.81 102.30ZM245.67 93.35L245.67 93.35L253.32 93.35Q253.31 91.66 252.30 90.56Q251.29 89.45 249.63 89.45L249.63 89.45Q248.46 89.45 247.60 89.99Q246.73 90.53 246.23 91.42Q245.72 92.31 245.67 93.35ZM268.54 87.27L271.62 87.27L266.28 102L263.21 102L257.86 87.27L260.94 87.27L264.67 98.61L264.82 98.61L268.54 87.27Z" fill="#1A1613"/><path d="M45.67 132L45.67 119.42L47.03 119.42L47.03 124.66L47.09 124.66Q47.23 124.33 47.43 124.04Q47.64 123.74 47.94 123.52Q48.23 123.30 48.64 123.16Q49.05 123.02 49.59 123.02L49.59 123.02Q50.97 123.02 51.80 123.90Q52.64 124.78 52.64 126.37L52.64 126.37L52.64 132L51.28 132L51.28 126.61Q51.28 125.40 50.75 124.82Q50.22 124.23 49.20 124.23L49.20 124.23Q48.79 124.23 48.40 124.33Q48.01 124.44 47.71 124.64Q47.40 124.84 47.21 125.17Q47.03 125.49 47.03 125.91L47.03 125.91L47.03 132L45.67 132ZM59.45 132.20L59.45 132.20Q58.50 132.20 57.74 131.88Q56.99 131.56 56.45 130.95Q55.92 130.35 55.63 129.51Q55.34 128.67 55.34 127.63L55.34 127.63Q55.34 126.58 55.64 125.73Q55.93 124.88 56.46 124.27Q56.99 123.67 57.73 123.35Q58.47 123.02 59.37 123.02L59.37 123.02Q60.25 123.02 60.97 123.35Q61.70 123.67 62.21 124.24Q62.72 124.81 62.99 125.59Q63.26 126.37 63.26 127.31L63.26 127.31L63.26 127.95L56.77 127.95L56.77 128.36Q56.77 128.94 56.95 129.43Q57.14 129.93 57.49 130.28Q57.84 130.64 58.34 130.84Q58.84 131.03 59.45 131.03L59.45 131.03Q60.34 131.03 60.98 130.62Q61.63 130.22 61.97 129.50L61.97 129.50L62.97 130.18Q62.58 131.06 61.67 131.63Q60.76 132.20 59.45 132.20ZM59.37 124.15L59.37 124.15Q58.81 124.15 58.33 124.35Q57.86 124.55 57.51 124.91Q57.16 125.27 56.96 125.75Q56.77 126.24 56.77 126.81L56.77 126.81L56.77 126.93L61.80 126.93L61.80 126.75Q61.80 126.17 61.62 125.69Q61.44 125.22 61.13 124.87Q60.81 124.52 60.36 124.33Q59.91 124.15 59.37 124.15ZM65.76 132L65.76 130.84L68.82 130.84L68.82 120.58L65.76 120.58L65.76 119.42L70.18 119.42L70.18 130.84L73.24 130.84L73.24 132L65.76 132ZM75.96 132L75.96 130.84L79.02 130.84L79.02 120.58L75.96 120.58L75.96 119.42L80.38 119.42L80.38 130.84L83.44 130.84L83.44 132L75.96 132ZM89.90 132.20L89.90 132.20Q88.98 132.20 88.24 131.88Q87.50 131.56 86.98 130.95Q86.47 130.35 86.19 129.51Q85.92 128.67 85.92 127.61L85.92 127.61Q85.92 126.58 86.19 125.73Q86.47 124.88 86.98 124.27Q87.50 123.67 88.24 123.35Q88.98 123.02 89.90 123.02L89.90 123.02Q90.82 123.02 91.56 123.35Q92.30 123.67 92.82 124.27Q93.33 124.88 93.61 125.73Q93.88 126.58 93.88 127.61L93.88 127.61Q93.88 128.67 93.61 129.51Q93.33 130.35 92.82 130.95Q92.30 131.56 91.56 131.88Q90.82 132.20 89.90 132.20ZM89.90 131.03L89.90 131.03Q91.04 131.03 91.74 130.35Q92.43 129.67 92.43 128.24L92.43 128.24L92.43 126.98Q92.43 125.56 91.74 124.88Q91.04 124.20 89.90 124.20L89.90 124.20Q88.76 124.20 88.06 124.88Q87.37 125.56 87.37 126.98L87.37 126.98L87.37 128.24Q87.37 129.67 88.06 130.35Q88.76 131.03 89.90 131.03ZM102.72 132.82L102.72 133.90L100.63 133.90Q99.34 133.90 98.46 133.47Q97.58 133.04 97.05 132.16Q96.51 131.29 96.28 129.98Q96.05 128.67 96.05 126.90L96.05 126.90Q96.05 124.93 96.32 123.59Q96.58 122.26 97.09 121.44Q97.60 120.63 98.36 120.28Q99.11 119.93 100.12 119.93L100.12 119.93Q101.14 119.93 101.86 120.25Q102.58 120.58 103.04 121.14Q103.50 121.70 103.71 122.47Q103.93 123.25 103.93 124.13L103.93 124.13L103.93 130.45L102.72 130.45L102.72 129.48L102.63 129.48Q102.46 129.93 102.07 130.29Q101.68 130.66 100.93 130.66L100.93 130.66Q99.90 130.66 99.28 129.78Q98.67 128.91 98.67 127.02L98.67 127.02Q98.67 125.13 99.28 124.25Q99.90 123.36 100.93 123.36L100.93 123.36Q101.31 123.36 101.59 123.47Q101.87 123.57 102.07 123.74Q102.28 123.91 102.41 124.11Q102.55 124.32 102.63 124.54L102.63 124.54L102.72 124.54L102.72 124.13Q102.72 122.68 102.11 121.85Q101.51 121.02 100.15 121.02L100.15 121.02Q98.64 121.02 97.98 122.18Q97.33 123.35 97.33 125.91L97.33 125.91L97.33 128.11Q97.33 129.09 97.47 129.95Q97.60 130.81 97.97 131.45Q98.33 132.09 98.97 132.45Q99.61 132.82 100.63 132.82L100.63 132.82L102.72 132.82ZM101.38 129.64L101.38 129.64Q101.99 129.64 102.35 129.30Q102.72 128.96 102.72 128.31L102.72 128.31L102.72 125.71Q102.72 125.06 102.35 124.72Q101.99 124.38 101.38 124.38L101.38 124.38Q100.66 124.38 100.30 124.87Q99.93 125.35 99.93 126.49L99.93 126.49L99.93 127.53Q99.93 128.67 100.30 129.15Q100.66 129.64 101.38 129.64ZM114.74 133.00L114.74 133.00Q114.74 134.33 113.63 134.97Q112.53 135.60 110.32 135.60L110.32 135.60Q108.19 135.60 107.27 135.04Q106.34 134.48 106.34 133.43L106.34 133.43Q106.34 132.71 106.71 132.32Q107.09 131.93 107.77 131.75L107.77 131.75L107.77 131.54Q107.39 131.35 107.19 131.06Q106.99 130.78 106.99 130.33L106.99 130.33Q106.99 129.65 107.44 129.31Q107.89 128.97 108.57 128.80L108.57 128.80L108.57 128.74Q107.75 128.38 107.30 127.68Q106.85 126.98 106.85 126.05L106.85 126.05Q106.85 125.39 107.09 124.83Q107.33 124.27 107.78 123.87Q108.23 123.47 108.86 123.25Q109.48 123.02 110.25 123.02L110.25 123.02Q111.24 123.02 111.98 123.38L111.98 123.38L111.98 123.23Q111.98 122.72 112.22 122.38Q112.46 122.04 113.04 122.04L113.04 122.04L114.65 122.04L114.65 123.23L112.68 123.23L112.68 123.82Q113.16 124.23 113.41 124.79Q113.67 125.35 113.67 126.05L113.67 126.05Q113.67 126.71 113.42 127.27Q113.17 127.83 112.73 128.23Q112.29 128.63 111.65 128.85Q111.01 129.08 110.25 129.08L110.25 129.08Q110.03 129.08 109.82 129.06Q109.62 129.04 109.42 129.01L109.42 129.01Q109.21 129.04 108.99 129.12Q108.77 129.19 108.58 129.32Q108.40 129.45 108.28 129.62Q108.16 129.79 108.16 130.01L108.16 130.01Q108.16 130.40 108.55 130.53Q108.94 130.66 109.57 130.66L109.57 130.66L111.51 130.66Q113.21 130.66 113.97 131.29Q114.74 131.93 114.74 133.00ZM113.46 133.07L113.46 133.07Q113.46 132.54 113.04 132.23Q112.61 131.91 111.56 131.91L111.56 131.91L108.52 131.91Q107.63 132.27 107.63 133.10L107.63 133.10Q107.63 133.68 108.09 134.10Q108.55 134.52 109.62 134.52L109.62 134.52L110.95 134.52Q112.14 134.52 112.80 134.15Q113.46 133.78 113.46 133.07ZM110.25 128.02L110.25 128.02Q111.27 128.02 111.75 127.55Q112.24 127.07 112.24 126.29L112.24 126.29L112.24 125.80Q112.24 125.01 111.75 124.55Q111.27 124.08 110.25 124.08L110.25 124.08Q109.23 124.08 108.75 124.55Q108.28 125.01 108.28 125.80L108.28 125.80L108.28 126.29Q108.28 127.07 108.75 127.55Q109.23 128.02 110.25 128.02ZM120.50 132.20L120.50 132.20Q119.58 132.20 118.84 131.88Q118.10 131.56 117.58 130.95Q117.07 130.35 116.79 129.51Q116.52 128.67 116.52 127.61L116.52 127.61Q116.52 126.58 116.79 125.73Q117.07 124.88 117.58 124.27Q118.10 123.67 118.84 123.35Q119.58 123.02 120.50 123.02L120.50 123.02Q121.42 123.02 122.16 123.35Q122.90 123.67 123.42 124.27Q123.93 124.88 124.21 125.73Q124.48 126.58 124.48 127.61L124.48 127.61Q124.48 128.67 124.21 129.51Q123.93 130.35 123.42 130.95Q122.90 131.56 122.16 131.88Q121.42 132.20 120.50 132.20ZM120.50 131.03L120.50 131.03Q121.64 131.03 122.34 130.35Q123.03 129.67 123.03 128.24L123.03 128.24L123.03 126.98Q123.03 125.56 122.34 124.88Q121.64 124.20 120.50 124.20L120.50 124.20Q119.36 124.20 118.66 124.88Q117.97 125.56 117.97 126.98L117.97 126.98L117.97 128.24Q117.97 129.67 118.66 130.35Q119.36 131.03 120.50 131.03ZM126.96 132L126.96 130.84L130.02 130.84L130.02 120.58L126.96 120.58L126.96 119.42L131.38 119.42L131.38 130.84L134.44 130.84L134.44 132L126.96 132ZM143.03 132L143.03 130.57L142.96 130.57Q142.11 132.20 140.25 132.20L140.25 132.20Q138.64 132.20 137.73 131.00Q136.82 129.79 136.82 127.61L136.82 127.61Q136.82 125.44 137.73 124.23Q138.64 123.02 140.25 123.02L140.25 123.02Q142.11 123.02 142.96 124.66L142.96 124.66L143.03 124.66L143.03 119.42L144.39 119.42L144.39 132L143.03 132ZM140.78 131.00L140.78 131.00Q141.24 131.00 141.65 130.88Q142.06 130.76 142.36 130.53Q142.67 130.30 142.85 129.97Q143.03 129.64 143.03 129.19L143.03 129.19L143.03 126.03Q143.03 125.59 142.85 125.26Q142.67 124.93 142.36 124.70Q142.06 124.47 141.65 124.35Q141.24 124.23 140.78 124.23L140.78 124.23Q139.59 124.23 138.94 124.95Q138.28 125.68 138.28 126.87L138.28 126.87L138.28 128.36Q138.28 129.55 138.94 130.27Q139.59 131.00 140.78 131.00ZM147.62 132L147.62 119.42L148.97 119.42L148.97 124.66L149.04 124.66Q149.89 123.02 151.75 123.02L151.75 123.02Q153.36 123.02 154.27 124.23Q155.18 125.44 155.18 127.61L155.18 127.61Q155.18 129.79 154.27 131.00Q153.36 132.20 151.75 132.20L151.75 132.20Q149.89 132.20 149.04 130.57L149.04 130.57L148.97 130.57L148.97 132L147.62 132ZM151.22 131.00L151.22 131.00Q152.41 131.00 153.06 130.27Q153.72 129.55 153.72 128.36L153.72 128.36L153.72 126.87Q153.72 125.68 153.06 124.95Q152.41 124.23 151.22 124.23L151.22 124.23Q150.76 124.23 150.35 124.35Q149.94 124.47 149.64 124.70Q149.33 124.93 149.15 125.26Q148.97 125.59 148.97 126.03L148.97 126.03L148.97 129.19Q148.97 129.64 149.15 129.97Q149.33 130.30 149.64 130.53Q149.94 130.76 150.35 130.88Q150.76 131.00 151.22 131.00ZM165.55 132L164.61 132Q163.82 132 163.48 131.59Q163.14 131.18 163.05 130.57L163.05 130.57L162.97 130.57Q162.68 131.34 162.04 131.77Q161.40 132.20 160.33 132.20L160.33 132.20Q158.95 132.20 158.14 131.49Q157.32 130.78 157.32 129.53L157.32 129.53Q157.32 128.31 158.21 127.65Q159.11 126.98 161.10 126.98L161.10 126.98L162.97 126.98L162.97 126.12Q162.97 125.15 162.42 124.66Q161.88 124.18 160.88 124.18L160.88 124.18Q159.99 124.18 159.43 124.53Q158.87 124.88 158.53 125.47L158.53 125.47L157.61 124.79Q157.78 124.45 158.07 124.13Q158.36 123.81 158.78 123.56Q159.21 123.31 159.75 123.17Q160.30 123.02 160.96 123.02L160.96 123.02Q162.51 123.02 163.42 123.81Q164.33 124.59 164.33 125.98L164.33 125.98L164.33 130.81L165.55 130.81L165.55 132ZM160.57 131.06L160.57 131.06Q161.10 131.06 161.53 130.94Q161.96 130.81 162.29 130.60Q162.61 130.38 162.79 130.09Q162.97 129.79 162.97 129.45L162.97 129.45L162.97 128.00L161.10 128.00Q159.87 128.00 159.31 128.34Q158.75 128.69 158.75 129.33L158.75 129.33L158.75 129.69Q158.75 130.37 159.23 130.72Q159.72 131.06 160.57 131.06ZM167.71 132L167.71 130.84L170.28 130.84L170.28 124.38L167.71 124.38L167.71 123.23L171.64 123.23L171.64 125.44L171.72 125.44Q171.99 124.40 172.75 123.81Q173.51 123.23 174.68 123.23L174.68 123.23L175.90 123.23L175.90 124.59L174.25 124.59Q173.08 124.59 172.36 125.27Q171.64 125.95 171.64 127.05L171.64 127.05L171.64 130.84L175.04 130.84L175.04 132L167.71 132ZM185.54 132L182.12 132Q181.12 132 180.65 131.44Q180.19 130.88 180.19 129.99L180.19 129.99L180.19 124.38L177.26 124.38L177.26 123.23L179.44 123.23Q179.88 123.23 180.06 123.05Q180.24 122.87 180.24 122.43L180.24 122.43L180.24 120.13L181.55 120.13L181.55 123.23L185.54 123.23L185.54 124.38L181.55 124.38L181.55 130.84L185.54 130.84L185.54 132ZM188.47 132L188.47 119.42L189.83 119.42L189.83 124.66L189.89 124.66Q190.03 124.33 190.23 124.04Q190.44 123.74 190.74 123.52Q191.03 123.30 191.44 123.16Q191.85 123.02 192.39 123.02L192.39 123.02Q193.77 123.02 194.60 123.90Q195.44 124.78 195.44 126.37L195.44 126.37L195.44 132L194.08 132L194.08 126.61Q194.08 125.40 193.55 124.82Q193.02 124.23 192.00 124.23L192.00 124.23Q191.59 124.23 191.20 124.33Q190.81 124.44 190.51 124.64Q190.20 124.84 190.01 125.17Q189.83 125.49 189.83 125.91L189.83 125.91L189.83 132L188.47 132ZM202.10 132.15L202.10 132.15Q201.40 132.15 201.12 131.86Q200.84 131.57 200.84 131.13L200.84 131.13L200.84 130.83Q200.84 130.38 201.12 130.10Q201.40 129.81 202.10 129.81L202.10 129.81Q202.80 129.81 203.08 130.10Q203.36 130.38 203.36 130.83L203.36 130.83L203.36 131.13Q203.36 131.57 203.08 131.86Q202.80 132.15 202.10 132.15ZM214.42 132L214.42 130.57L214.36 130.57Q213.51 132.20 211.65 132.20L211.65 132.20Q210.04 132.20 209.13 131.00Q208.22 129.79 208.22 127.61L208.22 127.61Q208.22 125.44 209.13 124.23Q210.04 123.02 211.65 123.02L211.65 123.02Q213.51 123.02 214.36 124.66L214.36 124.66L214.42 124.66L214.42 119.42L215.78 119.42L215.78 132L214.42 132ZM212.18 131.00L212.18 131.00Q212.64 131.00 213.05 130.88Q213.46 130.76 213.76 130.53Q214.07 130.30 214.25 129.97Q214.42 129.64 214.42 129.19L214.42 129.19L214.42 126.03Q214.42 125.59 214.25 125.26Q214.07 124.93 213.76 124.70Q213.46 124.47 213.05 124.35Q212.64 124.23 212.18 124.23L212.18 124.23Q210.99 124.23 210.34 124.95Q209.68 125.68 209.68 126.87L209.68 126.87L209.68 128.36Q209.68 129.55 210.34 130.27Q210.99 131.00 212.18 131.00ZM222.65 132.20L222.65 132.20Q221.70 132.20 220.94 131.88Q220.19 131.56 219.65 130.95Q219.12 130.35 218.83 129.51Q218.54 128.67 218.54 127.63L218.54 127.63Q218.54 126.58 218.84 125.73Q219.13 124.88 219.66 124.27Q220.19 123.67 220.93 123.35Q221.67 123.02 222.57 123.02L222.57 123.02Q223.45 123.02 224.17 123.35Q224.90 123.67 225.41 124.24Q225.92 124.81 226.19 125.59Q226.46 126.37 226.46 127.31L226.46 127.31L226.46 127.95L219.97 127.95L219.97 128.36Q219.97 128.94 220.15 129.43Q220.34 129.93 220.69 130.28Q221.04 130.64 221.54 130.84Q222.04 131.03 222.65 131.03L222.65 131.03Q223.54 131.03 224.18 130.62Q224.83 130.22 225.17 129.50L225.17 129.50L226.17 130.18Q225.78 131.06 224.87 131.63Q223.96 132.20 222.65 132.20ZM222.57 124.15L222.57 124.15Q222.01 124.15 221.53 124.35Q221.05 124.55 220.71 124.91Q220.36 125.27 220.16 125.75Q219.97 126.24 219.97 126.81L219.97 126.81L219.97 126.93L225.00 126.93L225.00 126.75Q225.00 126.17 224.82 125.69Q224.64 125.22 224.33 124.87Q224.01 124.52 223.56 124.33Q223.11 124.15 222.57 124.15ZM233.57 132L231.83 132L228.69 123.23L230.06 123.23L231.32 126.90L232.68 130.86L232.75 130.86L234.11 126.90L235.37 123.23L236.71 123.23L233.57 132ZM257.88 126.07L254.36 129.59L253.54 128.77L255.00 127.31L255.85 126.59L255.84 126.54L254.20 126.64L248.49 126.64L248.49 125.49L254.20 125.49L255.84 125.59L255.85 125.54L255.00 124.83L253.54 123.36L254.36 122.55L257.88 126.07Z" fill="#8F5D18"/></svg>