<?xml version="1.0" encoding="UTF-8"?>
<svg xmlns="http://www.w3.org/2000/svg" viewBox="0 0 1200 120" width="1200" height="120"><rect x="12" y="12" width="1176" height="96" rx="18" fill="#FBF8F3"/><g id="pills"><rect x="44" y="44" width="49" height="32" rx="7" fill="#E8F4F2" stroke="#B9DEDA" stroke-width="1"/><path d="M63.14 65.23L63.14 65.23Q60.70 65.23 59.52 63.46Q58.33 61.69 58.33 58.37L58.33 58.37Q58.33 55.04 59.52 53.28Q60.70 51.51 63.14 51.51L63.14 51.51Q64.05 51.51 64.71 51.76Q65.38 52.00 65.85 52.42Q66.33 52.84 66.65 53.36Q66.97 53.88 67.22 54.42L67.22 54.42L65.85 55.04Q65.68 54.61 65.45 54.22Q65.23 53.83 64.91 53.53Q64.60 53.24 64.17 53.07Q63.74 52.90 63.14 52.90L63.14 52.90Q61.56 52.90 60.79 54.09Q60.02 55.29 60.02 57.29L60.02 57.29L60.02 59.45Q60.02 61.45 60.79 62.64Q61.56 63.84 63.14 63.84L63.14 63.84Q63.74 63.84 64.17 63.67Q64.60 63.50 64.91 63.20Q65.23 62.91 65.45 62.52Q65.68 62.13 65.85 61.69L65.85 61.69L67.22 62.32Q66.97 62.87 66.65 63.38Q66.33 63.90 65.85 64.32Q65.38 64.73 64.71 64.98Q64.05 65.23 63.14 65.23ZM70.49 65L71.21 60.90L68.70 60.90L68.70 59.64L71.44 59.64L71.88 57.10L69.39 57.10L69.39 55.84L72.11 55.84L72.83 51.74L74.21 51.74L71.88 65L70.49 65ZM73.99 65L76.32 51.74L77.71 51.74L76.99 55.84L79.50 55.84L79.50 57.10L76.76 57.10L76.32 59.64L78.81 59.64L78.81 60.90L76.09 60.90L75.37 65L73.99 65Z" fill="#0E5F5A"/><rect x="105" y="44" width="72" height="32" rx="7" fill="#E8F4F2" stroke="#B9DEDA" stroke-width="1"/><path d="M123.70 65.17L123.70 65.17Q122.92 65.17 122.61 64.85Q122.29 64.53 122.29 64.03L122.29 64.03L122.29 63.69Q122.29 63.20 122.61 62.87Q122.92 62.55 123.70 62.55L123.70 62.55Q124.48 62.55 124.79 62.87Q125.11 63.20 125.11 63.69L125.11 63.69L125.11 64.03Q125.11 64.53 124.79 64.85Q124.48 65.17 123.70 65.17ZM137.02 65L132.50 53.83L132.36 53.83L132.36 65L130.92 65L130.92 51.74L133.18 51.74L137.70 62.91L137.84 62.91L137.84 51.74L139.28 51.74L139.28 65L137.02 65ZM150.68 65L142.51 65L142.51 51.74L150.68 51.74L150.68 53.13L144.11 53.13L144.11 57.59L150.45 57.59L150.45 58.98L144.11 58.98L144.11 63.61L150.68 63.61L150.68 65ZM163.13 53.13L158.70 53.13L158.70 65L157.10 65L157.10 53.13L152.68 53.13L152.68 51.74L163.13 51.74L163.13 53.13Z" fill="#0E5F5A"/><rect x="189" y="44" width="94" height="32" rx="7" fill="#E8F4F2" stroke="#B9DEDA" stroke-width="1"/><path d="M205.31 65L203.71 65L203.71 51.74L208.54 51.74Q210.38 51.74 211.35 52.75Q212.32 53.75 212.32 55.56L212.32 55.56Q212.32 57.36 211.35 58.37Q210.38 59.38 208.54 59.38L208.54 59.38L205.31 59.38L205.31 65ZM205.31 53.13L205.31 57.99L208.50 57.99Q209.50 57.99 210.07 57.49Q210.63 56.98 210.63 56.05L210.63 56.05L210.63 55.06Q210.63 54.13 210.07 53.63Q209.50 53.13 208.50 53.13L208.50 53.13L205.31 53.13ZM220.62 59.30L222.27 55.20L223.79 55.20L218.93 67.15Q218.76 67.56 218.55 67.88Q218.34 68.19 218.06 68.39Q217.77 68.59 217.37 68.70Q216.97 68.80 216.42 68.80L216.42 68.80L214.98 68.80L214.98 67.51L217.26 67.51L218.36 64.81L214.41 55.20L215.97 55.20L217.62 59.30L219.08 63.02L219.16 63.02L220.62 59.30ZM234.79 65L230.98 65Q229.85 65 229.33 64.37Q228.81 63.75 228.81 62.76L228.81 62.76L228.81 56.49L225.54 56.49L225.54 55.20L227.97 55.20Q228.47 55.20 228.67 55.00Q228.87 54.80 228.87 54.30L228.87 54.30L228.87 51.74L230.33 51.74L230.33 55.20L234.79 55.20L234.79 56.49L230.33 56.49L230.33 63.71L234.79 63.71L234.79 65ZM238.06 65L238.06 50.94L239.58 50.94L239.58 56.79L239.66 56.79Q239.81 56.43 240.04 56.10Q240.27 55.77 240.60 55.52Q240.93 55.27 241.39 55.12Q241.84 54.97 242.45 54.97L242.45 54.97Q243.99 54.97 244.92 55.95Q245.85 56.92 245.85 58.71L245.85 58.71L245.85 65L244.33 65L244.33 58.98Q244.33 57.63 243.74 56.97Q243.15 56.32 242.01 56.32L242.01 56.32Q241.56 56.32 241.12 56.43Q240.68 56.55 240.34 56.77Q240.00 57.00 239.79 57.36Q239.58 57.72 239.58 58.20L239.58 58.20L239.58 65L238.06 65ZM253.30 65.23L253.30 65.23Q252.27 65.23 251.45 64.87Q250.62 64.51 250.04 63.83Q249.46 63.16 249.16 62.22Q248.85 61.28 248.85 60.10L248.85 60.10Q248.85 58.94 249.16 57.99Q249.46 57.04 250.04 56.36Q250.62 55.69 251.45 55.33Q252.27 54.97 253.30 54.97L253.30 54.97Q254.33 54.97 255.15 55.33Q255.98 55.69 256.56 56.36Q257.14 57.04 257.44 57.99Q257.75 58.94 257.75 60.10L257.75 60.10Q257.75 61.28 257.44 62.22Q257.14 63.16 256.56 63.83Q255.98 64.51 255.15 64.87Q254.33 65.23 253.30 65.23ZM253.30 63.92L253.30 63.92Q254.57 63.92 255.35 63.16Q256.13 62.40 256.13 60.80L256.13 60.80L256.13 59.40Q256.13 57.80 255.35 57.04Q254.57 56.28 253.30 56.28L253.30 56.28Q252.03 56.28 251.25 57.04Q250.47 57.80 250.47 59.40L250.47 59.40L250.47 60.80Q250.47 62.40 251.25 63.16Q252.03 63.92 253.30 63.92ZM262.38 65L260.86 65L260.86 55.20L262.38 55.20L262.38 56.79L262.46 56.79Q262.61 56.43 262.84 56.10Q263.07 55.77 263.40 55.52Q263.73 55.27 264.19 55.12Q264.64 54.97 265.25 54.97L265.25 54.97Q266.79 54.97 267.72 55.95Q268.65 56.92 268.65 58.71L268.65 58.71L268.65 65L267.13 65L267.13 58.98Q267.13 57.63 266.54 56.97Q265.95 56.32 264.81 56.32L264.81 56.32Q264.36 56.32 263.92 56.43Q263.48 56.55 263.14 56.77Q262.80 57.00 262.59 57.36Q262.38 57.72 262.38 58.20L262.38 58.20L262.38 65Z" fill="#0E5F5A"/><rect x="295" y="44" width="94" height="32" rx="7" fill="#E8F4F2" stroke="#B9DEDA" stroke-width="1"/><path d="M309.81 65L309.81 51.74L313.51 51.74Q315.94 51.74 317.14 53.41Q318.34 55.08 318.34 58.37L318.34 58.37Q318.34 61.66 317.14 63.33Q315.94 65 313.51 65L313.51 65L309.81 65ZM311.40 63.61L313.43 63.61Q315.03 63.61 315.84 62.51Q316.64 61.41 316.64 59.40L316.64 59.40L316.64 57.34Q316.64 55.33 315.84 54.23Q315.03 53.13 313.43 53.13L313.43 53.13L311.40 53.13L311.40 63.61ZM325.10 65.23L325.10 65.23Q324.07 65.23 323.25 64.87Q322.42 64.51 321.84 63.83Q321.26 63.16 320.96 62.22Q320.65 61.28 320.65 60.10L320.65 60.10Q320.65 58.94 320.96 57.99Q321.26 57.04 321.84 56.36Q322.42 55.69 323.25 55.33Q324.07 54.97 325.10 54.97L325.10 54.97Q326.13 54.97 326.95 55.33Q327.78 55.69 328.36 56.36Q328.94 57.04 329.24 57.99Q329.55 58.94 329.55 60.10L329.55 60.10Q329.55 61.28 329.24 62.22Q328.94 63.16 328.36 63.83Q327.78 64.51 326.95 64.87Q326.13 65.23 325.10 65.23ZM325.10 63.92L325.10 63.92Q326.37 63.92 327.15 63.16Q327.93 62.40 327.93 60.80L327.93 60.80L327.93 59.40Q327.93 57.80 327.15 57.04Q326.37 56.28 325.10 56.28L325.10 56.28Q323.83 56.28 323.05 57.04Q322.27 57.80 322.27 59.40L322.27 59.40L322.27 60.80Q322.27 62.40 323.05 63.16Q323.83 63.92 325.10 63.92ZM336.84 65.23L336.84 65.23Q335.78 65.23 334.95 64.86Q334.12 64.49 333.55 63.82Q332.98 63.16 332.69 62.21Q332.40 61.26 332.40 60.10L332.40 60.10Q332.40 58.94 332.70 57.99Q333.00 57.04 333.57 56.36Q334.14 55.69 334.96 55.33Q335.78 54.97 336.82 54.97L336.82 54.97Q338.25 54.97 339.14 55.59Q340.03 56.22 340.45 57.23L340.45 57.23L339.24 57.88Q338.97 57.12 338.35 56.70Q337.73 56.28 336.82 56.28L336.82 56.28Q336.16 56.28 335.64 56.50Q335.11 56.72 334.75 57.12Q334.39 57.51 334.21 58.06Q334.03 58.62 334.03 59.26L334.03 59.26L334.03 60.93Q334.03 61.58 334.21 62.13Q334.39 62.68 334.75 63.08Q335.11 63.48 335.64 63.70Q336.18 63.92 336.86 63.92L336.86 63.92Q337.85 63.92 338.49 63.46Q339.14 63.01 339.52 62.21L339.52 62.21L340.60 62.95Q340.17 63.94 339.25 64.58Q338.32 65.23 336.84 65.23ZM344.19 65L344.19 50.94L345.71 50.94L345.71 59.81L345.79 59.81L347.50 58.20L350.77 55.20L352.63 55.20L348.56 59.03L353.11 65L351.22 65L347.41 59.91L345.71 61.45L345.71 65L344.19 65ZM359.47 65.23L359.47 65.23Q358.41 65.23 357.56 64.87Q356.72 64.51 356.12 63.83Q355.52 63.16 355.20 62.22Q354.87 61.28 354.87 60.12L354.87 60.12Q354.87 58.94 355.21 57.99Q355.54 57.04 356.13 56.36Q356.72 55.69 357.54 55.33Q358.37 54.97 359.38 54.97L359.38 54.97Q360.36 54.97 361.17 55.33Q361.98 55.69 362.55 56.33Q363.12 56.96 363.42 57.84Q363.73 58.71 363.73 59.76L363.73 59.76L363.73 60.48L356.47 60.48L356.47 60.93Q356.47 61.58 356.68 62.13Q356.89 62.68 357.28 63.08Q357.67 63.48 358.23 63.70Q358.79 63.92 359.47 63.92L359.47 63.92Q360.46 63.92 361.18 63.46Q361.90 63.01 362.28 62.21L362.28 62.21L363.40 62.97Q362.97 63.95 361.95 64.59Q360.93 65.23 359.47 65.23ZM359.38 56.22L359.38 56.22Q358.75 56.22 358.22 56.45Q357.68 56.68 357.30 57.08Q356.91 57.48 356.69 58.02Q356.47 58.56 356.47 59.20L356.47 59.20L356.47 59.34L362.09 59.34L362.09 59.13Q362.09 58.48 361.89 57.95Q361.69 57.42 361.34 57.03Q360.99 56.64 360.49 56.43Q359.98 56.22 359.38 56.22ZM366.46 65L366.46 63.71L369.33 63.71L369.33 56.49L366.46 56.49L366.46 55.20L370.85 55.20L370.85 57.67L370.95 57.67Q371.25 56.51 372.10 55.85Q372.94 55.20 374.25 55.20L374.25 55.20L375.62 55.20L375.62 56.72L373.78 56.72Q372.47 56.72 371.66 57.48Q370.85 58.24 370.85 59.47L370.85 59.47L370.85 63.71L374.65 63.71L374.65 65L366.46 65Z" fill="#0E5F5A"/><rect x="401" y="44" width="83" height="32" rx="7" fill="#E8F4F2" stroke="#B9DEDA" stroke-width="1"/><path d="M424.83 65L423.14 65L422.02 61.22L417.36 61.22L416.24 65L414.59 65L418.65 51.74L420.76 51.74L424.83 65ZM421.64 59.83L419.78 53.43L419.61 53.43L417.74 59.83L421.64 59.83ZM435.19 65L427.01 65L427.01 63.54L433.34 56.49L427.22 56.49L427.22 55.20L435.00 55.20L435.00 56.66L428.67 63.71L435.19 63.71L435.19 65ZM444.82 65L444.82 63.40L444.74 63.40Q444.59 63.77 444.36 64.10Q444.13 64.43 443.80 64.68Q443.47 64.92 443.01 65.08Q442.56 65.23 441.95 65.23L441.95 65.23Q440.41 65.23 439.48 64.25Q438.55 63.27 438.55 61.48L438.55 61.48L438.55 55.20L440.07 55.20L440.07 61.22Q440.07 62.57 440.66 63.22Q441.25 63.88 442.39 63.88L442.39 63.88Q442.84 63.88 443.28 63.77Q443.72 63.65 444.06 63.42Q444.40 63.20 444.61 62.84Q444.82 62.49 444.82 62.00L444.82 62.00L444.82 55.20L446.34 55.20L446.34 65L444.82 65ZM449.66 65L449.66 63.71L452.53 63.71L452.53 56.49L449.66 56.49L449.66 55.20L454.05 55.20L454.05 57.67L454.15 57.67Q454.45 56.51 455.30 55.85Q456.14 55.20 457.45 55.20L457.45 55.20L458.82 55.20L458.82 56.72L456.98 56.72Q455.67 56.72 454.86 57.48Q454.05 58.24 454.05 59.47L454.05 59.47L454.05 63.71L457.85 63.71L457.85 65L449.66 65ZM465.47 65.23L465.47 65.23Q464.41 65.23 463.56 64.87Q462.72 64.51 462.12 63.83Q461.52 63.16 461.20 62.22Q460.87 61.28 460.87 60.12L460.87 60.12Q460.87 58.94 461.21 57.99Q461.54 57.04 462.13 56.36Q462.72 55.69 463.54 55.33Q464.37 54.97 465.38 54.97L465.38 54.97Q466.36 54.97 467.17 55.33Q467.98 55.69 468.55 56.33Q469.12 56.96 469.42 57.84Q469.73 58.71 469.73 59.76L469.73 59.76L469.73 60.48L462.47 60.48L462.47 60.93Q462.47 61.58 462.68 62.13Q462.89 62.68 463.28 63.08Q463.67 63.48 464.23 63.70Q464.79 63.92 465.47 63.92L465.47 63.92Q466.46 63.92 467.18 63.46Q467.90 63.01 468.28 62.21L468.28 62.21L469.40 62.97Q468.97 63.95 467.95 64.59Q466.93 65.23 465.47 65.23ZM465.38 56.22L465.38 56.22Q464.75 56.22 464.22 56.45Q463.68 56.68 463.30 57.08Q462.91 57.48 462.69 58.02Q462.47 58.56 462.47 59.20L462.47 59.20L462.47 59.34L468.09 59.34L468.09 59.13Q468.09 58.48 467.89 57.95Q467.69 57.42 467.34 57.03Q466.99 56.64 466.49 56.43Q465.98 56.22 465.38 56.22Z" fill="#0E5F5A"/><rect x="496" y="44" width="129" height="32" rx="7" fill="#E8F4F2" stroke="#B9DEDA" stroke-width="1"/><path d="M512.31 65L510.71 65L510.71 51.74L515.54 51.74Q517.38 51.74 518.35 52.75Q519.32 53.75 519.32 55.56L519.32 55.56Q519.32 57.36 518.35 58.37Q517.38 59.38 515.54 59.38L515.54 59.38L512.31 59.38L512.31 65ZM512.31 53.13L512.31 57.99L515.50 57.99Q516.50 57.99 517.07 57.49Q517.63 56.98 517.63 56.05L517.63 56.05L517.63 55.06Q517.63 54.13 517.07 53.63Q516.50 53.13 515.50 53.13L515.50 53.13L512.31 53.13ZM526.10 65.23L526.10 65.23Q525.07 65.23 524.25 64.87Q523.42 64.51 522.84 63.83Q522.26 63.16 521.96 62.22Q521.65 61.28 521.65 60.10L521.65 60.10Q521.65 58.94 521.96 57.99Q522.26 57.04 522.84 56.36Q523.42 55.69 524.25 55.33Q525.07 54.97 526.10 54.97L526.10 54.97Q527.13 54.97 527.95 55.33Q528.78 55.69 529.36 56.36Q529.94 57.04 530.24 57.99Q530.55 58.94 530.55 60.10L530.55 60.10Q530.55 61.28 530.24 62.22Q529.94 63.16 529.36 63.83Q528.78 64.51 527.95 64.87Q527.13 65.23 526.10 65.23ZM526.10 63.92L526.10 63.92Q527.37 63.92 528.15 63.16Q528.93 62.40 528.93 60.80L528.93 60.80L528.93 59.40Q528.93 57.80 528.15 57.04Q527.37 56.28 526.10 56.28L526.10 56.28Q524.83 56.28 524.05 57.04Q523.27 57.80 523.27 59.40L523.27 59.40L523.27 60.80Q523.27 62.40 524.05 63.16Q524.83 63.92 526.10 63.92ZM537.61 65.23L537.61 65.23Q536.07 65.23 534.96 64.71Q533.85 64.18 533.07 63.31L533.07 63.31L534.10 62.42Q534.80 63.16 535.64 63.56Q536.47 63.95 537.65 63.95L537.65 63.95Q538.79 63.95 539.52 63.55Q540.25 63.14 540.25 62.26L540.25 62.26Q540.25 61.88 540.11 61.63Q539.97 61.37 539.72 61.22Q539.48 61.07 539.17 60.98Q538.87 60.90 538.53 60.84L538.53 60.84L536.99 60.61Q536.47 60.53 535.88 60.40Q535.28 60.27 534.78 59.97Q534.29 59.68 533.96 59.19Q533.62 58.69 533.62 57.89L533.62 57.89Q533.62 57.15 533.92 56.61Q534.21 56.07 534.75 55.70Q535.28 55.33 536.00 55.15Q536.72 54.97 537.58 54.97L537.58 54.97Q538.91 54.97 539.88 55.39Q540.86 55.80 541.57 56.55L541.57 56.55L540.58 57.48Q540.41 57.27 540.15 57.05Q539.89 56.83 539.52 56.65Q539.15 56.47 538.66 56.36Q538.16 56.24 537.52 56.24L537.52 56.24Q536.36 56.24 535.74 56.64Q535.13 57.04 535.13 57.80L535.13 57.80Q535.13 58.18 535.27 58.44Q535.41 58.69 535.66 58.84Q535.90 59.00 536.22 59.08Q536.53 59.17 536.85 59.22L536.85 59.22L538.39 59.45Q538.92 59.53 539.51 59.66Q540.10 59.79 540.60 60.09Q541.09 60.38 541.42 60.88Q541.76 61.37 541.76 62.17L541.76 62.17Q541.76 63.63 540.63 64.43Q539.50 65.23 537.61 65.23ZM553.19 65L549.37 65Q548.25 65 547.73 64.37Q547.21 63.75 547.21 62.76L547.21 62.76L547.21 56.49L543.94 56.49L543.94 55.20L546.37 55.20Q546.87 55.20 547.07 55.00Q547.27 54.80 547.27 54.30L547.27 54.30L547.27 51.74L548.73 51.74L548.73 55.20L553.19 55.20L553.19 56.49L548.73 56.49L548.73 63.71L553.19 63.71L553.19 65ZM565.26 66.12L565.26 66.12Q565.26 67.60 564.02 68.32Q562.79 69.03 560.32 69.03L560.32 69.03Q557.94 69.03 556.91 68.40Q555.87 67.77 555.87 66.60L555.87 66.60Q555.87 65.80 556.29 65.36Q556.71 64.92 557.47 64.72L557.47 64.72L557.47 64.49Q557.05 64.28 556.82 63.95Q556.59 63.63 556.59 63.14L556.59 63.14Q556.59 62.38 557.10 62.00Q557.60 61.62 558.36 61.43L558.36 61.43L558.36 61.35Q557.45 60.95 556.95 60.17Q556.44 59.40 556.44 58.35L556.44 58.35Q556.44 57.61 556.71 56.98Q556.97 56.36 557.48 55.91Q557.98 55.46 558.68 55.22Q559.39 54.97 560.24 54.97L560.24 54.97Q561.34 54.97 562.18 55.37L562.18 55.37L562.18 55.20Q562.18 54.63 562.45 54.25Q562.71 53.87 563.36 53.87L563.36 53.87L565.16 53.87L565.16 55.20L562.96 55.20L562.96 55.86Q563.49 56.32 563.78 56.94Q564.06 57.57 564.06 58.35L564.06 58.35Q564.06 59.09 563.79 59.72Q563.51 60.34 563.02 60.79Q562.52 61.24 561.81 61.48Q561.10 61.73 560.24 61.73L560.24 61.73Q560.00 61.73 559.77 61.71Q559.54 61.69 559.31 61.66L559.31 61.66Q559.08 61.69 558.84 61.78Q558.59 61.87 558.38 62.01Q558.17 62.15 558.04 62.34Q557.91 62.53 557.91 62.78L557.91 62.78Q557.91 63.21 558.34 63.36Q558.78 63.50 559.48 63.50L559.48 63.50L561.65 63.50Q563.55 63.50 564.40 64.21Q565.26 64.92 565.26 66.12ZM563.83 66.20L563.83 66.20Q563.83 65.61 563.36 65.26Q562.88 64.91 561.71 64.91L561.71 64.91L558.30 64.91Q557.32 65.30 557.32 66.23L557.32 66.23Q557.32 66.88 557.83 67.35Q558.34 67.81 559.54 67.81L559.54 67.81L561.02 67.81Q562.35 67.81 563.09 67.40Q563.83 67.00 563.83 66.20ZM560.24 60.55L560.24 60.55Q561.38 60.55 561.92 60.02Q562.47 59.49 562.47 58.62L562.47 58.62L562.47 58.06Q562.47 57.19 561.92 56.67Q561.38 56.15 560.24 56.15L560.24 56.15Q559.10 56.15 558.57 56.67Q558.04 57.19 558.04 58.06L558.04 58.06L558.04 58.62Q558.04 59.49 558.57 60.02Q559.10 60.55 560.24 60.55ZM571.87 65.23L571.87 65.23Q570.81 65.23 569.96 64.87Q569.12 64.51 568.52 63.83Q567.92 63.16 567.60 62.22Q567.27 61.28 567.27 60.12L567.27 60.12Q567.27 58.94 567.61 57.99Q567.94 57.04 568.53 56.36Q569.12 55.69 569.94 55.33Q570.77 54.97 571.78 54.97L571.78 54.97Q572.76 54.97 573.57 55.33Q574.38 55.69 574.95 56.33Q575.52 56.96 575.82 57.84Q576.13 58.71 576.13 59.76L576.13 59.76L576.13 60.48L568.87 60.48L568.87 60.93Q568.87 61.58 569.08 62.13Q569.29 62.68 569.68 63.08Q570.07 63.48 570.63 63.70Q571.19 63.92 571.87 63.92L571.87 63.92Q572.86 63.92 573.58 63.46Q574.30 63.01 574.68 62.21L574.68 62.21L575.80 62.97Q575.37 63.95 574.35 64.59Q573.33 65.23 571.87 65.23ZM571.78 56.22L571.78 56.22Q571.15 56.22 570.62 56.45Q570.08 56.68 569.70 57.08Q569.31 57.48 569.09 58.02Q568.87 58.56 568.87 59.20L568.87 59.20L568.87 59.34L574.49 59.34L574.49 59.13Q574.49 58.48 574.29 57.95Q574.09 57.42 573.74 57.03Q573.39 56.64 572.89 56.43Q572.38 56.22 571.78 56.22ZM583.06 65.23L583.06 65.23Q581.28 65.23 580.14 64.57Q579.00 63.92 578.25 62.89L578.25 62.89L579.41 61.94Q580.19 62.91 581.06 63.38Q581.92 63.86 583.12 63.86L583.12 63.86Q584.56 63.86 585.32 63.20Q586.08 62.53 586.08 61.33L586.08 61.33Q586.08 60.36 585.53 59.82Q584.98 59.28 583.61 59.05L583.61 59.05L582.13 58.81Q581.16 58.63 580.51 58.29Q579.85 57.95 579.45 57.47Q579.05 56.98 578.88 56.40Q578.71 55.82 578.71 55.20L578.71 55.20Q578.71 53.37 579.91 52.44Q581.10 51.51 583.14 51.51L583.14 51.51Q584.73 51.51 585.83 52.04Q586.92 52.57 587.58 53.54L587.58 53.54L586.46 54.51Q585.91 53.79 585.13 53.33Q584.35 52.88 583.12 52.88L583.12 52.88Q581.77 52.88 581.05 53.45Q580.33 54.02 580.33 55.16L580.33 55.16Q580.33 56.05 580.87 56.61Q581.41 57.17 582.81 57.42L582.81 57.42L584.24 57.67Q585.21 57.84 585.87 58.18Q586.54 58.52 586.95 59.00Q587.36 59.47 587.53 60.06Q587.70 60.65 587.70 61.30L587.70 61.30Q587.70 63.14 586.49 64.18Q585.28 65.23 583.06 65.23ZM598.13 66.82L598.13 68.12L595.91 68.12Q594.78 68.12 594.26 67.49Q593.74 66.86 593.74 65.87L593.74 65.87L593.74 65.17Q592.73 65.04 592.00 64.52Q591.27 63.99 590.79 63.13Q590.32 62.26 590.09 61.06Q589.86 59.85 589.86 58.37L589.86 58.37Q589.86 56.75 590.13 55.47Q590.40 54.19 590.97 53.31Q591.54 52.44 592.41 51.98Q593.28 51.51 594.50 51.51L594.50 51.51Q595.72 51.51 596.59 51.98Q597.46 52.44 598.03 53.31Q598.60 54.19 598.87 55.47Q599.14 56.75 599.14 58.37L599.14 58.37Q599.14 61.35 598.20 63.13Q597.27 64.91 595.26 65.17L595.26 65.17L595.26 66.82L598.13 66.82ZM594.50 63.84L594.50 63.84Q595.30 63.84 595.85 63.53Q596.40 63.21 596.76 62.64Q597.12 62.07 597.28 61.27Q597.44 60.46 597.44 59.45L597.44 59.45L597.44 57.29Q597.44 56.30 597.28 55.48Q597.12 54.66 596.76 54.09Q596.40 53.52 595.85 53.21Q595.30 52.90 594.50 52.90L594.50 52.90Q593.70 52.90 593.15 53.21Q592.60 53.52 592.24 54.09Q591.88 54.66 591.72 55.48Q591.55 56.30 591.55 57.29L591.55 57.29L591.55 59.45Q591.55 60.46 591.72 61.27Q591.88 62.07 592.24 62.64Q592.60 63.21 593.15 63.53Q593.70 63.84 594.50 63.84ZM610.36 65L602.48 65L602.48 51.74L604.08 51.74L604.08 63.61L610.36 63.61L610.36 65Z" fill="#0E5F5A"/><rect x="637" y="44" width="60" height="32" rx="7" fill="#E8F4F2" stroke="#B9DEDA" stroke-width="1"/><path d="M658.44 65L658.44 63.23L658.34 63.23Q658.17 63.61 657.94 63.97Q657.71 64.33 657.36 64.61Q657.01 64.89 656.52 65.06Q656.02 65.23 655.34 65.23L655.34 65.23Q653.17 65.23 652.12 63.48Q651.06 61.73 651.06 58.46L651.06 58.46Q651.06 55.04 652.22 53.28Q653.38 51.51 655.79 51.51L655.79 51.51Q656.73 51.51 657.41 51.76Q658.09 52.00 658.58 52.42Q659.06 52.84 659.39 53.36Q659.71 53.88 659.92 54.42L659.92 54.42L658.55 55.04Q658.38 54.61 658.16 54.22Q657.94 53.83 657.63 53.53Q657.32 53.24 656.88 53.07Q656.44 52.90 655.85 52.90L655.85 52.90Q654.26 52.90 653.51 54.09Q652.75 55.29 652.75 57.29L652.75 57.29L652.75 59.34Q652.75 60.34 652.91 61.17Q653.06 62.00 653.41 62.61Q653.76 63.21 654.32 63.55Q654.88 63.88 655.70 63.88L655.70 63.88Q656.99 63.88 657.71 63.10Q658.44 62.32 658.44 61.09L658.44 61.09L658.44 59.72L655.64 59.72L655.64 58.45L659.92 58.45L659.92 65L658.44 65ZM667.71 53.03L667.71 53.03Q667.04 53.03 666.78 52.75Q666.51 52.48 666.51 52.06L666.51 52.06L666.51 51.76Q666.51 51.34 666.78 51.06Q667.04 50.79 667.71 50.79L667.71 50.79Q668.37 50.79 668.64 51.06Q668.90 51.34 668.90 51.76L668.90 51.76L668.90 52.06Q668.90 52.48 668.64 52.75Q668.37 53.03 667.71 53.03ZM663.41 65L663.41 63.71L666.95 63.71L666.95 56.49L663.41 56.49L663.41 55.20L668.47 55.20L668.47 63.71L671.77 63.71L671.77 65L663.41 65ZM682.79 65L678.97 65Q677.85 65 677.33 64.37Q676.81 63.75 676.81 62.76L676.81 62.76L676.81 56.49L673.54 56.49L673.54 55.20L675.97 55.20Q676.47 55.20 676.67 55.00Q676.87 54.80 676.87 54.30L676.87 54.30L676.87 51.74L678.33 51.74L678.33 55.20L682.79 55.20L682.79 56.49L678.33 56.49L678.33 63.71L682.79 63.71L682.79 65Z" fill="#0E5F5A"/></g></svg>