<?xml version="1.0" encoding="UTF-8"?>
<svg xmlns="http://www.w3.org/2000/svg" viewBox="0 0 1200 54" width="1200" height="54"><rect x="12" y="31" width="2" height="16" fill="#A86F22"/><g transform="translate(23.29,13.80)" fill="#6B6055"><path d="m 3.3723077,23.427692 q 0.6153846,0 1.0420513,0.246154 0.4348718,0.246154 0.771282,0.574359 0.3364103,0.32 0.6482052,0.574359 0.3117948,0.246154 0.6892307,0.246154 0.508718,0 0.9025641,-0.402051 0.4020513,-0.402052 0.7220513,-0.992821 l 0.9846154,0.508718 q -0.2379487,0.467692 -0.5825641,0.951795 -0.3446154,0.475897 -0.8533333,0.804103 -0.5005129,0.32 -1.2225641,0.32 -0.574359,0 -1.0010257,-0.246154 Q 5.054359,25.766154 4.7097436,25.446154 4.3651282,25.117949 4.0369231,24.871795 3.7087179,24.617436 3.3230769,24.617436 q -0.5333333,0 -0.9189743,0.402051 -0.3856411,0.393846 -0.7056411,0.984616 L 0.71384615,25.52 Q 0.96,25.035897 1.2964103,24.551795 q 0.3446153,-0.484103 0.8451282,-0.804103 0.5005128,-0.32 1.2307692,-0.32 z m 18.2974503,8.262564 -1.115898,-0.492307 7.02359,-14.482052 1.099487,0.541539 z m 23.269757,-2.691282 q 0.648205,0 1.206154,-0.205128 0.566154,-0.213333 1.042051,-0.549743 l 0.672821,0.902564 q -0.566154,0.484102 -1.362051,0.763077 -0.795898,0.278974 -1.558975,0.278974 -1.288205,0 -2.198974,-0.549744 -0.902564,-0.557948 -1.378462,-1.558974 -0.475897,-1.009231 -0.475897,-2.363077 0,-1.29641 0.475897,-2.322051 0.475898,-1.025641 1.386667,-1.61641 0.910769,-0.598975 2.20718,-0.598975 1.64923,0 2.888205,1.001026 l -0.672821,0.918974 q -1.124102,-0.771282 -2.231795,-0.771282 -1.115897,0 -1.837948,0.845128 -0.722052,0.836923 -0.722052,2.54359 0,1.731282 0.722052,2.510769 0.722051,0.771282 1.837948,0.771282 z m 9.230777,-7.819487 q 1.829743,0 2.765128,1.222564 0.935384,1.222564 0.935384,3.273846 0,1.321026 -0.426666,2.338462 -0.426667,1.017436 -1.255385,1.6 -0.828718,0.574359 -2.034872,0.574359 -1.829743,0 -2.773333,-1.230769 -0.94359,-1.23077 -0.94359,-3.265641 0,-1.329231 0.426667,-2.346667 0.426667,-1.025641 1.255385,-1.591795 0.836923,-0.574359 2.051282,-0.574359 z m 0,1.124103 q -1.115898,0 -1.690257,0.828718 -0.566154,0.828718 -0.566154,2.56 0,1.714871 0.557949,2.543589 0.566154,0.820513 1.682051,0.820513 1.115898,0 1.673847,-0.828718 0.566153,-0.828718 0.566153,-2.551795 0,-1.723076 -0.557948,-2.543589 Q 55.277984,22.30359 54.170292,22.30359 Z M 60.808247,30 v -1.058462 h 1.345641 V 22.418462 H 60.808247 V 21.36 h 2.395898 l 0.254359,2.043077 q 0.500513,-1.066667 1.214359,-1.649231 0.713846,-0.582564 1.887179,-0.582564 0.361026,0 0.64,0.05744 0.28718,0.04923 0.582564,0.131282 l -0.196923,2.921026 h -1.132307 v -1.837949 q -0.03282,0 -0.07385,0 -1.985641,0 -2.847179,2.838974 v 3.659487 h 1.755897 V 30 Z m 10.847187,-3.831795 q 0.05744,1.501539 0.787692,2.190769 0.738462,0.681026 1.739487,0.681026 0.664616,0 1.197949,-0.196923 0.533333,-0.196923 1.107692,-0.582564 l 0.648206,0.910769 q -0.598975,0.475897 -1.378462,0.746667 -0.779487,0.270769 -1.591795,0.270769 -1.26359,0 -2.149743,-0.566154 -0.877949,-0.566154 -1.345641,-1.575385 -0.459488,-1.017435 -0.459488,-2.354871 0,-1.312821 0.459488,-2.330257 0.467692,-1.017436 1.31282,-1.6 0.853333,-0.582564 2.002051,-0.582564 1.632821,0 2.568205,1.132308 0.94359,1.132308 0.94359,3.101538 0,0.221539 -0.01641,0.418462 -0.0082,0.196923 -0.01641,0.33641 z m 2.346667,-3.85641 q -0.96,0 -1.608206,0.681026 -0.648205,0.681025 -0.730256,2.108717 h 4.504615 q -0.02462,-1.386666 -0.607179,-2.084102 -0.582564,-0.705641 -1.558974,-0.705641 z m 19.200014,6.73641 q 1.001025,0 1.575384,-0.369231 0.574359,-0.36923 0.574359,-1.001025 0,-0.385641 -0.147692,-0.672821 -0.139487,-0.287179 -0.582564,-0.516923 -0.443077,-0.237949 -1.362051,-0.467692 -0.894359,-0.221539 -1.558975,-0.508718 -0.65641,-0.295385 -1.025641,-0.763077 -0.361025,-0.467692 -0.361025,-1.214359 0,-1.091282 0.910769,-1.723077 0.910769,-0.631795 2.371282,-0.631795 1.042051,0 1.813333,0.278975 0.779487,0.278974 1.321026,0.67282 l -0.60718,0.935385 q -0.484102,-0.336411 -1.083077,-0.549744 -0.590769,-0.221538 -1.427692,-0.221538 -1.017436,0 -1.444102,0.32 -0.426667,0.311794 -0.426667,0.812307 0,0.385641 0.205128,0.64 0.213333,0.246154 0.713846,0.443077 0.500513,0.196923 1.378462,0.434872 0.845128,0.229744 1.476923,0.541538 0.631795,0.311795 0.97641,0.820513 0.352821,0.500513 0.352821,1.304616 0,0.918974 -0.525129,1.493333 -0.525128,0.566154 -1.362051,0.828718 -0.828718,0.254359 -1.755897,0.254359 -1.173334,0 -2.002052,-0.33641 -0.820512,-0.344616 -1.378461,-0.828718 l 0.787692,-0.910769 q 0.508718,0.418461 1.165128,0.681025 0.664616,0.254359 1.427693,0.254359 z m 13.768215,0.516923 q -0.44308,0.295385 -1.07487,0.459487 -0.6318,0.164103 -1.23898,0.164103 -1.39487,0 -2.14974,-0.730256 -0.75487,-0.730257 -0.75487,-1.878975 v -5.15282 H 99.766224 V 21.36 h 1.985646 v -1.961026 l 1.37846,-0.164102 V 21.36 h 2.98666 l -0.1641,1.066667 h -2.82256 v 5.13641 q 0,0.722051 0.37743,1.099487 0.38564,0.377436 1.2718,0.377436 0.4841,0 0.89436,-0.114872 0.41025,-0.114872 0.76307,-0.295384 z m 9.17334,-1.452307 q 0,0.525128 0.1723,0.763076 0.17231,0.237949 0.53334,0.344616 l -0.33641,0.968205 q -0.55795,-0.07385 -0.97641,-0.352821 -0.41846,-0.287179 -0.60718,-0.861538 -0.46769,0.598974 -1.17334,0.910769 -0.69743,0.30359 -1.53435,0.30359 -1.29641,0 -2.04308,-0.730256 -0.74667,-0.730257 -0.74667,-1.936411 0,-1.337436 1.04205,-2.051282 1.04205,-0.713846 3.01129,-0.713846 h 1.27179 v -0.722051 q 0,-0.935385 -0.54974,-1.321026 Q 113.66572,22.32 112.69751,22.32 q -0.42666,0 -1.00102,0.106667 -0.57436,0.09846 -1.24718,0.33641 l -0.36103,-1.042051 q 0.78769,-0.295385 1.48513,-0.418462 0.70564,-0.123077 1.33744,-0.123077 1.6082,0 2.42051,0.754872 0.81231,0.754872 0.81231,2.034872 z m -3.56923,1.025641 q 0.64,0 1.21436,-0.32 0.58256,-0.328206 0.9682,-0.902565 v -2.223589 h -1.24718 q -1.42769,0 -2.01846,0.492307 -0.58256,0.492308 -0.58256,1.321026 0,1.632821 1.66564,1.632821 z m 11.13436,-0.139488 q 0.64821,0 1.20616,-0.205128 0.56615,-0.213333 1.04205,-0.549743 l 0.67282,0.902564 q -0.56616,0.484102 -1.36205,0.763077 -0.7959,0.278974 -1.55898,0.278974 -1.2882,0 -2.19897,-0.549744 -0.90257,-0.557948 -1.37846,-1.558974 -0.4759,-1.009231 -0.4759,-2.363077 0,-1.29641 0.4759,-2.322051 0.47589,-1.025641 1.38666,-1.61641 0.91077,-0.598975 2.20718,-0.598975 1.64923,0 2.88821,1.001026 l -0.67282,0.918974 q -1.12411,-0.771282 -2.2318,-0.771282 -1.11589,0 -1.83795,0.845128 -0.72205,0.836923 -0.72205,2.54359 0,1.731282 0.72205,2.510769 0.72206,0.771282 1.83795,0.771282 z m 7.40924,-11.290256 V 30 h -1.37846 V 17.881026 Z M 136.88625,21.36 132.99701,25.249231 137.33753,30 h -1.81334 L 131.27394,25.282051 135.09753,21.36 Z" style="font-size:16px;font-family:'Fira Code'" aria-label="~ / core stack" /></g></svg>
