<?xml version="1.0" encoding="UTF-8"?>
<svg xmlns="http://www.w3.org/2000/svg" viewBox="0 0 1200 54" width="1200" height="54"><rect x="12" y="31" width="2" height="16" fill="#B07A2E"/><g transform="translate(23.29,13.80)" fill="#9C9082"><path d="m 3.3723077,23.427692 q 0.6153846,0 1.0420513,0.246154 0.4348718,0.246154 0.771282,0.574359 0.3364103,0.32 0.6482052,0.574359 0.3117948,0.246154 0.6892307,0.246154 0.508718,0 0.9025641,-0.402051 0.4020513,-0.402052 0.7220513,-0.992821 l 0.9846154,0.508718 q -0.2379487,0.467692 -0.5825641,0.951795 -0.3446154,0.475897 -0.8533333,0.804103 -0.5005129,0.32 -1.2225641,0.32 -0.574359,0 -1.0010257,-0.246154 Q 5.054359,25.766154 4.7097436,25.446154 4.3651282,25.117949 4.0369231,24.871795 3.7087179,24.617436 3.3230769,24.617436 q -0.5333333,0 -0.9189743,0.402051 -0.3856411,0.393846 -0.7056411,0.984616 L 0.71384615,25.52 Q 0.96,25.035897 1.2964103,24.551795 q 0.3446153,-0.484103 0.8451282,-0.804103 0.5005128,-0.32 1.2307692,-0.32 z m 18.2974503,8.262564 -1.115898,-0.492307 7.02359,-14.482052 1.099487,0.541539 z m 25.550783,-3.577435 q 0,0.525128 0.172308,0.763076 0.172307,0.237949 0.533333,0.344616 l -0.33641,0.968205 q -0.557949,-0.07385 -0.97641,-0.352821 -0.418462,-0.287179 -0.60718,-0.861538 -0.467692,0.598974 -1.173333,0.910769 -0.697436,0.30359 -1.534359,0.30359 -1.296411,0 -2.043077,-0.730256 -0.746667,-0.730257 -0.746667,-1.936411 0,-1.337436 1.042051,-2.051282 1.042052,-0.713846 3.011282,-0.713846 h 1.271795 v -0.722051 q 0,-0.935385 -0.549743,-1.321026 Q 44.742592,22.32 43.774387,22.32 q -0.426667,0 -1.001025,0.106667 -0.574359,0.09846 -1.24718,0.33641 l -0.361026,-1.042051 q 0.787693,-0.295385 1.485129,-0.418462 0.705641,-0.123077 1.337435,-0.123077 1.608206,0 2.420513,0.754872 0.812308,0.754872 0.812308,2.034872 z m -3.569231,1.025641 q 0.64,0 1.214359,-0.32 0.582564,-0.328206 0.968205,-0.902565 v -2.223589 h -1.247179 q -1.427692,0 -2.018462,0.492307 -0.582564,0.492308 -0.582564,1.321026 0,1.632821 1.665641,1.632821 z M 50.962086,30 v -1.058462 h 1.345642 V 22.418462 H 50.962086 V 21.36 h 2.395898 l 0.254359,2.043077 q 0.500513,-1.066667 1.214359,-1.649231 0.713846,-0.582564 1.887179,-0.582564 0.361026,0 0.64,0.05744 0.28718,0.04923 0.582564,0.131282 l -0.196923,2.921026 h -1.132307 v -1.837949 q -0.03282,0 -0.07385,0 -1.985641,0 -2.84718,2.838974 v 3.659487 h 1.755897 V 30 Z m 13.669751,-1.001026 q 0.648205,0 1.206154,-0.205128 0.566154,-0.213333 1.042051,-0.549743 l 0.672821,0.902564 q -0.566154,0.484102 -1.362052,0.763077 -0.795897,0.278974 -1.558974,0.278974 -1.288205,0 -2.198974,-0.549744 -0.902564,-0.557948 -1.378462,-1.558974 -0.475897,-1.009231 -0.475897,-2.363077 0,-1.29641 0.475897,-2.322051 0.475898,-1.025641 1.386667,-1.61641 0.910769,-0.598975 2.207179,-0.598975 1.649231,0 2.888206,1.001026 l -0.672821,0.918974 q -1.124103,-0.771282 -2.231795,-0.771282 -1.115897,0 -1.837949,0.845128 -0.722051,0.836923 -0.722051,2.54359 0,1.731282 0.722051,2.510769 0.722052,0.771282 1.837949,0.771282 z m 7.318982,-11.24923 v 4.791794 q 0.508717,-0.67282 1.247179,-1.017435 0.746667,-0.344616 1.509744,-0.344616 1.263589,0 1.846153,0.672821 0.582565,0.67282 0.582565,1.870769 V 30 h -1.378462 v -6.244103 q 0,-0.779487 -0.361026,-1.132307 -0.361025,-0.361026 -1.132307,-0.361026 -0.492308,0 -0.935385,0.221539 -0.443077,0.221538 -0.795897,0.549743 -0.352821,0.328205 -0.582564,0.672821 V 30 H 70.572357 V 17.897436 Z m 11.741545,-0.434872 q 0.459487,0 0.730256,0.278974 0.278975,0.278975 0.278975,0.681026 0,0.418461 -0.278975,0.705641 -0.270769,0.278974 -0.730256,0.278974 -0.434872,0 -0.713846,-0.278974 -0.278974,-0.28718 -0.278974,-0.705641 0,-0.402051 0.278974,-0.681026 0.278974,-0.278974 0.713846,-0.278974 z M 84.791851,21.36 v 7.548718 h 2.436923 V 30 H 80.746723 V 28.908718 H 83.41339 V 22.451282 H 80.828774 V 21.36 Z m 12.67693,0 -3.142564,8.64 h -1.6 l -3.117948,-8.64 h 1.460512 L 93.571345,28.744615 96.041089,21.36 Z m 3.725139,4.808205 q 0.0574,1.501539 0.78769,2.190769 0.73846,0.681026 1.73949,0.681026 0.66461,0 1.19794,-0.196923 0.53334,-0.196923 1.1077,-0.582564 l 0.6482,0.910769 q -0.59897,0.475897 -1.37846,0.746667 -0.77949,0.270769 -1.59179,0.270769 -1.26359,0 -2.14975,-0.566154 -0.87795,-0.566154 -1.34564,-1.575385 -0.459486,-1.017435 -0.459486,-2.354871 0,-1.312821 0.459486,-2.330257 0.46769,-1.017436 1.31282,-1.6 0.85334,-0.582564 2.00205,-0.582564 1.63282,0 2.56821,1.132308 0.94359,1.132308 0.94359,3.101538 0,0.221539 -0.0164,0.418462 -0.008,0.196923 -0.0164,0.33641 z m 2.34666,-3.85641 q -0.96,0 -1.6082,0.681026 -0.64821,0.681025 -0.73026,2.108717 h 4.50462 q -0.0246,-1.386666 -0.60718,-2.084102 -0.58257,-0.705641 -1.55898,-0.705641 z m 19.19181,-3.774359 q 0.73026,0 1.39487,0.237949 0.66462,0.237948 1.34565,0.97641 l -0.82872,0.754872 q -0.41846,-0.475898 -0.86975,-0.705641 -0.44307,-0.229744 -1.05846,-0.229744 -0.86974,0 -1.30461,0.467692 -0.42667,0.467693 -0.42667,1.189744 0,0.500513 0.26256,0.935385 0.27077,0.426666 0.73026,0.68923 0.45949,0.262564 1.02564,0.262564 h 4.56205 v 1.083077 h -1.46872 v 4.46359 q -0.24615,0.32 -0.68102,0.672821 -0.43487,0.35282 -1.10769,0.607179 -0.66462,0.246154 -1.61641,0.246154 -1.28,0 -2.09231,-0.492308 -0.8041,-0.492307 -1.18974,-1.263589 -0.37744,-0.779488 -0.37744,-1.624616 0,-1.271795 0.66461,-2.084102 0.66462,-0.812308 1.9118,-1.066667 v -0.04923 q -1.1159,-0.262564 -1.55077,-0.935384 Q 119.63085,22 119.63085,21.236923 q 0,-0.730256 0.37744,-1.337436 0.37744,-0.615384 1.06667,-0.984615 0.69743,-0.377436 1.65743,-0.377436 z m 2.10872,5.661538 h -2.03487 q -0.85333,0 -1.38667,0.402052 -0.53333,0.393846 -0.78769,0.984615 -0.24615,0.590769 -0.24615,1.173333 0,0.59077 0.23794,1.124103 0.24616,0.533333 0.75488,0.861538 0.51692,0.328206 1.34564,0.328206 1.41948,0 2.11692,-0.869744 z m 19.75796,-6.490256 q 0.69744,0 1.26359,0.123077 0.56616,0.123077 1.07487,0.344615 l -0.44307,1.025641 q -0.41846,-0.180513 -0.89436,-0.270769 -0.46769,-0.09026 -0.96,-0.09026 -1.81333,0 -1.81333,1.435897 v 1.755898 h 2.92923 l -0.1477,1.083076 h -2.78153 V 30 h -1.37847 v -6.884103 h -2.05948 v -1.083076 h 2.05948 v -1.723077 q 0,-0.804103 0.41026,-1.386667 0.41846,-0.582564 1.13231,-0.894359 0.71384,-0.32 1.6082,-0.32 z m 8.03283,3.470769 q 1.82974,0 2.76513,1.222564 0.93538,1.222564 0.93538,3.273846 0,1.321026 -0.42666,2.338462 -0.42667,1.017436 -1.25539,1.6 -0.82872,0.574359 -2.03487,0.574359 -1.82974,0 -2.77333,-1.230769 -0.94359,-1.23077 -0.94359,-3.265641 0,-1.329231 0.42666,-2.346667 0.42667,-1.025641 1.25539,-1.591795 0.83692,-0.574359 2.05128,-0.574359 z m 0,1.124103 q -1.1159,0 -1.69026,0.828718 -0.56615,0.828718 -0.56615,2.56 0,1.714871 0.55795,2.543589 0.56615,0.820513 1.68205,0.820513 1.1159,0 1.67385,-0.828718 0.56615,-0.828718 0.56615,-2.551795 0,-1.723076 -0.55795,-2.543589 -0.55795,-0.828718 -1.66564,-0.828718 z M 160.56627,21.36 v 6.121026 q 0,0.853333 0.35282,1.230769 0.35282,0.377436 1.09948,0.377436 0.71385,0 1.34565,-0.402052 0.64,-0.410256 0.99282,-0.968205 V 21.36 h 1.37846 V 30 h -1.17334 l -0.11487,-1.165128 q -0.50872,0.65641 -1.26359,1.009231 -0.74666,0.344615 -1.50154,0.344615 -1.25538,0 -1.87897,-0.664615 -0.61539,-0.672821 -0.61539,-1.878975 V 21.36 Z m 8.4677,8.64 v -8.64 h 1.17333 l 0.10667,1.197949 q 0.52512,-0.664616 1.31282,-1.017436 0.78769,-0.361026 1.54256,-0.361026 1.2718,0 1.84615,0.672821 0.58257,0.67282 0.58257,1.870769 V 30 h -1.37846 v -5.259487 q 0,-0.886154 -0.0985,-1.427692 -0.0985,-0.541539 -0.41847,-0.795898 -0.31179,-0.254359 -0.96,-0.254359 -0.50871,0 -0.96,0.221539 -0.44307,0.221538 -0.79589,0.557948 -0.34462,0.328205 -0.57436,0.664616 V 30 Z m 15.01539,-12.291282 1.37846,0.172308 V 30 h -1.20615 l -0.13129,-1.140513 q -0.4841,0.689231 -1.11589,1.009231 -0.62359,0.32 -1.33744,0.32 -1.1241,0 -1.85436,-0.566154 -0.73026,-0.566154 -1.08308,-1.575385 -0.35282,-1.017435 -0.35282,-2.354871 0,-1.296411 0.40205,-2.313846 0.40206,-1.025641 1.15693,-1.608206 0.76307,-0.590769 1.82974,-0.590769 1.4359,0 2.31385,1.017436 z m -1.95282,4.578461 q -1.08308,0 -1.66564,0.845129 -0.58257,0.845128 -0.58257,2.56 0,3.380513 2.0759,3.380513 0.73026,0 1.25538,-0.410257 0.52513,-0.418461 0.86975,-0.951795 v -4.315897 q -0.35282,-0.525128 -0.85334,-0.812308 -0.50051,-0.295385 -1.09948,-0.295385 z m 12.81641,5.825642 q 0,0.525128 0.17231,0.763076 0.17231,0.237949 0.53334,0.344616 l -0.33641,0.968205 q -0.55795,-0.07385 -0.97642,-0.352821 -0.41846,-0.287179 -0.60717,-0.861538 -0.4677,0.598974 -1.17334,0.910769 -0.69743,0.30359 -1.53436,0.30359 -1.29641,0 -2.04307,-0.730256 -0.74667,-0.730257 -0.74667,-1.936411 0,-1.337436 1.04205,-2.051282 1.04205,-0.713846 3.01128,-0.713846 h 1.2718 v -0.722051 q 0,-0.935385 -0.54975,-1.321026 Q 192.43501,22.32 191.4668,22.32 q -0.42667,0 -1.00103,0.106667 -0.57435,0.09846 -1.24717,0.33641 l -0.36103,-1.042051 q 0.78769,-0.295385 1.48513,-0.418462 0.70564,-0.123077 1.33743,-0.123077 1.60821,0 2.42052,0.754872 0.8123,0.754872 0.8123,2.034872 z m -3.56923,1.025641 q 0.64,0 1.21436,-0.32 0.58257,-0.328206 0.96821,-0.902565 v -2.223589 h -1.24718 q -1.42769,0 -2.01846,0.492307 -0.58257,0.492308 -0.58257,1.321026 0,1.632821 1.66564,1.632821 z m 14.08822,0.426666 q -0.44308,0.295385 -1.07488,0.459487 -0.63179,0.164103 -1.23897,0.164103 -1.39487,0 -2.14974,-0.730256 -0.75488,-0.730257 -0.75488,-1.878975 v -5.15282 h -1.98564 V 21.36 h 1.98564 v -1.961026 l 1.37847,-0.164102 V 21.36 h 2.98666 l -0.1641,1.066667 h -2.82256 v 5.13641 q 0,0.722051 0.37743,1.099487 0.38564,0.377436 1.2718,0.377436 0.4841,0 0.89436,-0.114872 0.41025,-0.114872 0.76307,-0.295384 z m 6.26052,-12.250256 q 0.45948,0 0.73025,0.278974 0.27898,0.278975 0.27898,0.681026 0,0.418461 -0.27898,0.705641 -0.27077,0.278974 -0.73025,0.278974 -0.43488,0 -0.71385,-0.278974 -0.27897,-0.28718 -0.27897,-0.705641 0,-0.402051 0.27897,-0.681026 0.27897,-0.278974 0.71385,-0.278974 z M 212.79194,21.36 v 7.548718 h 2.43693 V 30 h -6.48206 v -1.091282 h 2.66667 v -6.457436 h -2.58461 V 21.36 Z m 8.76309,-0.180513 q 1.82974,0 2.76512,1.222564 0.93539,1.222564 0.93539,3.273846 0,1.321026 -0.42667,2.338462 -0.42666,1.017436 -1.25538,1.6 -0.82872,0.574359 -2.03487,0.574359 -1.82975,0 -2.77334,-1.230769 -0.94359,-1.23077 -0.94359,-3.265641 0,-1.329231 0.42667,-2.346667 0.42667,-1.025641 1.25538,-1.591795 0.83693,-0.574359 2.05129,-0.574359 z m 0,1.124103 q -1.1159,0 -1.69026,0.828718 -0.56615,0.828718 -0.56615,2.56 0,1.714871 0.55795,2.543589 0.56615,0.820513 1.68205,0.820513 1.11589,0 1.67384,-0.828718 0.56616,-0.828718 0.56616,-2.551795 0,-1.723076 -0.55795,-2.543589 -0.55795,-0.828718 -1.66564,-0.828718 z M 228.11093,30 v -8.64 h 1.17333 l 0.10667,1.197949 q 0.52513,-0.664616 1.31282,-1.017436 0.78769,-0.361026 1.54257,-0.361026 1.27179,0 1.84615,0.672821 0.58256,0.67282 0.58256,1.870769 V 30 h -1.37846 v -5.259487 q 0,-0.886154 -0.0985,-1.427692 -0.0985,-0.541539 -0.41846,-0.795898 -0.3118,-0.254359 -0.96,-0.254359 -0.50872,0 -0.96,0.221539 -0.44308,0.221538 -0.7959,0.557948 -0.34461,0.328205 -0.57436,0.664616 V 30 Z m 12.7836,-0.951795 q 1.00102,0 1.57538,-0.369231 0.57436,-0.36923 0.57436,-1.001025 0,-0.385641 -0.14769,-0.672821 -0.13949,-0.287179 -0.58256,-0.516923 -0.44308,-0.237949 -1.36206,-0.467692 -0.89436,-0.221539 -1.55897,-0.508718 -0.65641,-0.295385 -1.02564,-0.763077 -0.36103,-0.467692 -0.36103,-1.214359 0,-1.091282 0.91077,-1.723077 0.91077,-0.631795 2.37128,-0.631795 1.04206,0 1.81334,0.278975 0.77948,0.278974 1.32102,0.67282 l -0.60718,0.935385 q -0.4841,-0.336411 -1.08307,-0.549744 -0.59077,-0.221538 -1.4277,-0.221538 -1.01743,0 -1.4441,0.32 -0.42666,0.311794 -0.42666,0.812307 0,0.385641 0.20512,0.64 0.21334,0.246154 0.71385,0.443077 0.50051,0.196923 1.37846,0.434872 0.84513,0.229744 1.47692,0.541538 0.6318,0.311795 0.97641,0.820513 0.35282,0.500513 0.35282,1.304616 0,0.918974 -0.52512,1.493333 -0.52513,0.566154 -1.36205,0.828718 -0.82872,0.254359 -1.7559,0.254359 -1.17334,0 -2.00205,-0.33641 -0.82052,-0.344616 -1.37846,-0.828718 l 0.78769,-0.910769 q 0.50872,0.418461 1.16513,0.681025 0.66461,0.254359 1.42769,0.254359 z" style="font-size:16px;font-family:'Fira Code'" aria-label="~ / archive &amp; foundations" /></g></svg>
